<svg id="Layer_1" data-name="Layer 1" xmlns="http://www.w3.org/2000/svg" viewBox="0 0 274.35 204.16"><defs><style>.cls-1{fill:#fff;}</style></defs><path class="cls-1" d="M83.35,39.14v-8.4h3.53a3.28,3.28,0,0,1,1.37.27,2.06,2.06,0,0,1,.92.77A2.16,2.16,0,0,1,89.5,33v.13a2,2,0,0,1-.37,1.27,2,2,0,0,1-.92.66v.2a1,1,0,0,1,.73.3,1.14,1.14,0,0,1,.28.81v2.79H87.91V36.53a.75.75,0,0,0-.17-.51.67.67,0,0,0-.54-.2H84.64v3.32Zm1.29-4.49h2.09a1.5,1.5,0,0,0,1.08-.36,1.21,1.21,0,0,0,.39-1v-.1a1.24,1.24,0,0,0-.38-1,1.52,1.52,0,0,0-1.09-.36H84.64Z"/><path class="cls-1" d="M93.74,39.3a3.38,3.38,0,0,1-1.58-.36,2.73,2.73,0,0,1-1.08-1,3.14,3.14,0,0,1-.4-1.62v-.18a3.12,3.12,0,0,1,.4-1.62,2.73,2.73,0,0,1,1.08-1,3.56,3.56,0,0,1,3.16,0,2.78,2.78,0,0,1,1.1,1,3.21,3.21,0,0,1,.39,1.62v.18a3.24,3.24,0,0,1-.39,1.62,2.78,2.78,0,0,1-1.1,1A3.38,3.38,0,0,1,93.74,39.3Zm0-1.1a1.78,1.78,0,0,0,1.33-.52,2,2,0,0,0,.51-1.45v-.11a2,2,0,0,0-.51-1.44,1.94,1.94,0,0,0-2.64,0,2,2,0,0,0-.51,1.44v.11a2,2,0,0,0,.51,1.45A1.73,1.73,0,0,0,93.74,38.2Z"/><path class="cls-1" d="M100.35,39.14a1.15,1.15,0,0,1-.86-.33,1.16,1.16,0,0,1-.31-.86V34.26H97.54v-1h1.64v-2h1.23v2h1.77v1h-1.77v3.47c0,.24.11.36.34.36H102v1Z"/><path class="cls-1" d="M105.45,39.3a2.88,2.88,0,0,1-1.13-.21,1.86,1.86,0,0,1-.79-.64,1.71,1.71,0,0,1-.3-1,1.64,1.64,0,0,1,.3-1,1.77,1.77,0,0,1,.8-.61,3.24,3.24,0,0,1,1.16-.2h1.8v-.39a1.12,1.12,0,0,0-.31-.82,1.31,1.31,0,0,0-1-.32,1.29,1.29,0,0,0-1.42,1.08l-1.15-.37a2.43,2.43,0,0,1,.46-.87,2.23,2.23,0,0,1,.85-.63,3,3,0,0,1,1.27-.24,2.63,2.63,0,0,1,1.81.59,2.12,2.12,0,0,1,.66,1.67v2.43c0,.24.11.36.34.36h.5v1h-.92a1.08,1.08,0,0,1-.69-.22.73.73,0,0,1-.26-.59v0h-.18a3.23,3.23,0,0,1-.29.42,1.66,1.66,0,0,1-.56.41A2.32,2.32,0,0,1,105.45,39.3Zm.18-1a1.69,1.69,0,0,0,1.2-.42,1.52,1.52,0,0,0,.46-1.17v-.12h-1.73a1.34,1.34,0,0,0-.79.21.7.7,0,0,0-.3.62.76.76,0,0,0,.31.64A1.36,1.36,0,0,0,105.63,38.28Z"/><path class="cls-1" d="M112.35,39.14a1.15,1.15,0,0,1-.86-.33,1.16,1.16,0,0,1-.31-.86V34.26h-1.64v-1h1.64v-2h1.23v2h1.77v1h-1.77v3.47c0,.24.11.36.34.36H114v1Z"/><path class="cls-1" d="M118.12,39.3a3.17,3.17,0,0,1-1.57-.37,2.7,2.7,0,0,1-1-1.07,3.32,3.32,0,0,1-.38-1.6v-.15a3.33,3.33,0,0,1,.38-1.61,2.59,2.59,0,0,1,1-1.07,3.12,3.12,0,0,1,1.55-.38,2.92,2.92,0,0,1,1.49.38,2.6,2.6,0,0,1,1,1,3.28,3.28,0,0,1,.36,1.57v.47h-4.55a1.68,1.68,0,0,0,.53,1.24,1.73,1.73,0,0,0,1.24.46,1.55,1.55,0,0,0,1-.31,2.2,2.2,0,0,0,.54-.72l1,.53a3.7,3.7,0,0,1-.48.71,2.49,2.49,0,0,1-.84.62A3,3,0,0,1,118.12,39.3Zm-1.72-3.73h3.27a1.45,1.45,0,0,0-.48-1,1.66,1.66,0,0,0-1.13-.38,1.68,1.68,0,0,0-1.13.38A1.61,1.61,0,0,0,116.4,35.57Z"/><path class="cls-1" d="M127.7,39.14a1.14,1.14,0,0,1-.86-.33,1.17,1.17,0,0,1-.32-.86V34.26h-1.63v-1h1.63v-2h1.24v2h1.76v1h-1.76v3.47c0,.24.11.36.34.36h1.23v1Z"/><path class="cls-1" d="M131,39.14v-8.4h1.23v3.32h.19a1.73,1.73,0,0,1,.35-.44,1.51,1.51,0,0,1,.58-.36,2.76,2.76,0,0,1,.93-.14,2.38,2.38,0,0,1,1.2.3,2.16,2.16,0,0,1,.82.85,2.67,2.67,0,0,1,.3,1.31v3.56h-1.24V35.68a1.32,1.32,0,0,0-1.44-1.5,1.61,1.61,0,0,0-1.23.5,2.16,2.16,0,0,0-.46,1.47v3Z"/><path class="cls-1" d="M141.07,39.3a3.14,3.14,0,0,1-1.57-.37,2.7,2.7,0,0,1-1.05-1.07,3.21,3.21,0,0,1-.38-1.6v-.15a3.33,3.33,0,0,1,.37-1.61,2.62,2.62,0,0,1,1-1.07,3.06,3.06,0,0,1,1.54-.38,2.87,2.87,0,0,1,1.49.38,2.62,2.62,0,0,1,1,1,3.28,3.28,0,0,1,.36,1.57v.47h-4.55a1.67,1.67,0,0,0,.52,1.24,1.73,1.73,0,0,0,1.24.46,1.51,1.51,0,0,0,1-.31,2.23,2.23,0,0,0,.55-.72l1,.53a3.79,3.79,0,0,1-.49.71,2.54,2.54,0,0,1-.83.62A3,3,0,0,1,141.07,39.3Zm-1.73-3.73h3.28a1.53,1.53,0,0,0-.48-1,1.68,1.68,0,0,0-1.13-.38,1.7,1.7,0,0,0-1.14.38A1.61,1.61,0,0,0,139.34,35.57Z"/><path class="cls-1" d="M148.42,41.54V33.22h1.21v.85h.2a2.21,2.21,0,0,1,.69-.71,2.4,2.4,0,0,1,1.32-.31,2.61,2.61,0,0,1,2.36,1.4,3.34,3.34,0,0,1,.38,1.64v.18a3.37,3.37,0,0,1-.37,1.64,2.61,2.61,0,0,1-1,1,2.67,2.67,0,0,1-1.37.36,2.76,2.76,0,0,1-1-.14,2,2,0,0,1-.64-.37,2,2,0,0,1-.38-.46h-.19v3.21Zm3.06-3.32a1.79,1.79,0,0,0,1.33-.51,2,2,0,0,0,.52-1.48v-.11a2,2,0,0,0-.52-1.46,1.94,1.94,0,0,0-2.64,0,2,2,0,0,0-.52,1.46v.11a2,2,0,0,0,.52,1.48A1.81,1.81,0,0,0,151.48,38.22Z"/><path class="cls-1" d="M158.89,39.3a3.38,3.38,0,0,1-1.58-.36,2.82,2.82,0,0,1-1.09-1,3.24,3.24,0,0,1-.39-1.62v-.18a3.21,3.21,0,0,1,.39-1.62,2.82,2.82,0,0,1,1.09-1,3.56,3.56,0,0,1,3.16,0,2.75,2.75,0,0,1,1.09,1,3.12,3.12,0,0,1,.4,1.62v.18a3.14,3.14,0,0,1-.4,1.62,2.75,2.75,0,0,1-1.09,1A3.38,3.38,0,0,1,158.89,39.3Zm0-1.1a1.76,1.76,0,0,0,1.32-.52,2,2,0,0,0,.51-1.45v-.11a2,2,0,0,0-.5-1.44,1.95,1.95,0,0,0-2.65,0,2,2,0,0,0-.51,1.44v.11a2,2,0,0,0,.51,1.45A1.76,1.76,0,0,0,158.89,38.2Z"/><path class="cls-1" d="M164.12,32.42a.85.85,0,0,1-.61-.24.8.8,0,0,1-.24-.6.82.82,0,0,1,.24-.61.84.84,0,0,1,.61-.23.81.81,0,0,1,.85.84.8.8,0,0,1-.24.6A.82.82,0,0,1,164.12,32.42Zm-.62,6.72V33.22h1.23v5.92Z"/><path class="cls-1" d="M166.57,39.14V33.22h1.21v.89H168a1.7,1.7,0,0,1,.6-.67,2.19,2.19,0,0,1,1.29-.32,2.36,2.36,0,0,1,1.19.3,2.16,2.16,0,0,1,.82.85,2.67,2.67,0,0,1,.3,1.31v3.56h-1.23V35.68a1.47,1.47,0,0,0-.39-1.13,1.43,1.43,0,0,0-1.05-.37,1.58,1.58,0,0,0-1.23.5,2.11,2.11,0,0,0-.47,1.47v3Z"/><path class="cls-1" d="M176,39.14a1.14,1.14,0,0,1-.86-.33,1.17,1.17,0,0,1-.32-.86V34.26h-1.63v-1h1.63v-2h1.24v2h1.76v1h-1.76v3.47c0,.24.11.36.34.36h1.23v1Z"/><path class="cls-1" d="M185.11,39.3a3.35,3.35,0,0,1-1.58-.36,2.82,2.82,0,0,1-1.09-1,3.24,3.24,0,0,1-.39-1.62v-.18a3.21,3.21,0,0,1,.39-1.62,2.82,2.82,0,0,1,1.09-1,3.56,3.56,0,0,1,3.16,0,2.75,2.75,0,0,1,1.09,1,3.12,3.12,0,0,1,.4,1.62v.18a3.14,3.14,0,0,1-.4,1.62,2.75,2.75,0,0,1-1.09,1A3.38,3.38,0,0,1,185.11,39.3Zm0-1.1a1.76,1.76,0,0,0,1.32-.52,2,2,0,0,0,.51-1.45v-.11a2,2,0,0,0-.5-1.44,1.95,1.95,0,0,0-2.65,0,2,2,0,0,0-.51,1.44v.11a2,2,0,0,0,.51,1.45A1.76,1.76,0,0,0,185.11,38.2Z"/><path class="cls-1" d="M190.57,39.14V34.26h-1.66v-1h1.66v-1.3a1.19,1.19,0,0,1,.32-.86,1.15,1.15,0,0,1,.87-.32h1.52v1h-1.13a.32.32,0,0,0-.35.36v1.08h1.71v1H191.8v4.88Z"/><path class="cls-1" d="M199.19,39.14l-2-5.92h1.31l1.57,5h.19l1.58-5h1.3l-2,5.92Z"/><path class="cls-1" d="M205,32.42a.85.85,0,0,1-.61-.24.8.8,0,0,1-.24-.6.82.82,0,0,1,.24-.61.84.84,0,0,1,.61-.23.81.81,0,0,1,.85.84.8.8,0,0,1-.24.6A.82.82,0,0,1,205,32.42Zm-.63,6.72V33.22h1.24v5.92Z"/><path class="cls-1" d="M210.14,39.3a3.14,3.14,0,0,1-1.57-.37,2.7,2.7,0,0,1-1-1.07,3.21,3.21,0,0,1-.38-1.6v-.15a3.33,3.33,0,0,1,.37-1.61,2.62,2.62,0,0,1,1-1.07,3.08,3.08,0,0,1,1.54-.38,2.93,2.93,0,0,1,1.5.38,2.66,2.66,0,0,1,1,1,3.28,3.28,0,0,1,.36,1.57v.47H208.4a1.71,1.71,0,0,0,.52,1.24,1.75,1.75,0,0,0,1.24.46,1.51,1.51,0,0,0,1.05-.31,2.23,2.23,0,0,0,.55-.72l1,.53a3.37,3.37,0,0,1-.49.71,2.54,2.54,0,0,1-.83.62A3,3,0,0,1,210.14,39.3Zm-1.73-3.73h3.28a1.49,1.49,0,0,0-.48-1,1.68,1.68,0,0,0-1.13-.38,1.7,1.7,0,0,0-1.14.38A1.61,1.61,0,0,0,208.41,35.57Z"/><path class="cls-1" d="M215,39.14l-1-5.92h1.24l.74,5.09h.19l1-5.09h2l1,5.09h.19l.75-5.09h1.23l-1,5.92h-2.07l-1-5.08h-.19l-1,5.08Z"/><path class="cls-1" d="M57.58,23.2a10.12,10.12,0,0,0-14.14,0,9.62,9.62,0,0,0-2.88,7.07v9.24a9.84,9.84,0,0,0,9.95,10,9.84,9.84,0,0,0,10-10V30.27A9.62,9.62,0,0,0,57.58,23.2Zm-7.07,2.38a1.32,1.32,0,0,1,1.32,1.32v3a1.32,1.32,0,0,1-2.64,0v-3A1.32,1.32,0,0,1,50.51,25.58Zm-5.93-.42a7.33,7.33,0,0,1,4.86-2.63v1.85a2.74,2.74,0,0,0-1.67,2.52v3a2.2,2.2,0,0,0,0,.36H42.69A7.68,7.68,0,0,1,44.58,25.16Zm7.05,7.24h6.7v7.11A7.82,7.82,0,0,1,45,45a7.57,7.57,0,0,1-2.29-5.53V32.4h6.7"/><path class="cls-1" d="M83.5,102v-8.4h2.44l1.84,7.53H88l1.83-7.53h2.44V102H91V94.49h-.19L89,102H86.78L85,94.49h-.2V102Z"/><path class="cls-1" d="M96.8,102.15a3.38,3.38,0,0,1-1.58-.37,2.6,2.6,0,0,1-1.08-1,3.14,3.14,0,0,1-.4-1.62v-.18a3.08,3.08,0,0,1,.4-1.61,2.6,2.6,0,0,1,1.08-1,3.47,3.47,0,0,1,3.16,0,2.65,2.65,0,0,1,1.1,1,3.17,3.17,0,0,1,.39,1.61v.18a3.24,3.24,0,0,1-.39,1.62,2.65,2.65,0,0,1-1.1,1A3.38,3.38,0,0,1,96.8,102.15Zm0-1.11a1.78,1.78,0,0,0,1.33-.52,2,2,0,0,0,.51-1.45V99a2,2,0,0,0-.51-1.45,1.94,1.94,0,0,0-2.64,0A2,2,0,0,0,95,99v.1a2,2,0,0,0,.51,1.45A1.73,1.73,0,0,0,96.8,101Z"/><path class="cls-1" d="M102.57,102l-2-5.92h1.31l1.57,5h.19l1.57-5h1.31l-2,5.92Z"/><path class="cls-1" d="M110.24,102.15a3.17,3.17,0,0,1-1.57-.38,2.64,2.64,0,0,1-1-1.07,3.29,3.29,0,0,1-.38-1.6V99a3.33,3.33,0,0,1,.37-1.61,2.68,2.68,0,0,1,1-1.07,3.08,3.08,0,0,1,1.54-.38,2.93,2.93,0,0,1,1.5.38,2.66,2.66,0,0,1,1,1,3.28,3.28,0,0,1,.36,1.57v.47H108.5a1.69,1.69,0,0,0,.52,1.24,1.76,1.76,0,0,0,1.24.47,1.52,1.52,0,0,0,1-.32,2,2,0,0,0,.55-.72l1,.53a3.13,3.13,0,0,1-.49.71,2.41,2.41,0,0,1-.83.62A3,3,0,0,1,110.24,102.15Zm-1.73-3.74h3.28a1.48,1.48,0,0,0-.48-1,1.68,1.68,0,0,0-2.8,1Z"/><path class="cls-1" d="M119.82,102a1.14,1.14,0,0,1-.86-.33,1.17,1.17,0,0,1-.32-.86V97.11H117v-1h1.63v-2h1.24v2h1.76v1h-1.76v3.46q0,.36.33.36h1.24v1Z"/><path class="cls-1" d="M123.09,102v-8.4h1.24V96.9h.19a1.68,1.68,0,0,1,.34-.44,1.79,1.79,0,0,1,.59-.36,2.7,2.7,0,0,1,.93-.13,2.31,2.31,0,0,1,1.19.3,2.16,2.16,0,0,1,.83.84,2.71,2.71,0,0,1,.3,1.32V102h-1.24V98.52a1.51,1.51,0,0,0-.38-1.13A1.46,1.46,0,0,0,126,97a1.58,1.58,0,0,0-1.23.51,2.06,2.06,0,0,0-.46,1.46v3Z"/><path class="cls-1" d="M133.18,102.15a3.17,3.17,0,0,1-1.57-.38,2.64,2.64,0,0,1-1.05-1.07,3.29,3.29,0,0,1-.38-1.6V99a3.33,3.33,0,0,1,.38-1.61,2.59,2.59,0,0,1,1-1.07,3.12,3.12,0,0,1,1.55-.38,2.92,2.92,0,0,1,1.49.38,2.6,2.6,0,0,1,1,1,3.28,3.28,0,0,1,.36,1.57v.47h-4.55a1.66,1.66,0,0,0,.53,1.24,1.74,1.74,0,0,0,1.24.47,1.55,1.55,0,0,0,1-.32,2,2,0,0,0,.54-.72l1,.53a3.42,3.42,0,0,1-.48.71,2.36,2.36,0,0,1-.84.62A3,3,0,0,1,133.18,102.15Zm-1.72-3.74h3.27a1.48,1.48,0,0,0-.48-1,1.65,1.65,0,0,0-1.13-.37,1.54,1.54,0,0,0-1.66,1.42Z"/><path class="cls-1" d="M140.54,104.38V96.06h1.21v.85h.19a2.29,2.29,0,0,1,.69-.7,2.35,2.35,0,0,1,1.33-.32,2.63,2.63,0,0,1,1.36.36,2.71,2.71,0,0,1,1,1,3.34,3.34,0,0,1,.38,1.64v.18a3.34,3.34,0,0,1-.38,1.64,2.61,2.61,0,0,1-1,1,2.7,2.7,0,0,1-1.37.36,2.75,2.75,0,0,1-1-.15,1.85,1.85,0,0,1-.64-.36,2,2,0,0,1-.38-.47h-.19v3.21Zm3.06-3.31a1.82,1.82,0,0,0,1.33-.52,2,2,0,0,0,.52-1.48V99a2,2,0,0,0-.52-1.47A1.83,1.83,0,0,0,143.6,97a1.78,1.78,0,0,0-1.31.51,2,2,0,0,0-.53,1.47v.1a2,2,0,0,0,.53,1.48A1.79,1.79,0,0,0,143.6,101.07Z"/><path class="cls-1" d="M151,102.15a3.34,3.34,0,0,1-1.57-.37,2.62,2.62,0,0,1-1.09-1,3.24,3.24,0,0,1-.4-1.62v-.18a3.18,3.18,0,0,1,.4-1.61,2.62,2.62,0,0,1,1.09-1,3.23,3.23,0,0,1,1.57-.38,3.31,3.31,0,0,1,1.59.38,2.62,2.62,0,0,1,1.09,1,3.18,3.18,0,0,1,.4,1.61v.18a3.24,3.24,0,0,1-.4,1.62,2.62,2.62,0,0,1-1.09,1A3.42,3.42,0,0,1,151,102.15Zm0-1.11a1.76,1.76,0,0,0,1.33-.52,2,2,0,0,0,.51-1.45V99a2,2,0,0,0-.5-1.45A1.77,1.77,0,0,0,151,97a1.75,1.75,0,0,0-1.31.52,2,2,0,0,0-.51,1.45v.1a2,2,0,0,0,.51,1.45A1.75,1.75,0,0,0,151,101Z"/><path class="cls-1" d="M156.24,95.26a.84.84,0,0,1-.61-.24.79.79,0,0,1-.25-.6.83.83,0,0,1,.25-.61.92.92,0,0,1,1.22,0,.82.82,0,0,1,.24.61.78.78,0,0,1-.24.6A.84.84,0,0,1,156.24,95.26Zm-.63,6.72V96.06h1.24V102Z"/><path class="cls-1" d="M158.68,102V96.06h1.22V97h.19a1.77,1.77,0,0,1,.6-.67A2.16,2.16,0,0,1,162,96a2.38,2.38,0,0,1,1.2.3,2.21,2.21,0,0,1,.82.84,2.71,2.71,0,0,1,.3,1.32V102h-1.24V98.52a1.51,1.51,0,0,0-.38-1.13,1.46,1.46,0,0,0-1.06-.37,1.58,1.58,0,0,0-1.23.51,2.06,2.06,0,0,0-.46,1.46v3Z"/><path class="cls-1" d="M168.12,102a1.14,1.14,0,0,1-.86-.33,1.17,1.17,0,0,1-.32-.86V97.11h-1.63v-1h1.63v-2h1.24v2h1.76v1h-1.76v3.46q0,.36.33.36h1.24v1Z"/><path class="cls-1" d="M177.22,102.15a3.34,3.34,0,0,1-1.57-.37,2.57,2.57,0,0,1-1.09-1,3.24,3.24,0,0,1-.4-1.62v-.18a3.18,3.18,0,0,1,.4-1.61,2.57,2.57,0,0,1,1.09-1,3.23,3.23,0,0,1,1.57-.38,3.31,3.31,0,0,1,1.59.38,2.68,2.68,0,0,1,1.09,1,3.18,3.18,0,0,1,.4,1.61v.18a3.24,3.24,0,0,1-.4,1.62,2.68,2.68,0,0,1-1.09,1A3.42,3.42,0,0,1,177.22,102.15Zm0-1.11a1.76,1.76,0,0,0,1.33-.52,2,2,0,0,0,.51-1.45V99a2,2,0,0,0-.51-1.45,1.94,1.94,0,0,0-2.64,0A2,2,0,0,0,175.4,99v.1a2,2,0,0,0,.51,1.45A1.75,1.75,0,0,0,177.22,101Z"/><path class="cls-1" d="M182.68,102V97.11H181v-1h1.65V94.77a1.12,1.12,0,0,1,1.19-1.19h1.53v1h-1.13a.32.32,0,0,0-.35.36v1.08h1.7v1h-1.7V102Z"/><path class="cls-1" d="M191.31,102l-2-5.92h1.31l1.57,5h.19l1.57-5h1.31l-2,5.92Z"/><path class="cls-1" d="M197.09,95.26a.81.81,0,0,1-.6-.24.76.76,0,0,1-.25-.6.79.79,0,0,1,.25-.61.85.85,0,0,1,.6-.23.88.88,0,0,1,.62.23.82.82,0,0,1,.24.61.78.78,0,0,1-.24.6A.84.84,0,0,1,197.09,95.26Zm-.62,6.72V96.06h1.24V102Z"/><path class="cls-1" d="M202.26,102.15a3.21,3.21,0,0,1-1.58-.38,2.64,2.64,0,0,1-1.05-1.07,3.29,3.29,0,0,1-.37-1.6V99a3.33,3.33,0,0,1,.37-1.61,2.62,2.62,0,0,1,1-1.07,3.06,3.06,0,0,1,1.54-.38,2.92,2.92,0,0,1,1.49.38,2.6,2.6,0,0,1,1,1,3.28,3.28,0,0,1,.36,1.57v.47h-4.55a1.7,1.7,0,0,0,.53,1.24,1.74,1.74,0,0,0,1.24.47,1.55,1.55,0,0,0,1.05-.32,2.16,2.16,0,0,0,.55-.72l1,.53a3.42,3.42,0,0,1-.48.71,2.41,2.41,0,0,1-.83.62A3,3,0,0,1,202.26,102.15Zm-1.73-3.74h3.27a1.48,1.48,0,0,0-.48-1A1.63,1.63,0,0,0,202.2,97a1.68,1.68,0,0,0-1.14.37A1.66,1.66,0,0,0,200.53,98.41Z"/><path class="cls-1" d="M207.13,102l-1-5.92h1.24l.74,5.09h.19l1-5.09h2l1,5.09h.19l.74-5.09h1.24l-1,5.92h-2.07l-1-5.08h-.2l-1,5.08Z"/><path class="cls-1" d="M58.18,84.66a10.77,10.77,0,0,0-15,0,10.21,10.21,0,0,0-3.06,7.51V102a10.45,10.45,0,0,0,10.57,10.57A10.43,10.43,0,0,0,61.23,102V92.17A10.24,10.24,0,0,0,58.18,84.66Zm-6.11,7.13a1.4,1.4,0,1,1-2.8,0v-3.2a1.4,1.4,0,1,1,2.8,0Zm-.22,2.65H59V102a8.29,8.29,0,0,1-14.17,5.87A8,8,0,0,1,42.36,102V94.44h7.12m4.06-2.27c0-.12,0-.25,0-.38v-3.2a2.91,2.91,0,0,0-1.77-2.68V84A7.8,7.8,0,0,1,57,86.74a8.2,8.2,0,0,1,2,5.43Z"/><path class="cls-1" d="M83.05,165.51v-1.68l4.41-5.39v-.17H83.18v-1.16H88.8v1.68l-4.42,5.39v.16h4.46v1.17Z"/><path class="cls-1" d="M93,165.68a3.38,3.38,0,0,1-1.58-.37,2.68,2.68,0,0,1-1.09-1.05,3.24,3.24,0,0,1-.39-1.62v-.18a3.17,3.17,0,0,1,.39-1.61,2.68,2.68,0,0,1,1.09-1,3.47,3.47,0,0,1,3.16,0,2.57,2.57,0,0,1,1.09,1,3.08,3.08,0,0,1,.4,1.61v.18a3.14,3.14,0,0,1-.4,1.62,2.57,2.57,0,0,1-1.09,1.05A3.38,3.38,0,0,1,93,165.68Zm0-1.11a1.76,1.76,0,0,0,1.32-.52,2,2,0,0,0,.51-1.45v-.1a2,2,0,0,0-.5-1.45,1.95,1.95,0,0,0-2.65,0,2,2,0,0,0-.51,1.45v.1a2,2,0,0,0,.51,1.45A1.76,1.76,0,0,0,93,164.57Z"/><path class="cls-1" d="M100.33,165.68a3.38,3.38,0,0,1-1.58-.37,2.68,2.68,0,0,1-1.09-1.05,3.24,3.24,0,0,1-.39-1.62v-.18a3.17,3.17,0,0,1,.39-1.61,2.68,2.68,0,0,1,1.09-1,3.47,3.47,0,0,1,3.16,0,2.57,2.57,0,0,1,1.09,1,3.08,3.08,0,0,1,.4,1.61v.18a3.14,3.14,0,0,1-.4,1.62,2.57,2.57,0,0,1-1.09,1.05A3.38,3.38,0,0,1,100.33,165.68Zm0-1.11a1.76,1.76,0,0,0,1.32-.52,2,2,0,0,0,.51-1.45v-.1a2,2,0,0,0-.5-1.45,1.95,1.95,0,0,0-2.65,0,2,2,0,0,0-.51,1.45v.1a2,2,0,0,0,.51,1.45A1.76,1.76,0,0,0,100.33,164.57Z"/><path class="cls-1" d="M104.94,165.51v-5.92h1.21v.7h.19a1.49,1.49,0,0,1,.54-.55,1.84,1.84,0,0,1,1-.24,1.87,1.87,0,0,1,1.06.27,1.76,1.76,0,0,1,.61.69h.19a1.78,1.78,0,0,1,.59-.69,1.94,1.94,0,0,1,1.11-.27,2.08,2.08,0,0,1,1,.23,1.77,1.77,0,0,1,.71.7,2.21,2.21,0,0,1,.26,1.14v3.94h-1.23v-3.84a1,1,0,0,0-1.13-1.13,1.19,1.19,0,0,0-.92.37,1.49,1.49,0,0,0-.35,1.07v3.53h-1.24v-3.84a1,1,0,0,0-1.13-1.13,1.19,1.19,0,0,0-.92.37,1.53,1.53,0,0,0-.35,1.07v3.53Z"/><path class="cls-1" d="M57.58,149.57a10.14,10.14,0,0,0-14.14,0,9.62,9.62,0,0,0-2.88,7.08v9.23a9.82,9.82,0,0,0,9.95,10,9.82,9.82,0,0,0,10-10v-9.23A9.62,9.62,0,0,0,57.58,149.57Zm-13,2a7.37,7.37,0,0,1,4.86-2.63v1.85a2.75,2.75,0,0,0-1.67,2.52v3a2.21,2.21,0,0,0,0,.37H42.69A7.71,7.71,0,0,1,44.58,151.53Zm7.05,7.25h6.7v7.1A7.82,7.82,0,0,1,45,171.41a7.57,7.57,0,0,1-2.29-5.53v-7.1h6.7m3.82-2.13a2.21,2.21,0,0,0,0-.37v-3a2.75,2.75,0,0,0-1.67-2.52V148.9a7.37,7.37,0,0,1,4.86,2.63,7.71,7.71,0,0,1,1.89,5.12Z"/></svg>