<svg id="Layer_1" data-name="Layer 1" xmlns="http://www.w3.org/2000/svg" viewBox="0 0 274.35 204.16"><defs><style>.cls-1{fill:#fff;}.cls-2{fill:#ff931e;}</style></defs><path class="cls-1" d="M73.57,45.24V34.74H78a4.14,4.14,0,0,1,1.71.33,2.56,2.56,0,0,1,1.57,2.47v.17a2.5,2.5,0,0,1-.47,1.58,2.6,2.6,0,0,1-1.15.83v.24a1.36,1.36,0,0,1,.92.38,1.41,1.41,0,0,1,.34,1v3.48H79.27V42a.93.93,0,0,0-.21-.64.86.86,0,0,0-.68-.24H75.19v4.14Zm1.62-5.61H77.8a1.9,1.9,0,0,0,1.35-.45,1.54,1.54,0,0,0,.48-1.2v-.12a1.56,1.56,0,0,0-.48-1.21,1.86,1.86,0,0,0-1.35-.44H75.19Z"/><path class="cls-1" d="M86.56,45.45a4.25,4.25,0,0,1-2-.46,3.4,3.4,0,0,1-1.35-1.31,4,4,0,0,1-.5-2v-.22a3.93,3.93,0,0,1,.5-2,3.4,3.4,0,0,1,1.35-1.31,4.41,4.41,0,0,1,4,0,3.36,3.36,0,0,1,1.36,1.31,3.93,3.93,0,0,1,.5,2v.22a4,4,0,0,1-.5,2A3.36,3.36,0,0,1,88.54,45,4.25,4.25,0,0,1,86.56,45.45Zm0-1.38a2.18,2.18,0,0,0,1.65-.66,2.43,2.43,0,0,0,.64-1.8v-.14a2.51,2.51,0,0,0-.63-1.81A2.21,2.21,0,0,0,86.56,39a2.24,2.24,0,0,0-1.65.65,2.51,2.51,0,0,0-.63,1.81v.14a2.47,2.47,0,0,0,.63,1.8A2.21,2.21,0,0,0,86.56,44.07Z"/><path class="cls-1" d="M94.82,45.24a1.42,1.42,0,0,1-1.07-.41,1.46,1.46,0,0,1-.4-1.08v-4.6h-2V37.84h2V35.4H94.9v2.44h2.2v1.31H94.9v4.33q0,.45.42.45h1.54v1.31Z"/><path class="cls-1" d="M101.2,45.45a3.53,3.53,0,0,1-1.42-.27,2.25,2.25,0,0,1-1-.8,2.12,2.12,0,0,1-.37-1.27,2.06,2.06,0,0,1,.37-1.27,2.2,2.2,0,0,1,1-.76,3.9,3.9,0,0,1,1.45-.25h2.25v-.48a1.41,1.41,0,0,0-.39-1,1.63,1.63,0,0,0-1.2-.39,1.75,1.75,0,0,0-1.21.38,1.79,1.79,0,0,0-.56,1l-1.44-.46a3,3,0,0,1,.58-1.09,2.79,2.79,0,0,1,1.06-.79,3.82,3.82,0,0,1,1.59-.3,3.27,3.27,0,0,1,2.26.74,2.64,2.64,0,0,1,.83,2.08v3q0,.45.42.45h.63v1.29H104.9a1.29,1.29,0,0,1-.85-.27.91.91,0,0,1-.33-.74v0h-.23a3.54,3.54,0,0,1-.36.52,2,2,0,0,1-.7.52A3,3,0,0,1,101.2,45.45Zm.22-1.28a2.13,2.13,0,0,0,1.5-.53,1.91,1.91,0,0,0,.57-1.46V42h-2.16a1.66,1.66,0,0,0-1,.26.87.87,0,0,0-.37.77,1,1,0,0,0,.39.81A1.69,1.69,0,0,0,101.42,44.17Z"/><path class="cls-1" d="M109.82,45.24a1.42,1.42,0,0,1-1.07-.41,1.46,1.46,0,0,1-.4-1.08v-4.6h-2V37.84h2V35.4h1.55v2.44h2.2v1.31h-2.2v4.33q0,.45.42.45h1.54v1.31Z"/><path class="cls-1" d="M117,45.45a3.91,3.91,0,0,1-2-.48,3.29,3.29,0,0,1-1.31-1.33,4,4,0,0,1-.47-2v-.18a4.18,4.18,0,0,1,.46-2,3.29,3.29,0,0,1,1.3-1.34,3.88,3.88,0,0,1,1.93-.47,3.62,3.62,0,0,1,1.86.47,3.33,3.33,0,0,1,1.26,1.32,4.08,4.08,0,0,1,.45,2V42h-5.69a2.13,2.13,0,0,0,.65,1.55,2.25,2.25,0,0,0,1.56.58,1.93,1.93,0,0,0,1.31-.39,2.82,2.82,0,0,0,.68-.9l1.28.66a4.68,4.68,0,0,1-.61.88,3.23,3.23,0,0,1-1,.78A3.76,3.76,0,0,1,117,45.45Zm-2.16-4.67H119a1.82,1.82,0,0,0-.6-1.31A2,2,0,0,0,117,39a2.08,2.08,0,0,0-1.42.47A2,2,0,0,0,114.88,40.78Z"/><path class="cls-1" d="M129,45.24a1.46,1.46,0,0,1-1.08-.41,1.49,1.49,0,0,1-.39-1.08v-4.6h-2V37.84h2V35.4h1.54v2.44h2.21v1.31h-2.21v4.33q0,.45.42.45h1.55v1.31Z"/><path class="cls-1" d="M133.1,45.24V34.74h1.55v4.15h.24a2.3,2.3,0,0,1,.42-.55,2.21,2.21,0,0,1,.74-.45,3.43,3.43,0,0,1,1.16-.17,2.92,2.92,0,0,1,1.49.38,2.67,2.67,0,0,1,1,1,3.41,3.41,0,0,1,.38,1.65v4.44h-1.55V40.92a1.87,1.87,0,0,0-.48-1.42,1.81,1.81,0,0,0-1.32-.46,2,2,0,0,0-1.54.63,2.64,2.64,0,0,0-.57,1.83v3.74Z"/><path class="cls-1" d="M145.72,45.45a3.91,3.91,0,0,1-2-.48,3.29,3.29,0,0,1-1.31-1.33,4,4,0,0,1-.47-2v-.18a4.18,4.18,0,0,1,.46-2,3.29,3.29,0,0,1,1.3-1.34,3.88,3.88,0,0,1,1.93-.47,3.62,3.62,0,0,1,1.86.47,3.33,3.33,0,0,1,1.26,1.32,4.08,4.08,0,0,1,.45,2V42h-5.69a2.13,2.13,0,0,0,.65,1.55,2.25,2.25,0,0,0,1.56.58,1.93,1.93,0,0,0,1.31-.39,2.82,2.82,0,0,0,.68-.9l1.28.66a4.68,4.68,0,0,1-.61.88,3.23,3.23,0,0,1-1,.78A3.76,3.76,0,0,1,145.72,45.45Zm-2.16-4.67h4.09a1.82,1.82,0,0,0-.6-1.31,2,2,0,0,0-1.41-.47,2.08,2.08,0,0,0-1.42.47A2,2,0,0,0,143.56,40.78Z"/><path class="cls-1" d="M154.91,48.24V37.84h1.52v1.07h.24a2.68,2.68,0,0,1,.86-.89,3,3,0,0,1,1.66-.39,3.27,3.27,0,0,1,2.94,1.75,4.09,4.09,0,0,1,.48,2v.22a4.22,4.22,0,0,1-.47,2.05A3.31,3.31,0,0,1,160.9,45a3.36,3.36,0,0,1-1.71.45,3.61,3.61,0,0,1-1.22-.18,2.39,2.39,0,0,1-.79-.46,2.79,2.79,0,0,1-.48-.58h-.24v4Zm3.83-4.14a2.25,2.25,0,0,0,1.66-.65,2.49,2.49,0,0,0,.65-1.84v-.14a2.44,2.44,0,0,0-.66-1.83,2.23,2.23,0,0,0-1.65-.64,2.26,2.26,0,0,0-1.65.64,2.48,2.48,0,0,0-.65,1.83v.14a2.49,2.49,0,0,0,.65,1.84A2.27,2.27,0,0,0,158.74,44.1Z"/><path class="cls-1" d="M168,45.45a4.18,4.18,0,0,1-2-.46,3.36,3.36,0,0,1-1.36-1.31,4,4,0,0,1-.49-2v-.22a3.93,3.93,0,0,1,.49-2A3.36,3.36,0,0,1,166,38.1a4.07,4.07,0,0,1,2-.47,4.14,4.14,0,0,1,2,.47,3.39,3.39,0,0,1,1.37,1.31,3.93,3.93,0,0,1,.49,2v.22a4,4,0,0,1-.49,2A3.39,3.39,0,0,1,170,45,4.25,4.25,0,0,1,168,45.45Zm0-1.38a2.21,2.21,0,0,0,1.66-.66,2.47,2.47,0,0,0,.64-1.8v-.14a2.51,2.51,0,0,0-.63-1.81A2.24,2.24,0,0,0,168,39a2.2,2.2,0,0,0-1.64.65,2.47,2.47,0,0,0-.64,1.81v.14a2.43,2.43,0,0,0,.64,1.8A2.17,2.17,0,0,0,168,44.07Z"/><path class="cls-1" d="M174.53,36.84a1.06,1.06,0,0,1-.76-.3,1,1,0,0,1-.3-.75,1,1,0,0,1,.3-.76,1.15,1.15,0,0,1,1.53,0,1,1,0,0,1,.3.76,1,1,0,0,1-.3.75A1.06,1.06,0,0,1,174.53,36.84Zm-.78,8.4v-7.4h1.55v7.4Z"/><path class="cls-1" d="M177.59,45.24v-7.4h1.52V39h.23a2.43,2.43,0,0,1,.75-.84,2.77,2.77,0,0,1,1.61-.39,2.92,2.92,0,0,1,1.49.38,2.67,2.67,0,0,1,1,1,3.41,3.41,0,0,1,.37,1.65v4.44h-1.54V40.92a1.87,1.87,0,0,0-.48-1.42,1.81,1.81,0,0,0-1.32-.46,2,2,0,0,0-1.54.63,2.64,2.64,0,0,0-.58,1.83v3.74Z"/><path class="cls-1" d="M189.38,45.24a1.42,1.42,0,0,1-1.07-.41,1.46,1.46,0,0,1-.4-1.08v-4.6h-2V37.84h2V35.4h1.55v2.44h2.2v1.31h-2.2v4.33c0,.3.13.45.42.45h1.54v1.31Z"/><path class="cls-1" d="M200.77,45.45a4.25,4.25,0,0,1-2-.46,3.4,3.4,0,0,1-1.35-1.31,4,4,0,0,1-.5-2v-.22a3.93,3.93,0,0,1,.5-2,3.4,3.4,0,0,1,1.35-1.31,4.41,4.41,0,0,1,4,0,3.36,3.36,0,0,1,1.36,1.31,3.93,3.93,0,0,1,.5,2v.22a4,4,0,0,1-.5,2A3.36,3.36,0,0,1,202.75,45,4.25,4.25,0,0,1,200.77,45.45Zm0-1.38a2.18,2.18,0,0,0,1.65-.66,2.43,2.43,0,0,0,.64-1.8v-.14a2.51,2.51,0,0,0-.63-1.81,2.43,2.43,0,0,0-3.31,0,2.51,2.51,0,0,0-.63,1.81v.14a2.47,2.47,0,0,0,.63,1.8A2.19,2.19,0,0,0,200.77,44.07Z"/><path class="cls-1" d="M207.59,45.24V39.15h-2.07V37.84h2.07V36.22a1.39,1.39,0,0,1,1.49-1.48H211V36h-1.41a.39.39,0,0,0-.44.45v1.35h2.14v1.31h-2.14v6.09Z"/><path class="cls-1" d="M218.38,45.24l-2.49-7.4h1.63l2,6.26h.24l2-6.26h1.64l-2.49,7.4Z"/><path class="cls-1" d="M225.61,36.84a1,1,0,0,1-.76-.3,1,1,0,0,1-.31-.75,1,1,0,0,1,.31-.76,1,1,0,0,1,.76-.29,1,1,0,0,1,1.06,1,1,1,0,0,1-.3.75A1,1,0,0,1,225.61,36.84Zm-.78,8.4v-7.4h1.54v7.4Z"/><path class="cls-1" d="M232.06,45.45a3.91,3.91,0,0,1-2-.48,3.29,3.29,0,0,1-1.31-1.33,4,4,0,0,1-.47-2v-.18a4.18,4.18,0,0,1,.46-2,3.29,3.29,0,0,1,1.3-1.34,3.88,3.88,0,0,1,1.93-.47,3.62,3.62,0,0,1,1.86.47,3.33,3.33,0,0,1,1.26,1.32,4.08,4.08,0,0,1,.45,2V42h-5.69a2.13,2.13,0,0,0,.65,1.55,2.25,2.25,0,0,0,1.56.58,1.93,1.93,0,0,0,1.31-.39,2.82,2.82,0,0,0,.68-.9l1.28.66a4.68,4.68,0,0,1-.61.88,3.34,3.34,0,0,1-1,.78A3.76,3.76,0,0,1,232.06,45.45Zm-2.16-4.67H234a1.82,1.82,0,0,0-.6-1.31A2,2,0,0,0,232,39a2.08,2.08,0,0,0-1.42.47A2,2,0,0,0,229.9,40.78Z"/><path class="cls-1" d="M238.15,45.24l-1.26-7.4h1.54l.93,6.36h.24l1.29-6.36h2.51l1.27,6.36h.24l.93-6.36h1.55l-1.26,7.4h-2.6l-1.27-6.35H242l-1.28,6.35Z"/><path class="cls-2" d="M50.46,22.44a13.53,13.53,0,0,0-10-4.05,13.83,13.83,0,0,0-14,14v13a13.83,13.83,0,0,0,14,14,13.83,13.83,0,0,0,14-14v-13A13.53,13.53,0,0,0,50.46,22.44Zm-10,3.35a1.86,1.86,0,0,1,1.85,1.86v4.23a1.85,1.85,0,1,1-3.7,0V27.65A1.86,1.86,0,0,1,40.51,25.79Zm-8.35-.6A10.42,10.42,0,0,1,39,21.49V24.1a3.85,3.85,0,0,0-2.35,3.55v4.23a4.2,4.2,0,0,0,.05.51h-7.2A10.85,10.85,0,0,1,32.16,25.19Zm19.35,20.2a11,11,0,0,1-11,11,11,11,0,0,1-11-11v-10h9.43a3.7,3.7,0,0,0,3.14,0h9.43Z"/><path class="cls-1" d="M73.72,108.08V97.58h3L79.06,107h.24l2.3-9.42h3v10.5H83.07V98.72h-.24l-2.28,9.36H77.82l-2.28-9.36H75.3v9.36Z"/><path class="cls-1" d="M90.34,108.29a4.09,4.09,0,0,1-2-.46A3.36,3.36,0,0,1,87,106.52a4,4,0,0,1-.49-2v-.22a4,4,0,0,1,.49-2,3.49,3.49,0,0,1,1.36-1.31,4.38,4.38,0,0,1,3.95,0,3.45,3.45,0,0,1,1.37,1.31,4,4,0,0,1,.49,2v.22a4,4,0,0,1-.49,2,3.32,3.32,0,0,1-1.37,1.31A4.13,4.13,0,0,1,90.34,108.29Zm0-1.38a2.23,2.23,0,0,0,1.66-.65,2.47,2.47,0,0,0,.64-1.81v-.14a2.47,2.47,0,0,0-.63-1.8,2.4,2.4,0,0,0-3.31,0,2.47,2.47,0,0,0-.64,1.8v.14a2.51,2.51,0,0,0,.64,1.81A2.22,2.22,0,0,0,90.34,106.91Z"/><path class="cls-1" d="M97.56,108.08l-2.49-7.4H96.7l2,6.26h.24l2-6.26h1.64l-2.49,7.4Z"/><path class="cls-1" d="M107.14,108.29a4,4,0,0,1-2-.47,3.4,3.4,0,0,1-1.32-1.34,4.13,4.13,0,0,1-.47-2v-.18a4.21,4.21,0,0,1,.47-2,3.27,3.27,0,0,1,1.3-1.33,3.75,3.75,0,0,1,1.92-.48A3.59,3.59,0,0,1,109,101a3.22,3.22,0,0,1,1.25,1.31,4.08,4.08,0,0,1,.45,2v.59H105a2.08,2.08,0,0,0,.65,1.55,2.16,2.16,0,0,0,1.55.58,2,2,0,0,0,1.32-.39,2.82,2.82,0,0,0,.68-.9l1.27.66a4.59,4.59,0,0,1-.6.88,3.27,3.27,0,0,1-1,.78A3.76,3.76,0,0,1,107.14,108.29ZM105,103.62h4.1a1.84,1.84,0,0,0-.6-1.31,2.09,2.09,0,0,0-1.41-.47,2.11,2.11,0,0,0-1.42.47A2,2,0,0,0,105,103.62Z"/><path class="cls-1" d="M119.11,108.08a1.42,1.42,0,0,1-1.07-.41,1.46,1.46,0,0,1-.4-1.08V102h-2v-1.31h2V98.24h1.55v2.44h2.2V102h-2.2v4.33q0,.45.42.45h1.54v1.31Z"/><path class="cls-1" d="M123.21,108.08V97.58h1.54v4.15H125a2.12,2.12,0,0,1,.43-.55,2,2,0,0,1,.73-.44,3.27,3.27,0,0,1,1.17-.18,3,3,0,0,1,1.49.38,2.69,2.69,0,0,1,1,1.06,3.34,3.34,0,0,1,.37,1.64v4.44h-1.54v-4.32a1.89,1.89,0,0,0-.48-1.42,1.86,1.86,0,0,0-1.32-.46,2,2,0,0,0-1.54.63,2.59,2.59,0,0,0-.58,1.83v3.74Z"/><path class="cls-1" d="M135.82,108.29a4,4,0,0,1-2-.47,3.31,3.31,0,0,1-1.31-1.34,4,4,0,0,1-.48-2v-.18a4.21,4.21,0,0,1,.47-2,3.27,3.27,0,0,1,1.3-1.33,3.75,3.75,0,0,1,1.92-.48,3.59,3.59,0,0,1,1.87.48,3.29,3.29,0,0,1,1.25,1.31,4.08,4.08,0,0,1,.45,2v.59h-5.68a2.08,2.08,0,0,0,.65,1.55,2.16,2.16,0,0,0,1.55.58,1.92,1.92,0,0,0,1.31-.39,2.71,2.71,0,0,0,.69-.9l1.27.66a4.25,4.25,0,0,1-.61.88,3.12,3.12,0,0,1-1,.78A3.76,3.76,0,0,1,135.82,108.29Zm-2.16-4.67h4.1a1.84,1.84,0,0,0-.6-1.31,2.09,2.09,0,0,0-1.41-.47,2.11,2.11,0,0,0-1.42.47A2,2,0,0,0,133.66,103.62Z"/><path class="cls-1" d="M145,111.08v-10.4h1.51v1.07h.24a2.78,2.78,0,0,1,.86-.89,3,3,0,0,1,1.66-.39,3.3,3.3,0,0,1,3,1.75,4.22,4.22,0,0,1,.47,2v.22a4.2,4.2,0,0,1-.46,2.05,3.26,3.26,0,0,1-1.25,1.3,3.36,3.36,0,0,1-1.71.45,3.55,3.55,0,0,1-1.21-.18,2.28,2.28,0,0,1-.8-.46,2.55,2.55,0,0,1-.48-.58h-.24v4Zm3.82-4.14a2.27,2.27,0,0,0,1.67-.65,2.48,2.48,0,0,0,.64-1.84v-.14a2.48,2.48,0,0,0-.65-1.83,2.27,2.27,0,0,0-1.66-.64,2.22,2.22,0,0,0-1.64.64,2.44,2.44,0,0,0-.65,1.83v.14a2.45,2.45,0,0,0,.65,1.84A2.23,2.23,0,0,0,148.84,106.94Z"/><path class="cls-1" d="M158.1,108.29a4.06,4.06,0,0,1-2-.46,3.3,3.3,0,0,1-1.36-1.31,4,4,0,0,1-.5-2v-.22a4,4,0,0,1,.5-2,3.43,3.43,0,0,1,1.36-1.31,4.07,4.07,0,0,1,2-.47,4.14,4.14,0,0,1,2,.47,3.43,3.43,0,0,1,1.36,1.31,4,4,0,0,1,.5,2v.22a4,4,0,0,1-.5,2,3.3,3.3,0,0,1-1.36,1.31A4.13,4.13,0,0,1,158.1,108.29Zm0-1.38a2.25,2.25,0,0,0,1.66-.65,2.51,2.51,0,0,0,.63-1.81v-.14a2.47,2.47,0,0,0-.63-1.8,2.39,2.39,0,0,0-3.3,0,2.43,2.43,0,0,0-.64,1.8v.14a2.47,2.47,0,0,0,.64,1.81A2.2,2.2,0,0,0,158.1,106.91Z"/><path class="cls-1" d="M164.64,99.68a1.07,1.07,0,0,1-.76-.29,1.09,1.09,0,0,1,0-1.52,1.07,1.07,0,0,1,.76-.29,1.06,1.06,0,0,1,.76.29,1.11,1.11,0,0,1,0,1.52A1.06,1.06,0,0,1,164.64,99.68Zm-.78,8.4v-7.4h1.54v7.4Z"/><path class="cls-1" d="M167.7,108.08v-7.4h1.51v1.11h.24a2.24,2.24,0,0,1,.75-.84,2.75,2.75,0,0,1,1.61-.39,3,3,0,0,1,1.49.38,2.69,2.69,0,0,1,1,1.06,3.34,3.34,0,0,1,.37,1.64v4.44h-1.54v-4.32a1.89,1.89,0,0,0-.48-1.42,1.86,1.86,0,0,0-1.32-.46,2,2,0,0,0-1.54.63,2.59,2.59,0,0,0-.58,1.83v3.74Z"/><path class="cls-1" d="M179.49,108.08a1.46,1.46,0,0,1-1.08-.41,1.49,1.49,0,0,1-.39-1.08V102h-2v-1.31h2V98.24h1.54v2.44h2.21V102h-2.21v4.33q0,.45.42.45h1.55v1.31Z"/><path class="cls-1" d="M190.87,108.29a4.06,4.06,0,0,1-2-.46,3.3,3.3,0,0,1-1.36-1.31,4,4,0,0,1-.49-2v-.22a4,4,0,0,1,.49-2,3.43,3.43,0,0,1,1.36-1.31,4.07,4.07,0,0,1,2-.47,4.14,4.14,0,0,1,2,.47,3.45,3.45,0,0,1,1.37,1.31,4,4,0,0,1,.49,2v.22a4,4,0,0,1-.49,2,3.32,3.32,0,0,1-1.37,1.31A4.13,4.13,0,0,1,190.87,108.29Zm0-1.38a2.25,2.25,0,0,0,1.66-.65,2.51,2.51,0,0,0,.64-1.81v-.14a2.47,2.47,0,0,0-.63-1.8,2.21,2.21,0,0,0-1.67-.66,2.17,2.17,0,0,0-1.64.66,2.43,2.43,0,0,0-.64,1.8v.14a2.47,2.47,0,0,0,.64,1.81A2.2,2.2,0,0,0,190.87,106.91Z"/><path class="cls-1" d="M197.7,108.08V102h-2.07v-1.31h2.07V99.06a1.38,1.38,0,0,1,1.48-1.48h1.91v1.3h-1.41a.39.39,0,0,0-.44.45v1.35h2.13V102h-2.13v6.09Z"/><path class="cls-1" d="M208.48,108.08l-2.49-7.4h1.64l2,6.26h.24l2-6.26h1.63l-2.49,7.4Z"/><path class="cls-1" d="M215.71,99.68a1.09,1.09,0,0,1-.76-.29,1.11,1.11,0,0,1,0-1.52,1.15,1.15,0,0,1,1.53,0,1.11,1.11,0,0,1,0,1.52A1.08,1.08,0,0,1,215.71,99.68Zm-.78,8.4v-7.4h1.55v7.4Z"/><path class="cls-1" d="M222.16,108.29a4,4,0,0,1-2-.47,3.4,3.4,0,0,1-1.32-1.34,4.13,4.13,0,0,1-.47-2v-.18a4.21,4.21,0,0,1,.47-2,3.27,3.27,0,0,1,1.3-1.33,3.75,3.75,0,0,1,1.92-.48A3.59,3.59,0,0,1,224,101a3.29,3.29,0,0,1,1.25,1.31,4.08,4.08,0,0,1,.45,2v.59H220a2.08,2.08,0,0,0,.65,1.55,2.16,2.16,0,0,0,1.55.58,1.92,1.92,0,0,0,1.31-.39,2.71,2.71,0,0,0,.69-.9l1.27.66a4.25,4.25,0,0,1-.61.88,3.12,3.12,0,0,1-1,.78A3.76,3.76,0,0,1,222.16,108.29ZM220,103.62h4.1a1.84,1.84,0,0,0-.6-1.31,2.09,2.09,0,0,0-1.41-.47,2.11,2.11,0,0,0-1.42.47A2,2,0,0,0,220,103.62Z"/><path class="cls-1" d="M228.25,108.08l-1.26-7.4h1.55l.93,6.36h.24l1.29-6.36h2.5l1.28,6.36H235l.93-6.36h1.54l-1.26,7.4h-2.59l-1.28-6.35h-.24l-1.27,6.35Z"/><path class="cls-2" d="M50.62,84.63a13.53,13.53,0,0,0-9.95-4,13.83,13.83,0,0,0-14,14v13a13.83,13.83,0,0,0,14,14,13.83,13.83,0,0,0,14-14v-13A13.53,13.53,0,0,0,50.62,84.63Zm-8.1,9.44a1.86,1.86,0,0,1-3.71,0V89.83a1.86,1.86,0,0,1,3.71,0Zm9.15,13.51a11,11,0,0,1-11,11,11,11,0,0,1-11-11v-10h9.42a4,4,0,0,0,1.58.34,3.91,3.91,0,0,0,1.57-.34h9.43Zm-7.2-13a4.4,4.4,0,0,0,.05-.51V89.83a3.87,3.87,0,0,0-2.35-3.55v-2.6A10.42,10.42,0,0,1,49,87.38a10.9,10.9,0,0,1,2.65,7.2Z"/><path class="cls-1" d="M73.19,171.61v-2.1l5.52-6.74v-.21H73.36v-1.45h7v2.1l-5.52,6.73v.21h5.58v1.46Z"/><path class="cls-1" d="M85.57,171.82a4.13,4.13,0,0,1-2-.46,3.34,3.34,0,0,1-1.35-1.31,4,4,0,0,1-.5-2v-.22a4,4,0,0,1,.5-2,3.47,3.47,0,0,1,1.35-1.31,4.41,4.41,0,0,1,4,0,3.43,3.43,0,0,1,1.36,1.31,4,4,0,0,1,.5,2V168a4,4,0,0,1-.5,2,3.3,3.3,0,0,1-1.36,1.31A4.13,4.13,0,0,1,85.57,171.82Zm0-1.38a2.21,2.21,0,0,0,1.65-.65,2.47,2.47,0,0,0,.64-1.81v-.14a2.47,2.47,0,0,0-.63-1.8,2.18,2.18,0,0,0-1.66-.66,2.21,2.21,0,0,0-1.65.66,2.47,2.47,0,0,0-.63,1.8V168a2.51,2.51,0,0,0,.63,1.81A2.24,2.24,0,0,0,85.57,170.44Z"/><path class="cls-1" d="M94.79,171.82a4.06,4.06,0,0,1-2-.46,3.3,3.3,0,0,1-1.36-1.31,4,4,0,0,1-.49-2v-.22a4,4,0,0,1,.49-2,3.43,3.43,0,0,1,1.36-1.31,4.07,4.07,0,0,1,2-.47,4.14,4.14,0,0,1,2,.47,3.45,3.45,0,0,1,1.37,1.31,4,4,0,0,1,.49,2V168a4,4,0,0,1-.49,2,3.32,3.32,0,0,1-1.37,1.31A4.13,4.13,0,0,1,94.79,171.82Zm0-1.38a2.25,2.25,0,0,0,1.66-.65,2.51,2.51,0,0,0,.64-1.81v-.14a2.47,2.47,0,0,0-.63-1.8,2.21,2.21,0,0,0-1.67-.66,2.17,2.17,0,0,0-1.64.66,2.43,2.43,0,0,0-.64,1.8V168a2.47,2.47,0,0,0,.64,1.81A2.2,2.2,0,0,0,94.79,170.44Z"/><path class="cls-1" d="M100.55,171.61v-7.4h1.52v.87h.24a1.91,1.91,0,0,1,.67-.69,2.3,2.3,0,0,1,1.26-.3,2.4,2.4,0,0,1,1.33.34,2.24,2.24,0,0,1,.76.86h.24a2.23,2.23,0,0,1,.74-.85,2.38,2.38,0,0,1,1.39-.35,2.62,2.62,0,0,1,1.27.3,2.13,2.13,0,0,1,.89.87,2.83,2.83,0,0,1,.33,1.43v4.92h-1.55v-4.8a1.29,1.29,0,0,0-1.41-1.41,1.49,1.49,0,0,0-1.15.46,1.9,1.9,0,0,0-.44,1.34v4.41H105.1v-4.8a1.42,1.42,0,0,0-.37-1,1.39,1.39,0,0,0-1-.37,1.51,1.51,0,0,0-1.16.46,1.89,1.89,0,0,0-.43,1.34v4.41Z"/><path class="cls-2" d="M50.46,148.81a13.53,13.53,0,0,0-10-4.05,13.83,13.83,0,0,0-14,14v13a13.83,13.83,0,0,0,14,14,13.83,13.83,0,0,0,14-14v-13A13.53,13.53,0,0,0,50.46,148.81Zm-18.3,2.75a10.42,10.42,0,0,1,6.85-3.7v2.61A3.87,3.87,0,0,0,36.66,154v4.23a4,4,0,0,0,.05.51h-7.2A10.85,10.85,0,0,1,32.16,151.56Zm19.35,20.2a11,11,0,0,1-11,11,11,11,0,0,1-11-11v-10h9.43a3.7,3.7,0,0,0,3.14,0h9.43Zm-7.2-13a4,4,0,0,0,0-.51V154A3.87,3.87,0,0,0,42,150.47v-2.61a10.42,10.42,0,0,1,6.85,3.7,10.85,10.85,0,0,1,2.65,7.2Z"/></svg>