<svg id="Layer_1" data-name="Layer 1" xmlns="http://www.w3.org/2000/svg" viewBox="0 0 274.35 107.53"><defs><style>.cls-1{fill:#fff;}</style></defs><path class="cls-1" d="M14.43,19.48l2.4-8.4h2.28l2.39,8.4H20.16l-.55-2H16.32l-.55,2Zm2.22-3.18h2.64l-1.23-4.42h-.19Z"/><path class="cls-1" d="M24.94,19.59a2.38,2.38,0,0,1-1.2-.3,2.15,2.15,0,0,1-.83-.86,2.68,2.68,0,0,1-.3-1.32V13.56h1.24V17a1.51,1.51,0,0,0,.38,1.13,1.47,1.47,0,0,0,1.07.37A1.58,1.58,0,0,0,26.52,18,2.11,2.11,0,0,0,27,16.55v-3h1.24v5.92H27v-.89h-.19a1.79,1.79,0,0,1-.6.68A2.14,2.14,0,0,1,24.94,19.59Z"/><path class="cls-1" d="M32.26,19.48a1.14,1.14,0,0,1-.86-.33,1.17,1.17,0,0,1-.32-.86V14.61H29.45v-1h1.63v-2h1.24v2h1.76v1H32.32v3.46c0,.24.11.36.34.36h1.23v1.05Z"/><path class="cls-1" d="M38.09,19.65a3.38,3.38,0,0,1-1.58-.37,2.6,2.6,0,0,1-1.08-1.05,3.14,3.14,0,0,1-.4-1.62v-.18a3.08,3.08,0,0,1,.4-1.61,2.6,2.6,0,0,1,1.08-1.05,3.27,3.27,0,0,1,1.58-.38,3.34,3.34,0,0,1,1.59.38,2.62,2.62,0,0,1,1.09,1.05,3.17,3.17,0,0,1,.39,1.61v.18a3.24,3.24,0,0,1-.39,1.62,2.62,2.62,0,0,1-1.09,1.05A3.45,3.45,0,0,1,38.09,19.65Zm0-1.11A1.76,1.76,0,0,0,39.42,18a2,2,0,0,0,.51-1.45v-.1a2,2,0,0,0-.5-1.45,1.79,1.79,0,0,0-1.34-.52,1.75,1.75,0,0,0-1.31.52,2,2,0,0,0-.51,1.45v.1A2,2,0,0,0,36.78,18,1.75,1.75,0,0,0,38.09,18.54Z"/><path class="cls-1" d="M45.76,19.48V13.56H47v.7h.19a1.66,1.66,0,0,1,.54-.55,2.23,2.23,0,0,1,2.07,0,1.76,1.76,0,0,1,.61.69h.19a1.89,1.89,0,0,1,.6-.69,1.94,1.94,0,0,1,1.11-.27,2.13,2.13,0,0,1,1,.23,1.75,1.75,0,0,1,.7.7,2.21,2.21,0,0,1,.27,1.14v3.94H53V15.64a1,1,0,0,0-1.12-1.13,1.2,1.2,0,0,0-.93.37A1.53,1.53,0,0,0,50.63,16v3.53H49.4V15.64a1,1,0,0,0-1.13-1.13,1.21,1.21,0,0,0-.93.37A1.53,1.53,0,0,0,47,16v3.53Z"/><path class="cls-1" d="M58.82,19.65a3.35,3.35,0,0,1-1.58-.37,2.68,2.68,0,0,1-1.09-1.05,3.24,3.24,0,0,1-.39-1.62v-.18a3.17,3.17,0,0,1,.39-1.61,2.68,2.68,0,0,1,1.09-1.05,3.47,3.47,0,0,1,3.16,0,2.62,2.62,0,0,1,1.09,1.05,3.08,3.08,0,0,1,.4,1.61v.18a3.14,3.14,0,0,1-.4,1.62,2.62,2.62,0,0,1-1.09,1.05A3.38,3.38,0,0,1,58.82,19.65Zm0-1.11A1.76,1.76,0,0,0,60.14,18a2,2,0,0,0,.51-1.45v-.1a2,2,0,0,0-.5-1.45,1.95,1.95,0,0,0-2.65,0A2,2,0,0,0,57,16.47v.1A2,2,0,0,0,57.5,18,1.76,1.76,0,0,0,58.82,18.54Z"/><path class="cls-1" d="M65.87,19.65a2.62,2.62,0,0,1-1.35-.36,2.73,2.73,0,0,1-1-1,3.34,3.34,0,0,1-.37-1.64v-.18a3.33,3.33,0,0,1,.37-1.63,2.65,2.65,0,0,1,1-1.05,2.94,2.94,0,0,1,2.34-.21,2.06,2.06,0,0,1,.64.36,1.6,1.6,0,0,1,.38.47h.2V11.08h1.23v8.4H68.08v-.84h-.19a2.16,2.16,0,0,1-.69.69A2.35,2.35,0,0,1,65.87,19.65Zm.35-1.08a1.83,1.83,0,0,0,1.33-.52,2,2,0,0,0,.52-1.48v-.1A2,2,0,0,0,67.55,15a1.81,1.81,0,0,0-1.33-.51,1.78,1.78,0,0,0-1.31.51,2,2,0,0,0-.53,1.47v.1a2,2,0,0,0,.53,1.48A1.79,1.79,0,0,0,66.22,18.57Z"/><path class="cls-1" d="M73.83,19.65a3.15,3.15,0,0,1-1.57-.38,2.64,2.64,0,0,1-1.05-1.07,3.18,3.18,0,0,1-.38-1.6v-.15a3.33,3.33,0,0,1,.37-1.61,2.62,2.62,0,0,1,1-1.07,3.08,3.08,0,0,1,1.54-.38,2.87,2.87,0,0,1,1.49.38,2.62,2.62,0,0,1,1,1.05,3.28,3.28,0,0,1,.36,1.57v.47H72.09a1.65,1.65,0,0,0,.52,1.24,1.76,1.76,0,0,0,1.24.47,1.52,1.52,0,0,0,1.05-.32,2,2,0,0,0,.55-.72l1,.53a3.5,3.5,0,0,1-.49.71,2.41,2.41,0,0,1-.83.62A3,3,0,0,1,73.83,19.65ZM72.1,15.91h3.28a1.57,1.57,0,0,0-.48-1.05,1.67,1.67,0,0,0-1.13-.37,1.7,1.7,0,0,0-1.14.37A1.66,1.66,0,0,0,72.1,15.91Z"/><path class="cls-1" d="M64.2,59.76v-7h1.08v6h3.37v1Z"/><path class="cls-1" d="M71.91,59.9a2.64,2.64,0,0,1-1.31-.31,2.26,2.26,0,0,1-.87-.89,2.74,2.74,0,0,1-.32-1.34v-.12a2.85,2.85,0,0,1,.31-1.34,2.26,2.26,0,0,1,.87-.89,2.56,2.56,0,0,1,1.28-.32,2.42,2.42,0,0,1,1.25.32,2.24,2.24,0,0,1,.83.87,2.75,2.75,0,0,1,.3,1.31v.39H70.46A1.4,1.4,0,0,0,71.93,59a1.27,1.27,0,0,0,.88-.26,1.76,1.76,0,0,0,.45-.6l.85.44a2.8,2.8,0,0,1-.4.59,2.1,2.1,0,0,1-.7.52A2.48,2.48,0,0,1,71.91,59.9Zm-1.44-3.11H73.2a1.19,1.19,0,0,0-.4-.87,1.37,1.37,0,0,0-.94-.32,1.39,1.39,0,0,0-.94.32A1.36,1.36,0,0,0,70.47,56.79Z"/><path class="cls-1" d="M77.16,59.76a.93.93,0,0,1-.71-.27,1,1,0,0,1-.27-.72V55.7H74.82v-.87h1.36V53.2h1v1.63h1.47v.87H77.21v2.89c0,.2.1.3.28.3h1v.87Z"/><path class="cls-1" d="M84,59.9a2.32,2.32,0,0,1-.94-.18,1.45,1.45,0,0,1-.66-.53,1.38,1.38,0,0,1-.25-.85,1.33,1.33,0,0,1,.25-.84A1.52,1.52,0,0,1,83,57a2.61,2.61,0,0,1,1-.17h1.5V56.5a.93.93,0,0,0-.26-.69,1.1,1.1,0,0,0-.8-.26,1.22,1.22,0,0,0-.81.25,1.28,1.28,0,0,0-.37.65l-1-.31a2.11,2.11,0,0,1,.39-.72,1.91,1.91,0,0,1,.7-.53,2.64,2.64,0,0,1,1.06-.2,2.21,2.21,0,0,1,1.51.49,1.76,1.76,0,0,1,.55,1.39v2c0,.2.1.3.28.3h.42v.86h-.77a.88.88,0,0,1-.57-.18.61.61,0,0,1-.22-.49v0H85.5a1.83,1.83,0,0,1-.24.35,1.18,1.18,0,0,1-.47.35A1.89,1.89,0,0,1,84,59.9Zm.15-.85a1.37,1.37,0,0,0,1-.35,1.25,1.25,0,0,0,.38-1v-.1H84.06a1.12,1.12,0,0,0-.66.18.61.61,0,0,0-.25.51.65.65,0,0,0,.26.54A1.11,1.11,0,0,0,84.12,59.05Z"/><path class="cls-1" d="M90.76,61.76V54.83h1v.71h.16a1.91,1.91,0,0,1,.58-.59,2,2,0,0,1,1.1-.26,2.19,2.19,0,0,1,2,1.17,2.76,2.76,0,0,1,.31,1.36v.15a2.77,2.77,0,0,1-.31,1.37,2.15,2.15,0,0,1-.83.86,2.21,2.21,0,0,1-1.14.3,2.39,2.39,0,0,1-.81-.12,1.52,1.52,0,0,1-.85-.69h-.16v2.67ZM93.31,59a1.48,1.48,0,0,0,1.11-.43,1.63,1.63,0,0,0,.43-1.23v-.09A1.65,1.65,0,0,0,94.42,56a1.54,1.54,0,0,0-1.11-.43,1.51,1.51,0,0,0-1.09.43,1.66,1.66,0,0,0-.44,1.22v.09a1.63,1.63,0,0,0,.44,1.23A1.47,1.47,0,0,0,93.31,59Z"/><path class="cls-1" d="M97.17,59.76V54.83h1v.58h.16a.86.86,0,0,1,.39-.45,1.28,1.28,0,0,1,.65-.15H100v.93h-.63a1.25,1.25,0,0,0-.82.28,1,1,0,0,0-.32.84v2.9Z"/><path class="cls-1" d="M103.17,59.9a2.78,2.78,0,0,1-1.31-.3,2.2,2.2,0,0,1-.91-.88,2.65,2.65,0,0,1-.33-1.35v-.15a2.61,2.61,0,0,1,.33-1.34,2.27,2.27,0,0,1,.91-.88,2.94,2.94,0,0,1,2.63,0,2.27,2.27,0,0,1,.91.88,2.61,2.61,0,0,1,.33,1.34v.15a2.65,2.65,0,0,1-.33,1.35,2.2,2.2,0,0,1-.91.88A2.79,2.79,0,0,1,103.17,59.9Zm0-.92a1.48,1.48,0,0,0,1.11-.43,1.66,1.66,0,0,0,.42-1.21v-.09a1.66,1.66,0,0,0-.42-1.2,1.59,1.59,0,0,0-2.2,0,1.62,1.62,0,0,0-.43,1.2v.09a1.63,1.63,0,0,0,.43,1.21A1.45,1.45,0,0,0,103.17,59Z"/><path class="cls-1" d="M109.3,59.9a2.72,2.72,0,0,1-1.28-.3,2.18,2.18,0,0,1-.91-.87,2.58,2.58,0,0,1-.34-1.37v-.13a2.57,2.57,0,0,1,.34-1.36A2.18,2.18,0,0,1,108,55a2.72,2.72,0,0,1,1.28-.31,2.61,2.61,0,0,1,1.21.26,2.22,2.22,0,0,1,1.2,1.64l-1,.21a1.53,1.53,0,0,0-.21-.6,1.1,1.1,0,0,0-.45-.43,1.66,1.66,0,0,0-1.5,0,1.48,1.48,0,0,0-.55.56,1.84,1.84,0,0,0-.2.88v.09a1.86,1.86,0,0,0,.2.89,1.35,1.35,0,0,0,.55.56,1.54,1.54,0,0,0,.77.19,1.34,1.34,0,0,0,1-.33,1.5,1.5,0,0,0,.43-.86l1,.23a2.66,2.66,0,0,1-.42.94,2.18,2.18,0,0,1-.81.69A2.61,2.61,0,0,1,109.3,59.9Z"/><path class="cls-1" d="M115.19,59.9a2.64,2.64,0,0,1-1.31-.31,2.26,2.26,0,0,1-.87-.89,2.74,2.74,0,0,1-.32-1.34v-.12A2.85,2.85,0,0,1,113,55.9a2.26,2.26,0,0,1,.87-.89,2.56,2.56,0,0,1,1.28-.32,2.42,2.42,0,0,1,1.25.32,2.24,2.24,0,0,1,.83.87,2.75,2.75,0,0,1,.3,1.31v.39h-3.79A1.4,1.4,0,0,0,115.21,59a1.27,1.27,0,0,0,.88-.26,1.76,1.76,0,0,0,.45-.6l.85.44a2.8,2.8,0,0,1-.4.59,2.1,2.1,0,0,1-.7.52A2.48,2.48,0,0,1,115.19,59.9Zm-1.44-3.11h2.73a1.19,1.19,0,0,0-.4-.87,1.37,1.37,0,0,0-.94-.32,1.39,1.39,0,0,0-.94.32A1.36,1.36,0,0,0,113.75,56.79Z"/><path class="cls-1" d="M120.81,59.9a2.25,2.25,0,0,1-1.13-.3,2.22,2.22,0,0,1-.83-.86,2.78,2.78,0,0,1-.32-1.37v-.15a2.9,2.9,0,0,1,.31-1.36,2.19,2.19,0,0,1,2-1.17,2.39,2.39,0,0,1,.81.12,1.81,1.81,0,0,1,.53.31,1.38,1.38,0,0,1,.32.38h.16V52.76h1v7h-1v-.7h-.16a1.74,1.74,0,0,1-.57.58A1.94,1.94,0,0,1,120.81,59.9Zm.29-.9a1.5,1.5,0,0,0,1.11-.43,1.63,1.63,0,0,0,.43-1.23v-.09a1.65,1.65,0,0,0-.43-1.22,1.62,1.62,0,0,0-2.2,0,1.66,1.66,0,0,0-.44,1.22v.09a1.63,1.63,0,0,0,.44,1.23A1.47,1.47,0,0,0,121.1,59Z"/><path class="cls-1" d="M127.07,59.85a2,2,0,0,1-1-.25,1.75,1.75,0,0,1-.69-.71,2.32,2.32,0,0,1-.25-1.1v-3h1v2.89A1.09,1.09,0,0,0,127.37,59a1.33,1.33,0,0,0,1-.42,1.79,1.79,0,0,0,.38-1.23V54.83h1v4.93h-1V59h-.16a1.53,1.53,0,0,1-.5.57A1.75,1.75,0,0,1,127.07,59.85Z"/><path class="cls-1" d="M131.32,59.76V54.83h1v.58h.16a.86.86,0,0,1,.39-.45,1.28,1.28,0,0,1,.65-.15h.59v.93h-.63a1.23,1.23,0,0,0-.82.28,1,1,0,0,0-.32.84v2.9Z"/><path class="cls-1" d="M136.58,59.9a2.32,2.32,0,0,1-.94-.18,1.45,1.45,0,0,1-.66-.53,1.38,1.38,0,0,1-.25-.85,1.33,1.33,0,0,1,.25-.84,1.52,1.52,0,0,1,.67-.51,2.61,2.61,0,0,1,1-.17h1.5V56.5a.93.93,0,0,0-.26-.69,1.1,1.1,0,0,0-.8-.26,1.22,1.22,0,0,0-.81.25,1.28,1.28,0,0,0-.37.65l-1-.31a2.11,2.11,0,0,1,.39-.72,1.91,1.91,0,0,1,.7-.53,2.64,2.64,0,0,1,1.06-.2,2.21,2.21,0,0,1,1.51.49,1.76,1.76,0,0,1,.55,1.39v2c0,.2.1.3.28.3h.42v.86h-.77a.88.88,0,0,1-.57-.18.61.61,0,0,1-.22-.49v0h-.15a1.83,1.83,0,0,1-.24.35,1.18,1.18,0,0,1-.47.35A1.89,1.89,0,0,1,136.58,59.9Zm.15-.85a1.37,1.37,0,0,0,1-.35,1.25,1.25,0,0,0,.38-1v-.1h-1.44a1.12,1.12,0,0,0-.66.18.61.61,0,0,0-.25.51.65.65,0,0,0,.26.54A1.11,1.11,0,0,0,136.73,59.05Z"/><path class="cls-1" d="M140.82,59.76v-7h1v7Z"/><path class="cls-1" d="M146.47,59.76l-.84-4.93h1l.62,4.24h.16l.86-4.24H150l.85,4.24H151l.62-4.24h1l-.84,4.93h-1.73l-.85-4.23h-.16l-.85,4.23Z"/><path class="cls-1" d="M155.34,59.9a2.32,2.32,0,0,1-.94-.18,1.45,1.45,0,0,1-.66-.53,1.38,1.38,0,0,1-.25-.85,1.33,1.33,0,0,1,.25-.84,1.52,1.52,0,0,1,.67-.51,2.61,2.61,0,0,1,1-.17h1.5V56.5a1,1,0,0,0-.26-.69,1.1,1.1,0,0,0-.8-.26,1.08,1.08,0,0,0-1.18.9l-1-.31a2.11,2.11,0,0,1,.39-.72,1.91,1.91,0,0,1,.7-.53,2.6,2.6,0,0,1,1.06-.2,2.23,2.23,0,0,1,1.51.49,1.76,1.76,0,0,1,.55,1.39v2c0,.2.09.3.28.3h.42v.86h-.77a.88.88,0,0,1-.57-.18.59.59,0,0,1-.22-.49v0h-.15a1.83,1.83,0,0,1-.24.35,1.26,1.26,0,0,1-.47.35A1.92,1.92,0,0,1,155.34,59.9Zm.15-.85a1.39,1.39,0,0,0,1-.35,1.29,1.29,0,0,0,.38-1v-.1h-1.44a1.12,1.12,0,0,0-.66.18.58.58,0,0,0-.25.51.65.65,0,0,0,.26.54A1.09,1.09,0,0,0,155.49,59.05Z"/><path class="cls-1" d="M159.58,59.76v-7h1v7Z"/><path class="cls-1" d="M162.14,59.76v-7h1v4h.16l1.94-1.92h1.37l-2.49,2.39,2.57,2.54h-1.36l-2-2h-.16v2Z"/><path class="cls-1" d="M170.2,59.76v-7h1v7Z"/><path class="cls-1" d="M175,59.9a2.62,2.62,0,0,1-1.31-.31,2.28,2.28,0,0,1-.88-.89,2.73,2.73,0,0,1-.31-1.34v-.12a2.73,2.73,0,0,1,.31-1.34,2.23,2.23,0,0,1,.86-.89,2.57,2.57,0,0,1,1.29-.32,2.38,2.38,0,0,1,1.24.32,2.2,2.2,0,0,1,.84.87,2.75,2.75,0,0,1,.3,1.31v.39h-3.79a1.42,1.42,0,0,0,.43,1,1.47,1.47,0,0,0,1,.38,1.22,1.22,0,0,0,.87-.26,1.79,1.79,0,0,0,.46-.6l.85.44a2.53,2.53,0,0,1-.41.59,2,2,0,0,1-.69.52A2.51,2.51,0,0,1,175,59.9Zm-1.44-3.11h2.73a1.23,1.23,0,0,0-.4-.87,1.37,1.37,0,0,0-.94-.32,1.42,1.42,0,0,0-.95.32A1.35,1.35,0,0,0,173.58,56.79Z"/><path class="cls-1" d="M180.13,59.9a2.4,2.4,0,0,1-.95-.18,1.56,1.56,0,0,1-.66-.53,1.44,1.44,0,0,1-.24-.85,1.39,1.39,0,0,1,.24-.84,1.64,1.64,0,0,1,.67-.51,2.7,2.7,0,0,1,1-.17h1.5V56.5a1,1,0,0,0-.26-.69,1.1,1.1,0,0,0-.8-.26,1.08,1.08,0,0,0-1.18.9l-1-.31a2.27,2.27,0,0,1,.38-.72,2,2,0,0,1,.71-.53,2.6,2.6,0,0,1,1.06-.2,2.23,2.23,0,0,1,1.51.49,1.76,1.76,0,0,1,.55,1.39v2c0,.2.09.3.28.3h.42v.86h-.77a.88.88,0,0,1-.57-.18.59.59,0,0,1-.22-.49v0h-.15a1.83,1.83,0,0,1-.24.35,1.26,1.26,0,0,1-.47.35A1.92,1.92,0,0,1,180.13,59.9Zm.15-.85a1.39,1.39,0,0,0,1-.35,1.29,1.29,0,0,0,.38-1v-.1h-1.44a1.12,1.12,0,0,0-.66.18.58.58,0,0,0-.25.51.65.65,0,0,0,.26.54A1.09,1.09,0,0,0,180.28,59.05Z"/><path class="cls-1" d="M186.29,59.9a2.22,2.22,0,0,1-1.13-.3,2.17,2.17,0,0,1-.84-.86,2.77,2.77,0,0,1-.31-1.37v-.15a2.79,2.79,0,0,1,.31-1.36,2.11,2.11,0,0,1,.83-.87,2.26,2.26,0,0,1,1.14-.3,2.29,2.29,0,0,1,.8.12,1.74,1.74,0,0,1,.54.31,1.38,1.38,0,0,1,.32.38h.16V52.76h1v7h-1v-.7H188a1.78,1.78,0,0,1-.58.58A1.88,1.88,0,0,1,186.29,59.9Zm.29-.9a1.49,1.49,0,0,0,1.1-.43,1.63,1.63,0,0,0,.44-1.23v-.09a1.69,1.69,0,0,0-.43-1.22,1.63,1.63,0,0,0-2.21,0,1.65,1.65,0,0,0-.43,1.22v.09a1.63,1.63,0,0,0,.43,1.23A1.49,1.49,0,0,0,186.58,59Z"/><path class="cls-1" d="M193.78,61.76v-.9h2.75c.19,0,.28-.1.28-.3V59h-.16a1.13,1.13,0,0,1-.28.39,1.36,1.36,0,0,1-.49.3,2.21,2.21,0,0,1-.78.12,1.93,1.93,0,0,1-1-.25,1.69,1.69,0,0,1-.69-.71,2.2,2.2,0,0,1-.25-1.09v-3h1v2.89a1.27,1.27,0,0,0,.32,1,1.24,1.24,0,0,0,.89.3,1.29,1.29,0,0,0,1-.42,1.72,1.72,0,0,0,.39-1.22v-2.5h1v5.94a1,1,0,0,1-.27.72,1,1,0,0,1-.72.27Z"/><path class="cls-1" d="M201.66,59.9a2.82,2.82,0,0,1-1.32-.3,2.24,2.24,0,0,1-.9-.88,2.65,2.65,0,0,1-.33-1.35v-.15a2.61,2.61,0,0,1,.33-1.34,2.31,2.31,0,0,1,.9-.88,2.83,2.83,0,0,1,1.32-.31A2.86,2.86,0,0,1,203,55a2.33,2.33,0,0,1,.91.88,2.61,2.61,0,0,1,.33,1.34v.15a2.65,2.65,0,0,1-.33,1.35,2.27,2.27,0,0,1-.91.88A2.85,2.85,0,0,1,201.66,59.9Zm0-.92a1.46,1.46,0,0,0,1.1-.43,1.63,1.63,0,0,0,.43-1.21v-.09a1.66,1.66,0,0,0-.42-1.2,1.61,1.61,0,0,0-2.21,0,1.66,1.66,0,0,0-.42,1.2v.09a1.66,1.66,0,0,0,.42,1.21A1.48,1.48,0,0,0,201.66,59Z"/><path class="cls-1" d="M207.39,59.85a1.93,1.93,0,0,1-1-.25,1.63,1.63,0,0,1-.69-.71,2.21,2.21,0,0,1-.25-1.1v-3h1v2.89a1.23,1.23,0,0,0,.32,1,1.24,1.24,0,0,0,.89.3,1.29,1.29,0,0,0,1-.42,1.75,1.75,0,0,0,.39-1.23V54.83h1v4.93h-1V59H209a1.63,1.63,0,0,1-.5.57A1.77,1.77,0,0,1,207.39,59.85Z"/></svg>