<svg id="Layer_1" data-name="Layer 1" xmlns="http://www.w3.org/2000/svg" viewBox="0 0 274.35 107.53"><defs><style>.cls-1{fill:#fff;}</style></defs><path class="cls-1" d="M14.49,21.58l3-10.5h2.85l3,10.5H21.66L21,19.1H16.86l-.69,2.48Zm2.78-4h3.3L19,12.08H18.8Z"/><path class="cls-1" d="M27.63,21.71a3,3,0,0,1-1.5-.37,2.66,2.66,0,0,1-1-1.07,3.41,3.41,0,0,1-.38-1.65V14.18h1.55v4.34a1.89,1.89,0,0,0,.48,1.42,1.86,1.86,0,0,0,1.33.45,2,2,0,0,0,1.52-.63,2.64,2.64,0,0,0,.58-1.84V14.18h1.55v7.4H30.21V20.47H30a2.34,2.34,0,0,1-.75.85A2.7,2.7,0,0,1,27.63,21.71Z"/><path class="cls-1" d="M36.78,21.58a1.42,1.42,0,0,1-1.07-.41,1.46,1.46,0,0,1-.4-1.08v-4.6h-2V14.18h2V11.74h1.55v2.44h2.2v1.31h-2.2v4.33q0,.45.42.45h1.54v1.31Z"/><path class="cls-1" d="M44.07,21.79a4.06,4.06,0,0,1-2-.46A3.3,3.3,0,0,1,40.74,20a4,4,0,0,1-.49-2v-.22a4,4,0,0,1,.49-2,3.43,3.43,0,0,1,1.36-1.31,4.07,4.07,0,0,1,2-.47,4.14,4.14,0,0,1,2,.47,3.45,3.45,0,0,1,1.37,1.31,4,4,0,0,1,.49,2V18a4,4,0,0,1-.49,2,3.32,3.32,0,0,1-1.37,1.31A4.13,4.13,0,0,1,44.07,21.79Zm0-1.38a2.25,2.25,0,0,0,1.66-.65A2.51,2.51,0,0,0,46.37,18v-.14a2.47,2.47,0,0,0-.63-1.8,2.21,2.21,0,0,0-1.67-.66,2.17,2.17,0,0,0-1.64.66,2.43,2.43,0,0,0-.64,1.8V18a2.47,2.47,0,0,0,.64,1.81A2.2,2.2,0,0,0,44.07,20.41Z"/><path class="cls-1" d="M53.66,21.58v-7.4h1.51v.87h.24a1.94,1.94,0,0,1,.68-.69,2.3,2.3,0,0,1,1.26-.3,2.35,2.35,0,0,1,1.32.34,2.16,2.16,0,0,1,.76.86h.24a2.32,2.32,0,0,1,.74-.85,2.4,2.4,0,0,1,1.39-.35,2.66,2.66,0,0,1,1.28.3,2.11,2.11,0,0,1,.88.87,2.83,2.83,0,0,1,.33,1.43v4.92H62.75v-4.8a1.42,1.42,0,0,0-.37-1,1.39,1.39,0,0,0-1-.37,1.51,1.51,0,0,0-1.16.46,1.89,1.89,0,0,0-.43,1.34v4.41H58.2v-4.8a1.29,1.29,0,0,0-1.41-1.41,1.49,1.49,0,0,0-1.15.46,1.9,1.9,0,0,0-.44,1.34v4.41Z"/><path class="cls-1" d="M70,21.79a4.13,4.13,0,0,1-2-.46A3.34,3.34,0,0,1,66.65,20a4,4,0,0,1-.5-2v-.22a4,4,0,0,1,.5-2A3.47,3.47,0,0,1,68,14.44a4.41,4.41,0,0,1,4,0,3.43,3.43,0,0,1,1.36,1.31,4,4,0,0,1,.5,2V18a4,4,0,0,1-.5,2A3.3,3.3,0,0,1,72,21.33,4.13,4.13,0,0,1,70,21.79Zm0-1.38a2.21,2.21,0,0,0,1.65-.65A2.47,2.47,0,0,0,72.27,18v-.14a2.47,2.47,0,0,0-.63-1.8A2.18,2.18,0,0,0,70,15.35a2.21,2.21,0,0,0-1.65.66,2.47,2.47,0,0,0-.63,1.8V18a2.51,2.51,0,0,0,.63,1.81A2.24,2.24,0,0,0,70,20.41Z"/><path class="cls-1" d="M78.8,21.79a3.35,3.35,0,0,1-1.7-.45A3.26,3.26,0,0,1,75.85,20,4.09,4.09,0,0,1,75.38,18v-.22a4.21,4.21,0,0,1,.46-2,3.29,3.29,0,0,1,1.25-1.31A3.36,3.36,0,0,1,78.8,14a3.45,3.45,0,0,1,1.2.18,2.61,2.61,0,0,1,.81.46,2.27,2.27,0,0,1,.48.58h.24V11.08h1.54v10.5H81.56v-1h-.24a2.77,2.77,0,0,1-.87.87A2.92,2.92,0,0,1,78.8,21.79Zm.43-1.35a2.28,2.28,0,0,0,1.66-.65A2.49,2.49,0,0,0,81.54,18v-.14A2.47,2.47,0,0,0,80.9,16a2.26,2.26,0,0,0-1.67-.64,2.22,2.22,0,0,0-1.64.64,2.44,2.44,0,0,0-.65,1.83V18a2.45,2.45,0,0,0,.65,1.84A2.23,2.23,0,0,0,79.23,20.44Z"/><path class="cls-1" d="M88.74,21.79a4,4,0,0,1-2-.47A3.4,3.4,0,0,1,85.46,20,4.13,4.13,0,0,1,85,18V17.8a4.21,4.21,0,0,1,.47-2,3.31,3.31,0,0,1,1.29-1.33A3.81,3.81,0,0,1,88.68,14a3.59,3.59,0,0,1,1.87.48,3.29,3.29,0,0,1,1.25,1.31,4.08,4.08,0,0,1,.45,2v.59H86.57a2.08,2.08,0,0,0,.65,1.55,2.16,2.16,0,0,0,1.55.58,1.92,1.92,0,0,0,1.31-.39,2.71,2.71,0,0,0,.69-.9l1.27.66a4.25,4.25,0,0,1-.61.88,3.12,3.12,0,0,1-1,.78A3.76,3.76,0,0,1,88.74,21.79Zm-2.16-4.67h4.1a1.84,1.84,0,0,0-.6-1.31,2.09,2.09,0,0,0-1.41-.47,2.11,2.11,0,0,0-1.42.47A2,2,0,0,0,86.58,17.12Z"/><path class="cls-1" d="M86.13,53.39V42.89h1.62v9h5.06v1.47Z"/><path class="cls-1" d="M97.7,53.6a4,4,0,0,1-2-.47,3.31,3.31,0,0,1-1.31-1.34,4,4,0,0,1-.47-2v-.18a4.21,4.21,0,0,1,.46-2,3.27,3.27,0,0,1,1.3-1.33,3.79,3.79,0,0,1,1.93-.48,3.53,3.53,0,0,1,1.86.48,3.25,3.25,0,0,1,1.26,1.31,4.08,4.08,0,0,1,.45,2v.59H95.52a2.11,2.11,0,0,0,.65,1.55,2.2,2.2,0,0,0,1.56.58A1.93,1.93,0,0,0,99,51.86a2.82,2.82,0,0,0,.68-.9l1.28.66a4.68,4.68,0,0,1-.61.88,3.23,3.23,0,0,1-1,.78A3.76,3.76,0,0,1,97.7,53.6Zm-2.16-4.67h4.09a1.84,1.84,0,0,0-.6-1.31,2.09,2.09,0,0,0-1.41-.47,2.13,2.13,0,0,0-1.42.47A2.07,2.07,0,0,0,95.54,48.93Z"/><path class="cls-1" d="M105.57,53.39A1.42,1.42,0,0,1,104.5,53a1.46,1.46,0,0,1-.4-1.08V47.3h-2V46h2V43.55h1.55V46h2.2V47.3h-2.2v4.33q0,.45.42.45h1.54v1.31Z"/><path class="cls-1" d="M115.79,53.6a3.53,3.53,0,0,1-1.42-.27,2.25,2.25,0,0,1-1-.8,2.12,2.12,0,0,1-.37-1.27,2.08,2.08,0,0,1,.37-1.27,2.27,2.27,0,0,1,1-.76,3.9,3.9,0,0,1,1.45-.25h2.25V48.5a1.41,1.41,0,0,0-.39-1,1.63,1.63,0,0,0-1.2-.39,1.75,1.75,0,0,0-1.21.38,1.79,1.79,0,0,0-.56,1L113.28,48a3.11,3.11,0,0,1,.58-1.09,2.89,2.89,0,0,1,1.06-.79,3.82,3.82,0,0,1,1.59-.3,3.27,3.27,0,0,1,2.26.74,2.64,2.64,0,0,1,.83,2.08v3q0,.45.42.45h.63v1.29h-1.16a1.29,1.29,0,0,1-.85-.27.91.91,0,0,1-.33-.74v0h-.23a3.54,3.54,0,0,1-.36.52,1.86,1.86,0,0,1-.7.52A2.85,2.85,0,0,1,115.79,53.6Zm.22-1.28a2.09,2.09,0,0,0,1.5-.53,1.89,1.89,0,0,0,.57-1.46v-.15h-2.16a1.73,1.73,0,0,0-1,.26.88.88,0,0,0-.37.77A1,1,0,0,0,115,52,1.69,1.69,0,0,0,116,52.32Z"/><path class="cls-1" d="M126,56.39V46h1.52v1.07h.24a2.68,2.68,0,0,1,.86-.89,3,3,0,0,1,1.66-.39,3.33,3.33,0,0,1,1.7.45,3.38,3.38,0,0,1,1.24,1.3,4.12,4.12,0,0,1,.48,2v.22a4.2,4.2,0,0,1-.47,2.05,3.24,3.24,0,0,1-1.24,1.3,3.36,3.36,0,0,1-1.71.45,3.61,3.61,0,0,1-1.22-.18,2.23,2.23,0,0,1-.79-.46,2.55,2.55,0,0,1-.48-.58h-.24v4Zm3.83-4.14a2.25,2.25,0,0,0,1.66-.65,2.49,2.49,0,0,0,.65-1.84v-.14a2.44,2.44,0,0,0-.66-1.83,2.23,2.23,0,0,0-1.65-.64,2.26,2.26,0,0,0-1.65.64,2.48,2.48,0,0,0-.65,1.83v.14a2.49,2.49,0,0,0,.65,1.84A2.27,2.27,0,0,0,129.8,52.25Z"/><path class="cls-1" d="M135.59,53.39V46h1.51v.87h.24a1.26,1.26,0,0,1,.58-.68,2.06,2.06,0,0,1,1-.22h.89v1.4h-.95a1.84,1.84,0,0,0-1.23.41,1.59,1.59,0,0,0-.48,1.27v4.35Z"/><path class="cls-1" d="M144.59,53.6a4.13,4.13,0,0,1-2-.46,3.34,3.34,0,0,1-1.35-1.31,4,4,0,0,1-.5-2v-.22a4,4,0,0,1,.5-2,3.47,3.47,0,0,1,1.35-1.31,4.41,4.41,0,0,1,4,0,3.43,3.43,0,0,1,1.36,1.31,4,4,0,0,1,.5,2v.22a4,4,0,0,1-.5,2,3.3,3.3,0,0,1-1.36,1.31A4.13,4.13,0,0,1,144.59,53.6Zm0-1.38a2.21,2.21,0,0,0,1.65-.65,2.47,2.47,0,0,0,.64-1.81v-.14a2.47,2.47,0,0,0-.63-1.8,2.18,2.18,0,0,0-1.66-.66,2.21,2.21,0,0,0-1.65.66,2.47,2.47,0,0,0-.63,1.8v.14a2.51,2.51,0,0,0,.63,1.81A2.24,2.24,0,0,0,144.59,52.22Z"/><path class="cls-1" d="M153.78,53.6a4.13,4.13,0,0,1-1.93-.45,3.36,3.36,0,0,1-1.36-1.31,3.92,3.92,0,0,1-.5-2.05v-.2a3.86,3.86,0,0,1,.5-2,3.43,3.43,0,0,1,1.36-1.31,4.13,4.13,0,0,1,1.93-.46,3.91,3.91,0,0,1,1.82.39,3.29,3.29,0,0,1,1.2,1,3.38,3.38,0,0,1,.6,1.42l-1.5.32a2.48,2.48,0,0,0-.32-.9,1.75,1.75,0,0,0-.67-.65,2.51,2.51,0,0,0-2.26.06,2,2,0,0,0-.82.84,2.68,2.68,0,0,0-.3,1.32v.14a2.75,2.75,0,0,0,.3,1.33,2,2,0,0,0,.82.84,2.35,2.35,0,0,0,1.16.29,2.06,2.06,0,0,0,1.49-.5,2.33,2.33,0,0,0,.64-1.29l1.5.35a3.92,3.92,0,0,1-.64,1.41,3.26,3.26,0,0,1-1.2,1A4,4,0,0,1,153.78,53.6Z"/><path class="cls-1" d="M162.62,53.6a4,4,0,0,1-2-.47,3.31,3.31,0,0,1-1.31-1.34,4,4,0,0,1-.47-2v-.18a4.21,4.21,0,0,1,.46-2,3.27,3.27,0,0,1,1.3-1.33,3.79,3.79,0,0,1,1.93-.48,3.53,3.53,0,0,1,1.86.48,3.25,3.25,0,0,1,1.26,1.31,4.08,4.08,0,0,1,.45,2v.59h-5.69a2.11,2.11,0,0,0,.65,1.55,2.2,2.2,0,0,0,1.56.58,1.93,1.93,0,0,0,1.31-.39,2.82,2.82,0,0,0,.68-.9l1.28.66a4.68,4.68,0,0,1-.61.88,3.23,3.23,0,0,1-1,.78A3.76,3.76,0,0,1,162.62,53.6Zm-2.16-4.67h4.09a1.84,1.84,0,0,0-.6-1.31,2.09,2.09,0,0,0-1.41-.47,2.13,2.13,0,0,0-1.42.47A2.07,2.07,0,0,0,160.46,48.93Z"/><path class="cls-1" d="M171.05,53.6a3.35,3.35,0,0,1-1.7-.45,3.26,3.26,0,0,1-1.25-1.3,4.09,4.09,0,0,1-.47-2.05v-.22a4.21,4.21,0,0,1,.46-2,3.29,3.29,0,0,1,1.25-1.31,3.36,3.36,0,0,1,1.71-.45,3.45,3.45,0,0,1,1.2.18,2.61,2.61,0,0,1,.81.46,2.27,2.27,0,0,1,.48.58h.24V42.89h1.54v10.5h-1.51v-1h-.24a2.77,2.77,0,0,1-.87.87A2.92,2.92,0,0,1,171.05,53.6Zm.43-1.35a2.28,2.28,0,0,0,1.66-.65,2.49,2.49,0,0,0,.65-1.84v-.14a2.47,2.47,0,0,0-.64-1.83,2.26,2.26,0,0,0-1.67-.64,2.22,2.22,0,0,0-1.64.64,2.44,2.44,0,0,0-.65,1.83v.14a2.45,2.45,0,0,0,.65,1.84A2.23,2.23,0,0,0,171.48,52.25Z"/><path class="cls-1" d="M180.44,53.52a3,3,0,0,1-1.5-.37,2.68,2.68,0,0,1-1-1.07,3.41,3.41,0,0,1-.37-1.65V46h1.54v4.34a1.64,1.64,0,0,0,1.82,1.87,2,2,0,0,0,1.52-.63,2.69,2.69,0,0,0,.58-1.84V46h1.54v7.4H183V52.28h-.24a2.34,2.34,0,0,1-.75.85A2.7,2.7,0,0,1,180.44,53.52Z"/><path class="cls-1" d="M186.81,53.39V46h1.52v.87h.24a1.29,1.29,0,0,1,.57-.68,2.13,2.13,0,0,1,1-.22H191v1.4h-.94a1.84,1.84,0,0,0-1.23.41,1.59,1.59,0,0,0-.48,1.27v4.35Z"/><path class="cls-1" d="M194.7,53.6a3.56,3.56,0,0,1-1.42-.27,2.36,2.36,0,0,1-1-.8,2.18,2.18,0,0,1-.36-1.27,2.14,2.14,0,0,1,.36-1.27,2.3,2.3,0,0,1,1-.76,3.87,3.87,0,0,1,1.45-.25H197V48.5a1.41,1.41,0,0,0-.39-1,1.63,1.63,0,0,0-1.2-.39,1.63,1.63,0,0,0-1.77,1.35L192.2,48a3.25,3.25,0,0,1,.57-1.09,3,3,0,0,1,1.06-.79,3.82,3.82,0,0,1,1.59-.3,3.3,3.3,0,0,1,2.27.74,2.63,2.63,0,0,1,.82,2.08v3q0,.45.42.45h.63v1.29h-1.15a1.32,1.32,0,0,1-.86-.27.91.91,0,0,1-.33-.74v0H197a3.54,3.54,0,0,1-.36.52,1.9,1.9,0,0,1-.71.52A2.85,2.85,0,0,1,194.7,53.6Zm.23-1.28a2.09,2.09,0,0,0,1.5-.53,1.89,1.89,0,0,0,.57-1.46v-.15h-2.16a1.73,1.73,0,0,0-1,.26.89.89,0,0,0-.38.77,1,1,0,0,0,.39.81A1.72,1.72,0,0,0,194.93,52.32Z"/><path class="cls-1" d="M201.06,53.39V42.89h1.55v10.5Z"/><path class="cls-1" d="M209.54,53.39,208.28,46h1.54l.93,6.36H211L212.28,46h2.51l1.27,6.36h.24l.93-6.36h1.55l-1.26,7.4h-2.6L213.65,47h-.24l-1.28,6.35Z"/><path class="cls-1" d="M222.84,53.6a3.56,3.56,0,0,1-1.42-.27,2.36,2.36,0,0,1-1-.8,2.18,2.18,0,0,1-.36-1.27,2.14,2.14,0,0,1,.36-1.27,2.3,2.3,0,0,1,1-.76,3.87,3.87,0,0,1,1.45-.25h2.25V48.5a1.41,1.41,0,0,0-.39-1,1.63,1.63,0,0,0-1.2-.39,1.63,1.63,0,0,0-1.77,1.35L220.34,48a3.25,3.25,0,0,1,.57-1.09,3,3,0,0,1,1.06-.79,3.82,3.82,0,0,1,1.59-.3,3.3,3.3,0,0,1,2.27.74,2.63,2.63,0,0,1,.82,2.08v3q0,.45.42.45h.63v1.29h-1.15a1.32,1.32,0,0,1-.86-.27.91.91,0,0,1-.33-.74v0h-.22a4.55,4.55,0,0,1-.36.52,1.9,1.9,0,0,1-.71.52A2.85,2.85,0,0,1,222.84,53.6Zm.23-1.28a2.09,2.09,0,0,0,1.5-.53,1.89,1.89,0,0,0,.57-1.46v-.15H223a1.73,1.73,0,0,0-1,.26.89.89,0,0,0-.38.77A1,1,0,0,0,222,52,1.72,1.72,0,0,0,223.07,52.32Z"/><path class="cls-1" d="M229.2,53.39V42.89h1.55v10.5Z"/><path class="cls-1" d="M233,53.39V42.89h1.55v6h.24L237.74,46h2l-3.73,3.59,3.85,3.81h-2l-3-3.08h-.24v3.08Z"/><path class="cls-1" d="M86.18,71.39V60.89h1.54v10.5Z"/><path class="cls-1" d="M93.41,71.6a4,4,0,0,1-2-.47,3.31,3.31,0,0,1-1.31-1.34,4,4,0,0,1-.47-2v-.18a4.21,4.21,0,0,1,.46-2,3.27,3.27,0,0,1,1.3-1.33,3.79,3.79,0,0,1,1.93-.48,3.53,3.53,0,0,1,1.86.48,3.25,3.25,0,0,1,1.26,1.31,4.08,4.08,0,0,1,.45,2v.59H91.23a2.11,2.11,0,0,0,.65,1.55,2.2,2.2,0,0,0,1.56.58,1.93,1.93,0,0,0,1.31-.39,2.82,2.82,0,0,0,.68-.9l1.28.66a4.68,4.68,0,0,1-.61.88,3.23,3.23,0,0,1-1,.78A3.76,3.76,0,0,1,93.41,71.6Zm-2.16-4.67h4.09a1.84,1.84,0,0,0-.6-1.31,2.09,2.09,0,0,0-1.41-.47,2.13,2.13,0,0,0-1.42.47A2.07,2.07,0,0,0,91.25,66.93Z"/><path class="cls-1" d="M101.07,71.6a3.56,3.56,0,0,1-1.42-.27,2.36,2.36,0,0,1-1-.8,2.18,2.18,0,0,1-.36-1.27A2.14,2.14,0,0,1,98.66,68a2.3,2.3,0,0,1,1-.76,3.87,3.87,0,0,1,1.45-.25h2.25V66.5a1.41,1.41,0,0,0-.39-1,1.63,1.63,0,0,0-1.2-.39A1.63,1.63,0,0,0,100,66.42L98.57,66a3.25,3.25,0,0,1,.57-1.09,3,3,0,0,1,1.06-.79,3.82,3.82,0,0,1,1.59-.3,3.3,3.3,0,0,1,2.27.74,2.63,2.63,0,0,1,.82,2.08v3.05q0,.45.42.45h.63v1.29h-1.15a1.32,1.32,0,0,1-.86-.27.91.91,0,0,1-.33-.74v0h-.22a3.54,3.54,0,0,1-.36.52,1.9,1.9,0,0,1-.71.52A2.85,2.85,0,0,1,101.07,71.6Zm.23-1.28a2.09,2.09,0,0,0,1.5-.53,1.89,1.89,0,0,0,.57-1.46v-.15h-2.16a1.73,1.73,0,0,0-1,.26.89.89,0,0,0-.38.77,1,1,0,0,0,.39.81A1.72,1.72,0,0,0,101.3,70.32Z"/><path class="cls-1" d="M110.31,71.6a3.32,3.32,0,0,1-1.69-.45,3.36,3.36,0,0,1-1.26-1.3,4.2,4.2,0,0,1-.47-2v-.22a4.21,4.21,0,0,1,.47-2,3.27,3.27,0,0,1,1.24-1.31,3.36,3.36,0,0,1,1.71-.45,3.55,3.55,0,0,1,1.21.18,2.67,2.67,0,0,1,.8.46,2.27,2.27,0,0,1,.48.58H113V60.89h1.55v10.5h-1.52v-1h-.24a2.84,2.84,0,0,1-.86.87A3,3,0,0,1,110.31,71.6Zm.44-1.35a2.24,2.24,0,0,0,1.65-.65,2.45,2.45,0,0,0,.66-1.84v-.14a2.48,2.48,0,0,0-.65-1.83,2.24,2.24,0,0,0-1.66-.64,2.26,2.26,0,0,0-1.65.64,2.48,2.48,0,0,0-.65,1.83v.14a2.49,2.49,0,0,0,.65,1.84A2.27,2.27,0,0,0,110.75,70.25Z"/><path class="cls-1" d="M121.55,74.39V73h4.12q.42,0,.42-.45V70.31h-.24a2.13,2.13,0,0,1-.41.58,2.21,2.21,0,0,1-.74.45,3.27,3.27,0,0,1-1.17.18,3,3,0,0,1-1.5-.37,2.68,2.68,0,0,1-1-1.07,3.35,3.35,0,0,1-.37-1.63V64h1.54v4.34A1.64,1.64,0,0,0,124,70.2a2,2,0,0,0,1.52-.63,2.64,2.64,0,0,0,.58-1.83V64h1.54V72.9a1.46,1.46,0,0,1-.4,1.08,1.43,1.43,0,0,1-1.08.41Z"/><path class="cls-1" d="M133.37,71.6a4.13,4.13,0,0,1-2-.46A3.34,3.34,0,0,1,130,69.83a4,4,0,0,1-.5-2v-.22a4,4,0,0,1,.5-2,3.47,3.47,0,0,1,1.35-1.31,4.41,4.41,0,0,1,4,0,3.43,3.43,0,0,1,1.36,1.31,4,4,0,0,1,.5,2v.22a4,4,0,0,1-.5,2,3.3,3.3,0,0,1-1.36,1.31A4.13,4.13,0,0,1,133.37,71.6Zm0-1.38a2.21,2.21,0,0,0,1.65-.65,2.47,2.47,0,0,0,.64-1.81v-.14a2.47,2.47,0,0,0-.63-1.8,2.18,2.18,0,0,0-1.66-.66,2.21,2.21,0,0,0-1.65.66,2.47,2.47,0,0,0-.63,1.8v.14a2.51,2.51,0,0,0,.63,1.81A2.24,2.24,0,0,0,133.37,70.22Z"/><path class="cls-1" d="M142,71.52a3,3,0,0,1-1.5-.37,2.66,2.66,0,0,1-1-1.07,3.41,3.41,0,0,1-.38-1.65V64h1.55v4.34a1.89,1.89,0,0,0,.48,1.42,1.86,1.86,0,0,0,1.33.45,2,2,0,0,0,1.52-.63,2.64,2.64,0,0,0,.58-1.84V64h1.55v7.4h-1.52V70.28h-.24a2.34,2.34,0,0,1-.75.85A2.7,2.7,0,0,1,142,71.52Z"/></svg>