<svg id="Layer_1" data-name="Layer 1" xmlns="http://www.w3.org/2000/svg" viewBox="0 0 274.35 204.16"><defs><style>.cls-1{fill:#fff;}</style></defs><path class="cls-1" d="M15.27,26.18V15.68h1.62v10.5Z"/><path class="cls-1" d="M19.13,26.18v-7.4h1.51v1.11h.24a2.24,2.24,0,0,1,.75-.84,2.75,2.75,0,0,1,1.61-.39,3,3,0,0,1,1.49.38,2.74,2.74,0,0,1,1,1.05,3.41,3.41,0,0,1,.37,1.65v4.44H24.59V21.86a1.87,1.87,0,0,0-.48-1.42A1.81,1.81,0,0,0,22.79,20a2,2,0,0,0-1.54.63,2.59,2.59,0,0,0-.58,1.83v3.74Z"/><path class="cls-1" d="M31.41,26.39a3.32,3.32,0,0,1-1.69-.45,3.43,3.43,0,0,1-1.26-1.3A4.22,4.22,0,0,1,28,22.59v-.22a4.21,4.21,0,0,1,.47-2A3.27,3.27,0,0,1,29.7,19a3.36,3.36,0,0,1,1.71-.45,3.55,3.55,0,0,1,1.21.18,2.47,2.47,0,0,1,.8.46,2.12,2.12,0,0,1,.48.58h.24V15.68h1.55v10.5H34.17V25.13h-.24a2.84,2.84,0,0,1-.86.87A3,3,0,0,1,31.41,26.39ZM31.85,25a2.24,2.24,0,0,0,1.65-.65,2.45,2.45,0,0,0,.66-1.84v-.14a2.48,2.48,0,0,0-.65-1.83,2.24,2.24,0,0,0-1.66-.64,2.26,2.26,0,0,0-1.65.64,2.48,2.48,0,0,0-.65,1.83v.14a2.49,2.49,0,0,0,.65,1.84A2.27,2.27,0,0,0,31.85,25Z"/><path class="cls-1" d="M41.36,26.39a3.91,3.91,0,0,1-2-.48,3.29,3.29,0,0,1-1.31-1.33,4,4,0,0,1-.47-2V22.4a4.18,4.18,0,0,1,.46-2A3.29,3.29,0,0,1,39.37,19a3.88,3.88,0,0,1,1.93-.47,3.62,3.62,0,0,1,1.86.47,3.33,3.33,0,0,1,1.26,1.32,4.08,4.08,0,0,1,.45,2v.59H39.18a2.13,2.13,0,0,0,.65,1.55,2.25,2.25,0,0,0,1.56.58,1.93,1.93,0,0,0,1.31-.39,2.82,2.82,0,0,0,.68-.9l1.28.66a4.68,4.68,0,0,1-.61.88,3.23,3.23,0,0,1-1,.78A3.76,3.76,0,0,1,41.36,26.39ZM39.2,21.72h4.09a1.82,1.82,0,0,0-.6-1.31,2,2,0,0,0-1.41-.47,2.08,2.08,0,0,0-1.42.47A2,2,0,0,0,39.2,21.72Z"/><path class="cls-1" d="M45.62,26.18l2.82-3.74-2.76-3.66h1.81l1.94,2.66h.24l1.93-2.66h1.83l-2.77,3.66,2.82,3.74H51.63l-2-2.72h-.24l-2,2.72Z"/><path class="cls-1" d="M58.05,26.39a3.87,3.87,0,0,1-2-.48,3.38,3.38,0,0,1-1.32-1.33,4.16,4.16,0,0,1-.47-2V22.4a4.19,4.19,0,0,1,.47-2A3.33,3.33,0,0,1,56.06,19,3.91,3.91,0,0,1,58,18.57a3.68,3.68,0,0,1,1.87.47,3.38,3.38,0,0,1,1.25,1.32,4.08,4.08,0,0,1,.45,2v.59H55.88a2.09,2.09,0,0,0,.65,1.55,2.2,2.2,0,0,0,1.55.58,1.92,1.92,0,0,0,1.31-.39,2.71,2.71,0,0,0,.69-.9l1.27.66a4.25,4.25,0,0,1-.61.88,3.12,3.12,0,0,1-1,.78A3.76,3.76,0,0,1,58.05,26.39Zm-2.16-4.67H60a1.82,1.82,0,0,0-.6-1.31A2,2,0,0,0,58,19.94a2.06,2.06,0,0,0-1.42.47A2,2,0,0,0,55.89,21.72Z"/><path class="cls-1" d="M66.45,26.39a4.08,4.08,0,0,1-2.34-.63A2.72,2.72,0,0,1,63,23.85l1.44-.34a2.22,2.22,0,0,0,.41,1,1.51,1.51,0,0,0,.71.51,2.73,2.73,0,0,0,.92.15,1.91,1.91,0,0,0,1.13-.28.87.87,0,0,0,.4-.74.7.7,0,0,0-.37-.66,3.75,3.75,0,0,0-1.11-.34L66,23a6.67,6.67,0,0,1-1.37-.39,2.38,2.38,0,0,1-1-.71,1.78,1.78,0,0,1-.36-1.15,1.91,1.91,0,0,1,.78-1.63,3.37,3.37,0,0,1,2.07-.58,3.49,3.49,0,0,1,2,.56,2.58,2.58,0,0,1,1,1.53l-1.44.4a1.37,1.37,0,0,0-.57-.95,1.93,1.93,0,0,0-1.08-.28,1.86,1.86,0,0,0-1,.23.75.75,0,0,0-.36.66.7.7,0,0,0,.35.66,2.78,2.78,0,0,0,1,.31l.53.09a8.28,8.28,0,0,1,1.45.38,2.38,2.38,0,0,1,1,.69,1.77,1.77,0,0,1,.39,1.2,2,2,0,0,1-.83,1.72A3.63,3.63,0,0,1,66.45,26.39Z"/><path class="cls-1" d="M35.1,58.59V48.09h6.61v1.47h-5v3h4.57V54H36.72v3.08h5.07v1.47Z"/><path class="cls-1" d="M45.82,58.8a3.56,3.56,0,0,1-1.42-.27,2.36,2.36,0,0,1-1-.8,2.18,2.18,0,0,1-.36-1.27,2.14,2.14,0,0,1,.36-1.27,2.3,2.3,0,0,1,1-.76,3.81,3.81,0,0,1,1.44-.25h2.25V53.7a1.37,1.37,0,0,0-.39-1,1.59,1.59,0,0,0-1.19-.39,1.76,1.76,0,0,0-1.22.38,1.72,1.72,0,0,0-.55,1l-1.44-.46a3.08,3.08,0,0,1,.57-1.09A3,3,0,0,1,45,51.28a3.82,3.82,0,0,1,1.59-.3,3.25,3.25,0,0,1,2.26.74,2.64,2.64,0,0,1,.83,2.08v3.05q0,.45.42.45h.63v1.29H49.53a1.32,1.32,0,0,1-.86-.27.91.91,0,0,1-.33-.74v0h-.23a4.31,4.31,0,0,1-.35.52,2,2,0,0,1-.71.52A2.85,2.85,0,0,1,45.82,58.8Zm.23-1.28a2.12,2.12,0,0,0,1.5-.53,1.88,1.88,0,0,0,.56-1.46v-.15H46a1.7,1.7,0,0,0-1,.26.89.89,0,0,0-.38.77,1,1,0,0,0,.39.81A1.7,1.7,0,0,0,46.05,57.52Z"/><path class="cls-1" d="M55.44,58.8a4.07,4.07,0,0,1-1.93-.45A3.39,3.39,0,0,1,52.14,57a4,4,0,0,1-.5-2v-.2a4,4,0,0,1,.5-2,3.45,3.45,0,0,1,1.37-1.31A4.08,4.08,0,0,1,55.44,51a3.87,3.87,0,0,1,1.81.39,3.4,3.4,0,0,1,1.21,1,3.49,3.49,0,0,1,.59,1.42l-1.5.32a2.67,2.67,0,0,0-.31-.9,1.85,1.85,0,0,0-.68-.65,2.23,2.23,0,0,0-1.09-.24,2.29,2.29,0,0,0-1.17.3,2,2,0,0,0-.81.84,2.58,2.58,0,0,0-.3,1.32V55a2.64,2.64,0,0,0,.3,1.33,2,2,0,0,0,.81.84,2.39,2.39,0,0,0,1.17.29,2.05,2.05,0,0,0,1.48-.5,2.27,2.27,0,0,0,.64-1.29l1.5.35a3.9,3.9,0,0,1-.63,1.41,3.38,3.38,0,0,1-1.21,1A4,4,0,0,1,55.44,58.8Z"/><path class="cls-1" d="M60.88,58.59V48.09h1.55v4.15h.23a2.36,2.36,0,0,1,.43-.55,2,2,0,0,1,.74-.44A3.17,3.17,0,0,1,65,51.07a2.92,2.92,0,0,1,1.49.38,2.63,2.63,0,0,1,1,1.06,3.34,3.34,0,0,1,.37,1.64v4.44H66.34V54.27a1.89,1.89,0,0,0-.48-1.42,1.86,1.86,0,0,0-1.32-.46A2,2,0,0,0,63,53a2.64,2.64,0,0,0-.57,1.83v3.74Z"/><path class="cls-1" d="M77,58.8a4.08,4.08,0,0,1-2.34-.63,2.72,2.72,0,0,1-1.14-1.91l1.44-.34a2.22,2.22,0,0,0,.4,1,1.54,1.54,0,0,0,.72.51,2.73,2.73,0,0,0,.92.15,1.91,1.91,0,0,0,1.13-.28.87.87,0,0,0,.4-.74.71.71,0,0,0-.38-.66A3.75,3.75,0,0,0,77,55.53l-.51-.09a6.57,6.57,0,0,1-1.36-.39,2.42,2.42,0,0,1-1-.71,1.78,1.78,0,0,1-.36-1.15,1.92,1.92,0,0,1,.78-1.63,4,4,0,0,1,4.12,0,2.51,2.51,0,0,1,1,1.52l-1.44.4a1.39,1.39,0,0,0-.57-.95,2,2,0,0,0-1.08-.28,1.77,1.77,0,0,0-1,.24.73.73,0,0,0-.36.65.71.71,0,0,0,.36.66,2.78,2.78,0,0,0,.95.31l.52.09a8.4,8.4,0,0,1,1.46.38,2.38,2.38,0,0,1,1,.69,1.76,1.76,0,0,1,.38,1.2,2,2,0,0,1-.82,1.72A3.63,3.63,0,0,1,77,58.8Z"/><path class="cls-1" d="M87.59,61.59v-4h-.24a2.12,2.12,0,0,1-.48.58,2.37,2.37,0,0,1-.8.46,3.51,3.51,0,0,1-1.21.18,3.36,3.36,0,0,1-1.71-.45,3.24,3.24,0,0,1-1.24-1.3,4.2,4.2,0,0,1-.47-2v-.22a4.12,4.12,0,0,1,.48-2.05A3.3,3.3,0,0,1,84.86,51a3,3,0,0,1,1.66.39,2.68,2.68,0,0,1,.86.89h.24V51.19h1.52v10.4ZM85.3,57.45A2.25,2.25,0,0,0,87,56.8,2.49,2.49,0,0,0,87.61,55v-.14A2.48,2.48,0,0,0,87,53a2.27,2.27,0,0,0-1.66-.64,2.22,2.22,0,0,0-1.64.64A2.44,2.44,0,0,0,83,54.82V55a2.45,2.45,0,0,0,.66,1.84A2.23,2.23,0,0,0,85.3,57.45Z"/><path class="cls-1" d="M94.25,58.72a3,3,0,0,1-1.5-.37,2.66,2.66,0,0,1-1-1.07,3.41,3.41,0,0,1-.38-1.65V51.19h1.55v4.34A1.89,1.89,0,0,0,93.37,57a1.86,1.86,0,0,0,1.33.45,2,2,0,0,0,1.53-.63,2.68,2.68,0,0,0,.57-1.84V51.19h1.55v7.4H96.83V57.48h-.24a2.34,2.34,0,0,1-.75.85A2.7,2.7,0,0,1,94.25,58.72Z"/><path class="cls-1" d="M102.92,58.8a3.48,3.48,0,0,1-1.41-.27,2.25,2.25,0,0,1-1-.8,2.12,2.12,0,0,1-.37-1.27,2.08,2.08,0,0,1,.37-1.27,2.27,2.27,0,0,1,1-.76,3.9,3.9,0,0,1,1.45-.25h2.25V53.7a1.41,1.41,0,0,0-.39-1,1.63,1.63,0,0,0-1.2-.39,1.63,1.63,0,0,0-1.77,1.35l-1.44-.46a3.11,3.11,0,0,1,.58-1.09,2.85,2.85,0,0,1,1-.79,3.82,3.82,0,0,1,1.59-.3,3.3,3.3,0,0,1,2.27.74,2.63,2.63,0,0,1,.82,2.08v3.05q0,.45.42.45h.63v1.29h-1.15a1.32,1.32,0,0,1-.86-.27.91.91,0,0,1-.33-.74v0h-.22a3.54,3.54,0,0,1-.36.52,1.9,1.9,0,0,1-.71.52A2.85,2.85,0,0,1,102.92,58.8Zm.23-1.28a2.09,2.09,0,0,0,1.5-.53,1.89,1.89,0,0,0,.57-1.46v-.15h-2.16a1.73,1.73,0,0,0-1,.26.89.89,0,0,0-.38.77,1,1,0,0,0,.39.81A1.72,1.72,0,0,0,103.15,57.52Z"/><path class="cls-1" d="M109.28,58.59v-7.4h1.52v.87H111a1.26,1.26,0,0,1,.58-.68,2.06,2.06,0,0,1,1-.22h.88v1.4h-.94a1.84,1.84,0,0,0-1.23.41,1.59,1.59,0,0,0-.48,1.27v4.35Z"/><path class="cls-1" d="M118.21,58.8a4,4,0,0,1-2-.47A3.38,3.38,0,0,1,114.93,57a4.13,4.13,0,0,1-.47-2v-.18a4.21,4.21,0,0,1,.46-2,3.33,3.33,0,0,1,1.3-1.33,3.81,3.81,0,0,1,1.93-.48,3.59,3.59,0,0,1,1.87.48,3.29,3.29,0,0,1,1.25,1.31,4.08,4.08,0,0,1,.45,2v.59H116a2.08,2.08,0,0,0,.66,1.55,2.16,2.16,0,0,0,1.55.58,1.92,1.92,0,0,0,1.31-.39,2.68,2.68,0,0,0,.68-.9l1.28.66a4.25,4.25,0,0,1-.61.88,3.12,3.12,0,0,1-1,.78A3.76,3.76,0,0,1,118.21,58.8Zm-2.16-4.67h4.09a1.84,1.84,0,0,0-.6-1.31,2.35,2.35,0,0,0-2.82,0A2,2,0,0,0,116.05,54.13Z"/><path class="cls-1" d="M127.4,58.59v-7.4h1.52v.87h.24a1.26,1.26,0,0,1,.58-.68,2.06,2.06,0,0,1,1-.22h.88v1.4h-.94a1.84,1.84,0,0,0-1.23.41,1.59,1.59,0,0,0-.48,1.27v4.35Z"/><path class="cls-1" d="M136.33,58.8a4,4,0,0,1-2-.47A3.38,3.38,0,0,1,133.05,57a4.13,4.13,0,0,1-.47-2v-.18a4.21,4.21,0,0,1,.46-2,3.33,3.33,0,0,1,1.3-1.33,3.81,3.81,0,0,1,1.93-.48,3.59,3.59,0,0,1,1.87.48,3.29,3.29,0,0,1,1.25,1.31,4.08,4.08,0,0,1,.45,2v.59h-5.69a2.08,2.08,0,0,0,.66,1.55,2.16,2.16,0,0,0,1.55.58,1.92,1.92,0,0,0,1.31-.39,2.68,2.68,0,0,0,.68-.9l1.28.66a4.25,4.25,0,0,1-.61.88,3.12,3.12,0,0,1-1,.78A3.76,3.76,0,0,1,136.33,58.8Zm-2.16-4.67h4.09a1.84,1.84,0,0,0-.6-1.31,2.35,2.35,0,0,0-2.82,0A2,2,0,0,0,134.17,54.13Z"/><path class="cls-1" d="M141.7,61.59V51.19h1.51v1.07h.24a2.72,2.72,0,0,1,.87-.89A2.92,2.92,0,0,1,146,51a3.27,3.27,0,0,1,2.95,1.75,4.11,4.11,0,0,1,.47,2.05V55a4.2,4.2,0,0,1-.46,2,3.26,3.26,0,0,1-1.25,1.3,3.36,3.36,0,0,1-1.71.45,3.55,3.55,0,0,1-1.21-.18,2.28,2.28,0,0,1-.8-.46,2.55,2.55,0,0,1-.48-.58h-.24v4Zm3.82-4.14a2.27,2.27,0,0,0,1.67-.65,2.48,2.48,0,0,0,.64-1.84v-.14a2.44,2.44,0,0,0-.65-1.83,2.45,2.45,0,0,0-3.3,0,2.48,2.48,0,0,0-.65,1.83V55a2.49,2.49,0,0,0,.65,1.84A2.25,2.25,0,0,0,145.52,57.45Z"/><path class="cls-1" d="M151.31,58.59v-7.4h1.52v.87h.24a1.26,1.26,0,0,1,.58-.68,2.06,2.06,0,0,1,1-.22h.88v1.4h-.94a1.84,1.84,0,0,0-1.23.41,1.59,1.59,0,0,0-.48,1.27v4.35Z"/><path class="cls-1" d="M160.24,58.8a4,4,0,0,1-2-.47A3.38,3.38,0,0,1,157,57a4.13,4.13,0,0,1-.47-2v-.18a4.21,4.21,0,0,1,.46-2,3.33,3.33,0,0,1,1.3-1.33,3.81,3.81,0,0,1,1.93-.48,3.59,3.59,0,0,1,1.87.48,3.29,3.29,0,0,1,1.25,1.31,4.08,4.08,0,0,1,.45,2v.59h-5.69a2.08,2.08,0,0,0,.66,1.55,2.16,2.16,0,0,0,1.55.58,1.92,1.92,0,0,0,1.31-.39,2.68,2.68,0,0,0,.68-.9l1.28.66a4.25,4.25,0,0,1-.61.88,3.12,3.12,0,0,1-1,.78A3.76,3.76,0,0,1,160.24,58.8Zm-2.16-4.67h4.09a1.84,1.84,0,0,0-.6-1.31,2.35,2.35,0,0,0-2.82,0A2,2,0,0,0,158.08,54.13Z"/><path class="cls-1" d="M168.64,58.8a4.08,4.08,0,0,1-2.34-.63,2.72,2.72,0,0,1-1.14-1.91l1.44-.34a2.22,2.22,0,0,0,.4,1,1.54,1.54,0,0,0,.72.51,2.73,2.73,0,0,0,.92.15,1.91,1.91,0,0,0,1.13-.28.87.87,0,0,0,.4-.74.71.71,0,0,0-.38-.66,3.75,3.75,0,0,0-1.11-.34l-.51-.09a6.57,6.57,0,0,1-1.36-.39,2.42,2.42,0,0,1-1-.71,1.78,1.78,0,0,1-.36-1.15,1.92,1.92,0,0,1,.78-1.63,4,4,0,0,1,4.12,0,2.51,2.51,0,0,1,1,1.52l-1.44.4a1.39,1.39,0,0,0-.57-.95,2,2,0,0,0-1.08-.28,1.77,1.77,0,0,0-1,.24.73.73,0,0,0-.36.65.71.71,0,0,0,.36.66,2.78,2.78,0,0,0,.95.31l.52.09a8.4,8.4,0,0,1,1.46.38,2.38,2.38,0,0,1,1,.69,1.76,1.76,0,0,1,.38,1.2,2,2,0,0,1-.82,1.72A3.63,3.63,0,0,1,168.64,58.8Z"/><path class="cls-1" d="M176.87,58.8a4,4,0,0,1-2-.47A3.31,3.31,0,0,1,173.6,57a4,4,0,0,1-.48-2v-.18a4.21,4.21,0,0,1,.47-2,3.27,3.27,0,0,1,1.3-1.33,3.75,3.75,0,0,1,1.92-.48,3.56,3.56,0,0,1,1.87.48,3.22,3.22,0,0,1,1.25,1.31,4.08,4.08,0,0,1,.45,2v.59H174.7a2.11,2.11,0,0,0,.65,1.55,2.16,2.16,0,0,0,1.55.58,2,2,0,0,0,1.32-.39,2.82,2.82,0,0,0,.68-.9l1.27.66a4.59,4.59,0,0,1-.6.88,3.27,3.27,0,0,1-1,.78A3.76,3.76,0,0,1,176.87,58.8Zm-2.16-4.67h4.1a1.84,1.84,0,0,0-.6-1.31,2.09,2.09,0,0,0-1.41-.47,2.13,2.13,0,0,0-1.42.47A2,2,0,0,0,174.71,54.13Z"/><path class="cls-1" d="M182.24,58.59v-7.4h1.52V52.3H184a2.24,2.24,0,0,1,.75-.84,2.72,2.72,0,0,1,1.6-.39,2.92,2.92,0,0,1,1.49.38,2.63,2.63,0,0,1,1,1.06,3.34,3.34,0,0,1,.38,1.64v4.44H187.7V54.27a1.89,1.89,0,0,0-.48-1.42,1.86,1.86,0,0,0-1.32-.46,2,2,0,0,0-1.53.63,2.59,2.59,0,0,0-.58,1.83v3.74Z"/><path class="cls-1" d="M194,58.59a1.42,1.42,0,0,1-1.07-.41,1.46,1.46,0,0,1-.4-1.08V52.5h-2V51.19h2V48.75h1.55v2.44h2.2V52.5h-2.2v4.33q0,.45.42.45h1.54v1.31Z"/><path class="cls-1" d="M201.16,58.8a4.08,4.08,0,0,1-2.34-.63,2.72,2.72,0,0,1-1.14-1.91l1.44-.34a2.22,2.22,0,0,0,.4,1,1.56,1.56,0,0,0,.71.51,2.83,2.83,0,0,0,.93.15,1.93,1.93,0,0,0,1.13-.28.89.89,0,0,0,.4-.74.71.71,0,0,0-.38-.66,3.75,3.75,0,0,0-1.11-.34l-.51-.09a6.57,6.57,0,0,1-1.36-.39,2.42,2.42,0,0,1-1-.71,1.78,1.78,0,0,1-.36-1.15,1.92,1.92,0,0,1,.78-1.63,3.43,3.43,0,0,1,2.07-.58,3.47,3.47,0,0,1,2,.57,2.51,2.51,0,0,1,1,1.52l-1.44.4a1.39,1.39,0,0,0-.57-.95,2,2,0,0,0-1.08-.28,1.77,1.77,0,0,0-1,.24.78.78,0,0,0,0,1.31,2.92,2.92,0,0,0,1,.31l.52.09a8.4,8.4,0,0,1,1.46.38,2.44,2.44,0,0,1,1,.69,1.76,1.76,0,0,1,.38,1.2,2,2,0,0,1-.82,1.72A3.63,3.63,0,0,1,201.16,58.8Z"/><path class="cls-1" d="M212.12,58.8a3.48,3.48,0,0,1-1.41-.27,2.25,2.25,0,0,1-1-.8,2.12,2.12,0,0,1-.37-1.27,2.08,2.08,0,0,1,.37-1.27,2.27,2.27,0,0,1,1-.76,3.87,3.87,0,0,1,1.45-.25h2.25V53.7a1.41,1.41,0,0,0-.39-1,1.63,1.63,0,0,0-1.2-.39,1.63,1.63,0,0,0-1.77,1.35l-1.44-.46a3.11,3.11,0,0,1,.58-1.09,2.85,2.85,0,0,1,1.05-.79,3.82,3.82,0,0,1,1.59-.3,3.3,3.3,0,0,1,2.27.74,2.63,2.63,0,0,1,.82,2.08v3.05q0,.45.42.45H217v1.29h-1.15a1.32,1.32,0,0,1-.86-.27.91.91,0,0,1-.33-.74v0h-.22a3.54,3.54,0,0,1-.36.52,1.9,1.9,0,0,1-.71.52A2.85,2.85,0,0,1,212.12,58.8Zm.23-1.28a2.09,2.09,0,0,0,1.5-.53,1.89,1.89,0,0,0,.57-1.46v-.15h-2.16a1.73,1.73,0,0,0-1,.26.89.89,0,0,0-.38.77,1,1,0,0,0,.39.81A1.72,1.72,0,0,0,212.35,57.52Z"/><path class="cls-1" d="M38.58,76.8a4.07,4.07,0,0,1-1.93-.45A3.39,3.39,0,0,1,35.28,75a4,4,0,0,1-.5-2.05v-.2a4,4,0,0,1,.5-2,3.45,3.45,0,0,1,1.37-1.31A4.08,4.08,0,0,1,38.58,69a3.87,3.87,0,0,1,1.81.39,3.4,3.4,0,0,1,1.21,1,3.49,3.49,0,0,1,.59,1.42l-1.5.32a2.67,2.67,0,0,0-.31-.9,1.77,1.77,0,0,0-.68-.65,2.23,2.23,0,0,0-1.09-.24,2.32,2.32,0,0,0-1.17.3,2,2,0,0,0-.81.84,2.68,2.68,0,0,0-.3,1.32V73a2.75,2.75,0,0,0,.3,1.33,2,2,0,0,0,.81.84,2.42,2.42,0,0,0,1.17.29,2,2,0,0,0,1.48-.5,2.34,2.34,0,0,0,.65-1.29l1.5.35a4.09,4.09,0,0,1-.64,1.41,3.38,3.38,0,0,1-1.21,1A4,4,0,0,1,38.58,76.8Z"/><path class="cls-1" d="M46.32,76.8a3.49,3.49,0,0,1-1.42-.27,2.25,2.25,0,0,1-1-.8,2.12,2.12,0,0,1-.37-1.27,2.08,2.08,0,0,1,.37-1.27,2.27,2.27,0,0,1,1-.76,3.9,3.9,0,0,1,1.45-.25h2.25V71.7a1.41,1.41,0,0,0-.39-1,1.63,1.63,0,0,0-1.2-.39,1.8,1.8,0,0,0-1.22.38,1.84,1.84,0,0,0-.55,1l-1.44-.46a3.11,3.11,0,0,1,.58-1.09,2.89,2.89,0,0,1,1.06-.79A3.74,3.74,0,0,1,47,69a3.28,3.28,0,0,1,2.27.74,2.64,2.64,0,0,1,.83,2.08v3c0,.3.13.45.42.45h.63v1.29H50a1.27,1.27,0,0,1-.85-.27.91.91,0,0,1-.33-.74v0h-.23a3.54,3.54,0,0,1-.36.52,1.94,1.94,0,0,1-.7.52A2.88,2.88,0,0,1,46.32,76.8Zm.22-1.28A2.09,2.09,0,0,0,48,75a1.89,1.89,0,0,0,.57-1.46v-.15H46.45a1.73,1.73,0,0,0-1,.26.88.88,0,0,0-.37.77,1,1,0,0,0,.39.81A1.69,1.69,0,0,0,46.54,75.52Z"/><path class="cls-1" d="M54.94,76.59a1.42,1.42,0,0,1-1.07-.41,1.46,1.46,0,0,1-.4-1.08V70.5h-2V69.19h2V66.75H55v2.44h2.2V70.5H55v4.33q0,.45.42.45H57v1.31Z"/><path class="cls-1" d="M62.16,76.8a4,4,0,0,1-2-.47A3.31,3.31,0,0,1,58.88,75a4,4,0,0,1-.47-2v-.18a4.21,4.21,0,0,1,.46-2,3.27,3.27,0,0,1,1.3-1.33A3.76,3.76,0,0,1,62.1,69a3.55,3.55,0,0,1,1.86.48,3.25,3.25,0,0,1,1.26,1.31,4.08,4.08,0,0,1,.45,2v.59H60a2.11,2.11,0,0,0,.65,1.55,2.2,2.2,0,0,0,1.56.58,2,2,0,0,0,1.31-.39,2.82,2.82,0,0,0,.68-.9l1.28.66a4.68,4.68,0,0,1-.61.88,3.23,3.23,0,0,1-1,.78A3.79,3.79,0,0,1,62.16,76.8ZM60,72.13h4.09a1.84,1.84,0,0,0-.6-1.31,2.09,2.09,0,0,0-1.41-.47,2.13,2.13,0,0,0-1.42.47A2,2,0,0,0,60,72.13Z"/><path class="cls-1" d="M67.16,72.93V72.7a3.88,3.88,0,0,1,.48-2,3.33,3.33,0,0,1,3-1.73,2.67,2.67,0,0,1,2.51,1.28h.23V69.19h1.5V78.1a1.49,1.49,0,0,1-.39,1.08,1.47,1.47,0,0,1-1.09.41h-5V78.24h4.5a.39.39,0,0,0,.44-.45V75.43h-.25a2.47,2.47,0,0,1-.46.56,2.23,2.23,0,0,1-.79.46,3.53,3.53,0,0,1-1.22.18,3.42,3.42,0,0,1-1.72-.44,3.25,3.25,0,0,1-1.25-1.27A4,4,0,0,1,67.16,72.93ZM71,75.28a2.3,2.3,0,0,0,1.66-.63,2.39,2.39,0,0,0,.65-1.77v-.13A2.37,2.37,0,0,0,72.68,71a2.51,2.51,0,0,0-3.3,0,2.34,2.34,0,0,0-.66,1.78v.13a2.36,2.36,0,0,0,.66,1.77A2.26,2.26,0,0,0,71,75.28Z"/><path class="cls-1" d="M80.59,76.8a4.06,4.06,0,0,1-2-.46A3.3,3.3,0,0,1,77.26,75a4,4,0,0,1-.5-2v-.22a4,4,0,0,1,.5-2,3.43,3.43,0,0,1,1.36-1.31,4.07,4.07,0,0,1,2-.47,4.14,4.14,0,0,1,2,.47,3.45,3.45,0,0,1,1.37,1.31,4.05,4.05,0,0,1,.49,2V73a4.09,4.09,0,0,1-.49,2,3.32,3.32,0,0,1-1.37,1.31A4.13,4.13,0,0,1,80.59,76.8Zm0-1.38a2.25,2.25,0,0,0,1.66-.65A2.51,2.51,0,0,0,82.88,73v-.14a2.46,2.46,0,0,0-.62-1.8,2.21,2.21,0,0,0-1.67-.66A2.17,2.17,0,0,0,79,71a2.43,2.43,0,0,0-.64,1.8V73A2.47,2.47,0,0,0,79,74.77,2.2,2.2,0,0,0,80.59,75.42Z"/><path class="cls-1" d="M86.35,76.59v-7.4h1.51v.87h.25a1.29,1.29,0,0,1,.57-.68,2.13,2.13,0,0,1,1-.22h.88v1.4h-.94a1.84,1.84,0,0,0-1.23.41,1.56,1.56,0,0,0-.48,1.27v4.35Z"/><path class="cls-1" d="M93,79.59V78.24h4.12q.42,0,.42-.45V75.51h-.24a1.93,1.93,0,0,1-.41.58,2.12,2.12,0,0,1-.74.45,3.27,3.27,0,0,1-1.17.18,3,3,0,0,1-1.5-.37,2.68,2.68,0,0,1-1-1.07,3.35,3.35,0,0,1-.37-1.63V69.19h1.54v4.34a1.64,1.64,0,0,0,1.82,1.87A2,2,0,0,0,97,74.77a2.59,2.59,0,0,0,.58-1.83V69.19h1.54V78.1a1.49,1.49,0,0,1-.39,1.08,1.47,1.47,0,0,1-1.09.41Z"/><path class="cls-1" d="M108.65,76.8a4.09,4.09,0,0,1-2-.46A3.36,3.36,0,0,1,105.32,75a4,4,0,0,1-.49-2v-.22a4,4,0,0,1,.49-2,3.49,3.49,0,0,1,1.36-1.31,4.38,4.38,0,0,1,3.95,0A3.45,3.45,0,0,1,112,70.76a4,4,0,0,1,.49,2V73a4,4,0,0,1-.49,2,3.32,3.32,0,0,1-1.37,1.31A4.13,4.13,0,0,1,108.65,76.8Zm0-1.38a2.23,2.23,0,0,0,1.66-.65A2.47,2.47,0,0,0,111,73v-.14a2.47,2.47,0,0,0-.63-1.8A2.4,2.4,0,0,0,107,71a2.47,2.47,0,0,0-.64,1.8V73a2.51,2.51,0,0,0,.64,1.81A2.22,2.22,0,0,0,108.65,75.42Z"/><path class="cls-1" d="M115.48,76.59V70.5h-2.07V69.19h2.07V67.57A1.38,1.38,0,0,1,117,66.09h1.91v1.3h-1.41a.39.39,0,0,0-.44.45v1.35h2.13V70.5H117v6.09Z"/><path class="cls-1" d="M127.33,76.59a1.42,1.42,0,0,1-1.07-.41,1.46,1.46,0,0,1-.4-1.08V70.5h-2V69.19h2V66.75h1.54v2.44h2.21V70.5H127.4v4.33q0,.45.42.45h1.55v1.31Z"/><path class="cls-1" d="M131.43,76.59v-7.4h1.51v.87h.24a1.26,1.26,0,0,1,.58-.68,2.06,2.06,0,0,1,1-.22h.88v1.4h-.94a1.84,1.84,0,0,0-1.23.41,1.59,1.59,0,0,0-.48,1.27v4.35Z"/><path class="cls-1" d="M140.35,76.8a4,4,0,0,1-2-.47A3.4,3.4,0,0,1,137.07,75a4.13,4.13,0,0,1-.47-2v-.18a4.21,4.21,0,0,1,.47-2,3.31,3.31,0,0,1,1.29-1.33,3.81,3.81,0,0,1,1.93-.48,3.59,3.59,0,0,1,1.87.48,3.29,3.29,0,0,1,1.25,1.31,4.08,4.08,0,0,1,.45,2v.59h-5.68a2.08,2.08,0,0,0,.65,1.55,2.16,2.16,0,0,0,1.55.58,1.92,1.92,0,0,0,1.31-.39,2.71,2.71,0,0,0,.69-.9l1.27.66a4.25,4.25,0,0,1-.61.88,3.12,3.12,0,0,1-1,.78A3.76,3.76,0,0,1,140.35,76.8Zm-2.16-4.67h4.1a1.84,1.84,0,0,0-.6-1.31,2.09,2.09,0,0,0-1.41-.47,2.11,2.11,0,0,0-1.42.47A2,2,0,0,0,138.19,72.13Z"/><path class="cls-1" d="M149.11,76.8a4,4,0,0,1-2-.47A3.4,3.4,0,0,1,145.83,75a4.13,4.13,0,0,1-.47-2v-.18a4.1,4.1,0,0,1,.47-2,3.24,3.24,0,0,1,1.29-1.33,3.81,3.81,0,0,1,1.93-.48,3.59,3.59,0,0,1,1.87.48,3.29,3.29,0,0,1,1.25,1.31,4.08,4.08,0,0,1,.45,2v.59h-5.68a2.08,2.08,0,0,0,.65,1.55,2.16,2.16,0,0,0,1.55.58,1.92,1.92,0,0,0,1.31-.39,2.68,2.68,0,0,0,.68-.9l1.28.66a4.25,4.25,0,0,1-.61.88,3.12,3.12,0,0,1-1,.78A3.76,3.76,0,0,1,149.11,76.8ZM147,72.13h4.1a1.88,1.88,0,0,0-.6-1.31,2.09,2.09,0,0,0-1.41-.47,2.11,2.11,0,0,0-1.42.47A2,2,0,0,0,147,72.13Z"/><path class="cls-1" d="M155.3,76.8a1.18,1.18,0,0,1-.87-.35,1.26,1.26,0,0,1,0-1.76,1.28,1.28,0,0,1,1.75,0,1.27,1.27,0,0,1,0,1.75A1.21,1.21,0,0,1,155.3,76.8Z"/><path class="cls-1" d="M35.1,116.59v-10.5h4.17a3.77,3.77,0,0,1,1.71.38,3,3,0,0,1,1.19,1.08,3.19,3.19,0,0,1,.43,1.67v.2a3.06,3.06,0,0,1-.45,1.68A2.89,2.89,0,0,1,41,112.18a3.72,3.72,0,0,1-1.69.37H36.72v4Zm1.62-5.51H39.1a2,2,0,0,0,1.37-.45A1.59,1.59,0,0,0,41,109.4v-.15a1.6,1.6,0,0,0-.51-1.24,2,2,0,0,0-1.37-.45H36.72Z"/><path class="cls-1" d="M44.19,116.59v-7.4H45.7v.87h.24a1.26,1.26,0,0,1,.58-.68,2.06,2.06,0,0,1,1-.22h.88v1.4h-.94a1.84,1.84,0,0,0-1.23.41,1.59,1.59,0,0,0-.48,1.27v4.35Z"/><path class="cls-1" d="M53.11,116.8a4,4,0,0,1-2-.47A3.38,3.38,0,0,1,49.83,115a4.13,4.13,0,0,1-.47-2v-.18a4.21,4.21,0,0,1,.46-2,3.33,3.33,0,0,1,1.3-1.33,3.81,3.81,0,0,1,1.93-.48,3.59,3.59,0,0,1,1.87.48,3.29,3.29,0,0,1,1.25,1.31,4.08,4.08,0,0,1,.45,2v.59H50.93a2.08,2.08,0,0,0,.66,1.55,2.16,2.16,0,0,0,1.55.58,1.92,1.92,0,0,0,1.31-.39,2.68,2.68,0,0,0,.68-.9l1.28.66a4.25,4.25,0,0,1-.61.88,3.12,3.12,0,0,1-1,.78A3.76,3.76,0,0,1,53.11,116.8ZM51,112.13H55a1.87,1.87,0,0,0-.59-1.31,2.13,2.13,0,0,0-1.42-.47,2.09,2.09,0,0,0-1.41.47A2,2,0,0,0,51,112.13Z"/><path class="cls-1" d="M61.51,116.8a4.08,4.08,0,0,1-2.34-.63A2.72,2.72,0,0,1,58,114.26l1.44-.34a2.22,2.22,0,0,0,.4,1,1.54,1.54,0,0,0,.72.51,2.73,2.73,0,0,0,.92.15,1.91,1.91,0,0,0,1.13-.28.87.87,0,0,0,.4-.74.71.71,0,0,0-.38-.66,3.75,3.75,0,0,0-1.11-.34l-.51-.09a6.57,6.57,0,0,1-1.36-.39,2.42,2.42,0,0,1-1-.71,1.78,1.78,0,0,1-.36-1.15,1.92,1.92,0,0,1,.78-1.63,4,4,0,0,1,4.12,0,2.51,2.51,0,0,1,1,1.52l-1.44.4a1.39,1.39,0,0,0-.57-1,2,2,0,0,0-1.08-.28,1.77,1.77,0,0,0-1,.24.73.73,0,0,0-.36.65.71.71,0,0,0,.36.66,2.78,2.78,0,0,0,.95.31l.52.09a8.4,8.4,0,0,1,1.46.38,2.38,2.38,0,0,1,1,.69,1.76,1.76,0,0,1,.38,1.2,2,2,0,0,1-.82,1.72A3.63,3.63,0,0,1,61.51,116.8Z"/><path class="cls-1" d="M69.38,116.8a4.08,4.08,0,0,1-2.34-.63,2.72,2.72,0,0,1-1.14-1.91l1.44-.34a2.22,2.22,0,0,0,.41,1,1.56,1.56,0,0,0,.71.51,2.77,2.77,0,0,0,.92.15,2,2,0,0,0,1.14-.28.88.88,0,0,0,.39-.74.7.7,0,0,0-.37-.66,3.75,3.75,0,0,0-1.11-.34l-.51-.09a6.67,6.67,0,0,1-1.37-.39,2.38,2.38,0,0,1-1-.71,1.78,1.78,0,0,1-.36-1.15,1.92,1.92,0,0,1,.78-1.63,3.43,3.43,0,0,1,2.07-.58,3.47,3.47,0,0,1,2.05.57,2.56,2.56,0,0,1,1,1.52l-1.44.4a1.39,1.39,0,0,0-.57-1,2,2,0,0,0-1.08-.28,1.77,1.77,0,0,0-1,.24.78.78,0,0,0,0,1.31,2.86,2.86,0,0,0,1,.31l.53.09a8.28,8.28,0,0,1,1.45.38,2.47,2.47,0,0,1,1,.69,1.82,1.82,0,0,1,.38,1.2,2,2,0,0,1-.83,1.72A3.63,3.63,0,0,1,69.38,116.8Z"/><path class="cls-1" d="M81.52,116.8a4.06,4.06,0,0,1-2-.46A3.3,3.3,0,0,1,78.19,115a4,4,0,0,1-.5-2v-.22a4,4,0,0,1,.5-2,3.43,3.43,0,0,1,1.36-1.31,4.07,4.07,0,0,1,2-.47,4.14,4.14,0,0,1,2,.47,3.43,3.43,0,0,1,1.36,1.31,4,4,0,0,1,.5,2V113a4,4,0,0,1-.5,2,3.3,3.3,0,0,1-1.36,1.31A4.13,4.13,0,0,1,81.52,116.8Zm0-1.38a2.25,2.25,0,0,0,1.66-.65,2.51,2.51,0,0,0,.63-1.81v-.14a2.47,2.47,0,0,0-.63-1.8,2.39,2.39,0,0,0-3.3,0,2.43,2.43,0,0,0-.64,1.8V113a2.47,2.47,0,0,0,.64,1.81A2.2,2.2,0,0,0,81.52,115.42Z"/><path class="cls-1" d="M87.28,116.59v-7.4h1.51v1.11H89a2.24,2.24,0,0,1,.75-.84,2.75,2.75,0,0,1,1.61-.39,2.92,2.92,0,0,1,1.49.38,2.63,2.63,0,0,1,1,1.06,3.34,3.34,0,0,1,.37,1.64v4.44H92.74v-4.32a1.89,1.89,0,0,0-.48-1.42,1.86,1.86,0,0,0-1.32-.46,2,2,0,0,0-1.54.63,2.64,2.64,0,0,0-.58,1.83v3.74Z"/><path class="cls-1" d="M99.89,116.8a4,4,0,0,1-2-.47A3.31,3.31,0,0,1,96.62,115a4,4,0,0,1-.48-2v-.18a4.21,4.21,0,0,1,.47-2,3.27,3.27,0,0,1,1.3-1.33,3.75,3.75,0,0,1,1.92-.48,3.56,3.56,0,0,1,1.87.48,3.22,3.22,0,0,1,1.25,1.31,4.08,4.08,0,0,1,.45,2v.59H97.72a2.11,2.11,0,0,0,.65,1.55,2.18,2.18,0,0,0,1.55.58,2,2,0,0,0,1.32-.39,2.82,2.82,0,0,0,.68-.9l1.27.66a4.59,4.59,0,0,1-.6.88,3.27,3.27,0,0,1-1,.78A3.76,3.76,0,0,1,99.89,116.8Zm-2.16-4.67h4.1a1.84,1.84,0,0,0-.6-1.31,2.09,2.09,0,0,0-1.41-.47,2.13,2.13,0,0,0-1.42.47A2.08,2.08,0,0,0,97.73,112.13Z"/><path class="cls-1" d="M111.86,116.59a1.44,1.44,0,0,1-1.07-.41,1.5,1.5,0,0,1-.4-1.08v-4.6h-2v-1.31h2v-2.44h1.55v2.44h2.2v1.31h-2.2v4.33q0,.45.42.45h1.54v1.31Z"/><path class="cls-1" d="M119.15,116.8a4.09,4.09,0,0,1-2-.46,3.36,3.36,0,0,1-1.36-1.31,4,4,0,0,1-.49-2v-.22a4,4,0,0,1,.49-2,3.49,3.49,0,0,1,1.36-1.31,4.38,4.38,0,0,1,3.95,0,3.45,3.45,0,0,1,1.37,1.31,4,4,0,0,1,.49,2V113a4,4,0,0,1-.49,2,3.32,3.32,0,0,1-1.37,1.31A4.13,4.13,0,0,1,119.15,116.8Zm0-1.38a2.23,2.23,0,0,0,1.66-.65,2.47,2.47,0,0,0,.64-1.81v-.14a2.47,2.47,0,0,0-.63-1.8,2.4,2.4,0,0,0-3.31,0,2.47,2.47,0,0,0-.64,1.8V113a2.51,2.51,0,0,0,.64,1.81A2.22,2.22,0,0,0,119.15,115.42Z"/><path class="cls-1" d="M130.07,116.59V110.5H128v-1.31h2.07v-1.62a1.39,1.39,0,0,1,1.49-1.48h1.8v1.3h-1.31c-.29,0-.43.15-.43.45v1.35h3.31v1.31h-3.31v6.09Zm5.64-8.36a1,1,0,0,1-.75-.29,1,1,0,0,1-.31-.76,1,1,0,0,1,.31-.76,1.05,1.05,0,0,1,.75-.29,1.07,1.07,0,0,1,.76.29,1,1,0,0,1,.31.76,1,1,0,0,1-.31.76A1,1,0,0,1,135.71,108.23Zm-.78,8.36v-7.4h1.55v7.4Z"/><path class="cls-1" d="M138.76,116.59v-10.5h1.54v10.5Z"/><path class="cls-1" d="M145.37,116.59a1.44,1.44,0,0,1-1.07-.41,1.5,1.5,0,0,1-.4-1.08v-4.6h-2v-1.31h2v-2.44h1.55v2.44h2.2v1.31h-2.2v4.33q0,.45.42.45h1.54v1.31Z"/><path class="cls-1" d="M152.59,116.8a4,4,0,0,1-2-.47,3.38,3.38,0,0,1-1.31-1.34,4.13,4.13,0,0,1-.47-2v-.18a4.21,4.21,0,0,1,.46-2,3.33,3.33,0,0,1,1.3-1.33,3.81,3.81,0,0,1,1.93-.48,3.59,3.59,0,0,1,1.87.48,3.29,3.29,0,0,1,1.25,1.31,4.08,4.08,0,0,1,.45,2v.59h-5.69a2.08,2.08,0,0,0,.66,1.55,2.16,2.16,0,0,0,1.55.58,1.92,1.92,0,0,0,1.31-.39,2.68,2.68,0,0,0,.68-.9l1.28.66a4.25,4.25,0,0,1-.61.88,3.12,3.12,0,0,1-1,.78A3.76,3.76,0,0,1,152.59,116.8Zm-2.16-4.67h4.09a1.84,1.84,0,0,0-.6-1.31,2.35,2.35,0,0,0-2.82,0A2,2,0,0,0,150.43,112.13Z"/><path class="cls-1" d="M158,116.59v-7.4h1.51v.87h.24a1.3,1.3,0,0,1,.58-.68,2.09,2.09,0,0,1,1-.22h.89v1.4h-.95A1.84,1.84,0,0,0,160,111a1.59,1.59,0,0,0-.48,1.27v4.35Z"/><path class="cls-1" d="M170.36,116.59a1.44,1.44,0,0,1-1.07-.41,1.5,1.5,0,0,1-.4-1.08v-4.6h-2v-1.31h2v-2.44h1.55v2.44h2.2v1.31h-2.2v4.33q0,.45.42.45h1.54v1.31Z"/><path class="cls-1" d="M174.46,116.59v-10.5H176v4.15h.24a2.36,2.36,0,0,1,.43-.55,2,2,0,0,1,.74-.44,3.17,3.17,0,0,1,1.16-.18,2.92,2.92,0,0,1,1.49.38,2.63,2.63,0,0,1,1,1.06,3.34,3.34,0,0,1,.37,1.64v4.44h-1.54v-4.32a1.89,1.89,0,0,0-.48-1.42,1.86,1.86,0,0,0-1.32-.46,2,2,0,0,0-1.54.63,2.64,2.64,0,0,0-.58,1.83v3.74Z"/><path class="cls-1" d="M187.07,116.8a4,4,0,0,1-2-.47A3.31,3.31,0,0,1,183.8,115a4,4,0,0,1-.48-2v-.18a4.21,4.21,0,0,1,.47-2,3.27,3.27,0,0,1,1.3-1.33A3.75,3.75,0,0,1,187,109a3.56,3.56,0,0,1,1.87.48,3.22,3.22,0,0,1,1.25,1.31,4.08,4.08,0,0,1,.45,2v.59H184.9a2.11,2.11,0,0,0,.65,1.55,2.18,2.18,0,0,0,1.55.58,2,2,0,0,0,1.32-.39,2.82,2.82,0,0,0,.68-.9l1.27.66a4.59,4.59,0,0,1-.6.88,3.27,3.27,0,0,1-1.05.78A3.76,3.76,0,0,1,187.07,116.8Zm-2.16-4.67H189a1.84,1.84,0,0,0-.6-1.31,2.09,2.09,0,0,0-1.41-.47,2.13,2.13,0,0,0-1.42.47A2.08,2.08,0,0,0,184.91,112.13Z"/><path class="cls-1" d="M199,116.59a1.44,1.44,0,0,1-1.07-.41,1.5,1.5,0,0,1-.4-1.08v-4.6h-2v-1.31h2v-2.44h1.55v2.44h2.2v1.31h-2.2v4.33q0,.45.42.45h1.54v1.31Z"/><path class="cls-1" d="M203.14,116.59v-7.4h1.51v.87h.24a1.3,1.3,0,0,1,.58-.68,2.09,2.09,0,0,1,1-.22h.89v1.4h-1a1.84,1.84,0,0,0-1.23.41,1.59,1.59,0,0,0-.48,1.27v4.35Z"/><path class="cls-1" d="M212.06,116.8a4,4,0,0,1-2-.47,3.31,3.31,0,0,1-1.31-1.34,4,4,0,0,1-.48-2v-.18a4.21,4.21,0,0,1,.47-2,3.27,3.27,0,0,1,1.3-1.33A3.75,3.75,0,0,1,212,109a3.56,3.56,0,0,1,1.87.48,3.22,3.22,0,0,1,1.25,1.31,4.08,4.08,0,0,1,.45,2v.59h-5.68a2.11,2.11,0,0,0,.65,1.55,2.18,2.18,0,0,0,1.55.58,2,2,0,0,0,1.32-.39,2.82,2.82,0,0,0,.68-.9l1.27.66a4.59,4.59,0,0,1-.6.88,3.27,3.27,0,0,1-1,.78A3.76,3.76,0,0,1,212.06,116.8Zm-2.16-4.67H214a1.84,1.84,0,0,0-.6-1.31,2.09,2.09,0,0,0-1.41-.47,2.13,2.13,0,0,0-1.42.47A2.08,2.08,0,0,0,209.9,112.13Z"/><path class="cls-1" d="M220.82,116.8a4,4,0,0,1-2-.47,3.31,3.31,0,0,1-1.31-1.34,4,4,0,0,1-.48-2v-.18a4.21,4.21,0,0,1,.47-2,3.27,3.27,0,0,1,1.3-1.33,3.75,3.75,0,0,1,1.92-.48,3.56,3.56,0,0,1,1.87.48,3.22,3.22,0,0,1,1.25,1.31,4.08,4.08,0,0,1,.45,2v.59h-5.68a2.11,2.11,0,0,0,.65,1.55,2.18,2.18,0,0,0,1.55.58,2,2,0,0,0,1.32-.39,2.82,2.82,0,0,0,.68-.9l1.27.66a4.59,4.59,0,0,1-.6.88,3.27,3.27,0,0,1-1.05.78A3.76,3.76,0,0,1,220.82,116.8Zm-2.16-4.67h4.1a1.84,1.84,0,0,0-.6-1.31,2.09,2.09,0,0,0-1.41-.47,2.13,2.13,0,0,0-1.42.47A2.08,2.08,0,0,0,218.66,112.13Z"/><path class="cls-1" d="M229.22,116.8a4.08,4.08,0,0,1-2.34-.63,2.72,2.72,0,0,1-1.14-1.91l1.44-.34a2.22,2.22,0,0,0,.41,1,1.56,1.56,0,0,0,.71.51,2.77,2.77,0,0,0,.92.15,2,2,0,0,0,1.14-.28.88.88,0,0,0,.39-.74.7.7,0,0,0-.37-.66,3.75,3.75,0,0,0-1.11-.34l-.51-.09a6.67,6.67,0,0,1-1.37-.39,2.38,2.38,0,0,1-1-.71,1.78,1.78,0,0,1-.36-1.15,1.92,1.92,0,0,1,.78-1.63,3.43,3.43,0,0,1,2.07-.58,3.47,3.47,0,0,1,2.05.57,2.56,2.56,0,0,1,1,1.52l-1.44.4a1.39,1.39,0,0,0-.57-1,2,2,0,0,0-1.08-.28,1.77,1.77,0,0,0-1,.24.78.78,0,0,0,0,1.31,2.86,2.86,0,0,0,1,.31l.53.09a8.28,8.28,0,0,1,1.45.38,2.38,2.38,0,0,1,1,.69,1.77,1.77,0,0,1,.39,1.2,2,2,0,0,1-.83,1.72A3.63,3.63,0,0,1,229.22,116.8Z"/><path class="cls-1" d="M235,116.8a1.22,1.22,0,0,1-.88-.35,1.28,1.28,0,0,1,0-1.76,1.26,1.26,0,0,1,.88-.34,1.22,1.22,0,0,1,.88.35,1.27,1.27,0,0,1,0,1.75A1.22,1.22,0,0,1,235,116.8Z"/><path class="cls-1" d="M35.1,156.59v-10.5h4.17a3.77,3.77,0,0,1,1.71.38,3,3,0,0,1,1.19,1.08,3.19,3.19,0,0,1,.43,1.67v.2a3.06,3.06,0,0,1-.45,1.68A2.89,2.89,0,0,1,41,152.18a3.72,3.72,0,0,1-1.69.37H36.72v4Zm1.62-5.51H39.1a2,2,0,0,0,1.37-.45A1.59,1.59,0,0,0,41,149.4v-.15a1.6,1.6,0,0,0-.51-1.24,2,2,0,0,0-1.37-.45H36.72Z"/><path class="cls-1" d="M44.19,156.59v-7.4H45.7v.87h.24a1.26,1.26,0,0,1,.58-.68,2.06,2.06,0,0,1,1-.22h.88v1.4h-.94a1.84,1.84,0,0,0-1.23.41,1.59,1.59,0,0,0-.48,1.27v4.35Z"/><path class="cls-1" d="M53.11,156.8a4,4,0,0,1-2-.47A3.38,3.38,0,0,1,49.83,155a4.13,4.13,0,0,1-.47-2v-.18a4.21,4.21,0,0,1,.46-2,3.33,3.33,0,0,1,1.3-1.33,3.81,3.81,0,0,1,1.93-.48,3.59,3.59,0,0,1,1.87.48,3.29,3.29,0,0,1,1.25,1.31,4.08,4.08,0,0,1,.45,2v.59H50.93a2.08,2.08,0,0,0,.66,1.55,2.16,2.16,0,0,0,1.55.58,1.92,1.92,0,0,0,1.31-.39,2.68,2.68,0,0,0,.68-.9l1.28.66a4.25,4.25,0,0,1-.61.88,3.12,3.12,0,0,1-1,.78A3.76,3.76,0,0,1,53.11,156.8ZM51,152.13H55a1.87,1.87,0,0,0-.59-1.31,2.13,2.13,0,0,0-1.42-.47,2.09,2.09,0,0,0-1.41.47A2,2,0,0,0,51,152.13Z"/><path class="cls-1" d="M61.51,156.8a4.08,4.08,0,0,1-2.34-.63A2.72,2.72,0,0,1,58,154.26l1.44-.34a2.22,2.22,0,0,0,.4,1,1.54,1.54,0,0,0,.72.51,2.73,2.73,0,0,0,.92.15,1.91,1.91,0,0,0,1.13-.28.87.87,0,0,0,.4-.74.71.71,0,0,0-.38-.66,3.75,3.75,0,0,0-1.11-.34l-.51-.09a6.57,6.57,0,0,1-1.36-.39,2.42,2.42,0,0,1-1-.71,1.78,1.78,0,0,1-.36-1.15,1.92,1.92,0,0,1,.78-1.63,4,4,0,0,1,4.12,0,2.51,2.51,0,0,1,1,1.52l-1.44.4a1.39,1.39,0,0,0-.57-.95,2,2,0,0,0-1.08-.28,1.77,1.77,0,0,0-1,.24.73.73,0,0,0-.36.65.71.71,0,0,0,.36.66,2.78,2.78,0,0,0,.95.31l.52.09a8.4,8.4,0,0,1,1.46.38,2.38,2.38,0,0,1,1,.69,1.76,1.76,0,0,1,.38,1.2,2,2,0,0,1-.82,1.72A3.63,3.63,0,0,1,61.51,156.8Z"/><path class="cls-1" d="M69.38,156.8a4.08,4.08,0,0,1-2.34-.63,2.72,2.72,0,0,1-1.14-1.91l1.44-.34a2.22,2.22,0,0,0,.41,1,1.56,1.56,0,0,0,.71.51,2.77,2.77,0,0,0,.92.15,2,2,0,0,0,1.14-.28.88.88,0,0,0,.39-.74.7.7,0,0,0-.37-.66,3.75,3.75,0,0,0-1.11-.34l-.51-.09a6.67,6.67,0,0,1-1.37-.39,2.38,2.38,0,0,1-1-.71,1.78,1.78,0,0,1-.36-1.15,1.92,1.92,0,0,1,.78-1.63,3.43,3.43,0,0,1,2.07-.58,3.47,3.47,0,0,1,2.05.57,2.56,2.56,0,0,1,1,1.52l-1.44.4a1.39,1.39,0,0,0-.57-.95,2,2,0,0,0-1.08-.28,1.77,1.77,0,0,0-1,.24.78.78,0,0,0,0,1.31,2.86,2.86,0,0,0,1,.31l.53.09a8.28,8.28,0,0,1,1.45.38,2.47,2.47,0,0,1,1,.69,1.82,1.82,0,0,1,.38,1.2,2,2,0,0,1-.83,1.72A3.63,3.63,0,0,1,69.38,156.8Z"/><path class="cls-1" d="M78.05,156.59v-7.4h1.52v.87h.24a1.91,1.91,0,0,1,.67-.69,2.3,2.3,0,0,1,1.26-.3,2.38,2.38,0,0,1,1.33.34,2.16,2.16,0,0,1,.76.86h.24a2.32,2.32,0,0,1,.74-.85,2.4,2.4,0,0,1,1.39-.35,2.62,2.62,0,0,1,1.27.3,2.13,2.13,0,0,1,.89.87,2.83,2.83,0,0,1,.33,1.43v4.92H87.14v-4.8a1.27,1.27,0,0,0-1.41-1.41,1.49,1.49,0,0,0-1.15.46,1.9,1.9,0,0,0-.44,1.34v4.41H82.6v-4.8a1.29,1.29,0,0,0-1.41-1.41,1.51,1.51,0,0,0-1.16.46,1.89,1.89,0,0,0-.43,1.34v4.41Z"/><path class="cls-1" d="M93.62,156.72a3,3,0,0,1-1.5-.37,2.66,2.66,0,0,1-1-1.07,3.41,3.41,0,0,1-.38-1.65v-4.44h1.55v4.34a1.89,1.89,0,0,0,.48,1.42,1.86,1.86,0,0,0,1.33.45,2,2,0,0,0,1.53-.63,2.68,2.68,0,0,0,.57-1.84v-3.74h1.55v7.4H96.2v-1.11H96a2.34,2.34,0,0,1-.75.85A2.7,2.7,0,0,1,93.62,156.72Z"/><path class="cls-1" d="M100,156.59v-10.5h1.54v10.5Z"/><path class="cls-1" d="M106.61,156.59a1.44,1.44,0,0,1-1.07-.41,1.5,1.5,0,0,1-.4-1.08v-4.6h-2v-1.31h2v-2.44h1.55v2.44h2.2v1.31h-2.2v4.33q0,.45.42.45h1.54v1.31Z"/><path class="cls-1" d="M111.49,148.19a1.09,1.09,0,0,1-.76-.29,1.09,1.09,0,0,1,0-1.52,1.09,1.09,0,0,1,.76-.29,1.06,1.06,0,0,1,.76.29,1.11,1.11,0,0,1,0,1.52A1.06,1.06,0,0,1,111.49,148.19Zm-.78,8.4v-7.4h1.54v7.4Z"/><path class="cls-1" d="M114.55,159.59v-10.4h1.51v1.07h.24a2.72,2.72,0,0,1,.87-.89,2.92,2.92,0,0,1,1.65-.39,3.27,3.27,0,0,1,3,1.75,4.11,4.11,0,0,1,.47,2.05V153a4.2,4.2,0,0,1-.46,2.05,3.26,3.26,0,0,1-1.25,1.3,3.36,3.36,0,0,1-1.71.45,3.55,3.55,0,0,1-1.21-.18,2.28,2.28,0,0,1-.8-.46,2.55,2.55,0,0,1-.48-.58h-.24v4Zm3.82-4.14a2.27,2.27,0,0,0,1.67-.65,2.48,2.48,0,0,0,.64-1.84v-.14A2.44,2.44,0,0,0,120,151a2.45,2.45,0,0,0-3.3,0,2.48,2.48,0,0,0-.65,1.83V153a2.49,2.49,0,0,0,.65,1.84A2.25,2.25,0,0,0,118.37,155.45Z"/><path class="cls-1" d="M124.16,156.59v-10.5h1.55v10.5Z"/><path class="cls-1" d="M131.39,156.8a4,4,0,0,1-2-.47,3.31,3.31,0,0,1-1.31-1.34,4,4,0,0,1-.48-2v-.18a4.21,4.21,0,0,1,.47-2,3.27,3.27,0,0,1,1.3-1.33,3.75,3.75,0,0,1,1.92-.48,3.56,3.56,0,0,1,1.87.48,3.22,3.22,0,0,1,1.25,1.31,4.08,4.08,0,0,1,.45,2v.59h-5.68a2.11,2.11,0,0,0,.65,1.55,2.18,2.18,0,0,0,1.55.58,2,2,0,0,0,1.32-.39,2.82,2.82,0,0,0,.68-.9l1.27.66a4.59,4.59,0,0,1-.6.88,3.27,3.27,0,0,1-1.05.78A3.76,3.76,0,0,1,131.39,156.8Zm-2.16-4.67h4.1a1.84,1.84,0,0,0-.6-1.31,2.09,2.09,0,0,0-1.41-.47,2.13,2.13,0,0,0-1.42.47A2.08,2.08,0,0,0,129.23,152.13Z"/><path class="cls-1" d="M143.36,156.59a1.44,1.44,0,0,1-1.07-.41,1.5,1.5,0,0,1-.4-1.08v-4.6h-2v-1.31h2v-2.44h1.55v2.44h2.2v1.31h-2.2v4.33q0,.45.42.45h1.54v1.31Z"/><path class="cls-1" d="M150.66,156.8a4.13,4.13,0,0,1-2-.46,3.34,3.34,0,0,1-1.35-1.31,4,4,0,0,1-.5-2v-.22a4,4,0,0,1,.5-2,3.47,3.47,0,0,1,1.35-1.31,4.38,4.38,0,0,1,3.95,0,3.39,3.39,0,0,1,1.37,1.31,4,4,0,0,1,.5,2V153a4,4,0,0,1-.5,2,3.27,3.27,0,0,1-1.37,1.31A4.12,4.12,0,0,1,150.66,156.8Zm0-1.38a2.21,2.21,0,0,0,1.65-.65A2.47,2.47,0,0,0,153,153v-.14a2.47,2.47,0,0,0-.63-1.8,2.41,2.41,0,0,0-3.31,0,2.47,2.47,0,0,0-.63,1.8V153a2.51,2.51,0,0,0,.63,1.81A2.22,2.22,0,0,0,150.66,155.42Z"/><path class="cls-1" d="M163.27,156.8a4.08,4.08,0,0,1-2.34-.63,2.72,2.72,0,0,1-1.14-1.91l1.44-.34a2.22,2.22,0,0,0,.4,1,1.54,1.54,0,0,0,.72.51,2.73,2.73,0,0,0,.92.15,1.91,1.91,0,0,0,1.13-.28.87.87,0,0,0,.4-.74.7.7,0,0,0-.37-.66,3.83,3.83,0,0,0-1.12-.34l-.51-.09a6.57,6.57,0,0,1-1.36-.39,2.38,2.38,0,0,1-1-.71,1.73,1.73,0,0,1-.37-1.15,1.92,1.92,0,0,1,.78-1.63,4,4,0,0,1,4.12,0,2.57,2.57,0,0,1,1.05,1.52l-1.45.4a1.39,1.39,0,0,0-.57-.95,2,2,0,0,0-1.07-.28,1.75,1.75,0,0,0-1,.24.77.77,0,0,0,0,1.31,2.78,2.78,0,0,0,.95.31l.52.09a8.17,8.17,0,0,1,1.46.38,2.38,2.38,0,0,1,1,.69,1.76,1.76,0,0,1,.38,1.2,2,2,0,0,1-.82,1.72A3.63,3.63,0,0,1,163.27,156.8Z"/><path class="cls-1" d="M171.51,156.8a4,4,0,0,1-2-.47,3.31,3.31,0,0,1-1.31-1.34,4,4,0,0,1-.47-2v-.18a4.21,4.21,0,0,1,.46-2,3.27,3.27,0,0,1,1.3-1.33,3.77,3.77,0,0,1,1.92-.48,3.56,3.56,0,0,1,1.87.48,3.22,3.22,0,0,1,1.25,1.31,4.08,4.08,0,0,1,.45,2v.59h-5.68a2.11,2.11,0,0,0,.65,1.55,2.18,2.18,0,0,0,1.55.58,2,2,0,0,0,1.32-.39,2.82,2.82,0,0,0,.68-.9l1.27.66a4.59,4.59,0,0,1-.6.88,3.27,3.27,0,0,1-1,.78A3.71,3.71,0,0,1,171.51,156.8Zm-2.17-4.67h4.1a1.84,1.84,0,0,0-.6-1.31,2.09,2.09,0,0,0-1.41-.47,2,2,0,0,0-2.09,1.78Z"/><path class="cls-1" d="M176.87,156.59v-10.5h1.55v10.5Z"/><path class="cls-1" d="M184.1,156.8a4,4,0,0,1-2-.47,3.31,3.31,0,0,1-1.31-1.34,4,4,0,0,1-.48-2v-.18a4.21,4.21,0,0,1,.47-2,3.27,3.27,0,0,1,1.3-1.33A3.75,3.75,0,0,1,184,149a3.56,3.56,0,0,1,1.87.48,3.22,3.22,0,0,1,1.25,1.31,4.08,4.08,0,0,1,.45,2v.59h-5.68a2.11,2.11,0,0,0,.65,1.55,2.18,2.18,0,0,0,1.55.58,2,2,0,0,0,1.32-.39,2.82,2.82,0,0,0,.68-.9l1.27.66a4.59,4.59,0,0,1-.6.88,3.27,3.27,0,0,1-1.05.78A3.76,3.76,0,0,1,184.1,156.8Zm-2.16-4.67H186a1.84,1.84,0,0,0-.6-1.31,2.09,2.09,0,0,0-1.41-.47,2.13,2.13,0,0,0-1.42.47A2.08,2.08,0,0,0,181.94,152.13Z"/><path class="cls-1" d="M192.91,156.8a4.13,4.13,0,0,1-1.93-.45,3.36,3.36,0,0,1-1.36-1.31,3.92,3.92,0,0,1-.51-2v-.2a3.86,3.86,0,0,1,.51-2,3.43,3.43,0,0,1,1.36-1.31,4.13,4.13,0,0,1,1.93-.46,3.87,3.87,0,0,1,1.81.39,3.32,3.32,0,0,1,1.21,1,3.36,3.36,0,0,1,.59,1.42l-1.5.32a2.47,2.47,0,0,0-.31-.9,1.77,1.77,0,0,0-.68-.65,2.23,2.23,0,0,0-1.09-.24,2.25,2.25,0,0,0-1.16.3,2,2,0,0,0-.82.84,2.68,2.68,0,0,0-.3,1.32V153a2.75,2.75,0,0,0,.3,1.33,2,2,0,0,0,.82.84,2.35,2.35,0,0,0,1.16.29,2,2,0,0,0,1.48-.5,2.34,2.34,0,0,0,.65-1.29l1.5.35a3.92,3.92,0,0,1-.64,1.41,3.3,3.3,0,0,1-1.21,1A4,4,0,0,1,192.91,156.8Z"/><path class="cls-1" d="M200.86,156.59a1.42,1.42,0,0,1-1.07-.41,1.46,1.46,0,0,1-.4-1.08v-4.6h-2v-1.31h2v-2.44h1.54v2.44h2.21v1.31h-2.21v4.33q0,.45.42.45h1.55v1.31Z"/><path class="cls-1" d="M38.58,174.8a4.07,4.07,0,0,1-1.93-.45A3.39,3.39,0,0,1,35.28,173a4,4,0,0,1-.5-2v-.2a4,4,0,0,1,.5-2,3.45,3.45,0,0,1,1.37-1.31,4.08,4.08,0,0,1,1.93-.46,3.87,3.87,0,0,1,1.81.39,3.4,3.4,0,0,1,1.21,1,3.49,3.49,0,0,1,.59,1.42l-1.5.32a2.67,2.67,0,0,0-.31-.9,1.77,1.77,0,0,0-.68-.65,2.23,2.23,0,0,0-1.09-.24,2.32,2.32,0,0,0-1.17.3,2,2,0,0,0-.81.84,2.68,2.68,0,0,0-.3,1.32V171a2.75,2.75,0,0,0,.3,1.33,2,2,0,0,0,.81.84,2.42,2.42,0,0,0,1.17.29,2,2,0,0,0,1.48-.5,2.34,2.34,0,0,0,.65-1.29l1.5.35a4.09,4.09,0,0,1-.64,1.41,3.38,3.38,0,0,1-1.21,1A4,4,0,0,1,38.58,174.8Z"/><path class="cls-1" d="M46.32,174.8a3.49,3.49,0,0,1-1.42-.27,2.25,2.25,0,0,1-1-.8,2.12,2.12,0,0,1-.37-1.27,2.08,2.08,0,0,1,.37-1.27,2.27,2.27,0,0,1,1-.76,3.9,3.9,0,0,1,1.45-.25h2.25v-.48a1.41,1.41,0,0,0-.39-1,1.63,1.63,0,0,0-1.2-.39,1.8,1.8,0,0,0-1.22.38,1.84,1.84,0,0,0-.55,1l-1.44-.46a3.11,3.11,0,0,1,.58-1.09,2.89,2.89,0,0,1,1.06-.79A3.74,3.74,0,0,1,47,167a3.28,3.28,0,0,1,2.27.74,2.64,2.64,0,0,1,.83,2.08v3c0,.3.13.45.42.45h.63v1.29H50a1.27,1.27,0,0,1-.85-.27.91.91,0,0,1-.33-.74v0h-.23a3.54,3.54,0,0,1-.36.52,1.94,1.94,0,0,1-.7.52A2.88,2.88,0,0,1,46.32,174.8Zm.22-1.28A2.09,2.09,0,0,0,48,173a1.89,1.89,0,0,0,.57-1.46v-.15H46.45a1.73,1.73,0,0,0-1,.26.88.88,0,0,0-.37.77,1,1,0,0,0,.39.81A1.69,1.69,0,0,0,46.54,173.52Z"/><path class="cls-1" d="M54.94,174.59a1.42,1.42,0,0,1-1.07-.41,1.46,1.46,0,0,1-.4-1.08v-4.6h-2v-1.31h2v-2.44H55v2.44h2.2v1.31H55v4.33q0,.45.42.45H57v1.31Z"/><path class="cls-1" d="M62.16,174.8a4,4,0,0,1-2-.47A3.31,3.31,0,0,1,58.88,173a4,4,0,0,1-.47-2v-.18a4.21,4.21,0,0,1,.46-2,3.27,3.27,0,0,1,1.3-1.33A3.76,3.76,0,0,1,62.1,167a3.55,3.55,0,0,1,1.86.48,3.25,3.25,0,0,1,1.26,1.31,4.08,4.08,0,0,1,.45,2v.59H60a2.11,2.11,0,0,0,.65,1.55,2.2,2.2,0,0,0,1.56.58,2,2,0,0,0,1.31-.39,2.82,2.82,0,0,0,.68-.9l1.28.66a4.68,4.68,0,0,1-.61.88,3.23,3.23,0,0,1-1,.78A3.79,3.79,0,0,1,62.16,174.8ZM60,170.13h4.09a1.84,1.84,0,0,0-.6-1.31,2.09,2.09,0,0,0-1.41-.47,2.13,2.13,0,0,0-1.42.47A2,2,0,0,0,60,170.13Z"/><path class="cls-1" d="M67.16,170.93v-.23a3.88,3.88,0,0,1,.48-2,3.33,3.33,0,0,1,3-1.73,2.67,2.67,0,0,1,2.51,1.28h.23v-1.07h1.5v8.91a1.49,1.49,0,0,1-.39,1.08,1.47,1.47,0,0,1-1.09.41h-5v-1.35h4.5a.39.39,0,0,0,.44-.45v-2.36h-.25a2.47,2.47,0,0,1-.46.56,2.23,2.23,0,0,1-.79.46,3.53,3.53,0,0,1-1.22.18,3.42,3.42,0,0,1-1.72-.44,3.25,3.25,0,0,1-1.25-1.27A4,4,0,0,1,67.16,170.93ZM71,173.28a2.3,2.3,0,0,0,1.66-.63,2.39,2.39,0,0,0,.65-1.77v-.13a2.37,2.37,0,0,0-.65-1.78,2.51,2.51,0,0,0-3.3,0,2.34,2.34,0,0,0-.66,1.78v.13a2.36,2.36,0,0,0,.66,1.77A2.26,2.26,0,0,0,71,173.28Z"/><path class="cls-1" d="M80.59,174.8a4.06,4.06,0,0,1-2-.46A3.3,3.3,0,0,1,77.26,173a4,4,0,0,1-.5-2v-.22a4,4,0,0,1,.5-2,3.43,3.43,0,0,1,1.36-1.31,4.07,4.07,0,0,1,2-.47,4.14,4.14,0,0,1,2,.47,3.45,3.45,0,0,1,1.37,1.31,4.05,4.05,0,0,1,.49,2V171a4.09,4.09,0,0,1-.49,2,3.32,3.32,0,0,1-1.37,1.31A4.13,4.13,0,0,1,80.59,174.8Zm0-1.38a2.25,2.25,0,0,0,1.66-.65,2.51,2.51,0,0,0,.63-1.81v-.14a2.46,2.46,0,0,0-.62-1.8,2.21,2.21,0,0,0-1.67-.66A2.17,2.17,0,0,0,79,169a2.43,2.43,0,0,0-.64,1.8V171a2.47,2.47,0,0,0,.64,1.81A2.2,2.2,0,0,0,80.59,173.42Z"/><path class="cls-1" d="M86.35,174.59v-7.4h1.51v.87h.25a1.29,1.29,0,0,1,.57-.68,2.13,2.13,0,0,1,1-.22h.88v1.4h-.94a1.84,1.84,0,0,0-1.23.41,1.56,1.56,0,0,0-.48,1.27v4.35Z"/><path class="cls-1" d="M92.93,166.19a1.05,1.05,0,0,1-.75-.29,1.09,1.09,0,0,1,0-1.52,1.05,1.05,0,0,1,.75-.29,1.08,1.08,0,0,1,.77.29,1.11,1.11,0,0,1,0,1.52A1.08,1.08,0,0,1,92.93,166.19Zm-.77,8.4v-7.4H93.7v7.4Z"/><path class="cls-1" d="M99.38,174.8a4,4,0,0,1-2-.47A3.31,3.31,0,0,1,96.11,173a4,4,0,0,1-.48-2v-.18a4.21,4.21,0,0,1,.47-2,3.27,3.27,0,0,1,1.3-1.33,3.75,3.75,0,0,1,1.92-.48,3.56,3.56,0,0,1,1.87.48,3.22,3.22,0,0,1,1.25,1.31,4.08,4.08,0,0,1,.45,2v.59H97.21a2.11,2.11,0,0,0,.65,1.55,2.18,2.18,0,0,0,1.55.58,2,2,0,0,0,1.32-.39,2.82,2.82,0,0,0,.68-.9l1.27.66a4.59,4.59,0,0,1-.6.88,3.27,3.27,0,0,1-1,.78A3.76,3.76,0,0,1,99.38,174.8Zm-2.16-4.67h4.1a1.84,1.84,0,0,0-.6-1.31,2.09,2.09,0,0,0-1.41-.47,2.13,2.13,0,0,0-1.42.47A2.08,2.08,0,0,0,97.22,170.13Z"/><path class="cls-1" d="M107.78,174.8a4.08,4.08,0,0,1-2.34-.63,2.72,2.72,0,0,1-1.14-1.91l1.44-.34a2.22,2.22,0,0,0,.41,1,1.56,1.56,0,0,0,.71.51,2.77,2.77,0,0,0,.92.15,2,2,0,0,0,1.14-.28.88.88,0,0,0,.39-.74.7.7,0,0,0-.37-.66,3.75,3.75,0,0,0-1.11-.34l-.51-.09a6.67,6.67,0,0,1-1.37-.39,2.38,2.38,0,0,1-1-.71,1.78,1.78,0,0,1-.36-1.15,1.92,1.92,0,0,1,.78-1.63,3.43,3.43,0,0,1,2.07-.58,3.47,3.47,0,0,1,2,.57,2.56,2.56,0,0,1,1,1.52l-1.44.4a1.39,1.39,0,0,0-.57-.95,2,2,0,0,0-1.08-.28,1.77,1.77,0,0,0-1,.24.78.78,0,0,0,0,1.31,2.86,2.86,0,0,0,1,.31l.53.09a8.28,8.28,0,0,1,1.45.38,2.47,2.47,0,0,1,1,.69,1.82,1.82,0,0,1,.38,1.2,2,2,0,0,1-.83,1.72A3.63,3.63,0,0,1,107.78,174.8Z"/><path class="cls-1" d="M113.56,174.8a1.22,1.22,0,0,1-.88-.35,1.28,1.28,0,0,1,0-1.76,1.26,1.26,0,0,1,.88-.34,1.22,1.22,0,0,1,.88.35,1.27,1.27,0,0,1,0,1.75A1.22,1.22,0,0,1,113.56,174.8Z"/></svg>