<svg id="Layer_1" data-name="Layer 1" xmlns="http://www.w3.org/2000/svg" viewBox="0 0 274.35 204.16"><defs><style>.cls-1{fill:#fff;}</style></defs><path class="cls-1" d="M15.05,24.08v-8.4h1.3v8.4Z"/><path class="cls-1" d="M18.14,24.08V18.16h1.21v.89h.19a1.7,1.7,0,0,1,.6-.67,2.18,2.18,0,0,1,1.28-.32,2.38,2.38,0,0,1,1.2.3,2.16,2.16,0,0,1,.82.85,2.67,2.67,0,0,1,.3,1.31v3.56H22.5V20.62a1.32,1.32,0,0,0-1.44-1.5,1.61,1.61,0,0,0-1.23.5,2.16,2.16,0,0,0-.46,1.47v3Z"/><path class="cls-1" d="M28,24.24a2.65,2.65,0,0,1-1.35-.36,2.61,2.61,0,0,1-1-1,3.26,3.26,0,0,1-.38-1.64V21a3.33,3.33,0,0,1,.37-1.63,2.6,2.6,0,0,1,1-1A2.66,2.66,0,0,1,28,18a2.71,2.71,0,0,1,1,.15,1.88,1.88,0,0,1,.64.36A1.8,1.8,0,0,1,30,19h.19V15.68h1.23v8.4H30.17v-.84H30a2.26,2.26,0,0,1-.69.69A2.36,2.36,0,0,1,28,24.24Zm.35-1.08a1.83,1.83,0,0,0,1.33-.51,2,2,0,0,0,.52-1.48v-.11a2,2,0,0,0-.52-1.46,1.94,1.94,0,0,0-2.64,0,2,2,0,0,0-.52,1.46v.11A2,2,0,0,0,27,22.65,1.79,1.79,0,0,0,28.31,23.16Z"/><path class="cls-1" d="M35.92,24.24a3.17,3.17,0,0,1-1.57-.37A2.7,2.7,0,0,1,33.3,22.8a3.32,3.32,0,0,1-.38-1.6v-.15a3.33,3.33,0,0,1,.37-1.61,2.68,2.68,0,0,1,1-1.07A3.08,3.08,0,0,1,35.87,18a2.93,2.93,0,0,1,1.5.38,2.66,2.66,0,0,1,1,1.05A3.28,3.28,0,0,1,38.73,21v.47H34.18a1.71,1.71,0,0,0,.52,1.24,1.75,1.75,0,0,0,1.24.46A1.51,1.51,0,0,0,37,22.85a2.23,2.23,0,0,0,.55-.72l1,.53a3.37,3.37,0,0,1-.49.71,2.54,2.54,0,0,1-.83.62A3,3,0,0,1,35.92,24.24Zm-1.73-3.73h3.28A1.45,1.45,0,0,0,37,19.46a1.87,1.87,0,0,0-2.26,0A1.62,1.62,0,0,0,34.19,20.51Z"/><path class="cls-1" d="M39.33,24.08l2.25-3-2.2-2.93h1.45l1.55,2.12h.19l1.55-2.12h1.46l-2.22,2.93,2.26,3H44.14L42.57,21.9h-.19L40.8,24.08Z"/><path class="cls-1" d="M49.28,24.24a3.21,3.21,0,0,1-1.58-.37,2.84,2.84,0,0,1-1.05-1.07,3.31,3.31,0,0,1-.37-1.6v-.15a3.33,3.33,0,0,1,.37-1.61,2.62,2.62,0,0,1,1-1.07A3.06,3.06,0,0,1,49.23,18a2.9,2.9,0,0,1,1.49.38,2.6,2.6,0,0,1,1,1.05A3.28,3.28,0,0,1,52.08,21v.47H47.54a1.67,1.67,0,0,0,.52,1.24,1.73,1.73,0,0,0,1.24.46,1.55,1.55,0,0,0,1.05-.31,2.23,2.23,0,0,0,.55-.72l1,.53a4.34,4.34,0,0,1-.49.71,2.54,2.54,0,0,1-.83.62A3,3,0,0,1,49.28,24.24Zm-1.73-3.73h3.27a1.45,1.45,0,0,0-.48-1.05,1.63,1.63,0,0,0-1.12-.38,1.69,1.69,0,0,0-1.14.38A1.61,1.61,0,0,0,47.55,20.51Z"/><path class="cls-1" d="M56,24.24a3.25,3.25,0,0,1-1.88-.5,2.18,2.18,0,0,1-.91-1.52l1.15-.28a1.88,1.88,0,0,0,.33.78,1.23,1.23,0,0,0,.57.41,2.21,2.21,0,0,0,.74.12,1.53,1.53,0,0,0,.9-.23.7.7,0,0,0,.32-.59.57.57,0,0,0-.3-.53,3,3,0,0,0-.89-.27l-.41-.07a5.57,5.57,0,0,1-1.09-.32,1.83,1.83,0,0,1-.78-.56,1.45,1.45,0,0,1-.29-.92,1.54,1.54,0,0,1,.63-1.31A2.76,2.76,0,0,1,55.74,18a2.79,2.79,0,0,1,1.64.45,2.07,2.07,0,0,1,.84,1.22L57.06,20a1.1,1.1,0,0,0-.45-.76,1.56,1.56,0,0,0-.87-.22,1.4,1.4,0,0,0-.79.19.62.62,0,0,0,0,1,2.33,2.33,0,0,0,.76.25l.42.07a6.34,6.34,0,0,1,1.16.3,2,2,0,0,1,.84.55,1.45,1.45,0,0,1,.3,1,1.63,1.63,0,0,1-.66,1.38A2.88,2.88,0,0,1,56,24.24Z"/><path class="cls-1" d="M34.73,74.71v-7h4.41v1H35.81v2h3v1h-3v2h3.38v1Z"/><path class="cls-1" d="M41.88,74.85a2.32,2.32,0,0,1-.94-.18,1.51,1.51,0,0,1-.66-.53,1.4,1.4,0,0,1-.25-.85,1.33,1.33,0,0,1,.25-.84,1.39,1.39,0,0,1,.67-.51,2.61,2.61,0,0,1,1-.17h1.5v-.32a.94.94,0,0,0-.26-.69,1.1,1.1,0,0,0-.8-.26,1.08,1.08,0,0,0-1.18.9l-1-.31a2.07,2.07,0,0,1,.38-.72,1.92,1.92,0,0,1,.71-.53,2.6,2.6,0,0,1,1.06-.2,2.18,2.18,0,0,1,1.51.49,1.76,1.76,0,0,1,.55,1.39v2c0,.2.09.3.28.3h.42v.86h-.77a.88.88,0,0,1-.57-.18.59.59,0,0,1-.22-.49v0h-.15a1.83,1.83,0,0,1-.24.35,1.37,1.37,0,0,1-.47.35A2.09,2.09,0,0,1,41.88,74.85ZM42,74a1.43,1.43,0,0,0,1-.35,1.3,1.3,0,0,0,.38-1v-.1H42a1.12,1.12,0,0,0-.66.18.56.56,0,0,0-.25.51.65.65,0,0,0,.26.54A1.15,1.15,0,0,0,42,74Z"/><path class="cls-1" d="M48.29,74.85a2.72,2.72,0,0,1-1.28-.3,2.27,2.27,0,0,1-.92-.87,2.7,2.7,0,0,1-.33-1.37v-.13a2.63,2.63,0,0,1,.33-1.36A2.27,2.27,0,0,1,47,70a2.61,2.61,0,0,1,1.28-.31,2.64,2.64,0,0,1,1.21.26,2.15,2.15,0,0,1,.8.69,2.22,2.22,0,0,1,.4,1l-1,.21a1.53,1.53,0,0,0-.21-.6,1.24,1.24,0,0,0-.45-.43,1.46,1.46,0,0,0-.73-.16,1.56,1.56,0,0,0-.78.2,1.33,1.33,0,0,0-.54.56,1.82,1.82,0,0,0-.2.88v.09a1.89,1.89,0,0,0,.2.89,1.33,1.33,0,0,0,.54.56,1.55,1.55,0,0,0,.78.19,1.38,1.38,0,0,0,1-.33,1.54,1.54,0,0,0,.43-.86l1,.23a2.59,2.59,0,0,1-.43.94,2.15,2.15,0,0,1-.8.69A2.64,2.64,0,0,1,48.29,74.85Z"/><path class="cls-1" d="M51.92,74.71v-7h1v2.77h.16a1.57,1.57,0,0,1,.28-.37,1.39,1.39,0,0,1,.49-.29,2.21,2.21,0,0,1,.78-.12,2,2,0,0,1,1,.25,1.79,1.79,0,0,1,.68.71,2.17,2.17,0,0,1,.25,1.09v3h-1V71.83a1.24,1.24,0,0,0-.32-.94,1.2,1.2,0,0,0-.88-.31,1.33,1.33,0,0,0-1,.42A1.78,1.78,0,0,0,53,72.22v2.49Z"/><path class="cls-1" d="M62.64,74.85a2.71,2.71,0,0,1-1.56-.42,1.8,1.8,0,0,1-.76-1.27l1-.23a1.44,1.44,0,0,0,.27.65,1.06,1.06,0,0,0,.47.34,1.79,1.79,0,0,0,.62.1,1.22,1.22,0,0,0,.75-.19.58.58,0,0,0,.27-.49.46.46,0,0,0-.25-.44,2.59,2.59,0,0,0-.74-.23l-.34-.06a4.63,4.63,0,0,1-.91-.26,1.59,1.59,0,0,1-.65-.47,1.2,1.2,0,0,1-.24-.77A1.24,1.24,0,0,1,61.05,70a2.26,2.26,0,0,1,1.38-.39,2.3,2.3,0,0,1,1.36.38,1.69,1.69,0,0,1,.7,1l-1,.27a.92.92,0,0,0-.38-.63,1.25,1.25,0,0,0-.72-.19,1.15,1.15,0,0,0-.66.16.47.47,0,0,0-.24.43.48.48,0,0,0,.23.44,2.08,2.08,0,0,0,.64.21l.35.06a5.28,5.28,0,0,1,1,.25,1.64,1.64,0,0,1,.69.46,1.2,1.2,0,0,1,.26.8,1.34,1.34,0,0,1-.55,1.15A2.45,2.45,0,0,1,62.64,74.85Z"/><path class="cls-1" d="M69.73,76.71V74h-.16a1.57,1.57,0,0,1-.32.39,1.73,1.73,0,0,1-.54.3,2.29,2.29,0,0,1-.8.12,2.26,2.26,0,0,1-1.14-.3,2.22,2.22,0,0,1-.83-.86,2.8,2.8,0,0,1-.31-1.37v-.15a2.73,2.73,0,0,1,.31-1.36,2.22,2.22,0,0,1,2-1.17,2,2,0,0,1,1.1.26,1.81,1.81,0,0,1,.58.59h.16v-.71h1v6.93ZM68.2,74a1.5,1.5,0,0,0,1.11-.43,1.66,1.66,0,0,0,.43-1.23V72.2A1.64,1.64,0,0,0,69.3,71a1.48,1.48,0,0,0-1.1-.43,1.49,1.49,0,0,0-1.1.43,1.64,1.64,0,0,0-.43,1.22v.09a1.66,1.66,0,0,0,.43,1.23A1.49,1.49,0,0,0,68.2,74Z"/><path class="cls-1" d="M74.17,74.8a2,2,0,0,1-1-.25,1.81,1.81,0,0,1-.69-.71,2.24,2.24,0,0,1-.25-1.1v-3h1v2.89a1.28,1.28,0,0,0,.32,1,1.24,1.24,0,0,0,.89.3,1.29,1.29,0,0,0,1-.42,1.78,1.78,0,0,0,.39-1.23V69.78h1v4.93h-1V74h-.16a1.53,1.53,0,0,1-.5.57A1.82,1.82,0,0,1,74.17,74.8Z"/><path class="cls-1" d="M80,74.85a2.4,2.4,0,0,1-1-.18,1.64,1.64,0,0,1-.66-.53,1.47,1.47,0,0,1-.24-.85,1.39,1.39,0,0,1,.24-.84,1.49,1.49,0,0,1,.67-.51,2.7,2.7,0,0,1,1-.17h1.5v-.32a.94.94,0,0,0-.26-.69,1.1,1.1,0,0,0-.8-.26,1.08,1.08,0,0,0-1.18.9l-1-.31a2.07,2.07,0,0,1,.38-.72,1.92,1.92,0,0,1,.71-.53,2.6,2.6,0,0,1,1.06-.2,2.18,2.18,0,0,1,1.51.49,1.76,1.76,0,0,1,.55,1.39v2c0,.2.09.3.28.3h.42v.86h-.77a.88.88,0,0,1-.57-.18.59.59,0,0,1-.22-.49v0h-.15a1.83,1.83,0,0,1-.24.35,1.37,1.37,0,0,1-.47.35A2.09,2.09,0,0,1,80,74.85ZM80.1,74a1.43,1.43,0,0,0,1-.35,1.3,1.3,0,0,0,.38-1v-.1H80a1.12,1.12,0,0,0-.66.18.56.56,0,0,0-.25.51.65.65,0,0,0,.26.54A1.15,1.15,0,0,0,80.1,74Z"/><path class="cls-1" d="M84.19,74.71V69.78h1v.58h.16a.82.82,0,0,1,.38-.45,1.34,1.34,0,0,1,.66-.15H87v.93h-.63a1.18,1.18,0,0,0-.82.28,1,1,0,0,0-.32.84v2.9Z"/><path class="cls-1" d="M90.14,74.85a2.62,2.62,0,0,1-1.31-.31,2.28,2.28,0,0,1-.88-.89,2.76,2.76,0,0,1-.31-1.34v-.12A2.73,2.73,0,0,1,88,70.85a2.23,2.23,0,0,1,.86-.89,2.57,2.57,0,0,1,1.29-.32,2.38,2.38,0,0,1,1.24.32,2.2,2.2,0,0,1,.84.87,2.72,2.72,0,0,1,.3,1.31v.39H88.69a1.44,1.44,0,0,0,.43,1,1.51,1.51,0,0,0,1,.38,1.27,1.27,0,0,0,.87-.26,1.79,1.79,0,0,0,.46-.6l.85.44a2.75,2.75,0,0,1-.41.59,2,2,0,0,1-.69.52A2.51,2.51,0,0,1,90.14,74.85ZM88.7,71.74h2.73a1.23,1.23,0,0,0-.4-.87,1.37,1.37,0,0,0-.94-.32,1.42,1.42,0,0,0-1,.32A1.35,1.35,0,0,0,88.7,71.74Z"/><path class="cls-1" d="M96.27,74.71V69.78h1v.58h.16a.82.82,0,0,1,.38-.45,1.34,1.34,0,0,1,.66-.15h.59v.93h-.63a1.18,1.18,0,0,0-.82.28,1,1,0,0,0-.32.84v2.9Z"/><path class="cls-1" d="M102.22,74.85a2.62,2.62,0,0,1-1.31-.31,2.28,2.28,0,0,1-.88-.89,2.76,2.76,0,0,1-.31-1.34v-.12a2.73,2.73,0,0,1,.31-1.34,2.23,2.23,0,0,1,.86-.89,2.57,2.57,0,0,1,1.29-.32,2.45,2.45,0,0,1,1.25.32,2.24,2.24,0,0,1,.83.87,2.72,2.72,0,0,1,.3,1.31v.39h-3.79a1.44,1.44,0,0,0,.43,1,1.51,1.51,0,0,0,1,.38,1.27,1.27,0,0,0,.87-.26,1.79,1.79,0,0,0,.46-.6l.85.44a2.75,2.75,0,0,1-.41.59,2,2,0,0,1-.69.52A2.51,2.51,0,0,1,102.22,74.85Zm-1.44-3.11h2.73a1.23,1.23,0,0,0-.4-.87,1.37,1.37,0,0,0-.94-.32,1.42,1.42,0,0,0-1,.32A1.35,1.35,0,0,0,100.78,71.74Z"/><path class="cls-1" d="M105.8,76.71V69.78h1v.71H107a1.87,1.87,0,0,1,.57-.59,2,2,0,0,1,1.11-.26,2.2,2.2,0,0,1,1.13.3,2.11,2.11,0,0,1,.83.87,2.74,2.74,0,0,1,.32,1.36v.15a2.8,2.8,0,0,1-.31,1.37,2.22,2.22,0,0,1-.83.86,2.26,2.26,0,0,1-1.14.3,2.39,2.39,0,0,1-.81-.12,1.57,1.57,0,0,1-.53-.3A2.2,2.2,0,0,1,107,74h-.16v2.67ZM108.35,74a1.5,1.5,0,0,0,1.11-.43,1.66,1.66,0,0,0,.43-1.23V72.2a1.64,1.64,0,0,0-.44-1.22,1.48,1.48,0,0,0-1.1-.43,1.49,1.49,0,0,0-1.1.43,1.64,1.64,0,0,0-.43,1.22v.09a1.66,1.66,0,0,0,.43,1.23A1.49,1.49,0,0,0,108.35,74Z"/><path class="cls-1" d="M112.21,74.71V69.78h1v.58h.16a.82.82,0,0,1,.38-.45,1.34,1.34,0,0,1,.66-.15H115v.93h-.63a1.18,1.18,0,0,0-.82.28,1,1,0,0,0-.32.84v2.9Z"/><path class="cls-1" d="M118.16,74.85a2.62,2.62,0,0,1-1.31-.31,2.28,2.28,0,0,1-.88-.89,2.76,2.76,0,0,1-.31-1.34v-.12a2.73,2.73,0,0,1,.31-1.34,2.23,2.23,0,0,1,.86-.89,2.57,2.57,0,0,1,1.29-.32,2.38,2.38,0,0,1,1.24.32,2.2,2.2,0,0,1,.84.87,2.72,2.72,0,0,1,.3,1.31v.39h-3.79a1.44,1.44,0,0,0,.43,1,1.51,1.51,0,0,0,1,.38,1.27,1.27,0,0,0,.87-.26,1.79,1.79,0,0,0,.46-.6l.85.44a2.75,2.75,0,0,1-.41.59,2,2,0,0,1-.69.52A2.51,2.51,0,0,1,118.16,74.85Zm-1.44-3.11h2.73a1.23,1.23,0,0,0-.4-.87,1.37,1.37,0,0,0-.94-.32,1.42,1.42,0,0,0-1,.32A1.35,1.35,0,0,0,116.72,71.74Z"/><path class="cls-1" d="M123.76,74.85a2.71,2.71,0,0,1-1.56-.42,1.8,1.8,0,0,1-.76-1.27l1-.23a1.44,1.44,0,0,0,.27.65,1.06,1.06,0,0,0,.47.34,1.79,1.79,0,0,0,.62.1,1.22,1.22,0,0,0,.75-.19.58.58,0,0,0,.27-.49.46.46,0,0,0-.25-.44,2.59,2.59,0,0,0-.74-.23l-.34-.06a4.63,4.63,0,0,1-.91-.26,1.59,1.59,0,0,1-.65-.47,1.2,1.2,0,0,1-.24-.77,1.24,1.24,0,0,1,.52-1.08,2.26,2.26,0,0,1,1.38-.39,2.3,2.3,0,0,1,1.36.38,1.69,1.69,0,0,1,.7,1l-1,.27a.92.92,0,0,0-.38-.63,1.25,1.25,0,0,0-.72-.19,1.15,1.15,0,0,0-.66.16.47.47,0,0,0-.24.43.48.48,0,0,0,.23.44,2.08,2.08,0,0,0,.64.21l.35.06a5.28,5.28,0,0,1,1,.25,1.64,1.64,0,0,1,.69.46,1.2,1.2,0,0,1,.26.8,1.34,1.34,0,0,1-.55,1.15A2.45,2.45,0,0,1,123.76,74.85Z"/><path class="cls-1" d="M129.25,74.85a2.62,2.62,0,0,1-1.31-.31,2.28,2.28,0,0,1-.88-.89,2.76,2.76,0,0,1-.31-1.34v-.12a2.73,2.73,0,0,1,.31-1.34,2.17,2.17,0,0,1,.86-.89,2.57,2.57,0,0,1,1.29-.32,2.38,2.38,0,0,1,1.24.32,2.2,2.2,0,0,1,.84.87,2.72,2.72,0,0,1,.3,1.31v.39H127.8a1.44,1.44,0,0,0,.43,1,1.51,1.51,0,0,0,1,.38,1.27,1.27,0,0,0,.87-.26,1.79,1.79,0,0,0,.46-.6l.85.44a2.75,2.75,0,0,1-.41.59,2,2,0,0,1-.69.52A2.51,2.51,0,0,1,129.25,74.85Zm-1.44-3.11h2.73a1.23,1.23,0,0,0-.4-.87,1.37,1.37,0,0,0-.94-.32,1.42,1.42,0,0,0-.95.32A1.35,1.35,0,0,0,127.81,71.74Z"/><path class="cls-1" d="M132.83,74.71V69.78h1v.74H134a1.44,1.44,0,0,1,.5-.56,1.86,1.86,0,0,1,1.07-.26,2,2,0,0,1,1,.25,1.86,1.86,0,0,1,.68.71,2.17,2.17,0,0,1,.25,1.09v3h-1V71.83a1.24,1.24,0,0,0-.32-.94,1.2,1.2,0,0,0-.88-.31,1.3,1.3,0,0,0-1,.42,1.74,1.74,0,0,0-.39,1.22v2.49Z"/><path class="cls-1" d="M140.69,74.71a1,1,0,0,1-.72-.27,1,1,0,0,1-.26-.72V70.65h-1.36v-.87h1.36V68.15h1v1.63h1.47v.87h-1.47v2.89c0,.2.09.3.28.3h1v.87Z"/><path class="cls-1" d="M145.44,74.85a2.71,2.71,0,0,1-1.56-.42,1.8,1.8,0,0,1-.76-1.27l1-.23a1.44,1.44,0,0,0,.27.65,1,1,0,0,0,.48.34,1.74,1.74,0,0,0,.61.1,1.28,1.28,0,0,0,.76-.19.59.59,0,0,0,.26-.49.46.46,0,0,0-.25-.44,2.59,2.59,0,0,0-.74-.23l-.34-.06a4.63,4.63,0,0,1-.91-.26,1.59,1.59,0,0,1-.65-.47,1.2,1.2,0,0,1-.24-.77,1.24,1.24,0,0,1,.52-1.08,2.26,2.26,0,0,1,1.38-.39,2.3,2.3,0,0,1,1.36.38,1.69,1.69,0,0,1,.7,1l-1,.27a.92.92,0,0,0-.38-.63,1.25,1.25,0,0,0-.72-.19,1.15,1.15,0,0,0-.66.16.47.47,0,0,0-.24.43.47.47,0,0,0,.24.44,1.93,1.93,0,0,0,.63.21l.35.06a5.28,5.28,0,0,1,1,.25,1.68,1.68,0,0,1,.7.46,1.25,1.25,0,0,1,.25.8,1.34,1.34,0,0,1-.55,1.15A2.45,2.45,0,0,1,145.44,74.85Z"/><path class="cls-1" d="M152.75,74.85a2.4,2.4,0,0,1-.95-.18,1.64,1.64,0,0,1-.66-.53,1.47,1.47,0,0,1-.24-.85,1.39,1.39,0,0,1,.24-.84,1.46,1.46,0,0,1,.68-.51,2.61,2.61,0,0,1,1-.17h1.5v-.32a.94.94,0,0,0-.26-.69,1.1,1.1,0,0,0-.8-.26,1.08,1.08,0,0,0-1.18.9l-1-.31a1.94,1.94,0,0,1,.39-.72,1.81,1.81,0,0,1,.7-.53,2.6,2.6,0,0,1,1.06-.2,2.18,2.18,0,0,1,1.51.49,1.76,1.76,0,0,1,.55,1.39v2c0,.2.09.3.28.3H156v.86h-.77a.88.88,0,0,1-.57-.18.59.59,0,0,1-.22-.49v0h-.15a1.83,1.83,0,0,1-.24.35,1.37,1.37,0,0,1-.47.35A2.09,2.09,0,0,1,152.75,74.85Zm.15-.85a1.43,1.43,0,0,0,1-.35,1.3,1.3,0,0,0,.38-1v-.1h-1.44a1.12,1.12,0,0,0-.66.18.56.56,0,0,0-.25.51.65.65,0,0,0,.26.54A1.15,1.15,0,0,0,152.9,74Z"/><path class="cls-1" d="M161.83,74.85a2.79,2.79,0,0,1-1.29-.3,2.3,2.3,0,0,1-.91-.87,2.7,2.7,0,0,1-.33-1.37v-.13a2.63,2.63,0,0,1,.33-1.36,2.3,2.3,0,0,1,.91-.87,2.67,2.67,0,0,1,1.29-.31,2.64,2.64,0,0,1,1.21.26,2.15,2.15,0,0,1,.8.69,2.22,2.22,0,0,1,.4,1l-1,.21a1.53,1.53,0,0,0-.21-.6,1.24,1.24,0,0,0-.45-.43,1.46,1.46,0,0,0-.73-.16,1.56,1.56,0,0,0-.78.2,1.33,1.33,0,0,0-.54.56,1.82,1.82,0,0,0-.2.88v.09a1.89,1.89,0,0,0,.2.89,1.33,1.33,0,0,0,.54.56,1.55,1.55,0,0,0,.78.19,1.38,1.38,0,0,0,1-.33,1.54,1.54,0,0,0,.43-.86l1,.23a2.59,2.59,0,0,1-.43.94,2.15,2.15,0,0,1-.8.69A2.64,2.64,0,0,1,161.83,74.85Z"/><path class="cls-1" d="M167,74.85a2.4,2.4,0,0,1-1-.18,1.64,1.64,0,0,1-.66-.53,1.47,1.47,0,0,1-.24-.85,1.39,1.39,0,0,1,.24-.84,1.49,1.49,0,0,1,.67-.51,2.7,2.7,0,0,1,1-.17h1.5v-.32a.94.94,0,0,0-.26-.69,1.1,1.1,0,0,0-.8-.26,1.08,1.08,0,0,0-1.18.9l-1-.31a2.07,2.07,0,0,1,.38-.72,1.92,1.92,0,0,1,.71-.53,2.6,2.6,0,0,1,1.06-.2,2.18,2.18,0,0,1,1.51.49,1.76,1.76,0,0,1,.55,1.39v2c0,.2.09.3.28.3h.42v.86h-.77a.88.88,0,0,1-.57-.18.59.59,0,0,1-.22-.49v0h-.15a1.83,1.83,0,0,1-.24.35,1.37,1.37,0,0,1-.47.35A2.09,2.09,0,0,1,167,74.85Zm.15-.85a1.43,1.43,0,0,0,1-.35,1.3,1.3,0,0,0,.38-1v-.1h-1.44a1.12,1.12,0,0,0-.66.18.56.56,0,0,0-.25.51.65.65,0,0,0,.26.54A1.15,1.15,0,0,0,167.14,74Z"/><path class="cls-1" d="M172.74,74.71a1,1,0,0,1-.72-.27,1,1,0,0,1-.26-.72V70.65H170.4v-.87h1.36V68.15h1v1.63h1.47v.87h-1.47v2.89c0,.2.09.3.28.3h1v.87Z"/><path class="cls-1" d="M177.55,74.85a2.62,2.62,0,0,1-1.31-.31,2.28,2.28,0,0,1-.88-.89,2.76,2.76,0,0,1-.31-1.34v-.12a2.73,2.73,0,0,1,.31-1.34,2.17,2.17,0,0,1,.86-.89,2.57,2.57,0,0,1,1.29-.32,2.38,2.38,0,0,1,1.24.32,2.2,2.2,0,0,1,.84.87,2.72,2.72,0,0,1,.3,1.31v.39H176.1a1.44,1.44,0,0,0,.43,1,1.51,1.51,0,0,0,1,.38,1.27,1.27,0,0,0,.87-.26,1.79,1.79,0,0,0,.46-.6l.85.44a2.75,2.75,0,0,1-.41.59,2,2,0,0,1-.69.52A2.51,2.51,0,0,1,177.55,74.85Zm-1.44-3.11h2.73a1.23,1.23,0,0,0-.4-.87,1.37,1.37,0,0,0-.94-.32,1.42,1.42,0,0,0-.95.32A1.35,1.35,0,0,0,176.11,71.74Z"/><path class="cls-1" d="M180.89,72.27v-.15a2.64,2.64,0,0,1,.31-1.33,2.21,2.21,0,0,1,.84-.85,2.26,2.26,0,0,1,1.14-.3,1.88,1.88,0,0,1,1.1.27,1.84,1.84,0,0,1,.57.58H185v-.71h1v5.94a1,1,0,0,1-.27.72.94.94,0,0,1-.72.27H181.7v-.9h3a.26.26,0,0,0,.29-.3V73.94h-.16a2,2,0,0,1-.31.37,1.43,1.43,0,0,1-.53.31,2.31,2.31,0,0,1-.81.12,2.39,2.39,0,0,1-1.15-.29,2.19,2.19,0,0,1-.83-.85A2.67,2.67,0,0,1,180.89,72.27Zm2.57,1.57a1.51,1.51,0,0,0,1.1-.42,1.59,1.59,0,0,0,.44-1.18v-.09a1.47,1.47,0,0,0-1.54-1.6,1.52,1.52,0,0,0-1.1.42,1.54,1.54,0,0,0-.43,1.18v.09a1.59,1.59,0,0,0,.43,1.18A1.52,1.52,0,0,0,183.46,73.84Z"/><path class="cls-1" d="M189.84,74.85a2.85,2.85,0,0,1-1.32-.3,2.31,2.31,0,0,1-.9-.88,2.65,2.65,0,0,1-.33-1.35v-.15a2.59,2.59,0,0,1,.33-1.34,2.31,2.31,0,0,1,.9-.88,3,3,0,0,1,2.64,0,2.27,2.27,0,0,1,.91.88,2.59,2.59,0,0,1,.33,1.34v.15a2.65,2.65,0,0,1-.33,1.35,2.27,2.27,0,0,1-.91.88A2.85,2.85,0,0,1,189.84,74.85Zm0-.92a1.46,1.46,0,0,0,1.1-.43,1.64,1.64,0,0,0,.43-1.21V72.2A1.66,1.66,0,0,0,191,71a1.61,1.61,0,0,0-2.21,0,1.66,1.66,0,0,0-.42,1.2v.09a1.68,1.68,0,0,0,.42,1.21A1.48,1.48,0,0,0,189.84,73.93Z"/><path class="cls-1" d="M193.68,74.71V69.78h1v.58h.16a.79.79,0,0,1,.39-.45,1.28,1.28,0,0,1,.65-.15h.59v.93h-.63A1.18,1.18,0,0,0,195,71a1,1,0,0,0-.32.84v2.9Z"/><path class="cls-1" d="M198.12,76.71v-.9h2.75c.19,0,.28-.1.28-.3V74H201a1.25,1.25,0,0,1-.77.69,2.21,2.21,0,0,1-.78.12,2,2,0,0,1-1-.25,1.81,1.81,0,0,1-.69-.71,2.22,2.22,0,0,1-.25-1.09v-3h1v2.89a1.28,1.28,0,0,0,.32,1,1.24,1.24,0,0,0,.89.3,1.33,1.33,0,0,0,1-.42,1.78,1.78,0,0,0,.38-1.22v-2.5h1v5.94a1,1,0,0,1-.26.72,1,1,0,0,1-.73.27Z"/><path class="cls-1" d="M208.55,74.85a2.85,2.85,0,0,1-1.32-.3,2.31,2.31,0,0,1-.9-.88,2.65,2.65,0,0,1-.33-1.35v-.15a2.59,2.59,0,0,1,.33-1.34,2.31,2.31,0,0,1,.9-.88,3,3,0,0,1,2.64,0,2.27,2.27,0,0,1,.91.88,2.59,2.59,0,0,1,.33,1.34v.15a2.65,2.65,0,0,1-.33,1.35,2.27,2.27,0,0,1-.91.88A2.85,2.85,0,0,1,208.55,74.85Zm0-.92a1.46,1.46,0,0,0,1.1-.43,1.64,1.64,0,0,0,.43-1.21V72.2a1.66,1.66,0,0,0-.42-1.2,1.61,1.61,0,0,0-2.21,0,1.66,1.66,0,0,0-.42,1.2v.09a1.68,1.68,0,0,0,.42,1.21A1.48,1.48,0,0,0,208.55,73.93Z"/><path class="cls-1" d="M213.1,74.71V70.65h-1.38v-.87h1.38V68.7a.93.93,0,0,1,1-1h1.27v.87h-.94a.26.26,0,0,0-.29.3v.9h1.42v.87h-1.42v4.06Z"/><path class="cls-1" d="M221,74.71a1,1,0,0,1-.72-.27,1,1,0,0,1-.26-.72V70.65h-1.36v-.87H220V68.15h1v1.63h1.47v.87h-1.47v2.89c0,.2.09.3.28.3h1v.87Z"/><path class="cls-1" d="M223.73,74.71V69.78h1v.58h.16a.82.82,0,0,1,.38-.45,1.34,1.34,0,0,1,.66-.15h.59v.93h-.63a1.18,1.18,0,0,0-.82.28,1,1,0,0,0-.32.84v2.9Z"/><path class="cls-1" d="M229.68,74.85a2.62,2.62,0,0,1-1.31-.31,2.28,2.28,0,0,1-.88-.89,2.76,2.76,0,0,1-.31-1.34v-.12a2.73,2.73,0,0,1,.31-1.34,2.11,2.11,0,0,1,.86-.89,2.57,2.57,0,0,1,1.29-.32,2.38,2.38,0,0,1,1.24.32,2.2,2.2,0,0,1,.84.87,2.72,2.72,0,0,1,.3,1.31v.39h-3.79a1.44,1.44,0,0,0,.43,1,1.51,1.51,0,0,0,1,.38,1.27,1.27,0,0,0,.87-.26,1.79,1.79,0,0,0,.46-.6l.85.44a2.75,2.75,0,0,1-.41.59,2.06,2.06,0,0,1-.69.52A2.51,2.51,0,0,1,229.68,74.85Zm-1.44-3.11H231a1.23,1.23,0,0,0-.4-.87,1.39,1.39,0,0,0-.94-.32,1.42,1.42,0,0,0-.95.32A1.35,1.35,0,0,0,228.24,71.74Z"/><path class="cls-1" d="M235.52,74.85a2.62,2.62,0,0,1-1.31-.31,2.28,2.28,0,0,1-.88-.89,2.76,2.76,0,0,1-.31-1.34v-.12a2.73,2.73,0,0,1,.31-1.34,2.11,2.11,0,0,1,.86-.89,2.57,2.57,0,0,1,1.29-.32,2.38,2.38,0,0,1,1.24.32,2.2,2.2,0,0,1,.84.87,2.72,2.72,0,0,1,.3,1.31v.39h-3.79a1.44,1.44,0,0,0,.43,1,1.51,1.51,0,0,0,1,.38,1.27,1.27,0,0,0,.87-.26,1.79,1.79,0,0,0,.46-.6l.85.44a2.75,2.75,0,0,1-.41.59,2.06,2.06,0,0,1-.69.52A2.51,2.51,0,0,1,235.52,74.85Zm-1.44-3.11h2.73a1.23,1.23,0,0,0-.4-.87,1.39,1.39,0,0,0-.94-.32,1.42,1.42,0,0,0-.95.32A1.35,1.35,0,0,0,234.08,71.74Z"/><path class="cls-1" d="M239.65,74.85a.84.84,0,0,1-.59-.23.81.81,0,0,1-.23-.59.78.78,0,0,1,.23-.58.84.84,0,0,1,.59-.23.8.8,0,0,1,.58.23.83.83,0,0,1,0,1.17A.8.8,0,0,1,239.65,74.85Z"/><path class="cls-1" d="M34.73,108.71v-7h2.78a2.53,2.53,0,0,1,1.15.26,2,2,0,0,1,.79.72,2.18,2.18,0,0,1,.28,1.11v.13a2.12,2.12,0,0,1-.29,1.12,2.06,2.06,0,0,1-.8.72,2.44,2.44,0,0,1-1.13.25h-1.7v2.69ZM35.81,105H37.4a1.33,1.33,0,0,0,.91-.3,1,1,0,0,0,.34-.82v-.1a1,1,0,0,0-.34-.83,1.33,1.33,0,0,0-.91-.3H35.81Z"/><path class="cls-1" d="M40.79,108.71v-4.93h1v.58H42a.82.82,0,0,1,.38-.45,1.34,1.34,0,0,1,.66-.15h.59v.93H43a1.18,1.18,0,0,0-.82.28,1,1,0,0,0-.32.84v2.9Z"/><path class="cls-1" d="M46.74,108.85a2.62,2.62,0,0,1-1.31-.31,2.26,2.26,0,0,1-.87-.89,2.77,2.77,0,0,1-.32-1.34v-.12a2.73,2.73,0,0,1,.31-1.34,2.19,2.19,0,0,1,.87-.89,2.53,2.53,0,0,1,1.28-.32A2.45,2.45,0,0,1,48,104a2.24,2.24,0,0,1,.83.87,2.72,2.72,0,0,1,.3,1.31v.39H45.29a1.41,1.41,0,0,0,.44,1,1.47,1.47,0,0,0,1,.38,1.32,1.32,0,0,0,.88-.26,1.89,1.89,0,0,0,.45-.6l.85.44a3.08,3.08,0,0,1-.4.59,2.1,2.1,0,0,1-.7.52A2.51,2.51,0,0,1,46.74,108.85Zm-1.44-3.11H48a1.23,1.23,0,0,0-.4-.87,1.54,1.54,0,0,0-1.88,0A1.32,1.32,0,0,0,45.3,105.74Z"/><path class="cls-1" d="M52.34,108.85a2.71,2.71,0,0,1-1.56-.42,1.8,1.8,0,0,1-.76-1.27l1-.23a1.44,1.44,0,0,0,.27.65,1.09,1.09,0,0,0,.48.34,1.74,1.74,0,0,0,.61.1,1.28,1.28,0,0,0,.76-.19.59.59,0,0,0,.26-.49.46.46,0,0,0-.25-.44,2.59,2.59,0,0,0-.74-.23l-.34-.06a4.63,4.63,0,0,1-.91-.26,1.59,1.59,0,0,1-.65-.47,1.2,1.2,0,0,1-.24-.77,1.24,1.24,0,0,1,.52-1.08,2.26,2.26,0,0,1,1.38-.39,2.36,2.36,0,0,1,1.37.38,1.72,1.72,0,0,1,.69,1l-1,.27a.92.92,0,0,0-.38-.63,1.25,1.25,0,0,0-.72-.19,1.15,1.15,0,0,0-.66.16.47.47,0,0,0-.24.43.47.47,0,0,0,.24.44,1.93,1.93,0,0,0,.63.21l.35.06a5.28,5.28,0,0,1,1,.25,1.68,1.68,0,0,1,.7.46,1.2,1.2,0,0,1,.25.8,1.34,1.34,0,0,1-.55,1.15A2.45,2.45,0,0,1,52.34,108.85Z"/><path class="cls-1" d="M57.59,108.85a2.71,2.71,0,0,1-1.56-.42,1.8,1.8,0,0,1-.76-1.27l1-.23a1.44,1.44,0,0,0,.27.65,1.09,1.09,0,0,0,.48.34,1.74,1.74,0,0,0,.61.1,1.28,1.28,0,0,0,.76-.19.59.59,0,0,0,.26-.49.46.46,0,0,0-.25-.44,2.59,2.59,0,0,0-.74-.23l-.34-.06a4.63,4.63,0,0,1-.91-.26,1.59,1.59,0,0,1-.65-.47,1.2,1.2,0,0,1-.24-.77A1.24,1.24,0,0,1,56,104a2.26,2.26,0,0,1,1.38-.39,2.36,2.36,0,0,1,1.37.38,1.72,1.72,0,0,1,.69,1l-1,.27a.92.92,0,0,0-.38-.63,1.25,1.25,0,0,0-.72-.19,1.15,1.15,0,0,0-.66.16.47.47,0,0,0-.24.43.47.47,0,0,0,.24.44,1.93,1.93,0,0,0,.63.21l.35.06a5.28,5.28,0,0,1,1,.25,1.68,1.68,0,0,1,.7.46,1.2,1.2,0,0,1,.25.8,1.34,1.34,0,0,1-.55,1.15A2.45,2.45,0,0,1,57.59,108.85Z"/><path class="cls-1" d="M65.68,108.85a2.85,2.85,0,0,1-1.32-.3,2.31,2.31,0,0,1-.9-.88,2.65,2.65,0,0,1-.33-1.35v-.15a2.59,2.59,0,0,1,.33-1.34,2.31,2.31,0,0,1,.9-.88A3,3,0,0,1,67,104a2.27,2.27,0,0,1,.91.88,2.59,2.59,0,0,1,.33,1.34v.15a2.65,2.65,0,0,1-.33,1.35,2.27,2.27,0,0,1-.91.88A2.85,2.85,0,0,1,65.68,108.85Zm0-.92a1.46,1.46,0,0,0,1.1-.43,1.64,1.64,0,0,0,.43-1.21v-.09a1.66,1.66,0,0,0-.42-1.2,1.48,1.48,0,0,0-1.11-.44,1.45,1.45,0,0,0-1.09.44,1.62,1.62,0,0,0-.43,1.2v.09a1.64,1.64,0,0,0,.43,1.21A1.44,1.44,0,0,0,65.68,107.93Z"/><path class="cls-1" d="M69.52,108.71v-4.93h1v.74h.16a1.44,1.44,0,0,1,.5-.56,1.86,1.86,0,0,1,1.07-.26,2,2,0,0,1,1,.25,1.79,1.79,0,0,1,.68.71,2.17,2.17,0,0,1,.25,1.09v3h-1v-2.88a1.24,1.24,0,0,0-.32-.94,1.2,1.2,0,0,0-.88-.31,1.33,1.33,0,0,0-1,.42,1.78,1.78,0,0,0-.38,1.22v2.49Z"/><path class="cls-1" d="M77.93,108.85a2.62,2.62,0,0,1-1.31-.31,2.28,2.28,0,0,1-.88-.89,2.76,2.76,0,0,1-.31-1.34v-.12a2.73,2.73,0,0,1,.31-1.34,2.23,2.23,0,0,1,.86-.89,2.57,2.57,0,0,1,1.29-.32,2.38,2.38,0,0,1,1.24.32,2.2,2.2,0,0,1,.84.87,2.72,2.72,0,0,1,.3,1.31v.39H76.48a1.44,1.44,0,0,0,.43,1,1.51,1.51,0,0,0,1,.38,1.27,1.27,0,0,0,.87-.26,1.79,1.79,0,0,0,.46-.6l.85.44a2.75,2.75,0,0,1-.41.59,2,2,0,0,1-.69.52A2.51,2.51,0,0,1,77.93,108.85Zm-1.44-3.11h2.73a1.23,1.23,0,0,0-.4-.87,1.37,1.37,0,0,0-.94-.32,1.42,1.42,0,0,0-.95.32A1.35,1.35,0,0,0,76.49,105.74Z"/><path class="cls-1" d="M85.91,108.71a1,1,0,0,1-.72-.27,1,1,0,0,1-.26-.72v-3.07H83.57v-.87h1.36v-1.63h1v1.63h1.47v.87H86v2.89c0,.2.09.3.28.3h1v.87Z"/><path class="cls-1" d="M90.77,108.85a2.85,2.85,0,0,1-1.32-.3,2.31,2.31,0,0,1-.9-.88,2.65,2.65,0,0,1-.33-1.35v-.15a2.59,2.59,0,0,1,.33-1.34,2.31,2.31,0,0,1,.9-.88,3,3,0,0,1,2.64,0,2.27,2.27,0,0,1,.91.88,2.59,2.59,0,0,1,.33,1.34v.15a2.65,2.65,0,0,1-.33,1.35,2.27,2.27,0,0,1-.91.88A2.85,2.85,0,0,1,90.77,108.85Zm0-.92a1.46,1.46,0,0,0,1.1-.43,1.64,1.64,0,0,0,.43-1.21v-.09a1.66,1.66,0,0,0-.42-1.2,1.61,1.61,0,0,0-2.21,0,1.66,1.66,0,0,0-.42,1.2v.09a1.68,1.68,0,0,0,.42,1.21A1.48,1.48,0,0,0,90.77,107.93Z"/><path class="cls-1" d="M98.05,108.71v-4.06H96.67v-.87h1.38V102.7a.93.93,0,0,1,1-1h1.2v.87h-.87a.26.26,0,0,0-.29.3v.9h2.21v.87H99.08v4.06Zm3.76-5.57a.72.72,0,0,1-.51-.19.75.75,0,0,1,0-1,.72.72,0,0,1,.51-.19.68.68,0,0,1,.5.19.72.72,0,0,1,0,1A.68.68,0,0,1,101.81,103.14Zm-.52,5.57v-4.93h1v4.93Z"/><path class="cls-1" d="M103.84,108.71v-7h1v7Z"/><path class="cls-1" d="M108.25,108.71a1,1,0,0,1-.72-.27,1,1,0,0,1-.26-.72v-3.07h-1.36v-.87h1.36v-1.63h1v1.63h1.47v.87H108.3v2.89c0,.2.09.3.28.3h1v.87Z"/><path class="cls-1" d="M113.06,108.85a2.62,2.62,0,0,1-1.31-.31,2.28,2.28,0,0,1-.88-.89,2.76,2.76,0,0,1-.31-1.34v-.12a2.73,2.73,0,0,1,.31-1.34,2.17,2.17,0,0,1,.86-.89,2.57,2.57,0,0,1,1.29-.32,2.38,2.38,0,0,1,1.24.32,2.2,2.2,0,0,1,.84.87,2.72,2.72,0,0,1,.3,1.31v.39h-3.79a1.44,1.44,0,0,0,.43,1,1.51,1.51,0,0,0,1,.38,1.27,1.27,0,0,0,.87-.26,1.79,1.79,0,0,0,.46-.6l.85.44a2.75,2.75,0,0,1-.41.59,2,2,0,0,1-.69.52A2.51,2.51,0,0,1,113.06,108.85Zm-1.44-3.11h2.73a1.23,1.23,0,0,0-.4-.87,1.37,1.37,0,0,0-.94-.32,1.42,1.42,0,0,0-1,.32A1.35,1.35,0,0,0,111.62,105.74Z"/><path class="cls-1" d="M116.64,108.71v-4.93h1v.58h.16a.82.82,0,0,1,.38-.45,1.34,1.34,0,0,1,.66-.15h.59v.93h-.63a1.18,1.18,0,0,0-.82.28,1,1,0,0,0-.32.84v2.9Z"/><path class="cls-1" d="M124.91,108.71a1,1,0,0,1-.72-.27,1,1,0,0,1-.26-.72v-3.07h-1.36v-.87h1.36v-1.63h1v1.63h1.47v.87H125v2.89c0,.2.09.3.28.3h1v.87Z"/><path class="cls-1" d="M127.64,108.71v-7h1v2.77h.16a1.57,1.57,0,0,1,.28-.37,1.39,1.39,0,0,1,.49-.29,2.21,2.21,0,0,1,.78-.12,2,2,0,0,1,1,.25,1.79,1.79,0,0,1,.68.71,2.17,2.17,0,0,1,.25,1.09v3h-1v-2.88a1.24,1.24,0,0,0-.32-.94,1.2,1.2,0,0,0-.88-.31,1.33,1.33,0,0,0-1,.42,1.78,1.78,0,0,0-.38,1.22v2.49Z"/><path class="cls-1" d="M136.05,108.85a2.62,2.62,0,0,1-1.31-.31,2.28,2.28,0,0,1-.88-.89,2.76,2.76,0,0,1-.31-1.34v-.12a2.73,2.73,0,0,1,.31-1.34,2.17,2.17,0,0,1,.86-.89,2.57,2.57,0,0,1,1.29-.32,2.38,2.38,0,0,1,1.24.32,2.2,2.2,0,0,1,.84.87,2.72,2.72,0,0,1,.3,1.31v.39H134.6a1.44,1.44,0,0,0,.43,1,1.51,1.51,0,0,0,1,.38,1.27,1.27,0,0,0,.87-.26,1.79,1.79,0,0,0,.46-.6l.85.44a2.75,2.75,0,0,1-.41.59,2,2,0,0,1-.69.52A2.51,2.51,0,0,1,136.05,108.85Zm-1.44-3.11h2.73a1.23,1.23,0,0,0-.4-.87,1.37,1.37,0,0,0-.94-.32,1.42,1.42,0,0,0-.95.32A1.35,1.35,0,0,0,134.61,105.74Z"/><path class="cls-1" d="M144,108.71a1,1,0,0,1-.72-.27,1,1,0,0,1-.26-.72v-3.07h-1.36v-.87h1.36v-1.63h1v1.63h1.47v.87h-1.47v2.89c0,.2.09.3.28.3h1v.87Z"/><path class="cls-1" d="M146.76,108.71v-4.93h1v.58h.16a.82.82,0,0,1,.38-.45,1.34,1.34,0,0,1,.66-.15h.59v.93h-.63a1.18,1.18,0,0,0-.82.28,1,1,0,0,0-.32.84v2.9Z"/><path class="cls-1" d="M152.71,108.85a2.62,2.62,0,0,1-1.31-.31,2.28,2.28,0,0,1-.88-.89,2.76,2.76,0,0,1-.31-1.34v-.12a2.73,2.73,0,0,1,.31-1.34,2.17,2.17,0,0,1,.86-.89,2.6,2.6,0,0,1,1.29-.32,2.38,2.38,0,0,1,1.24.32,2.2,2.2,0,0,1,.84.87,2.72,2.72,0,0,1,.3,1.31v.39h-3.79a1.44,1.44,0,0,0,.43,1,1.51,1.51,0,0,0,1,.38,1.27,1.27,0,0,0,.87-.26,1.79,1.79,0,0,0,.46-.6l.85.44a3.08,3.08,0,0,1-.4.59,2.1,2.1,0,0,1-.7.52A2.51,2.51,0,0,1,152.71,108.85Zm-1.44-3.11H154a1.23,1.23,0,0,0-.4-.87,1.54,1.54,0,0,0-1.88,0A1.32,1.32,0,0,0,151.27,105.74Z"/><path class="cls-1" d="M158.55,108.85a2.62,2.62,0,0,1-1.31-.31,2.28,2.28,0,0,1-.88-.89,2.76,2.76,0,0,1-.31-1.34v-.12a2.73,2.73,0,0,1,.31-1.34,2.17,2.17,0,0,1,.86-.89,2.57,2.57,0,0,1,1.29-.32,2.38,2.38,0,0,1,1.24.32,2.2,2.2,0,0,1,.84.87,2.72,2.72,0,0,1,.3,1.31v.39H157.1a1.44,1.44,0,0,0,.43,1,1.51,1.51,0,0,0,1,.38,1.27,1.27,0,0,0,.87-.26,1.79,1.79,0,0,0,.46-.6l.85.44a2.75,2.75,0,0,1-.41.59,2,2,0,0,1-.69.52A2.51,2.51,0,0,1,158.55,108.85Zm-1.44-3.11h2.73a1.23,1.23,0,0,0-.4-.87,1.37,1.37,0,0,0-.94-.32,1.42,1.42,0,0,0-.95.32A1.35,1.35,0,0,0,157.11,105.74Z"/><path class="cls-1" d="M164.15,108.85a2.71,2.71,0,0,1-1.56-.42,1.8,1.8,0,0,1-.76-1.27l1-.23a1.44,1.44,0,0,0,.27.65,1.06,1.06,0,0,0,.47.34,1.79,1.79,0,0,0,.62.1,1.22,1.22,0,0,0,.75-.19.58.58,0,0,0,.27-.49.46.46,0,0,0-.25-.44,2.59,2.59,0,0,0-.74-.23l-.34-.06a4.63,4.63,0,0,1-.91-.26,1.59,1.59,0,0,1-.65-.47,1.2,1.2,0,0,1-.24-.77,1.24,1.24,0,0,1,.52-1.08,2.26,2.26,0,0,1,1.38-.39,2.3,2.3,0,0,1,1.36.38,1.69,1.69,0,0,1,.7,1l-1,.27a.92.92,0,0,0-.38-.63,1.25,1.25,0,0,0-.72-.19,1.15,1.15,0,0,0-.66.16.47.47,0,0,0-.24.43.48.48,0,0,0,.23.44,2.08,2.08,0,0,0,.64.21l.35.06a5.28,5.28,0,0,1,1,.25,1.64,1.64,0,0,1,.69.46,1.2,1.2,0,0,1,.26.8,1.34,1.34,0,0,1-.55,1.15A2.45,2.45,0,0,1,164.15,108.85Z"/><path class="cls-1" d="M168,108.85a.84.84,0,0,1-.59-.23.81.81,0,0,1-.23-.59.78.78,0,0,1,.23-.58.84.84,0,0,1,.59-.23.8.8,0,0,1,.58.23.83.83,0,0,1,0,1.17A.8.8,0,0,1,168,108.85Z"/><path class="cls-1" d="M34.73,142.71v-7h2.78a2.53,2.53,0,0,1,1.15.26,2,2,0,0,1,.79.72,2.18,2.18,0,0,1,.28,1.11v.13a2.12,2.12,0,0,1-.29,1.12,2.06,2.06,0,0,1-.8.72,2.44,2.44,0,0,1-1.13.25h-1.7v2.69ZM35.81,139H37.4a1.33,1.33,0,0,0,.91-.3,1,1,0,0,0,.34-.82v-.1a1,1,0,0,0-.34-.83,1.33,1.33,0,0,0-.91-.3H35.81Z"/><path class="cls-1" d="M40.79,142.71v-4.93h1v.58H42a.82.82,0,0,1,.38-.45,1.34,1.34,0,0,1,.66-.15h.59v.93H43a1.18,1.18,0,0,0-.82.28,1,1,0,0,0-.32.84v2.9Z"/><path class="cls-1" d="M46.74,142.85a2.62,2.62,0,0,1-1.31-.31,2.26,2.26,0,0,1-.87-.89,2.77,2.77,0,0,1-.32-1.34v-.12a2.73,2.73,0,0,1,.31-1.34,2.19,2.19,0,0,1,.87-.89,2.53,2.53,0,0,1,1.28-.32A2.45,2.45,0,0,1,48,138a2.24,2.24,0,0,1,.83.87,2.72,2.72,0,0,1,.3,1.31v.39H45.29a1.41,1.41,0,0,0,.44,1,1.47,1.47,0,0,0,1,.38,1.32,1.32,0,0,0,.88-.26,1.89,1.89,0,0,0,.45-.6l.85.44a3.08,3.08,0,0,1-.4.59,2.1,2.1,0,0,1-.7.52A2.51,2.51,0,0,1,46.74,142.85Zm-1.44-3.11H48a1.23,1.23,0,0,0-.4-.87,1.54,1.54,0,0,0-1.88,0A1.32,1.32,0,0,0,45.3,139.74Z"/><path class="cls-1" d="M52.34,142.85a2.71,2.71,0,0,1-1.56-.42,1.8,1.8,0,0,1-.76-1.27l1-.23a1.44,1.44,0,0,0,.27.65,1.09,1.09,0,0,0,.48.34,1.74,1.74,0,0,0,.61.1,1.28,1.28,0,0,0,.76-.19.59.59,0,0,0,.26-.49.46.46,0,0,0-.25-.44,2.59,2.59,0,0,0-.74-.23l-.34-.06a4.63,4.63,0,0,1-.91-.26,1.59,1.59,0,0,1-.65-.47,1.2,1.2,0,0,1-.24-.77,1.24,1.24,0,0,1,.52-1.08,2.26,2.26,0,0,1,1.38-.39,2.36,2.36,0,0,1,1.37.38,1.72,1.72,0,0,1,.69,1l-1,.27a.92.92,0,0,0-.38-.63,1.25,1.25,0,0,0-.72-.19,1.15,1.15,0,0,0-.66.16.47.47,0,0,0-.24.43.47.47,0,0,0,.24.44,1.93,1.93,0,0,0,.63.21l.35.06a5.28,5.28,0,0,1,1,.25,1.68,1.68,0,0,1,.7.46,1.2,1.2,0,0,1,.25.8,1.34,1.34,0,0,1-.55,1.15A2.45,2.45,0,0,1,52.34,142.85Z"/><path class="cls-1" d="M57.59,142.85a2.71,2.71,0,0,1-1.56-.42,1.8,1.8,0,0,1-.76-1.27l1-.23a1.44,1.44,0,0,0,.27.65,1.09,1.09,0,0,0,.48.34,1.74,1.74,0,0,0,.61.1,1.28,1.28,0,0,0,.76-.19.59.59,0,0,0,.26-.49.46.46,0,0,0-.25-.44,2.59,2.59,0,0,0-.74-.23l-.34-.06a4.63,4.63,0,0,1-.91-.26,1.59,1.59,0,0,1-.65-.47,1.2,1.2,0,0,1-.24-.77A1.24,1.24,0,0,1,56,138a2.26,2.26,0,0,1,1.38-.39,2.36,2.36,0,0,1,1.37.38,1.72,1.72,0,0,1,.69,1l-1,.27a.92.92,0,0,0-.38-.63,1.25,1.25,0,0,0-.72-.19,1.15,1.15,0,0,0-.66.16.47.47,0,0,0-.24.43.47.47,0,0,0,.24.44,1.93,1.93,0,0,0,.63.21l.35.06a5.28,5.28,0,0,1,1,.25,1.68,1.68,0,0,1,.7.46,1.2,1.2,0,0,1,.25.8,1.34,1.34,0,0,1-.55,1.15A2.45,2.45,0,0,1,57.59,142.85Z"/><path class="cls-1" d="M63.37,142.71v-4.93h1v.58h.16a1.23,1.23,0,0,1,.45-.46,1.85,1.85,0,0,1,1.73,0,1.44,1.44,0,0,1,.5.57h.16a1.44,1.44,0,0,1,.5-.57,1.58,1.58,0,0,1,.92-.23,1.81,1.81,0,0,1,.85.2,1.43,1.43,0,0,1,.59.58,1.83,1.83,0,0,1,.22,1v3.28h-1v-3.2a.85.85,0,0,0-.94-.94,1,1,0,0,0-.77.31,1.27,1.27,0,0,0-.29.89v2.94h-1v-3.2a.85.85,0,0,0-.94-.94,1,1,0,0,0-.77.31,1.27,1.27,0,0,0-.29.89v2.94Z"/><path class="cls-1" d="M73.75,142.8a2,2,0,0,1-1-.25,1.81,1.81,0,0,1-.69-.71,2.24,2.24,0,0,1-.25-1.1v-3h1v2.89a1.28,1.28,0,0,0,.32,1,1.24,1.24,0,0,0,.89.3,1.29,1.29,0,0,0,1-.42,1.78,1.78,0,0,0,.39-1.23v-2.49h1v4.93h-1V142h-.16a1.53,1.53,0,0,1-.5.57A1.82,1.82,0,0,1,73.75,142.8Z"/><path class="cls-1" d="M78,142.71v-7h1v7Z"/><path class="cls-1" d="M82.41,142.71a.93.93,0,0,1-.71-.27,1,1,0,0,1-.27-.72v-3.07H80.07v-.87h1.36v-1.63h1v1.63h1.47v.87H82.46v2.89c0,.2.09.3.28.3h1v.87Z"/><path class="cls-1" d="M85.66,137.11a.68.68,0,0,1-.5-.19.66.66,0,0,1-.21-.51.64.64,0,0,1,.21-.5.69.69,0,0,1,.5-.2.69.69,0,0,1,.51.2.67.67,0,0,1,.2.5.67.67,0,0,1-.71.7Zm-.52,5.6v-4.93h1v4.93Z"/><path class="cls-1" d="M87.7,144.71v-6.93h1v.71h.16a1.81,1.81,0,0,1,.58-.59,2,2,0,0,1,1.1-.26,2.19,2.19,0,0,1,2,1.17,2.73,2.73,0,0,1,.31,1.36v.15a2.8,2.8,0,0,1-.31,1.37,2.22,2.22,0,0,1-.83.86,2.26,2.26,0,0,1-1.14.3,2.39,2.39,0,0,1-.81-.12,1.57,1.57,0,0,1-.53-.3,2.2,2.2,0,0,1-.32-.39h-.16v2.67ZM90.25,142a1.5,1.5,0,0,0,1.11-.43,1.66,1.66,0,0,0,.43-1.23v-.09a1.64,1.64,0,0,0-.43-1.22,1.5,1.5,0,0,0-1.11-.43,1.47,1.47,0,0,0-1.09.43,1.6,1.6,0,0,0-.44,1.22v.09a1.63,1.63,0,0,0,.44,1.23A1.47,1.47,0,0,0,90.25,142Z"/><path class="cls-1" d="M94.11,142.71v-7h1v7Z"/><path class="cls-1" d="M98.93,142.85a2.62,2.62,0,0,1-1.31-.31,2.26,2.26,0,0,1-.87-.89,2.77,2.77,0,0,1-.32-1.34v-.12a2.73,2.73,0,0,1,.31-1.34,2.19,2.19,0,0,1,.87-.89,2.53,2.53,0,0,1,1.28-.32,2.45,2.45,0,0,1,1.25.32,2.24,2.24,0,0,1,.83.87,2.72,2.72,0,0,1,.3,1.31v.39H97.48a1.41,1.41,0,0,0,.44,1,1.47,1.47,0,0,0,1,.38,1.32,1.32,0,0,0,.88-.26,1.89,1.89,0,0,0,.45-.6l.85.44a3.08,3.08,0,0,1-.4.59,2.1,2.1,0,0,1-.7.52A2.51,2.51,0,0,1,98.93,142.85Zm-1.44-3.11h2.73a1.23,1.23,0,0,0-.4-.87,1.54,1.54,0,0,0-1.88,0A1.32,1.32,0,0,0,97.49,139.74Z"/><path class="cls-1" d="M106.91,142.71a.93.93,0,0,1-.71-.27,1,1,0,0,1-.27-.72v-3.07h-1.36v-.87h1.36v-1.63h1v1.63h1.47v.87H107v2.89c0,.2.09.3.28.3h1v.87Z"/><path class="cls-1" d="M111.77,142.85a2.85,2.85,0,0,1-1.32-.3,2.31,2.31,0,0,1-.9-.88,2.65,2.65,0,0,1-.33-1.35v-.15a2.59,2.59,0,0,1,.33-1.34,2.31,2.31,0,0,1,.9-.88,3,3,0,0,1,2.64,0,2.27,2.27,0,0,1,.91.88,2.59,2.59,0,0,1,.33,1.34v.15a2.65,2.65,0,0,1-.33,1.35,2.27,2.27,0,0,1-.91.88A2.85,2.85,0,0,1,111.77,142.85Zm0-.92a1.46,1.46,0,0,0,1.1-.43,1.64,1.64,0,0,0,.43-1.21v-.09a1.66,1.66,0,0,0-.42-1.2,1.48,1.48,0,0,0-1.11-.44,1.45,1.45,0,0,0-1.09.44,1.62,1.62,0,0,0-.43,1.2v.09a1.64,1.64,0,0,0,.43,1.21A1.44,1.44,0,0,0,111.77,141.93Z"/><path class="cls-1" d="M120.18,142.85a2.71,2.71,0,0,1-1.56-.42,1.8,1.8,0,0,1-.76-1.27l1-.23a1.44,1.44,0,0,0,.27.65,1.06,1.06,0,0,0,.47.34,1.79,1.79,0,0,0,.62.1,1.22,1.22,0,0,0,.75-.19.58.58,0,0,0,.27-.49.46.46,0,0,0-.25-.44,2.59,2.59,0,0,0-.74-.23l-.34-.06a4.63,4.63,0,0,1-.91-.26,1.59,1.59,0,0,1-.65-.47,1.2,1.2,0,0,1-.24-.77,1.24,1.24,0,0,1,.52-1.08,2.26,2.26,0,0,1,1.38-.39,2.3,2.3,0,0,1,1.36.38,1.69,1.69,0,0,1,.7,1l-1,.27a.92.92,0,0,0-.38-.63,1.25,1.25,0,0,0-.72-.19,1.15,1.15,0,0,0-.66.16.47.47,0,0,0-.24.43.48.48,0,0,0,.23.44,2.08,2.08,0,0,0,.64.21l.35.06a5.28,5.28,0,0,1,1,.25,1.64,1.64,0,0,1,.69.46,1.2,1.2,0,0,1,.26.8,1.34,1.34,0,0,1-.55,1.15A2.45,2.45,0,0,1,120.18,142.85Z"/><path class="cls-1" d="M125.67,142.85a2.62,2.62,0,0,1-1.31-.31,2.28,2.28,0,0,1-.88-.89,2.76,2.76,0,0,1-.31-1.34v-.12a2.73,2.73,0,0,1,.31-1.34,2.17,2.17,0,0,1,.86-.89,2.57,2.57,0,0,1,1.29-.32,2.38,2.38,0,0,1,1.24.32,2.2,2.2,0,0,1,.84.87,2.72,2.72,0,0,1,.3,1.31v.39h-3.79a1.44,1.44,0,0,0,.43,1,1.51,1.51,0,0,0,1,.38,1.27,1.27,0,0,0,.87-.26,1.79,1.79,0,0,0,.46-.6l.85.44a2.75,2.75,0,0,1-.41.59,2,2,0,0,1-.69.52A2.51,2.51,0,0,1,125.67,142.85Zm-1.44-3.11H127a1.23,1.23,0,0,0-.4-.87,1.37,1.37,0,0,0-.94-.32,1.42,1.42,0,0,0-1,.32A1.35,1.35,0,0,0,124.23,139.74Z"/><path class="cls-1" d="M129.25,142.71v-7h1v7Z"/><path class="cls-1" d="M134.07,142.85a2.62,2.62,0,0,1-1.31-.31,2.28,2.28,0,0,1-.88-.89,2.88,2.88,0,0,1-.31-1.34v-.12a2.73,2.73,0,0,1,.31-1.34,2.19,2.19,0,0,1,.87-.89,2.53,2.53,0,0,1,1.28-.32,2.38,2.38,0,0,1,1.24.32,2.2,2.2,0,0,1,.84.87,2.72,2.72,0,0,1,.3,1.31v.39h-3.79a1.44,1.44,0,0,0,.43,1,1.51,1.51,0,0,0,1,.38,1.32,1.32,0,0,0,.88-.26,1.89,1.89,0,0,0,.45-.6l.85.44a3.08,3.08,0,0,1-.4.59,2.1,2.1,0,0,1-.7.52A2.51,2.51,0,0,1,134.07,142.85Zm-1.44-3.11h2.73a1.23,1.23,0,0,0-.4-.87,1.54,1.54,0,0,0-1.88,0A1.32,1.32,0,0,0,132.63,139.74Z"/><path class="cls-1" d="M139.94,142.85a2.72,2.72,0,0,1-1.28-.3,2.18,2.18,0,0,1-.91-.87,2.6,2.6,0,0,1-.34-1.37v-.13a2.54,2.54,0,0,1,.34-1.36,2.18,2.18,0,0,1,.91-.87,2.61,2.61,0,0,1,1.28-.31,2.64,2.64,0,0,1,1.21.26,2.26,2.26,0,0,1,.81.69,2.34,2.34,0,0,1,.39.95l-1,.21a1.53,1.53,0,0,0-.21-.6,1.24,1.24,0,0,0-.45-.43,1.46,1.46,0,0,0-.73-.16,1.52,1.52,0,0,0-.77.2,1.35,1.35,0,0,0-.55.56,1.82,1.82,0,0,0-.2.88v.09a1.89,1.89,0,0,0,.2.89,1.35,1.35,0,0,0,.55.56,1.52,1.52,0,0,0,.77.19,1.38,1.38,0,0,0,1-.33,1.54,1.54,0,0,0,.43-.86l1,.23a2.74,2.74,0,0,1-.42.94,2.26,2.26,0,0,1-.81.69A2.64,2.64,0,0,1,139.94,142.85Z"/><path class="cls-1" d="M145.24,142.71a1,1,0,0,1-.72-.27,1,1,0,0,1-.26-.72v-3.07H142.9v-.87h1.36v-1.63h1v1.63h1.47v.87h-1.47v2.89c0,.2.09.3.28.3h1v.87Z"/><path class="cls-1" d="M152.81,142.85a2.79,2.79,0,0,1-1.29-.3,2.22,2.22,0,0,1-.9-.87,2.6,2.6,0,0,1-.34-1.37v-.13a2.54,2.54,0,0,1,.34-1.36,2.22,2.22,0,0,1,.9-.87,2.67,2.67,0,0,1,1.29-.31,2.64,2.64,0,0,1,1.21.26,2.26,2.26,0,0,1,.81.69,2.34,2.34,0,0,1,.39.95l-1,.21a1.53,1.53,0,0,0-.21-.6,1.24,1.24,0,0,0-.45-.43,1.46,1.46,0,0,0-.73-.16,1.59,1.59,0,0,0-.78.2,1.39,1.39,0,0,0-.54.56,1.82,1.82,0,0,0-.2.88v.09a1.89,1.89,0,0,0,.2.89,1.39,1.39,0,0,0,.54.56,1.58,1.58,0,0,0,.78.19,1.38,1.38,0,0,0,1-.33,1.54,1.54,0,0,0,.43-.86l1,.23a2.74,2.74,0,0,1-.42.94,2.26,2.26,0,0,1-.81.69A2.64,2.64,0,0,1,152.81,142.85Z"/><path class="cls-1" d="M158,142.85a2.4,2.4,0,0,1-.95-.18,1.64,1.64,0,0,1-.66-.53,1.47,1.47,0,0,1-.24-.85,1.39,1.39,0,0,1,.24-.84,1.46,1.46,0,0,1,.68-.51,2.61,2.61,0,0,1,1-.17h1.5v-.32a.94.94,0,0,0-.26-.69,1.1,1.1,0,0,0-.8-.26,1.08,1.08,0,0,0-1.18.9l-1-.31a2.07,2.07,0,0,1,.38-.72,1.92,1.92,0,0,1,.71-.53,2.6,2.6,0,0,1,1.06-.2,2.18,2.18,0,0,1,1.51.49,1.76,1.76,0,0,1,.55,1.39v2c0,.2.09.3.28.3h.42v.86h-.77a.88.88,0,0,1-.57-.18.59.59,0,0,1-.22-.49v0h-.15a1.83,1.83,0,0,1-.24.35,1.37,1.37,0,0,1-.47.35A2.09,2.09,0,0,1,158,142.85Zm.15-.85a1.43,1.43,0,0,0,1-.35,1.3,1.3,0,0,0,.38-1v-.1h-1.44a1.12,1.12,0,0,0-.66.18.56.56,0,0,0-.25.51.65.65,0,0,0,.26.54A1.15,1.15,0,0,0,158.12,142Z"/><path class="cls-1" d="M163.72,142.71a1,1,0,0,1-.72-.27,1,1,0,0,1-.26-.72v-3.07h-1.36v-.87h1.36v-1.63h1v1.63h1.47v.87h-1.47v2.89c0,.2.09.3.28.3h1v.87Z"/><path class="cls-1" d="M168.53,142.85a2.62,2.62,0,0,1-1.31-.31,2.28,2.28,0,0,1-.88-.89,2.76,2.76,0,0,1-.31-1.34v-.12a2.73,2.73,0,0,1,.31-1.34,2.19,2.19,0,0,1,.87-.89,2.53,2.53,0,0,1,1.28-.32,2.38,2.38,0,0,1,1.24.32,2.2,2.2,0,0,1,.84.87,2.72,2.72,0,0,1,.3,1.31v.39h-3.79a1.44,1.44,0,0,0,.43,1,1.51,1.51,0,0,0,1,.38,1.32,1.32,0,0,0,.88-.26,1.89,1.89,0,0,0,.45-.6l.85.44a3.08,3.08,0,0,1-.4.59,2.1,2.1,0,0,1-.7.52A2.51,2.51,0,0,1,168.53,142.85Zm-1.44-3.11h2.73a1.23,1.23,0,0,0-.4-.87,1.54,1.54,0,0,0-1.88,0A1.32,1.32,0,0,0,167.09,139.74Z"/><path class="cls-1" d="M171.87,140.27v-.15a2.64,2.64,0,0,1,.31-1.33,2.21,2.21,0,0,1,.84-.85,2.26,2.26,0,0,1,1.14-.3,1.88,1.88,0,0,1,1.1.27,1.84,1.84,0,0,1,.57.58H176v-.71h1v5.94a1,1,0,0,1-.27.72.94.94,0,0,1-.72.27h-3.32v-.9h3a.26.26,0,0,0,.29-.3v-1.57h-.16a2,2,0,0,1-.31.37,1.43,1.43,0,0,1-.53.31,2.31,2.31,0,0,1-.81.12,2.39,2.39,0,0,1-1.15-.29,2.26,2.26,0,0,1-.83-.85A2.67,2.67,0,0,1,171.87,140.27Zm2.57,1.57a1.53,1.53,0,0,0,1.11-.42,1.59,1.59,0,0,0,.43-1.18v-.09a1.47,1.47,0,0,0-1.54-1.6,1.52,1.52,0,0,0-1.1.42,1.54,1.54,0,0,0-.43,1.18v.09a1.59,1.59,0,0,0,.43,1.18A1.52,1.52,0,0,0,174.44,141.84Z"/><path class="cls-1" d="M180.82,142.85a2.78,2.78,0,0,1-1.31-.3,2.27,2.27,0,0,1-.91-.88,2.65,2.65,0,0,1-.33-1.35v-.15a2.59,2.59,0,0,1,.33-1.34,2.27,2.27,0,0,1,.91-.88,2.67,2.67,0,0,1,1.31-.31,2.74,2.74,0,0,1,1.32.31,2.27,2.27,0,0,1,.91.88,2.59,2.59,0,0,1,.33,1.34v.15a2.65,2.65,0,0,1-.33,1.35,2.27,2.27,0,0,1-.91.88A2.85,2.85,0,0,1,180.82,142.85Zm0-.92a1.5,1.5,0,0,0,1.11-.43,1.68,1.68,0,0,0,.42-1.21v-.09a1.66,1.66,0,0,0-.42-1.2,1.61,1.61,0,0,0-2.21,0,1.66,1.66,0,0,0-.42,1.2v.09a1.68,1.68,0,0,0,.42,1.21A1.48,1.48,0,0,0,180.82,141.93Z"/><path class="cls-1" d="M184.66,142.71v-4.93h1v.58h.16a.79.79,0,0,1,.39-.45,1.28,1.28,0,0,1,.65-.15h.59v.93h-.63a1.18,1.18,0,0,0-.82.28,1,1,0,0,0-.32.84v2.9Z"/><path class="cls-1" d="M189.05,137.11a.68.68,0,0,1-.5-.19.66.66,0,0,1-.21-.51.64.64,0,0,1,.21-.5.69.69,0,0,1,.5-.2.69.69,0,0,1,.51.2.67.67,0,0,1,.2.5.67.67,0,0,1-.71.7Zm-.52,5.6v-4.93h1v4.93Z"/><path class="cls-1" d="M193.35,142.85a2.62,2.62,0,0,1-1.31-.31,2.26,2.26,0,0,1-.87-.89,2.77,2.77,0,0,1-.32-1.34v-.12a2.73,2.73,0,0,1,.31-1.34A2.19,2.19,0,0,1,192,138a2.53,2.53,0,0,1,1.28-.32,2.38,2.38,0,0,1,1.24.32,2.2,2.2,0,0,1,.84.87,2.72,2.72,0,0,1,.3,1.31v.39H191.9a1.41,1.41,0,0,0,.44,1,1.47,1.47,0,0,0,1,.38,1.32,1.32,0,0,0,.88-.26,1.89,1.89,0,0,0,.45-.6l.85.44a3.08,3.08,0,0,1-.4.59,2.1,2.1,0,0,1-.7.52A2.51,2.51,0,0,1,193.35,142.85Zm-1.44-3.11h2.73a1.23,1.23,0,0,0-.4-.87,1.54,1.54,0,0,0-1.88,0A1.32,1.32,0,0,0,191.91,139.74Z"/><path class="cls-1" d="M199,142.85a2.71,2.71,0,0,1-1.56-.42,1.8,1.8,0,0,1-.76-1.27l1-.23a1.44,1.44,0,0,0,.27.65,1,1,0,0,0,.48.34,1.74,1.74,0,0,0,.61.1,1.28,1.28,0,0,0,.76-.19.59.59,0,0,0,.26-.49.46.46,0,0,0-.25-.44,2.59,2.59,0,0,0-.74-.23l-.34-.06a4.63,4.63,0,0,1-.91-.26,1.59,1.59,0,0,1-.65-.47,1.2,1.2,0,0,1-.24-.77,1.24,1.24,0,0,1,.52-1.08,2.26,2.26,0,0,1,1.38-.39,2.3,2.3,0,0,1,1.36.38,1.69,1.69,0,0,1,.7,1l-1,.27a.92.92,0,0,0-.38-.63,1.25,1.25,0,0,0-.72-.19,1.15,1.15,0,0,0-.66.16.47.47,0,0,0-.24.43.47.47,0,0,0,.24.44,1.93,1.93,0,0,0,.63.21l.35.06a5.28,5.28,0,0,1,1,.25,1.64,1.64,0,0,1,.69.46,1.2,1.2,0,0,1,.26.8,1.34,1.34,0,0,1-.55,1.15A2.45,2.45,0,0,1,199,142.85Z"/><path class="cls-1" d="M202.8,142.85a.8.8,0,0,1-.58-.23A.78.78,0,0,1,202,142a.75.75,0,0,1,.24-.58.85.85,0,0,1,1.16,0,.83.83,0,0,1,0,1.17A.8.8,0,0,1,202.8,142.85Z"/></svg>