<svg id="Layer_1" data-name="Layer 1" xmlns="http://www.w3.org/2000/svg" viewBox="0 0 274.35 204.16"><defs><style>.cls-1{fill:#fff;}.cls-2{fill:#ff931e;}</style></defs><path class="cls-1" d="M16.22,26.18l-1.55-10.5h1.62l1.26,9.4h.24l1.62-9.4h2.84l1.62,9.4h.24l1.24-9.4H27l-1.54,10.5H22.59l-1.65-9.54H20.7l-1.63,9.54Z"/><path class="cls-1" d="M30.8,26.39a3.53,3.53,0,0,1-1.42-.27,2.25,2.25,0,0,1-1-.8A2.12,2.12,0,0,1,28,24.05a2.06,2.06,0,0,1,.37-1.27,2.2,2.2,0,0,1,1-.76,3.9,3.9,0,0,1,1.45-.25h2.25v-.48a1.41,1.41,0,0,0-.39-1,1.63,1.63,0,0,0-1.2-.39,1.75,1.75,0,0,0-1.21.38,1.79,1.79,0,0,0-.56,1l-1.44-.46a3,3,0,0,1,.58-1.09,2.79,2.79,0,0,1,1.06-.79,3.82,3.82,0,0,1,1.59-.3,3.27,3.27,0,0,1,2.26.74,2.64,2.64,0,0,1,.83,2.08v3.05q0,.45.42.45h.63v1.29H34.5a1.29,1.29,0,0,1-.85-.27.91.91,0,0,1-.33-.74v0h-.23a3.54,3.54,0,0,1-.36.52,2,2,0,0,1-.7.52A3,3,0,0,1,30.8,26.39ZM31,25.11a2.13,2.13,0,0,0,1.5-.53,1.91,1.91,0,0,0,.57-1.46V23H30.93a1.66,1.66,0,0,0-1,.26.87.87,0,0,0-.37.77,1,1,0,0,0,.39.81A1.69,1.69,0,0,0,31,25.11Z"/><path class="cls-1" d="M37.16,26.18V15.68H38.7v10.5Z"/><path class="cls-1" d="M41,26.18V15.68h1.54v6h.24l2.91-2.88h2.06L44,22.37l3.86,3.81h-2l-3-3.08h-.24v3.08Z"/><path class="cls-1" d="M50,17.78a1.06,1.06,0,0,1-.76-.3,1,1,0,0,1-.3-.75,1,1,0,0,1,.3-.76,1.15,1.15,0,0,1,1.53,0,1,1,0,0,1,.3.76,1,1,0,0,1-.3.75A1,1,0,0,1,50,17.78Zm-.78,8.4v-7.4h1.55v7.4Z"/><path class="cls-1" d="M53.1,26.18v-7.4h1.52v1.11h.24a2.24,2.24,0,0,1,.75-.84,2.72,2.72,0,0,1,1.6-.39A2.92,2.92,0,0,1,58.7,19a2.67,2.67,0,0,1,1,1.05,3.41,3.41,0,0,1,.38,1.65v4.44H58.56V21.86a1.87,1.87,0,0,0-.48-1.42A1.81,1.81,0,0,0,56.76,20a2,2,0,0,0-1.54.63,2.64,2.64,0,0,0-.57,1.83v3.74Z"/><path class="cls-1" d="M62,22.52v-.23a3.88,3.88,0,0,1,.47-2,3.33,3.33,0,0,1,3-1.73,2.67,2.67,0,0,1,2.51,1.28h.24V18.78h1.5v8.91a1.5,1.5,0,0,1-.4,1.08,1.47,1.47,0,0,1-1.09.41h-5V27.83h4.5a.39.39,0,0,0,.44-.45V25h-.24a2.85,2.85,0,0,1-.47.56,2.23,2.23,0,0,1-.79.46,3.82,3.82,0,0,1-2.94-.26,3.28,3.28,0,0,1-1.25-1.28A4,4,0,0,1,62,22.52Zm3.85,2.35a2.27,2.27,0,0,0,1.66-.64,2.36,2.36,0,0,0,.65-1.76v-.13a2.35,2.35,0,0,0-.64-1.78,2.29,2.29,0,0,0-1.67-.62,2.25,2.25,0,0,0-1.64.62,2.32,2.32,0,0,0-.65,1.78v.13a2.32,2.32,0,0,0,.65,1.76A2.22,2.22,0,0,0,65.82,24.87Z"/><path class="cls-1" d="M79.19,26.39a4.07,4.07,0,0,1-1.93-.45,3.39,3.39,0,0,1-1.37-1.31,4,4,0,0,1-.5-2.05v-.2a4,4,0,0,1,.5-2.05A3.43,3.43,0,0,1,77.26,19a4,4,0,0,1,1.93-.46A3.87,3.87,0,0,1,81,19a3.4,3.4,0,0,1,1.21,1,3.49,3.49,0,0,1,.59,1.42l-1.5.32a2.67,2.67,0,0,0-.31-.9,1.85,1.85,0,0,0-.68-.65A2.23,2.23,0,0,0,79.22,20a2.39,2.39,0,0,0-1.17.29,2.11,2.11,0,0,0-.81.84,2.64,2.64,0,0,0-.3,1.33v.14a2.64,2.64,0,0,0,.3,1.33,2,2,0,0,0,.81.84,2.39,2.39,0,0,0,1.17.29,2,2,0,0,0,1.48-.51,2.21,2.21,0,0,0,.64-1.28l1.5.35A3.9,3.9,0,0,1,82.21,25,3.26,3.26,0,0,1,81,26,3.87,3.87,0,0,1,79.19,26.39Z"/><path class="cls-1" d="M88.09,26.39a4.21,4.21,0,0,1-2-.46,3.43,3.43,0,0,1-1.36-1.31,4,4,0,0,1-.49-2v-.22a3.93,3.93,0,0,1,.49-2A3.43,3.43,0,0,1,86.12,19a4.38,4.38,0,0,1,3.95,0,3.33,3.33,0,0,1,1.37,1.31,3.93,3.93,0,0,1,.49,2v.22a4,4,0,0,1-.49,2,3.33,3.33,0,0,1-1.37,1.31A4.25,4.25,0,0,1,88.09,26.39Zm0-1.38a2.18,2.18,0,0,0,1.66-.66,2.43,2.43,0,0,0,.64-1.8v-.14a2.51,2.51,0,0,0-.63-1.81,2.43,2.43,0,0,0-3.31,0,2.51,2.51,0,0,0-.63,1.81v.14a2.47,2.47,0,0,0,.63,1.8A2.2,2.2,0,0,0,88.09,25Z"/><path class="cls-1" d="M93.85,26.18v-7.4h1.52v1.11h.24a2.24,2.24,0,0,1,.75-.84,2.72,2.72,0,0,1,1.6-.39,3,3,0,0,1,1.5.38,2.71,2.71,0,0,1,1,1.05,3.41,3.41,0,0,1,.38,1.65v4.44H99.31V21.86a1.87,1.87,0,0,0-.48-1.42A1.81,1.81,0,0,0,97.51,20a2,2,0,0,0-1.53.63,2.59,2.59,0,0,0-.58,1.83v3.74Z"/><path class="cls-1" d="M105.64,26.18a1.44,1.44,0,0,1-1.07-.41,1.5,1.5,0,0,1-.4-1.08v-4.6h-2V18.78h2V16.34h1.55v2.44h2.2v1.31h-2.2v4.33q0,.45.42.45h1.54v1.31Z"/><path class="cls-1" d="M109.74,26.18v-7.4h1.51v.87h.24a1.27,1.27,0,0,1,.58-.68,2,2,0,0,1,1-.22h.89v1.4h-1a1.79,1.79,0,0,0-1.23.41,1.58,1.58,0,0,0-.48,1.27v4.35Z"/><path class="cls-1" d="M118.74,26.39a4.18,4.18,0,0,1-2-.46,3.36,3.36,0,0,1-1.36-1.31,4,4,0,0,1-.5-2v-.22a3.93,3.93,0,0,1,.5-2A3.36,3.36,0,0,1,116.77,19a4.07,4.07,0,0,1,2-.47,4.14,4.14,0,0,1,2,.47,3.36,3.36,0,0,1,1.36,1.31,3.93,3.93,0,0,1,.5,2v.22a4,4,0,0,1-.5,2,3.36,3.36,0,0,1-1.36,1.31A4.25,4.25,0,0,1,118.74,26.39Zm0-1.38a2.21,2.21,0,0,0,1.66-.66,2.47,2.47,0,0,0,.63-1.8v-.14a2.51,2.51,0,0,0-.63-1.81,2.42,2.42,0,0,0-3.3,0,2.47,2.47,0,0,0-.64,1.81v.14a2.43,2.43,0,0,0,.64,1.8A2.17,2.17,0,0,0,118.74,25Z"/><path class="cls-1" d="M124.5,26.18V15.68H126v10.5Z"/><path class="cls-1" d="M131.37,26.39a4.08,4.08,0,0,1-2.34-.63,2.72,2.72,0,0,1-1.14-1.91l1.44-.34a2.22,2.22,0,0,0,.4,1,1.54,1.54,0,0,0,.72.51,2.73,2.73,0,0,0,.92.15,1.91,1.91,0,0,0,1.13-.28.87.87,0,0,0,.4-.74.71.71,0,0,0-.38-.66,3.75,3.75,0,0,0-1.11-.34L130.9,23a6.57,6.57,0,0,1-1.36-.39,2.42,2.42,0,0,1-1-.71,1.78,1.78,0,0,1-.36-1.15,1.91,1.91,0,0,1,.78-1.63,3.37,3.37,0,0,1,2.07-.58,3.52,3.52,0,0,1,2,.56,2.56,2.56,0,0,1,1,1.53l-1.44.4a1.37,1.37,0,0,0-.57-.95,1.93,1.93,0,0,0-1.08-.28,1.86,1.86,0,0,0-1,.23.75.75,0,0,0-.36.66.71.71,0,0,0,.36.66,2.78,2.78,0,0,0,.95.31l.52.09a8.4,8.4,0,0,1,1.46.38,2.38,2.38,0,0,1,1,.69,1.76,1.76,0,0,1,.38,1.2,2,2,0,0,1-.82,1.72A3.63,3.63,0,0,1,131.37,26.39Z"/><path class="cls-1" d="M71.06,126v25.17H21.65V126H71.06m3-3H18.65v31.17H74.06V123Z"/><rect class="cls-2" x="18.65" y="148.25" width="55.41" height="5.9"/><rect class="cls-2" x="18.65" y="122.98" width="55.41" height="5.9"/><path class="cls-1" d="M71.06,55.21V80.38H21.65V55.21H71.06m3-3H18.65V83.38H74.06V52.21Z"/><rect class="cls-2" x="18.65" y="52.21" width="8.53" height="31.17"/><rect class="cls-2" x="65.53" y="52.21" width="8.53" height="31.17"/><path class="cls-1" d="M86.13,53.79V43.29h3.05l2.29,9.42h.24L94,43.29h3v10.5H95.48V44.43h-.24L93,53.79H90.23L88,44.43h-.24v9.36Z"/><path class="cls-1" d="M102.75,54a4.18,4.18,0,0,1-2-.45,3.39,3.39,0,0,1-1.36-1.32,4,4,0,0,1-.49-2V50a3.89,3.89,0,0,1,.49-2,3.39,3.39,0,0,1,1.36-1.32,4.06,4.06,0,0,1,2-.46,4.13,4.13,0,0,1,2,.46A3.41,3.41,0,0,1,106.1,48a3.89,3.89,0,0,1,.49,2v.23a4,4,0,0,1-.49,2,3.41,3.41,0,0,1-1.37,1.32A4.25,4.25,0,0,1,102.75,54Zm0-1.38a2.21,2.21,0,0,0,1.66-.65,2.5,2.5,0,0,0,.64-1.81V50a2.51,2.51,0,0,0-.63-1.81,2.24,2.24,0,0,0-1.67-.65,2.2,2.2,0,0,0-1.64.65,2.47,2.47,0,0,0-.64,1.81v.13a2.46,2.46,0,0,0,.64,1.81A2.16,2.16,0,0,0,102.75,52.62Z"/><path class="cls-1" d="M110,53.79l-2.49-7.39h1.63l2,6.25h.24l2-6.25h1.64l-2.49,7.39Z"/><path class="cls-1" d="M119.55,54a3.87,3.87,0,0,1-2-.47,3.38,3.38,0,0,1-1.32-1.33,4.2,4.2,0,0,1-.47-2V50a4.15,4.15,0,0,1,.47-2,3.33,3.33,0,0,1,1.29-1.34,3.91,3.91,0,0,1,1.93-.47,3.68,3.68,0,0,1,1.87.47A3.35,3.35,0,0,1,122.61,48a4.12,4.12,0,0,1,.45,2v.58h-5.68a2.11,2.11,0,0,0,.65,1.56,2.2,2.2,0,0,0,1.55.57,1.92,1.92,0,0,0,1.31-.39,2.71,2.71,0,0,0,.69-.9l1.27.66a4.3,4.3,0,0,1-.61.89,3.12,3.12,0,0,1-1,.78A3.77,3.77,0,0,1,119.55,54Zm-2.16-4.66h4.1a1.82,1.82,0,0,0-.6-1.31,2,2,0,0,0-1.41-.48,2.07,2.07,0,0,0-1.42.48A2,2,0,0,0,117.39,49.34Z"/><path class="cls-1" d="M131.52,53.79a1.42,1.42,0,0,1-1.07-.4,1.46,1.46,0,0,1-.4-1.08V47.7h-2V46.4h2V44h1.55V46.4h2.2v1.3h-2.2V52q0,.45.42.45h1.54v1.3Z"/><path class="cls-1" d="M135.62,53.79V43.29h1.54v4.16h.24a2.1,2.1,0,0,1,1.16-1,3.53,3.53,0,0,1,1.17-.17,2.94,2.94,0,0,1,1.49.37,2.76,2.76,0,0,1,1,1.06,3.37,3.37,0,0,1,.37,1.64v4.44h-1.54V49.47a1.85,1.85,0,0,0-.48-1.41,1.81,1.81,0,0,0-1.32-.46,2,2,0,0,0-1.54.63,2.59,2.59,0,0,0-.58,1.83v3.73Z"/><path class="cls-1" d="M148.23,54a3.87,3.87,0,0,1-2-.47A3.38,3.38,0,0,1,145,52.2a4.2,4.2,0,0,1-.47-2V50a4.15,4.15,0,0,1,.47-2,3.33,3.33,0,0,1,1.29-1.34,3.91,3.91,0,0,1,1.93-.47,3.68,3.68,0,0,1,1.87.47A3.35,3.35,0,0,1,151.29,48a4.12,4.12,0,0,1,.45,2v.58h-5.68a2.11,2.11,0,0,0,.65,1.56,2.2,2.2,0,0,0,1.55.57,1.92,1.92,0,0,0,1.31-.39,2.71,2.71,0,0,0,.69-.9l1.27.66a4.3,4.3,0,0,1-.61.89,3.12,3.12,0,0,1-1,.78A3.77,3.77,0,0,1,148.23,54Zm-2.16-4.66h4.1a1.82,1.82,0,0,0-.6-1.31,2,2,0,0,0-1.41-.48,2.07,2.07,0,0,0-1.42.48A2,2,0,0,0,146.07,49.34Z"/><path class="cls-1" d="M157.43,53.79V46.4h1.51v.87h.24a1.94,1.94,0,0,1,.68-.69,2.3,2.3,0,0,1,1.26-.3,2.27,2.27,0,0,1,1.32.34,2.1,2.1,0,0,1,.76.86h.24a2.35,2.35,0,0,1,.74-.86,2.4,2.4,0,0,1,1.39-.34,2.77,2.77,0,0,1,1.28.29,2.23,2.23,0,0,1,.88.87,2.85,2.85,0,0,1,.33,1.43v4.92h-1.54V49a1.29,1.29,0,0,0-1.41-1.41,1.52,1.52,0,0,0-1.16.47,1.87,1.87,0,0,0-.43,1.33v4.41H162V49a1.39,1.39,0,0,0-.37-1,1.42,1.42,0,0,0-1-.37,1.5,1.5,0,0,0-1.15.47,1.87,1.87,0,0,0-.44,1.33v4.41Z"/><path class="cls-1" d="M173.75,54a4.25,4.25,0,0,1-2-.45,3.43,3.43,0,0,1-1.35-1.32,4,4,0,0,1-.5-2V50a3.89,3.89,0,0,1,.5-2,3.43,3.43,0,0,1,1.35-1.32,4.49,4.49,0,0,1,4,0A3.39,3.39,0,0,1,177.09,48a3.89,3.89,0,0,1,.5,2v.23a4,4,0,0,1-.5,2,3.39,3.39,0,0,1-1.36,1.32A4.25,4.25,0,0,1,173.75,54Zm0-1.38A2.17,2.17,0,0,0,175.4,52a2.46,2.46,0,0,0,.64-1.81V50a2.51,2.51,0,0,0-.63-1.81,2.21,2.21,0,0,0-1.66-.65,2.24,2.24,0,0,0-1.65.65,2.51,2.51,0,0,0-.63,1.81v.13A2.49,2.49,0,0,0,172.1,52,2.2,2.2,0,0,0,173.75,52.62Z"/><path class="cls-1" d="M182.34,53.93a3,3,0,0,1-1.5-.38,2.57,2.57,0,0,1-1-1.06,3.3,3.3,0,0,1-.38-1.65V46.4H181v4.33a1.65,1.65,0,0,0,1.81,1.88,1.93,1.93,0,0,0,1.52-.64,2.62,2.62,0,0,0,.58-1.84V46.4h1.55v7.39h-1.52V52.68h-.24a2.26,2.26,0,0,1-.75.85A2.63,2.63,0,0,1,182.34,53.93Z"/><path class="cls-1" d="M191.75,54a4.06,4.06,0,0,1-2.34-.63,2.7,2.7,0,0,1-1.14-1.9l1.44-.35a2.27,2.27,0,0,0,.4,1,1.56,1.56,0,0,0,.71.51,2.83,2.83,0,0,0,.93.15,1.92,1.92,0,0,0,1.13-.29.87.87,0,0,0,.4-.73.71.71,0,0,0-.38-.66,3.72,3.72,0,0,0-1.11-.35l-.51-.09a6.57,6.57,0,0,1-1.36-.39,2.4,2.4,0,0,1-1-.7,1.81,1.81,0,0,1-.36-1.16,1.89,1.89,0,0,1,.78-1.62,3.37,3.37,0,0,1,2.07-.58,3.54,3.54,0,0,1,2,.56,2.59,2.59,0,0,1,1,1.52l-1.44.41a1.37,1.37,0,0,0-.57-1,1.93,1.93,0,0,0-1.08-.28,1.86,1.86,0,0,0-1,.23.74.74,0,0,0-.36.65.72.72,0,0,0,.35.66,2.93,2.93,0,0,0,.95.32l.53.09a8.41,8.41,0,0,1,1.46.37,2.5,2.5,0,0,1,1,.69,1.82,1.82,0,0,1,.38,1.2,2.06,2.06,0,0,1-.82,1.73A3.63,3.63,0,0,1,191.75,54Z"/><path class="cls-1" d="M200,54a3.87,3.87,0,0,1-2-.47,3.38,3.38,0,0,1-1.32-1.33,4.2,4.2,0,0,1-.47-2V50a4,4,0,0,1,.47-2A3.33,3.33,0,0,1,198,46.66a3.91,3.91,0,0,1,1.93-.47,3.68,3.68,0,0,1,1.87.47A3.35,3.35,0,0,1,203,48a4.12,4.12,0,0,1,.45,2v.58h-5.68a2.11,2.11,0,0,0,.65,1.56,2.2,2.2,0,0,0,1.55.57,1.92,1.92,0,0,0,1.31-.39,2.85,2.85,0,0,0,.69-.9l1.27.66a4.3,4.3,0,0,1-.61.89,3.12,3.12,0,0,1-1,.78A3.77,3.77,0,0,1,200,54Zm-2.16-4.66h4.1a1.82,1.82,0,0,0-.6-1.31,2,2,0,0,0-1.41-.48,2.07,2.07,0,0,0-1.42.48A2,2,0,0,0,197.82,49.34Z"/><path class="cls-1" d="M212,53.79a1.42,1.42,0,0,1-1.07-.4,1.46,1.46,0,0,1-.4-1.08V47.7h-2V46.4h2V44H212V46.4h2.2v1.3H212V52q0,.45.42.45H214v1.3Z"/><path class="cls-1" d="M219.24,54a4.18,4.18,0,0,1-2-.45,3.39,3.39,0,0,1-1.36-1.32,4,4,0,0,1-.49-2V50a3.89,3.89,0,0,1,.49-2,3.39,3.39,0,0,1,1.36-1.32,4.06,4.06,0,0,1,2-.46,4.13,4.13,0,0,1,2,.46A3.41,3.41,0,0,1,222.59,48a3.89,3.89,0,0,1,.49,2v.23a4,4,0,0,1-.49,2,3.41,3.41,0,0,1-1.37,1.32A4.25,4.25,0,0,1,219.24,54Zm0-1.38A2.21,2.21,0,0,0,220.9,52a2.5,2.5,0,0,0,.64-1.81V50a2.47,2.47,0,0,0-.64-1.81,2.42,2.42,0,0,0-3.3,0A2.47,2.47,0,0,0,217,50v.13A2.46,2.46,0,0,0,217.6,52,2.16,2.16,0,0,0,219.24,52.62Z"/><path class="cls-1" d="M231.6,53.79a1.42,1.42,0,0,1-1.07-.4,1.46,1.46,0,0,1-.4-1.08V47.7h-2V46.4h2V44h1.55V46.4h2.2v1.3h-2.2V52c0,.3.13.45.41.45h1.55v1.3Z"/><path class="cls-1" d="M235.69,53.79V43.29h1.55v4.16h.24a2.1,2.1,0,0,1,1.16-1,3.51,3.51,0,0,1,1.16-.17,3,3,0,0,1,1.5.37,2.74,2.74,0,0,1,1,1.06,3.37,3.37,0,0,1,.38,1.64v4.44h-1.55V49.47a1.89,1.89,0,0,0-.47-1.41,1.84,1.84,0,0,0-1.33-.46,2,2,0,0,0-1.53.63,2.59,2.59,0,0,0-.58,1.83v3.73Z"/><path class="cls-1" d="M248.31,54a3.91,3.91,0,0,1-2-.47A3.35,3.35,0,0,1,245,52.2a4.2,4.2,0,0,1-.47-2V50a4.14,4.14,0,0,1,.46-2,3.35,3.35,0,0,1,1.3-1.34,3.91,3.91,0,0,1,1.93-.47,3.68,3.68,0,0,1,1.87.47A3.35,3.35,0,0,1,251.37,48a4.12,4.12,0,0,1,.45,2v.58h-5.69a2.12,2.12,0,0,0,.66,1.56,2.2,2.2,0,0,0,1.55.57,1.92,1.92,0,0,0,1.31-.39,2.68,2.68,0,0,0,.68-.9l1.28.66a4.3,4.3,0,0,1-.61.89,3.12,3.12,0,0,1-1,.78A3.77,3.77,0,0,1,248.31,54Zm-2.16-4.66h4.09a1.82,1.82,0,0,0-.6-1.31,2.31,2.31,0,0,0-2.82,0A2,2,0,0,0,246.15,49.34Z"/><path class="cls-1" d="M86.18,71.79V61.29h1.54v4.16H88a2.1,2.1,0,0,1,1.16-1,3.53,3.53,0,0,1,1.17-.17,2.94,2.94,0,0,1,1.49.37,2.69,2.69,0,0,1,1,1.06,3.37,3.37,0,0,1,.37,1.64v4.44H91.64V67.47a1.85,1.85,0,0,0-.48-1.41,1.81,1.81,0,0,0-1.32-.46,2,2,0,0,0-1.54.63,2.59,2.59,0,0,0-.58,1.83v3.73Z"/><path class="cls-1" d="M98.87,72a4.25,4.25,0,0,1-2-.45,3.43,3.43,0,0,1-1.35-1.32,4,4,0,0,1-.5-2V68a3.89,3.89,0,0,1,.5-2,3.43,3.43,0,0,1,1.35-1.32,4.49,4.49,0,0,1,4,0A3.39,3.39,0,0,1,102.21,66a3.89,3.89,0,0,1,.5,2v.23a4,4,0,0,1-.5,2,3.39,3.39,0,0,1-1.36,1.32A4.25,4.25,0,0,1,98.87,72Zm0-1.38a2.17,2.17,0,0,0,1.65-.65,2.46,2.46,0,0,0,.64-1.81V68a2.51,2.51,0,0,0-.63-1.81,2.21,2.21,0,0,0-1.66-.65,2.24,2.24,0,0,0-1.65.65A2.51,2.51,0,0,0,96.59,68v.13A2.49,2.49,0,0,0,97.22,70,2.2,2.2,0,0,0,98.87,70.62Z"/><path class="cls-1" d="M104.63,71.79V64.4h1.51v.87h.24a1.23,1.23,0,0,1,.58-.68,2,2,0,0,1,1-.22h.89v1.39h-1a1.8,1.8,0,0,0-1.23.42,1.56,1.56,0,0,0-.48,1.26v4.35Z"/><path class="cls-1" d="M111.21,63.39a1,1,0,0,1-.76-.29,1,1,0,0,1-.3-.76,1,1,0,0,1,.3-.75,1.13,1.13,0,0,1,1.53,0,1,1,0,0,1,.3.75,1,1,0,0,1-.3.76A1,1,0,0,1,111.21,63.39Zm-.78,8.4V64.4H112v7.39Z"/><path class="cls-1" d="M114,71.79V69.9l4.37-4V65.7h-4.22V64.4H120v1.9l-4.38,4v.2h4.5v1.3Z"/><path class="cls-1" d="M125.31,72a4.18,4.18,0,0,1-2-.45A3.39,3.39,0,0,1,122,70.23a4,4,0,0,1-.49-2V68a3.89,3.89,0,0,1,.49-2,3.39,3.39,0,0,1,1.36-1.32,4.06,4.06,0,0,1,2-.46,4.13,4.13,0,0,1,2,.46A3.41,3.41,0,0,1,128.66,66a3.89,3.89,0,0,1,.49,2v.23a4,4,0,0,1-.49,2,3.41,3.41,0,0,1-1.37,1.32A4.25,4.25,0,0,1,125.31,72Zm0-1.38A2.21,2.21,0,0,0,127,70a2.5,2.5,0,0,0,.64-1.81V68a2.51,2.51,0,0,0-.63-1.81,2.24,2.24,0,0,0-1.67-.65,2.2,2.2,0,0,0-1.64.65A2.47,2.47,0,0,0,123,68v.13a2.46,2.46,0,0,0,.64,1.81A2.16,2.16,0,0,0,125.31,70.62Z"/><path class="cls-1" d="M131.07,71.79V64.4h1.52v1.11h.24a2.24,2.24,0,0,1,.75-.84,2.72,2.72,0,0,1,1.6-.39,2.92,2.92,0,0,1,1.49.37,2.69,2.69,0,0,1,1,1.06,3.37,3.37,0,0,1,.38,1.64v4.44h-1.55V67.47a1.85,1.85,0,0,0-.48-1.41,1.81,1.81,0,0,0-1.32-.46,2,2,0,0,0-1.54.63,2.64,2.64,0,0,0-.57,1.83v3.73Z"/><path class="cls-1" d="M142.86,71.79a1.42,1.42,0,0,1-1.07-.4,1.46,1.46,0,0,1-.4-1.08V65.7h-2V64.4h2V62h1.55V64.4h2.2v1.3h-2.2V70q0,.45.42.45h1.54v1.3Z"/><path class="cls-1" d="M149.24,72a3.53,3.53,0,0,1-1.42-.27,2.23,2.23,0,0,1-1-.79,2.15,2.15,0,0,1-.37-1.28,2,2,0,0,1,.37-1.26,2.2,2.2,0,0,1,1-.76,3.9,3.9,0,0,1,1.45-.26h2.25V66.9a1.39,1.39,0,0,0-.39-1,1.63,1.63,0,0,0-1.2-.39,1.75,1.75,0,0,0-1.21.37,1.82,1.82,0,0,0-.56,1l-1.44-.47a3,3,0,0,1,.58-1.08,2.79,2.79,0,0,1,1.06-.79,3.82,3.82,0,0,1,1.59-.3,3.27,3.27,0,0,1,2.26.73,2.66,2.66,0,0,1,.83,2.09v3q0,.45.42.45h.63v1.29h-1.16a1.29,1.29,0,0,1-.85-.27.89.89,0,0,1-.33-.73v-.05h-.23a3.56,3.56,0,0,1-.36.53,2,2,0,0,1-.7.52A3,3,0,0,1,149.24,72Zm.22-1.27a2.13,2.13,0,0,0,1.5-.53,1.93,1.93,0,0,0,.57-1.47v-.15h-2.16a1.66,1.66,0,0,0-1,.27.87.87,0,0,0-.37.77,1,1,0,0,0,.39.81A1.69,1.69,0,0,0,149.46,70.73Z"/><path class="cls-1" d="M155.6,71.79V61.29h1.54v10.5Z"/><path class="cls-1" d="M167.54,72a3,3,0,0,1-1.66-.39,2.73,2.73,0,0,1-.86-.87h-.24v1.05h-1.52V61.29h1.55V65.4h.24a2.51,2.51,0,0,1,.48-.57,2.23,2.23,0,0,1,.79-.46,3.61,3.61,0,0,1,1.22-.18,3.36,3.36,0,0,1,1.71.45,3.24,3.24,0,0,1,1.24,1.3,4.21,4.21,0,0,1,.47,2v.23a4.12,4.12,0,0,1-.48,2.05A3.29,3.29,0,0,1,167.54,72Zm-.45-1.35a2.23,2.23,0,0,0,1.65-.64,2.48,2.48,0,0,0,.66-1.85V68a2.48,2.48,0,0,0-.65-1.83,2.25,2.25,0,0,0-1.66-.65,2.27,2.27,0,0,0-1.65.65,2.48,2.48,0,0,0-.65,1.83v.13a2.51,2.51,0,0,0,.65,1.85A2.26,2.26,0,0,0,167.09,70.65Z"/><path class="cls-1" d="M176.34,72a4.18,4.18,0,0,1-2-.45A3.39,3.39,0,0,1,173,70.23a4,4,0,0,1-.49-2V68a3.89,3.89,0,0,1,.49-2,3.39,3.39,0,0,1,1.36-1.32,4.06,4.06,0,0,1,2-.46,4.13,4.13,0,0,1,2,.46A3.41,3.41,0,0,1,179.69,66a3.89,3.89,0,0,1,.49,2v.23a4,4,0,0,1-.49,2,3.41,3.41,0,0,1-1.37,1.32A4.25,4.25,0,0,1,176.34,72Zm0-1.38A2.21,2.21,0,0,0,178,70a2.5,2.5,0,0,0,.64-1.81V68a2.51,2.51,0,0,0-.63-1.81,2.24,2.24,0,0,0-1.67-.65,2.2,2.2,0,0,0-1.64.65,2.47,2.47,0,0,0-.64,1.81v.13A2.46,2.46,0,0,0,174.7,70,2.16,2.16,0,0,0,176.34,70.62Z"/><path class="cls-1" d="M182.1,71.79V64.4h1.52v.87h.24a1.25,1.25,0,0,1,.57-.68,2,2,0,0,1,1-.22h.88v1.39h-.94a1.8,1.8,0,0,0-1.23.42,1.56,1.56,0,0,0-.48,1.26v4.35Z"/><path class="cls-1" d="M190.7,72a3.35,3.35,0,0,1-1.7-.45,3.3,3.3,0,0,1-1.25-1.29,4.11,4.11,0,0,1-.47-2.05V68a4.21,4.21,0,0,1,.46-2,3.26,3.26,0,0,1,1.25-1.3,3.36,3.36,0,0,1,1.71-.45,3.45,3.45,0,0,1,1.2.18,2.42,2.42,0,0,1,.81.46,2.08,2.08,0,0,1,.48.57h.24V61.29H195v10.5h-1.51V70.74h-.24a2.77,2.77,0,0,1-.87.87A2.92,2.92,0,0,1,190.7,72Zm.43-1.35a2.27,2.27,0,0,0,1.66-.64,2.51,2.51,0,0,0,.65-1.85V68a2.47,2.47,0,0,0-.64-1.83,2.27,2.27,0,0,0-1.67-.65,2.23,2.23,0,0,0-1.64.65,2.44,2.44,0,0,0-.65,1.83v.13a2.47,2.47,0,0,0,.65,1.85A2.22,2.22,0,0,0,191.13,70.65Z"/><path class="cls-1" d="M200.64,72a3.87,3.87,0,0,1-2-.47,3.38,3.38,0,0,1-1.32-1.33,4.2,4.2,0,0,1-.47-2V68a4.15,4.15,0,0,1,.47-2,3.33,3.33,0,0,1,1.29-1.34,3.91,3.91,0,0,1,1.93-.47,3.68,3.68,0,0,1,1.87.47A3.35,3.35,0,0,1,203.7,66a4.12,4.12,0,0,1,.45,2v.58h-5.68a2.11,2.11,0,0,0,.65,1.56,2.2,2.2,0,0,0,1.55.57,1.92,1.92,0,0,0,1.31-.39,2.71,2.71,0,0,0,.69-.9l1.27.66a4.3,4.3,0,0,1-.61.89,3.12,3.12,0,0,1-1,.78A3.77,3.77,0,0,1,200.64,72Zm-2.16-4.66h4.1A1.82,1.82,0,0,0,202,66a2,2,0,0,0-1.41-.48,2.07,2.07,0,0,0-1.42.48A2,2,0,0,0,198.48,67.34Z"/><path class="cls-1" d="M206,71.79V64.4h1.52v.87h.24a1.25,1.25,0,0,1,.57-.68,2,2,0,0,1,1-.22h.88v1.39h-.94a1.8,1.8,0,0,0-1.23.42,1.56,1.56,0,0,0-.48,1.26v4.35Z"/><path class="cls-1" d="M214.68,72a4.08,4.08,0,0,1-2.34-.63,2.7,2.7,0,0,1-1.14-1.9l1.44-.35a2.27,2.27,0,0,0,.41,1,1.51,1.51,0,0,0,.71.51,2.73,2.73,0,0,0,.92.15,1.9,1.9,0,0,0,1.13-.29.85.85,0,0,0,.4-.73.7.7,0,0,0-.37-.66,3.72,3.72,0,0,0-1.11-.35l-.51-.09a6.67,6.67,0,0,1-1.37-.39,2.36,2.36,0,0,1-1-.7,1.81,1.81,0,0,1-.36-1.16,1.89,1.89,0,0,1,.78-1.62,3.37,3.37,0,0,1,2.07-.58,3.49,3.49,0,0,1,2,.56,2.56,2.56,0,0,1,1.05,1.52l-1.44.41a1.37,1.37,0,0,0-.57-1,1.93,1.93,0,0,0-1.08-.28,1.86,1.86,0,0,0-1,.23.74.74,0,0,0-.36.65.7.7,0,0,0,.35.66,2.77,2.77,0,0,0,.95.32l.53.09a8.29,8.29,0,0,1,1.45.37,2.38,2.38,0,0,1,1,.69,1.77,1.77,0,0,1,.39,1.2,2,2,0,0,1-.83,1.73A3.63,3.63,0,0,1,214.68,72Z"/><path class="cls-1" d="M226.13,71.79a1.46,1.46,0,0,1-1.08-.4,1.49,1.49,0,0,1-.39-1.08V65.7h-2V64.4h2V62h1.54V64.4h2.21v1.3H226.2V70q0,.45.42.45h1.55v1.3Z"/><path class="cls-1" d="M233.42,72a4.25,4.25,0,0,1-2-.45,3.43,3.43,0,0,1-1.35-1.32,4,4,0,0,1-.5-2V68a3.89,3.89,0,0,1,.5-2,3.43,3.43,0,0,1,1.35-1.32,4.49,4.49,0,0,1,4,0A3.39,3.39,0,0,1,236.76,66a3.89,3.89,0,0,1,.5,2v.23a4,4,0,0,1-.5,2,3.39,3.39,0,0,1-1.36,1.32A4.25,4.25,0,0,1,233.42,72Zm0-1.38a2.17,2.17,0,0,0,1.65-.65,2.46,2.46,0,0,0,.64-1.81V68a2.51,2.51,0,0,0-.63-1.81,2.21,2.21,0,0,0-1.66-.65,2.24,2.24,0,0,0-1.65.65,2.51,2.51,0,0,0-.63,1.81v.13a2.49,2.49,0,0,0,.63,1.81A2.2,2.2,0,0,0,233.42,70.62Z"/><path class="cls-1" d="M89,89.79a1.42,1.42,0,0,1-1.07-.4,1.46,1.46,0,0,1-.4-1.08V83.7h-2V82.4h2V80H89V82.4h2.2v1.3H89V88q0,.45.42.45H91v1.3Z"/><path class="cls-1" d="M95.88,89.93a3,3,0,0,1-1.5-.38,2.63,2.63,0,0,1-1-1.06A3.41,3.41,0,0,1,93,86.84V82.4h1.55v4.33A1.87,1.87,0,0,0,95,88.15a1.82,1.82,0,0,0,1.33.46A1.93,1.93,0,0,0,97.85,88a2.62,2.62,0,0,0,.58-1.84V82.4H100v7.39H98.46V88.68h-.24a2.26,2.26,0,0,1-.75.85A2.63,2.63,0,0,1,95.88,89.93Z"/><path class="cls-1" d="M102.26,89.79V82.4h1.51v.87H104a1.23,1.23,0,0,1,.58-.68,2,2,0,0,1,1-.22h.89v1.39h-.95a1.8,1.8,0,0,0-1.23.42,1.56,1.56,0,0,0-.48,1.26v4.35Z"/><path class="cls-1" d="M108.06,89.79V82.4h1.52v1.11h.24a2.24,2.24,0,0,1,.75-.84,2.72,2.72,0,0,1,1.6-.39,2.92,2.92,0,0,1,1.49.37,2.69,2.69,0,0,1,1,1.06,3.37,3.37,0,0,1,.38,1.64v4.44h-1.55V85.47a1.85,1.85,0,0,0-.48-1.41,1.81,1.81,0,0,0-1.32-.46,2,2,0,0,0-1.54.63,2.64,2.64,0,0,0-.57,1.83v3.73Z"/><path class="cls-1" d="M86.13,123.74v-10.5h3.05l2.29,9.42h.24l2.3-9.42h3v10.5H95.48v-9.36h-.24L93,123.74H90.23L88,114.38h-.24v9.36Z"/><path class="cls-1" d="M102.75,124a4.18,4.18,0,0,1-2-.45,3.39,3.39,0,0,1-1.36-1.32,4,4,0,0,1-.49-2v-.23a3.89,3.89,0,0,1,.49-2,3.39,3.39,0,0,1,1.36-1.32,4.06,4.06,0,0,1,2-.46,4.13,4.13,0,0,1,2,.46,3.41,3.41,0,0,1,1.37,1.32,3.89,3.89,0,0,1,.49,2v.23a4,4,0,0,1-.49,2,3.41,3.41,0,0,1-1.37,1.32A4.25,4.25,0,0,1,102.75,124Zm0-1.38a2.21,2.21,0,0,0,1.66-.65,2.5,2.5,0,0,0,.64-1.81V120a2.51,2.51,0,0,0-.63-1.81,2.24,2.24,0,0,0-1.67-.65,2.2,2.2,0,0,0-1.64.65,2.47,2.47,0,0,0-.64,1.81v.13a2.46,2.46,0,0,0,.64,1.81A2.16,2.16,0,0,0,102.75,122.57Z"/><path class="cls-1" d="M110,123.74l-2.49-7.39h1.63l2,6.25h.24l2-6.25h1.64l-2.49,7.39Z"/><path class="cls-1" d="M119.55,124a3.87,3.87,0,0,1-2-.47,3.38,3.38,0,0,1-1.32-1.33,4.2,4.2,0,0,1-.47-2V120a4.15,4.15,0,0,1,.47-2,3.33,3.33,0,0,1,1.29-1.34,3.91,3.91,0,0,1,1.93-.47,3.68,3.68,0,0,1,1.87.47,3.35,3.35,0,0,1,1.25,1.31,4.12,4.12,0,0,1,.45,2v.58h-5.68A2.11,2.11,0,0,0,118,122a2.2,2.2,0,0,0,1.55.57,1.92,1.92,0,0,0,1.31-.39,2.71,2.71,0,0,0,.69-.9l1.27.66a4.3,4.3,0,0,1-.61.89,3.12,3.12,0,0,1-1,.78A3.77,3.77,0,0,1,119.55,124Zm-2.16-4.66h4.1a1.82,1.82,0,0,0-.6-1.31,2,2,0,0,0-1.41-.48,2.07,2.07,0,0,0-1.42.48A2,2,0,0,0,117.39,119.29Z"/><path class="cls-1" d="M131.52,123.74a1.42,1.42,0,0,1-1.07-.4,1.46,1.46,0,0,1-.4-1.08v-4.61h-2v-1.3h2V113.9h1.55v2.45h2.2v1.3h-2.2V122q0,.45.42.45h1.54v1.3Z"/><path class="cls-1" d="M135.62,123.74v-10.5h1.54v4.16h.24a2.1,2.1,0,0,1,1.16-1,3.53,3.53,0,0,1,1.17-.17,2.94,2.94,0,0,1,1.49.37,2.76,2.76,0,0,1,1,1.06,3.37,3.37,0,0,1,.37,1.64v4.44h-1.54v-4.32a1.85,1.85,0,0,0-.48-1.41,1.81,1.81,0,0,0-1.32-.46,2,2,0,0,0-1.54.63,2.59,2.59,0,0,0-.58,1.83v3.73Z"/><path class="cls-1" d="M148.23,124a3.87,3.87,0,0,1-2-.47,3.38,3.38,0,0,1-1.32-1.33,4.2,4.2,0,0,1-.47-2V120a4.15,4.15,0,0,1,.47-2,3.33,3.33,0,0,1,1.29-1.34,3.91,3.91,0,0,1,1.93-.47,3.68,3.68,0,0,1,1.87.47,3.35,3.35,0,0,1,1.25,1.31,4.12,4.12,0,0,1,.45,2v.58h-5.68a2.11,2.11,0,0,0,.65,1.56,2.2,2.2,0,0,0,1.55.57,1.92,1.92,0,0,0,1.31-.39,2.71,2.71,0,0,0,.69-.9l1.27.66a4.3,4.3,0,0,1-.61.89,3.12,3.12,0,0,1-1,.78A3.77,3.77,0,0,1,148.23,124Zm-2.16-4.66h4.1a1.82,1.82,0,0,0-.6-1.31,2,2,0,0,0-1.41-.48,2.07,2.07,0,0,0-1.42.48A2,2,0,0,0,146.07,119.29Z"/><path class="cls-1" d="M157.43,123.74v-7.39h1.51v.87h.24a1.94,1.94,0,0,1,.68-.69,2.3,2.3,0,0,1,1.26-.3,2.27,2.27,0,0,1,1.32.34,2.1,2.1,0,0,1,.76.86h.24a2.35,2.35,0,0,1,.74-.86,2.4,2.4,0,0,1,1.39-.34,2.77,2.77,0,0,1,1.28.29,2.23,2.23,0,0,1,.88.87,2.85,2.85,0,0,1,.33,1.43v4.92h-1.54v-4.8a1.29,1.29,0,0,0-1.41-1.41A1.52,1.52,0,0,0,164,118a1.87,1.87,0,0,0-.43,1.33v4.41H162v-4.8a1.39,1.39,0,0,0-.37-1,1.42,1.42,0,0,0-1-.37,1.5,1.5,0,0,0-1.15.47,1.87,1.87,0,0,0-.44,1.33v4.41Z"/><path class="cls-1" d="M173.75,124a4.25,4.25,0,0,1-2-.45,3.43,3.43,0,0,1-1.35-1.32,4,4,0,0,1-.5-2v-.23a3.89,3.89,0,0,1,.5-2,3.43,3.43,0,0,1,1.35-1.32,4.49,4.49,0,0,1,4,0,3.39,3.39,0,0,1,1.36,1.32,3.89,3.89,0,0,1,.5,2v.23a4,4,0,0,1-.5,2,3.39,3.39,0,0,1-1.36,1.32A4.25,4.25,0,0,1,173.75,124Zm0-1.38a2.17,2.17,0,0,0,1.65-.65,2.46,2.46,0,0,0,.64-1.81V120a2.51,2.51,0,0,0-.63-1.81,2.21,2.21,0,0,0-1.66-.65,2.24,2.24,0,0,0-1.65.65,2.51,2.51,0,0,0-.63,1.81v.13a2.49,2.49,0,0,0,.63,1.81A2.2,2.2,0,0,0,173.75,122.57Z"/><path class="cls-1" d="M182.34,123.88a3,3,0,0,1-1.5-.38,2.57,2.57,0,0,1-1-1.06,3.3,3.3,0,0,1-.38-1.65v-4.44H181v4.33a1.65,1.65,0,0,0,1.81,1.88,1.93,1.93,0,0,0,1.52-.64,2.62,2.62,0,0,0,.58-1.84v-3.73h1.55v7.39h-1.52v-1.11h-.24a2.26,2.26,0,0,1-.75.85A2.63,2.63,0,0,1,182.34,123.88Z"/><path class="cls-1" d="M191.75,124a4.06,4.06,0,0,1-2.34-.63,2.7,2.7,0,0,1-1.14-1.9l1.44-.35a2.27,2.27,0,0,0,.4,1,1.56,1.56,0,0,0,.71.51,2.83,2.83,0,0,0,.93.15,1.92,1.92,0,0,0,1.13-.29.87.87,0,0,0,.4-.73.71.71,0,0,0-.38-.66,3.72,3.72,0,0,0-1.11-.35l-.51-.09a6.57,6.57,0,0,1-1.36-.39,2.4,2.4,0,0,1-1-.7,1.81,1.81,0,0,1-.36-1.16,1.89,1.89,0,0,1,.78-1.62,3.37,3.37,0,0,1,2.07-.58,3.54,3.54,0,0,1,2,.56,2.59,2.59,0,0,1,1,1.52l-1.44.41a1.37,1.37,0,0,0-.57-.95,1.93,1.93,0,0,0-1.08-.28,1.86,1.86,0,0,0-1,.23.74.74,0,0,0-.36.65.72.72,0,0,0,.35.66,2.93,2.93,0,0,0,.95.32l.53.09a8.41,8.41,0,0,1,1.46.37,2.5,2.5,0,0,1,1,.69,1.82,1.82,0,0,1,.38,1.2,2.06,2.06,0,0,1-.82,1.73A3.63,3.63,0,0,1,191.75,124Z"/><path class="cls-1" d="M200,124a3.87,3.87,0,0,1-2-.47,3.38,3.38,0,0,1-1.32-1.33,4.2,4.2,0,0,1-.47-2V120a4,4,0,0,1,.47-2,3.33,3.33,0,0,1,1.29-1.34,3.91,3.91,0,0,1,1.93-.47,3.68,3.68,0,0,1,1.87.47,3.35,3.35,0,0,1,1.25,1.31,4.12,4.12,0,0,1,.45,2v.58h-5.68a2.11,2.11,0,0,0,.65,1.56,2.2,2.2,0,0,0,1.55.57,1.92,1.92,0,0,0,1.31-.39,2.85,2.85,0,0,0,.69-.9l1.27.66a4.3,4.3,0,0,1-.61.89,3.12,3.12,0,0,1-1,.78A3.77,3.77,0,0,1,200,124Zm-2.16-4.66h4.1a1.82,1.82,0,0,0-.6-1.31,2,2,0,0,0-1.41-.48,2.07,2.07,0,0,0-1.42.48A2,2,0,0,0,197.82,119.29Z"/><path class="cls-1" d="M212,123.74a1.42,1.42,0,0,1-1.07-.4,1.46,1.46,0,0,1-.4-1.08v-4.61h-2v-1.3h2V113.9H212v2.45h2.2v1.3H212V122q0,.45.42.45H214v1.3Z"/><path class="cls-1" d="M219.24,124a4.18,4.18,0,0,1-2-.45,3.39,3.39,0,0,1-1.36-1.32,4,4,0,0,1-.49-2v-.23a3.89,3.89,0,0,1,.49-2,3.39,3.39,0,0,1,1.36-1.32,4.06,4.06,0,0,1,2-.46,4.13,4.13,0,0,1,2,.46,3.41,3.41,0,0,1,1.37,1.32,3.89,3.89,0,0,1,.49,2v.23a4,4,0,0,1-.49,2,3.41,3.41,0,0,1-1.37,1.32A4.25,4.25,0,0,1,219.24,124Zm0-1.38a2.21,2.21,0,0,0,1.66-.65,2.5,2.5,0,0,0,.64-1.81V120a2.47,2.47,0,0,0-.64-1.81,2.42,2.42,0,0,0-3.3,0A2.47,2.47,0,0,0,217,120v.13a2.46,2.46,0,0,0,.64,1.81A2.16,2.16,0,0,0,219.24,122.57Z"/><path class="cls-1" d="M231.6,123.74a1.42,1.42,0,0,1-1.07-.4,1.46,1.46,0,0,1-.4-1.08v-4.61h-2v-1.3h2V113.9h1.55v2.45h2.2v1.3h-2.2V122c0,.3.13.45.41.45h1.55v1.3Z"/><path class="cls-1" d="M235.69,123.74v-10.5h1.55v4.16h.24a2.1,2.1,0,0,1,1.16-1,3.51,3.51,0,0,1,1.16-.17,3,3,0,0,1,1.5.37,2.74,2.74,0,0,1,1,1.06,3.37,3.37,0,0,1,.38,1.64v4.44h-1.55v-4.32a1.89,1.89,0,0,0-.47-1.41,1.84,1.84,0,0,0-1.33-.46,2,2,0,0,0-1.53.63,2.59,2.59,0,0,0-.58,1.83v3.73Z"/><path class="cls-1" d="M248.31,124a3.91,3.91,0,0,1-2-.47,3.35,3.35,0,0,1-1.31-1.33,4.2,4.2,0,0,1-.47-2V120a4.14,4.14,0,0,1,.46-2,3.35,3.35,0,0,1,1.3-1.34,3.91,3.91,0,0,1,1.93-.47,3.68,3.68,0,0,1,1.87.47,3.35,3.35,0,0,1,1.25,1.31,4.12,4.12,0,0,1,.45,2v.58h-5.69a2.12,2.12,0,0,0,.66,1.56,2.2,2.2,0,0,0,1.55.57,1.92,1.92,0,0,0,1.31-.39,2.68,2.68,0,0,0,.68-.9l1.28.66a4.3,4.3,0,0,1-.61.89,3.12,3.12,0,0,1-1,.78A3.77,3.77,0,0,1,248.31,124Zm-2.16-4.66h4.09a1.82,1.82,0,0,0-.6-1.31,2.31,2.31,0,0,0-2.82,0A2,2,0,0,0,246.15,119.29Z"/><path class="cls-1" d="M87.89,141.74l-2.49-7.39H87l2,6.25h.24l2-6.25h1.64l-2.49,7.39Z"/><path class="cls-1" d="M97.47,142a3.87,3.87,0,0,1-2-.47,3.38,3.38,0,0,1-1.32-1.33,4.2,4.2,0,0,1-.47-2V138a4.15,4.15,0,0,1,.47-2,3.33,3.33,0,0,1,1.29-1.34,3.91,3.91,0,0,1,1.93-.47,3.68,3.68,0,0,1,1.87.47,3.35,3.35,0,0,1,1.25,1.31,4.12,4.12,0,0,1,.45,2v.58H95.3A2.11,2.11,0,0,0,96,140a2.2,2.2,0,0,0,1.55.57,1.92,1.92,0,0,0,1.31-.39,2.71,2.71,0,0,0,.69-.9l1.27.66a4.3,4.3,0,0,1-.61.89,3.12,3.12,0,0,1-1,.78A3.77,3.77,0,0,1,97.47,142Zm-2.16-4.66h4.1a1.82,1.82,0,0,0-.6-1.31,2,2,0,0,0-1.41-.48A2.07,2.07,0,0,0,96,136,2,2,0,0,0,95.31,137.29Z"/><path class="cls-1" d="M102.84,141.74v-7.39h1.52v.87h.24a1.25,1.25,0,0,1,.57-.68,2,2,0,0,1,1-.22H107v1.39h-.94a1.8,1.8,0,0,0-1.23.42,1.56,1.56,0,0,0-.48,1.26v4.35Z"/><path class="cls-1" d="M111.42,141.74a1.42,1.42,0,0,1-1.07-.4,1.46,1.46,0,0,1-.4-1.08v-4.61h-2v-1.3h2V131.9h1.55v2.45h2.2v1.3h-2.2V140q0,.45.42.45h1.54v1.3Z"/><path class="cls-1" d="M116.3,133.34a1,1,0,0,1-.76-.29,1,1,0,0,1-.31-.76,1,1,0,0,1,.31-.75,1,1,0,0,1,.76-.3,1,1,0,0,1,.76.3,1,1,0,0,1,.3.75,1,1,0,0,1-1.06,1.05Zm-.78,8.4v-7.39h1.54v7.39Z"/><path class="cls-1" d="M122.79,142a4.13,4.13,0,0,1-1.93-.45,3.34,3.34,0,0,1-1.36-1.3,4,4,0,0,1-.5-2.06V138a3.92,3.92,0,0,1,.5-2,3.4,3.4,0,0,1,1.36-1.3,4,4,0,0,1,1.93-.46,3.91,3.91,0,0,1,1.82.39,3.26,3.26,0,0,1,1.2,1,3.42,3.42,0,0,1,.6,1.43l-1.5.31a2.48,2.48,0,0,0-.32-.9,1.72,1.72,0,0,0-.67-.64,2.27,2.27,0,0,0-1.1-.24,2.35,2.35,0,0,0-1.16.29,2.14,2.14,0,0,0-.82.84,2.75,2.75,0,0,0-.3,1.33v.13a2.79,2.79,0,0,0,.3,1.34,2,2,0,0,0,.82.84,2.34,2.34,0,0,0,1.16.28,2,2,0,0,0,1.49-.5,2.27,2.27,0,0,0,.64-1.28l1.5.34a3.92,3.92,0,0,1-.64,1.41,3.17,3.17,0,0,1-1.2,1A3.92,3.92,0,0,1,122.79,142Z"/><path class="cls-1" d="M130.53,142a3.56,3.56,0,0,1-1.42-.27,2.34,2.34,0,0,1-1-.79,2.22,2.22,0,0,1-.36-1.28,2.09,2.09,0,0,1,.36-1.26,2.23,2.23,0,0,1,1-.76,3.87,3.87,0,0,1,1.45-.26h2.25v-.48a1.39,1.39,0,0,0-.39-1,1.63,1.63,0,0,0-1.2-.39,1.78,1.78,0,0,0-1.22.37,1.8,1.8,0,0,0-.55,1l-1.44-.47a3.11,3.11,0,0,1,.57-1.08,2.87,2.87,0,0,1,1.06-.79,3.82,3.82,0,0,1,1.59-.3,3.3,3.3,0,0,1,2.27.73,2.65,2.65,0,0,1,.82,2.09v3q0,.45.42.45h.63v1.29h-1.15a1.32,1.32,0,0,1-.86-.27.89.89,0,0,1-.33-.73v-.05h-.22a3.56,3.56,0,0,1-.36.53,2,2,0,0,1-.71.52A3,3,0,0,1,130.53,142Zm.23-1.27a2.13,2.13,0,0,0,1.5-.53,1.93,1.93,0,0,0,.57-1.47v-.15h-2.16a1.66,1.66,0,0,0-1,.27.88.88,0,0,0-.38.77,1,1,0,0,0,.39.81A1.72,1.72,0,0,0,130.76,140.68Z"/><path class="cls-1" d="M136.89,141.74v-10.5h1.55v10.5Z"/><path class="cls-1" d="M148.83,142a3,3,0,0,1-1.66-.39,2.84,2.84,0,0,1-.86-.87h-.24v1.05h-1.51v-10.5h1.54v4.11h.24a2.51,2.51,0,0,1,.48-.57,2.28,2.28,0,0,1,.8-.46,3.55,3.55,0,0,1,1.21-.18,3.36,3.36,0,0,1,1.71.45,3.26,3.26,0,0,1,1.25,1.3,4.21,4.21,0,0,1,.46,2v.23a4.22,4.22,0,0,1-.47,2.05,3.37,3.37,0,0,1-1.25,1.29A3.3,3.3,0,0,1,148.83,142Zm-.45-1.35A2.27,2.27,0,0,0,150,140a2.51,2.51,0,0,0,.65-1.85V138a2.47,2.47,0,0,0-.64-1.83,2.27,2.27,0,0,0-1.67-.65,2.23,2.23,0,0,0-1.64.65,2.44,2.44,0,0,0-.65,1.83v.13a2.47,2.47,0,0,0,.65,1.85A2.22,2.22,0,0,0,148.38,140.6Z"/><path class="cls-1" d="M157.64,142a4.25,4.25,0,0,1-2-.45,3.43,3.43,0,0,1-1.35-1.32,4,4,0,0,1-.5-2v-.23a3.89,3.89,0,0,1,.5-2,3.43,3.43,0,0,1,1.35-1.32,4.49,4.49,0,0,1,4,0,3.39,3.39,0,0,1,1.36,1.32,3.89,3.89,0,0,1,.5,2v.23a4,4,0,0,1-.5,2,3.39,3.39,0,0,1-1.36,1.32A4.25,4.25,0,0,1,157.64,142Zm0-1.38a2.17,2.17,0,0,0,1.65-.65,2.46,2.46,0,0,0,.64-1.81V138a2.51,2.51,0,0,0-.63-1.81,2.21,2.21,0,0,0-1.66-.65,2.24,2.24,0,0,0-1.65.65,2.51,2.51,0,0,0-.63,1.81v.13a2.49,2.49,0,0,0,.63,1.81A2.2,2.2,0,0,0,157.64,140.57Z"/><path class="cls-1" d="M163.4,141.74v-7.39h1.51v.87h.24a1.23,1.23,0,0,1,.58-.68,2,2,0,0,1,1-.22h.89v1.39h-.95a1.8,1.8,0,0,0-1.23.42,1.56,1.56,0,0,0-.48,1.26v4.35Z"/><path class="cls-1" d="M172,142a3.32,3.32,0,0,1-1.69-.45,3.4,3.4,0,0,1-1.26-1.29,4.22,4.22,0,0,1-.47-2.05v-.23a4.21,4.21,0,0,1,.47-2,3.24,3.24,0,0,1,1.24-1.3,3.36,3.36,0,0,1,1.71-.45,3.55,3.55,0,0,1,1.21.18,2.47,2.47,0,0,1,.8.46,2.08,2.08,0,0,1,.48.57h.24v-4.11h1.55v10.5h-1.52v-1.05h-.24a2.84,2.84,0,0,1-.86.87A3,3,0,0,1,172,142Zm.44-1.35a2.23,2.23,0,0,0,1.65-.64,2.48,2.48,0,0,0,.66-1.85V138a2.48,2.48,0,0,0-.65-1.83,2.25,2.25,0,0,0-1.66-.65,2.27,2.27,0,0,0-1.65.65,2.48,2.48,0,0,0-.65,1.83v.13a2.51,2.51,0,0,0,.65,1.85A2.26,2.26,0,0,0,172.43,140.6Z"/><path class="cls-1" d="M181.94,142a3.91,3.91,0,0,1-2-.47,3.29,3.29,0,0,1-1.31-1.33,4.09,4.09,0,0,1-.47-2V138a4.14,4.14,0,0,1,.46-2,3.29,3.29,0,0,1,1.3-1.34,3.88,3.88,0,0,1,1.93-.47,3.62,3.62,0,0,1,1.86.47,3.31,3.31,0,0,1,1.26,1.31,4.12,4.12,0,0,1,.45,2v.58h-5.69a2.15,2.15,0,0,0,.65,1.56,2.24,2.24,0,0,0,1.56.57,1.93,1.93,0,0,0,1.31-.39,2.82,2.82,0,0,0,.68-.9l1.28.66a4.73,4.73,0,0,1-.61.89,3.23,3.23,0,0,1-1,.78A3.77,3.77,0,0,1,181.94,142Zm-2.16-4.66h4.09a1.82,1.82,0,0,0-.6-1.31,2,2,0,0,0-1.41-.48,2.09,2.09,0,0,0-1.42.48A2,2,0,0,0,179.78,137.29Z"/><path class="cls-1" d="M187.31,141.74v-7.39h1.51v.87h.24a1.23,1.23,0,0,1,.58-.68,2,2,0,0,1,1-.22h.89v1.39h-.95a1.8,1.8,0,0,0-1.23.42,1.56,1.56,0,0,0-.48,1.26v4.35Z"/><path class="cls-1" d="M196,142a4.08,4.08,0,0,1-2.34-.63,2.7,2.7,0,0,1-1.14-1.9l1.44-.35a2.27,2.27,0,0,0,.4,1,1.56,1.56,0,0,0,.71.51,2.83,2.83,0,0,0,.93.15,1.92,1.92,0,0,0,1.13-.29.87.87,0,0,0,.4-.73.71.71,0,0,0-.38-.66,3.72,3.72,0,0,0-1.11-.35l-.51-.09a6.57,6.57,0,0,1-1.36-.39,2.4,2.4,0,0,1-1-.7,1.81,1.81,0,0,1-.36-1.16,1.89,1.89,0,0,1,.78-1.62,3.37,3.37,0,0,1,2.07-.58,3.54,3.54,0,0,1,2.05.56,2.59,2.59,0,0,1,1,1.52l-1.44.41a1.37,1.37,0,0,0-.57-.95,1.93,1.93,0,0,0-1.08-.28,1.86,1.86,0,0,0-1,.23.74.74,0,0,0-.36.65.72.72,0,0,0,.35.66,2.91,2.91,0,0,0,1,.32l.52.09a8.41,8.41,0,0,1,1.46.37,2.44,2.44,0,0,1,1,.69,1.82,1.82,0,0,1,.38,1.2,2,2,0,0,1-.82,1.73A3.63,3.63,0,0,1,196,142Z"/><path class="cls-1" d="M207.42,141.74a1.42,1.42,0,0,1-1.07-.4,1.46,1.46,0,0,1-.4-1.08v-4.61h-2v-1.3h2V131.9h1.55v2.45h2.2v1.3h-2.2V140q0,.45.42.45h1.54v1.3Z"/><path class="cls-1" d="M214.71,142a4.18,4.18,0,0,1-2-.45,3.39,3.39,0,0,1-1.36-1.32,4,4,0,0,1-.49-2v-.23a3.89,3.89,0,0,1,.49-2,3.39,3.39,0,0,1,1.36-1.32,4.06,4.06,0,0,1,2-.46,4.13,4.13,0,0,1,2,.46,3.41,3.41,0,0,1,1.37,1.32,3.89,3.89,0,0,1,.49,2v.23a4,4,0,0,1-.49,2,3.41,3.41,0,0,1-1.37,1.32A4.25,4.25,0,0,1,214.71,142Zm0-1.38a2.21,2.21,0,0,0,1.66-.65,2.5,2.5,0,0,0,.64-1.81V138a2.51,2.51,0,0,0-.63-1.81,2.24,2.24,0,0,0-1.67-.65,2.2,2.2,0,0,0-1.64.65,2.47,2.47,0,0,0-.64,1.81v.13a2.46,2.46,0,0,0,.64,1.81A2.16,2.16,0,0,0,214.71,140.57Z"/><path class="cls-1" d="M223.94,138.08v-.22a3.92,3.92,0,0,1,.47-2,3.32,3.32,0,0,1,1.25-1.27,3.36,3.36,0,0,1,1.71-.45,2.65,2.65,0,0,1,2.51,1.27h.24v-1.06h1.5v8.91a1.5,1.5,0,0,1-.4,1.08,1.46,1.46,0,0,1-1.09.4h-5v-1.35h4.5a.39.39,0,0,0,.44-.45v-2.35h-.24a2.82,2.82,0,0,1-.47.55,2.24,2.24,0,0,1-.79.47,3.82,3.82,0,0,1-2.94-.26,3.28,3.28,0,0,1-1.25-1.28A4,4,0,0,1,223.94,138.08Zm3.85,2.36a2.27,2.27,0,0,0,1.66-.64,2.36,2.36,0,0,0,.65-1.76v-.14a2.37,2.37,0,0,0-.64-1.77,2.29,2.29,0,0,0-1.67-.63,2.26,2.26,0,0,0-1.64.63,2.3,2.3,0,0,0-.65,1.77V138a2.32,2.32,0,0,0,.65,1.76A2.22,2.22,0,0,0,227.79,140.44Z"/><path class="cls-1" d="M237.36,142a4.18,4.18,0,0,1-2-.45,3.39,3.39,0,0,1-1.36-1.32,4,4,0,0,1-.49-2v-.23a3.89,3.89,0,0,1,.49-2,3.39,3.39,0,0,1,1.36-1.32,4.06,4.06,0,0,1,2-.46,4.13,4.13,0,0,1,2,.46,3.41,3.41,0,0,1,1.37,1.32,3.89,3.89,0,0,1,.49,2v.23a4,4,0,0,1-.49,2,3.41,3.41,0,0,1-1.37,1.32A4.25,4.25,0,0,1,237.36,142Zm0-1.38a2.21,2.21,0,0,0,1.66-.65,2.5,2.5,0,0,0,.64-1.81V138a2.47,2.47,0,0,0-.64-1.81,2.42,2.42,0,0,0-3.3,0,2.47,2.47,0,0,0-.64,1.81v.13a2.46,2.46,0,0,0,.64,1.81A2.16,2.16,0,0,0,237.36,140.57Z"/><path class="cls-1" d="M87.51,159.74v-6.09H85.44v-1.3h2.07v-1.62A1.41,1.41,0,0,1,89,149.24h1.9v1.31H89.49c-.29,0-.43.15-.43.45v1.35h2.13v1.3H89.06v6.09Z"/><path class="cls-1" d="M95.93,160a4.25,4.25,0,0,1-2-.45,3.43,3.43,0,0,1-1.35-1.32,4,4,0,0,1-.5-2v-.23a3.89,3.89,0,0,1,.5-2A3.43,3.43,0,0,1,94,152.6a4.49,4.49,0,0,1,4,0,3.39,3.39,0,0,1,1.36,1.32,3.89,3.89,0,0,1,.5,2v.23a4,4,0,0,1-.5,2,3.39,3.39,0,0,1-1.36,1.32A4.25,4.25,0,0,1,95.93,160Zm0-1.38a2.21,2.21,0,0,0,1.66-.65,2.49,2.49,0,0,0,.63-1.81V156a2.51,2.51,0,0,0-.63-1.81,2.21,2.21,0,0,0-1.66-.65,2.24,2.24,0,0,0-1.65.65,2.51,2.51,0,0,0-.63,1.81v.13a2.49,2.49,0,0,0,.63,1.81A2.2,2.2,0,0,0,95.93,158.57Z"/><path class="cls-1" d="M101.69,159.74v-7.39h1.51v.87h.24a1.23,1.23,0,0,1,.58-.68,2,2,0,0,1,1-.22h.89v1.39h-1a1.8,1.8,0,0,0-1.23.42,1.56,1.56,0,0,0-.48,1.26v4.35Z"/><path class="cls-1" d="M108.3,159.74,107,152.35h1.55l.93,6.36h.24l1.29-6.36h2.5l1.28,6.36h.24l.93-6.36h1.54l-1.26,7.39h-2.59l-1.28-6.34h-.24l-1.27,6.34Z"/><path class="cls-1" d="M121.61,160a3.53,3.53,0,0,1-1.42-.27,2.23,2.23,0,0,1-1-.79,2.15,2.15,0,0,1-.37-1.28,2,2,0,0,1,.37-1.26,2.2,2.2,0,0,1,1-.76,3.9,3.9,0,0,1,1.45-.26h2.25v-.48a1.39,1.39,0,0,0-.39-1,1.63,1.63,0,0,0-1.2-.39,1.75,1.75,0,0,0-1.21.37,1.82,1.82,0,0,0-.56,1l-1.44-.47a3,3,0,0,1,.58-1.08,2.79,2.79,0,0,1,1.06-.79,3.82,3.82,0,0,1,1.59-.3,3.27,3.27,0,0,1,2.26.73,2.66,2.66,0,0,1,.83,2.09v3q0,.45.42.45h.63v1.29h-1.16a1.29,1.29,0,0,1-.85-.27.89.89,0,0,1-.33-.73v-.05h-.23a3.56,3.56,0,0,1-.36.53,2,2,0,0,1-.7.52A3,3,0,0,1,121.61,160Zm.22-1.27a2.13,2.13,0,0,0,1.5-.53,1.93,1.93,0,0,0,.57-1.47v-.15h-2.16a1.66,1.66,0,0,0-1,.27.87.87,0,0,0-.37.77,1,1,0,0,0,.39.81A1.69,1.69,0,0,0,121.83,158.68Z"/><path class="cls-1" d="M128,159.74v-7.39h1.51v.87h.24a1.23,1.23,0,0,1,.58-.68,2,2,0,0,1,1-.22h.89v1.39h-.95a1.8,1.8,0,0,0-1.23.42,1.56,1.56,0,0,0-.48,1.26v4.35Z"/><path class="cls-1" d="M136.56,160a3.32,3.32,0,0,1-1.69-.45,3.4,3.4,0,0,1-1.26-1.29,4.22,4.22,0,0,1-.47-2.05v-.23a4.21,4.21,0,0,1,.47-2,3.24,3.24,0,0,1,1.24-1.3,3.36,3.36,0,0,1,1.71-.45,3.55,3.55,0,0,1,1.21.18,2.47,2.47,0,0,1,.8.46,2.08,2.08,0,0,1,.48.57h.24v-4.11h1.55v10.5h-1.52v-1.05h-.24a2.84,2.84,0,0,1-.86.87A3,3,0,0,1,136.56,160Zm.44-1.35a2.23,2.23,0,0,0,1.65-.64,2.48,2.48,0,0,0,.66-1.85V156a2.48,2.48,0,0,0-.65-1.83,2.25,2.25,0,0,0-1.66-.65,2.27,2.27,0,0,0-1.65.65,2.48,2.48,0,0,0-.65,1.83v.13a2.51,2.51,0,0,0,.65,1.85A2.26,2.26,0,0,0,137,158.6Z"/><path class="cls-1" d="M146.15,160a4.08,4.08,0,0,1-2.34-.63,2.7,2.7,0,0,1-1.14-1.9l1.44-.35a2.27,2.27,0,0,0,.4,1,1.56,1.56,0,0,0,.71.51,2.83,2.83,0,0,0,.93.15,1.92,1.92,0,0,0,1.13-.29.87.87,0,0,0,.4-.73.71.71,0,0,0-.38-.66,3.72,3.72,0,0,0-1.11-.35l-.51-.09a6.57,6.57,0,0,1-1.36-.39,2.4,2.4,0,0,1-1-.7,1.81,1.81,0,0,1-.36-1.16,1.89,1.89,0,0,1,.78-1.62,3.37,3.37,0,0,1,2.07-.58,3.54,3.54,0,0,1,2,.56,2.59,2.59,0,0,1,1,1.52l-1.44.41a1.37,1.37,0,0,0-.57-.95,1.93,1.93,0,0,0-1.08-.28,1.86,1.86,0,0,0-1,.23.74.74,0,0,0-.36.65.72.72,0,0,0,.35.66,2.91,2.91,0,0,0,1,.32l.52.09a8.41,8.41,0,0,1,1.46.37,2.44,2.44,0,0,1,1,.69,1.82,1.82,0,0,1,.38,1.2,2,2,0,0,1-.82,1.73A3.63,3.63,0,0,1,146.15,160Z"/><path class="cls-1" d="M157.11,160a3.56,3.56,0,0,1-1.42-.27,2.34,2.34,0,0,1-1-.79,2.22,2.22,0,0,1-.36-1.28,2.09,2.09,0,0,1,.36-1.26,2.23,2.23,0,0,1,1-.76,3.87,3.87,0,0,1,1.45-.26h2.25v-.48a1.39,1.39,0,0,0-.39-1,1.63,1.63,0,0,0-1.2-.39,1.78,1.78,0,0,0-1.22.37,1.8,1.8,0,0,0-.55,1l-1.44-.47a3.11,3.11,0,0,1,.57-1.08,2.87,2.87,0,0,1,1.06-.79,3.82,3.82,0,0,1,1.59-.3,3.3,3.3,0,0,1,2.27.73,2.65,2.65,0,0,1,.82,2.09v3q0,.45.42.45H162v1.29h-1.15a1.32,1.32,0,0,1-.86-.27.89.89,0,0,1-.33-.73v-.05h-.22a3.56,3.56,0,0,1-.36.53,2,2,0,0,1-.71.52A3,3,0,0,1,157.11,160Zm.23-1.27a2.13,2.13,0,0,0,1.5-.53,1.93,1.93,0,0,0,.57-1.47v-.15h-2.16a1.66,1.66,0,0,0-1,.27.88.88,0,0,0-.38.77,1,1,0,0,0,.39.81A1.72,1.72,0,0,0,157.34,158.68Z"/><path class="cls-1" d="M163.47,159.74v-7.39H165v1.11h.24a2.24,2.24,0,0,1,.75-.84,2.72,2.72,0,0,1,1.6-.39,2.92,2.92,0,0,1,1.49.37,2.69,2.69,0,0,1,1,1.06,3.37,3.37,0,0,1,.38,1.64v4.44h-1.55v-4.32a1.85,1.85,0,0,0-.48-1.41,1.81,1.81,0,0,0-1.32-.46,2,2,0,0,0-1.54.63A2.64,2.64,0,0,0,165,156v3.73Z"/><path class="cls-1" d="M175.76,160a3.35,3.35,0,0,1-1.7-.45,3.3,3.3,0,0,1-1.25-1.29,4.11,4.11,0,0,1-.47-2.05v-.23a4.21,4.21,0,0,1,.46-2,3.26,3.26,0,0,1,1.25-1.3,3.36,3.36,0,0,1,1.71-.45,3.45,3.45,0,0,1,1.2.18,2.42,2.42,0,0,1,.81.46,2.08,2.08,0,0,1,.48.57h.24v-4.11H180v10.5h-1.51v-1.05h-.24a2.77,2.77,0,0,1-.87.87A2.92,2.92,0,0,1,175.76,160Zm.43-1.35a2.27,2.27,0,0,0,1.66-.64,2.51,2.51,0,0,0,.65-1.85V156a2.47,2.47,0,0,0-.64-1.83,2.27,2.27,0,0,0-1.67-.65,2.23,2.23,0,0,0-1.64.65,2.44,2.44,0,0,0-.65,1.83v.13a2.47,2.47,0,0,0,.65,1.85A2.22,2.22,0,0,0,176.19,158.6Z"/><path class="cls-1" d="M190.41,160a2.92,2.92,0,0,1-1.65-.39,2.77,2.77,0,0,1-.87-.87h-.24v1.05h-1.51v-10.5h1.54v4.11h.24a2.51,2.51,0,0,1,.48-.57,2.28,2.28,0,0,1,.8-.46,3.55,3.55,0,0,1,1.21-.18,3.36,3.36,0,0,1,1.71.45,3.26,3.26,0,0,1,1.25,1.3,4.21,4.21,0,0,1,.46,2v.23a4.11,4.11,0,0,1-.47,2.05,3.32,3.32,0,0,1-3,1.74ZM190,158.6a2.27,2.27,0,0,0,1.66-.64,2.51,2.51,0,0,0,.65-1.85V156a2.47,2.47,0,0,0-.64-1.83,2.43,2.43,0,0,0-3.31,0,2.44,2.44,0,0,0-.65,1.83v.13a2.47,2.47,0,0,0,.65,1.85A2.24,2.24,0,0,0,190,158.6Z"/><path class="cls-1" d="M198.05,160a3.56,3.56,0,0,1-1.42-.27,2.28,2.28,0,0,1-1-.79,2.15,2.15,0,0,1-.37-1.28,2,2,0,0,1,.37-1.26,2.2,2.2,0,0,1,1-.76,3.9,3.9,0,0,1,1.45-.26h2.25v-.48a1.39,1.39,0,0,0-.39-1,1.63,1.63,0,0,0-1.2-.39,1.75,1.75,0,0,0-1.21.37,1.82,1.82,0,0,0-.56,1l-1.44-.47a3,3,0,0,1,.58-1.08,2.79,2.79,0,0,1,1.06-.79,3.82,3.82,0,0,1,1.59-.3,3.27,3.27,0,0,1,2.26.73,2.66,2.66,0,0,1,.83,2.09v3q0,.45.42.45h.63v1.29h-1.16a1.29,1.29,0,0,1-.85-.27.89.89,0,0,1-.33-.73v-.05h-.23a3.56,3.56,0,0,1-.36.53,2,2,0,0,1-.7.52A3,3,0,0,1,198.05,160Zm.22-1.27a2.13,2.13,0,0,0,1.5-.53,1.93,1.93,0,0,0,.57-1.47v-.15h-2.16a1.66,1.66,0,0,0-1,.27.87.87,0,0,0-.37.77,1,1,0,0,0,.39.81A1.69,1.69,0,0,0,198.27,158.68Z"/><path class="cls-1" d="M207.66,160a4.06,4.06,0,0,1-1.92-.45,3.36,3.36,0,0,1-1.37-1.3,4.06,4.06,0,0,1-.5-2.06V156a4,4,0,0,1,.5-2,3.43,3.43,0,0,1,1.37-1.3,4.33,4.33,0,0,1,3.74-.07,3.38,3.38,0,0,1,1.21,1,3.53,3.53,0,0,1,.59,1.43l-1.5.31a2.48,2.48,0,0,0-.32-.9,1.72,1.72,0,0,0-.67-.64,2.27,2.27,0,0,0-1.1-.24,2.38,2.38,0,0,0-1.16.29,2.21,2.21,0,0,0-.82.84,2.75,2.75,0,0,0-.3,1.33v.13a2.79,2.79,0,0,0,.3,1.34,2.07,2.07,0,0,0,.82.84,2.37,2.37,0,0,0,1.16.28,2,2,0,0,0,1.49-.5,2.27,2.27,0,0,0,.64-1.28l1.5.34a4.07,4.07,0,0,1-.63,1.41,3.28,3.28,0,0,1-1.21,1A3.92,3.92,0,0,1,207.66,160Z"/><path class="cls-1" d="M213.11,159.74v-10.5h1.54v6h.24l2.91-2.88h2.06l-3.74,3.58,3.86,3.81h-2l-3.05-3.07h-.24v3.07Z"/><path class="cls-1" d="M222.18,159.74l-1.26-7.39h1.55l.93,6.36h.24l1.29-6.36h2.5l1.28,6.36H229l.93-6.36h1.54l-1.26,7.39h-2.59l-1.28-6.34h-.24l-1.27,6.34Z"/><path class="cls-1" d="M235.49,160a3.56,3.56,0,0,1-1.42-.27,2.34,2.34,0,0,1-1-.79,2.22,2.22,0,0,1-.37-1.28,2.09,2.09,0,0,1,.37-1.26,2.23,2.23,0,0,1,1-.76,3.81,3.81,0,0,1,1.44-.26h2.25v-.48a1.39,1.39,0,0,0-.39-1,1.63,1.63,0,0,0-1.2-.39,1.75,1.75,0,0,0-1.21.37,1.82,1.82,0,0,0-.56,1l-1.44-.47a3.14,3.14,0,0,1,.58-1.08,2.87,2.87,0,0,1,1.06-.79,3.82,3.82,0,0,1,1.59-.3,3.27,3.27,0,0,1,2.26.73,2.66,2.66,0,0,1,.83,2.09v3q0,.45.42.45h.63v1.29h-1.16a1.29,1.29,0,0,1-.85-.27.89.89,0,0,1-.33-.73v-.05h-.23a3.56,3.56,0,0,1-.36.53,2,2,0,0,1-.7.52A3,3,0,0,1,235.49,160Zm.22-1.27a2.13,2.13,0,0,0,1.5-.53,1.93,1.93,0,0,0,.57-1.47v-.15h-2.16a1.66,1.66,0,0,0-1,.27.87.87,0,0,0-.37.77,1,1,0,0,0,.39.81A1.69,1.69,0,0,0,235.71,158.68Z"/><path class="cls-1" d="M241.85,159.74v-7.39h1.51v.87h.24a1.27,1.27,0,0,1,.58-.68,2,2,0,0,1,1-.22h.89v1.39h-1a1.8,1.8,0,0,0-1.23.42,1.56,1.56,0,0,0-.48,1.26v4.35Z"/><path class="cls-1" d="M250.44,160a3.32,3.32,0,0,1-2.94-1.74,4.12,4.12,0,0,1-.48-2.05v-.23a4.21,4.21,0,0,1,.47-2,3.24,3.24,0,0,1,1.24-1.3,3.36,3.36,0,0,1,1.71-.45,3.55,3.55,0,0,1,1.21.18,2.47,2.47,0,0,1,.8.46,2.08,2.08,0,0,1,.48.57h.24v-4.11h1.55v10.5H253.2v-1.05H253a2.84,2.84,0,0,1-.86.87A3,3,0,0,1,250.44,160Zm.44-1.35a2.27,2.27,0,0,0,1.66-.64,2.51,2.51,0,0,0,.65-1.85V156a2.48,2.48,0,0,0-.65-1.83,2.25,2.25,0,0,0-1.66-.65,2.27,2.27,0,0,0-1.65.65,2.48,2.48,0,0,0-.65,1.83v.13a2.51,2.51,0,0,0,.65,1.85A2.26,2.26,0,0,0,250.88,158.6Z"/><path class="cls-1" d="M260,160a4.08,4.08,0,0,1-2.34-.63,2.7,2.7,0,0,1-1.14-1.9l1.44-.35a2.27,2.27,0,0,0,.4,1,1.56,1.56,0,0,0,.71.51,2.83,2.83,0,0,0,.93.15,1.92,1.92,0,0,0,1.13-.29.85.85,0,0,0,.4-.73.71.71,0,0,0-.38-.66,3.72,3.72,0,0,0-1.11-.35l-.51-.09a6.57,6.57,0,0,1-1.36-.39,2.4,2.4,0,0,1-1-.7,1.81,1.81,0,0,1-.36-1.16,1.89,1.89,0,0,1,.78-1.62,3.37,3.37,0,0,1,2.07-.58,3.54,3.54,0,0,1,2.05.56,2.54,2.54,0,0,1,1,1.52l-1.44.41a1.37,1.37,0,0,0-.57-.95,1.93,1.93,0,0,0-1.08-.28,1.86,1.86,0,0,0-1,.23.74.74,0,0,0-.36.65.71.71,0,0,0,.36.66,2.77,2.77,0,0,0,.95.32l.52.09a8.41,8.41,0,0,1,1.46.37,2.44,2.44,0,0,1,1,.69,1.76,1.76,0,0,1,.38,1.2,2,2,0,0,1-.82,1.73A3.63,3.63,0,0,1,260,160Z"/><path class="cls-1" d="M38,179.21v-7h2.94a2.74,2.74,0,0,1,1.15.22,1.82,1.82,0,0,1,.77.65,1.8,1.8,0,0,1,.27,1v.11a1.62,1.62,0,0,1-.31,1.05,1.77,1.77,0,0,1-.77.56V176a.83.83,0,0,1,.61.25.91.91,0,0,1,.23.68v2.32H41.75V177a.59.59,0,0,0-.14-.43.55.55,0,0,0-.45-.16H39v2.76ZM39,175.47h1.74a1.25,1.25,0,0,0,.9-.3,1,1,0,0,0,.32-.8v-.08a1.06,1.06,0,0,0-.31-.81,1.26,1.26,0,0,0-.91-.29H39Z"/><path class="cls-1" d="M44.82,173.61a.69.69,0,0,1-.5-.2.66.66,0,0,1-.21-.5.66.66,0,0,1,.21-.51.68.68,0,0,1,.5-.19.69.69,0,0,1,.51.19.66.66,0,0,1,.2.51.65.65,0,0,1-.2.5A.69.69,0,0,1,44.82,173.61Zm-.52,5.6v-4.93h1v4.93Z"/><path class="cls-1" d="M46.62,176.77v-.15a2.62,2.62,0,0,1,.32-1.33,2.22,2.22,0,0,1,2-1.15,1.94,1.94,0,0,1,1.11.27,1.91,1.91,0,0,1,.56.58h.16v-.71h1v5.94a1,1,0,0,1-.26.72,1,1,0,0,1-.73.27H47.43v-.9h3c.2,0,.29-.1.29-.3v-1.57h-.16a1.63,1.63,0,0,1-.83.68,2.41,2.41,0,0,1-.82.12,2.26,2.26,0,0,1-1.14-.3,2.21,2.21,0,0,1-.84-.85A2.74,2.74,0,0,1,46.62,176.77Zm2.57,1.57a1.48,1.48,0,0,0,1.54-1.6v-.09a1.56,1.56,0,0,0-.43-1.19,1.68,1.68,0,0,0-2.2,0,1.57,1.57,0,0,0-.44,1.19v.09a1.55,1.55,0,0,0,.44,1.17A1.51,1.51,0,0,0,49.19,178.34Z"/><path class="cls-1" d="M53.26,179.21v-7h1V175h.16a1.39,1.39,0,0,1,.29-.37,1.36,1.36,0,0,1,.49-.3,2.13,2.13,0,0,1,.77-.11,1.93,1.93,0,0,1,1,.25,1.7,1.7,0,0,1,.68.7,2.21,2.21,0,0,1,.25,1.1v3h-1v-2.88a1.09,1.09,0,0,0-1.2-1.25,1.31,1.31,0,0,0-1,.42,1.72,1.72,0,0,0-.39,1.22v2.49Z"/><path class="cls-1" d="M61.12,179.21a1,1,0,0,1-.71-.27,1,1,0,0,1-.27-.72v-3.07H58.78v-.87h1.36v-1.63h1v1.63h1.47v.87H61.17V178c0,.2.1.3.28.3h1v.87Z"/><path class="cls-1" d="M69,179.35a2.82,2.82,0,0,1-2-.73,2.77,2.77,0,0,1-.75-2.09v-1.64a2.78,2.78,0,0,1,.75-2.1,2.81,2.81,0,0,1,2-.72,2.4,2.4,0,0,1,2.63,2.61v.06H70.53v-.09a1.69,1.69,0,0,0-.38-1.16A1.47,1.47,0,0,0,69,173a1.63,1.63,0,0,0-1.25.48,1.9,1.9,0,0,0-.45,1.35v1.68a1.92,1.92,0,0,0,.45,1.34,1.64,1.64,0,0,0,1.25.49,1.48,1.48,0,0,0,1.18-.46,1.7,1.7,0,0,0,.38-1.15v-.17H71.6v.14a2.61,2.61,0,0,1-.68,1.91A2.64,2.64,0,0,1,69,179.35Z"/><path class="cls-1" d="M72.83,179.21v-7h1v7Z"/><path class="cls-1" d="M75.91,173.61a.69.69,0,0,1-.5-.2.66.66,0,0,1-.21-.5.66.66,0,0,1,.21-.51.68.68,0,0,1,.5-.19.69.69,0,0,1,.51.19.66.66,0,0,1,.2.51.65.65,0,0,1-.2.5A.69.69,0,0,1,75.91,173.61Zm-.52,5.6v-4.93h1v4.93Z"/><path class="cls-1" d="M80.24,179.35a2.72,2.72,0,0,1-1.28-.3,2.18,2.18,0,0,1-.91-.87,2.6,2.6,0,0,1-.34-1.37v-.13a2.58,2.58,0,0,1,.34-1.37,2.18,2.18,0,0,1,.91-.87,2.72,2.72,0,0,1,1.28-.3,2.49,2.49,0,0,1,1.21.26,2.18,2.18,0,0,1,.81.69,2.28,2.28,0,0,1,.39.95l-1,.21a1.53,1.53,0,0,0-.21-.6,1,1,0,0,0-.45-.43,1.44,1.44,0,0,0-.73-.16,1.54,1.54,0,0,0-.77.19,1.48,1.48,0,0,0-.55.56,1.86,1.86,0,0,0-.2.89v.09a1.92,1.92,0,0,0,.2.89,1.48,1.48,0,0,0,.55.56,1.66,1.66,0,0,0,.77.19,1.35,1.35,0,0,0,1-.34,1.51,1.51,0,0,0,.43-.85l1,.23a2.74,2.74,0,0,1-.42.94,2.25,2.25,0,0,1-.81.68A2.61,2.61,0,0,1,80.24,179.35Z"/><path class="cls-1" d="M83.87,179.21v-7h1v4h.16L87,174.28h1.37l-2.49,2.39,2.57,2.54H87.09l-2-2.05H84.9v2.05Z"/><path class="cls-1" d="M93.78,177.8v-1.62h-1.6v-.94h1.6v-1.62h1v1.62h1.6v.94h-1.6v1.62Z"/><path class="cls-1" d="M101.21,179.21l-1-7h1.08l.84,6.27h.16l1.08-6.27h1.89l1.08,6.27h.16l.83-6.27h1.08l-1,7h-1.89l-1.1-6.36h-.16l-1.09,6.36Z"/><path class="cls-1" d="M108.71,179.21l2-7h1.9l2,7h-1.11l-.46-1.65h-2.74l-.46,1.65Zm1.85-2.65h2.2l-1-3.68h-.16Z"/><path class="cls-1" d="M117.92,179.35a3.46,3.46,0,0,1-1.4-.28,2.26,2.26,0,0,1-1-.83,2.4,2.4,0,0,1-.35-1.32v-.25h1.07v.25a1.36,1.36,0,0,0,.45,1.11,1.81,1.81,0,0,0,1.18.37,1.73,1.73,0,0,0,1.13-.32,1,1,0,0,0,.38-.81.8.8,0,0,0-.18-.54,1.2,1.2,0,0,0-.51-.34,6.46,6.46,0,0,0-.79-.23l-.37-.09a6,6,0,0,1-1.16-.4,1.92,1.92,0,0,1-.77-.62,2,2,0,0,1,0-2.06,1.9,1.9,0,0,1,.84-.68,3.13,3.13,0,0,1,1.27-.24,3.22,3.22,0,0,1,1.31.25,2,2,0,0,1,.9.74,2.13,2.13,0,0,1,.33,1.23v.36h-1.07v-.36a1.32,1.32,0,0,0-.18-.73,1.06,1.06,0,0,0-.52-.41,2,2,0,0,0-.77-.13,1.6,1.6,0,0,0-1,.26.87.87,0,0,0-.36.74.81.81,0,0,0,.16.52,1.07,1.07,0,0,0,.45.34,5.24,5.24,0,0,0,.75.23l.37.09a5.65,5.65,0,0,1,1.2.38,2,2,0,0,1,.82.64,1.66,1.66,0,0,1,.3,1,1.94,1.94,0,0,1-.31,1.1,2.13,2.13,0,0,1-.9.73A3.19,3.19,0,0,1,117.92,179.35Z"/><path class="cls-1" d="M121.33,179.21v-1h.94v-5.08h-.94v-1h2.8a3,3,0,0,1,2.15.71,2.83,2.83,0,0,1,.74,2.14v1.31a2.82,2.82,0,0,1-.74,2.13,3,3,0,0,1-2.15.71Zm2-1h.78a1.8,1.8,0,0,0,1.35-.46,1.9,1.9,0,0,0,.44-1.37V175a1.85,1.85,0,0,0-.44-1.37,1.8,1.8,0,0,0-1.35-.45h-.78Z"/><path class="cls-1" d="M131.71,179.21v-4.06h-1.38v-.87h1.38V173.2a.93.93,0,0,1,1-1H134v.87H133a.26.26,0,0,0-.29.3v.9h1.42v.87h-1.42v4.06Z"/><path class="cls-1" d="M137.32,179.35A2.78,2.78,0,0,1,136,179a2.18,2.18,0,0,1-.91-.87,2.65,2.65,0,0,1-.33-1.35v-.15a2.65,2.65,0,0,1,.33-1.35,2.18,2.18,0,0,1,.91-.87,2.94,2.94,0,0,1,2.63,0,2.18,2.18,0,0,1,.91.87,2.65,2.65,0,0,1,.33,1.35v.15a2.65,2.65,0,0,1-.33,1.35,2.18,2.18,0,0,1-.91.87A2.8,2.8,0,0,1,137.32,179.35Zm0-.92a1.49,1.49,0,0,0,1.11-.44,1.66,1.66,0,0,0,.42-1.2v-.09a1.66,1.66,0,0,0-.42-1.21,1.47,1.47,0,0,0-1.11-.43,1.45,1.45,0,0,0-1.09.43,1.63,1.63,0,0,0-.43,1.21v.09a1.62,1.62,0,0,0,.43,1.2A1.46,1.46,0,0,0,137.32,178.43Z"/><path class="cls-1" d="M141.16,179.21v-4.93h1v.58h.16a.85.85,0,0,1,.39-.46,1.28,1.28,0,0,1,.65-.14H144v.93h-.63a1.23,1.23,0,0,0-.82.27,1.07,1.07,0,0,0-.32.85v2.9Z"/><path class="cls-1" d="M149.11,179.35a2.32,2.32,0,0,1-.94-.18,1.51,1.51,0,0,1-.66-.53,1.42,1.42,0,0,1-.25-.85,1.36,1.36,0,0,1,.25-.85,1.43,1.43,0,0,1,.67-.5,2.42,2.42,0,0,1,1-.17h1.5V176a.94.94,0,0,0-.26-.69,1.06,1.06,0,0,0-.8-.26,1.17,1.17,0,0,0-.81.25,1.2,1.2,0,0,0-.37.65l-1-.31a2.06,2.06,0,0,1,.39-.73,1.79,1.79,0,0,1,.7-.52,2.45,2.45,0,0,1,1.06-.2,2.18,2.18,0,0,1,1.51.49,1.74,1.74,0,0,1,.55,1.39v2c0,.2.09.3.28.3h.42v.86h-.77A.88.88,0,0,1,151,179a.6.6,0,0,1-.22-.49v0h-.15a2.21,2.21,0,0,1-.24.35,1.27,1.27,0,0,1-.47.34A1.91,1.91,0,0,1,149.11,179.35Zm.15-.85a1.38,1.38,0,0,0,1-.36,1.28,1.28,0,0,0,.38-1v-.1H149.2a1.12,1.12,0,0,0-.66.17.61.61,0,0,0-.25.52.67.67,0,0,0,.26.54A1.15,1.15,0,0,0,149.26,178.5Z"/><path class="cls-1" d="M155.27,179.35a2.22,2.22,0,0,1-1.13-.3,2.18,2.18,0,0,1-.83-.87,2.76,2.76,0,0,1-.32-1.36v-.15a2.76,2.76,0,0,1,.31-1.36,2.18,2.18,0,0,1,.83-.87,2.26,2.26,0,0,1,1.14-.3,2.39,2.39,0,0,1,.81.12,1.79,1.79,0,0,1,.53.3,1.28,1.28,0,0,1,.32.39h.16v-2.74h1v7h-1v-.7H157a2.08,2.08,0,0,1-.57.58A2,2,0,0,1,155.27,179.35Zm.29-.9a1.54,1.54,0,0,0,1.11-.43,1.66,1.66,0,0,0,.43-1.23v-.09a1.62,1.62,0,0,0-.43-1.22,1.5,1.5,0,0,0-1.11-.43,1.47,1.47,0,0,0-1.09.43,1.63,1.63,0,0,0-.44,1.22v.09a1.67,1.67,0,0,0,.44,1.23A1.51,1.51,0,0,0,155.56,178.45Z"/><path class="cls-1" d="M160.78,179.21l-1.66-4.93h1.09l1.31,4.17h.16l1.31-4.17h1.09l-1.66,4.93Z"/><path class="cls-1" d="M166.47,179.35a2.32,2.32,0,0,1-.94-.18,1.51,1.51,0,0,1-.66-.53,1.42,1.42,0,0,1-.25-.85,1.36,1.36,0,0,1,.25-.85,1.43,1.43,0,0,1,.67-.5,2.42,2.42,0,0,1,1-.17H168V176a.94.94,0,0,0-.26-.69,1.06,1.06,0,0,0-.8-.26,1.17,1.17,0,0,0-.81.25,1.14,1.14,0,0,0-.37.65l-1-.31a2.06,2.06,0,0,1,.39-.73,1.79,1.79,0,0,1,.7-.52,2.45,2.45,0,0,1,1.06-.2,2.18,2.18,0,0,1,1.51.49A1.74,1.74,0,0,1,169,176v2c0,.2.09.3.28.3h.42v.86h-.77a.88.88,0,0,1-.57-.18.6.6,0,0,1-.22-.49v0H168a2.21,2.21,0,0,1-.24.35,1.36,1.36,0,0,1-.47.34A1.91,1.91,0,0,1,166.47,179.35Zm.15-.85a1.39,1.39,0,0,0,1-.36,1.28,1.28,0,0,0,.38-1v-.1h-1.44a1.12,1.12,0,0,0-.66.17.59.59,0,0,0-.25.52.67.67,0,0,0,.26.54A1.15,1.15,0,0,0,166.62,178.5Z"/><path class="cls-1" d="M170.71,179.21v-4.93h1V175h.16a1.44,1.44,0,0,1,.5-.56,1.78,1.78,0,0,1,1.07-.26,2,2,0,0,1,1,.25,1.76,1.76,0,0,1,.68.7,2.21,2.21,0,0,1,.25,1.1v3h-1v-2.88a1.27,1.27,0,0,0-.32-1,1.24,1.24,0,0,0-.88-.3,1.3,1.3,0,0,0-1,.42,1.72,1.72,0,0,0-.39,1.22v2.49Z"/><path class="cls-1" d="M179.15,179.35a2.72,2.72,0,0,1-1.28-.3,2.18,2.18,0,0,1-.91-.87,2.6,2.6,0,0,1-.34-1.37v-.13a2.58,2.58,0,0,1,.34-1.37,2.18,2.18,0,0,1,.91-.87,2.72,2.72,0,0,1,1.28-.3,2.52,2.52,0,0,1,1.21.26,2.22,2.22,0,0,1,1.2,1.64l-1,.21a1.53,1.53,0,0,0-.21-.6,1.16,1.16,0,0,0-.45-.43,1.46,1.46,0,0,0-.73-.16,1.52,1.52,0,0,0-.77.19,1.41,1.41,0,0,0-.55.56,1.86,1.86,0,0,0-.2.89v.09a1.92,1.92,0,0,0,.2.89,1.41,1.41,0,0,0,.55.56,1.63,1.63,0,0,0,.77.19,1.38,1.38,0,0,0,1-.34,1.51,1.51,0,0,0,.43-.85l1,.23a2.74,2.74,0,0,1-.42.94,2.34,2.34,0,0,1-.81.68A2.64,2.64,0,0,1,179.15,179.35Z"/><path class="cls-1" d="M185,179.35a2.62,2.62,0,0,1-1.31-.32,2.26,2.26,0,0,1-.87-.89,2.73,2.73,0,0,1-.32-1.33v-.12a2.75,2.75,0,0,1,.31-1.35,2.26,2.26,0,0,1,.87-.89,2.53,2.53,0,0,1,1.28-.31,2.44,2.44,0,0,1,1.25.31,2.2,2.2,0,0,1,.83.88,2.72,2.72,0,0,1,.3,1.31V177h-3.79a1.38,1.38,0,0,0,.44,1,1.44,1.44,0,0,0,1,.39,1.32,1.32,0,0,0,.88-.26,2.15,2.15,0,0,0,.45-.6l.85.44a3.42,3.42,0,0,1-.4.59,2.24,2.24,0,0,1-.7.52A2.51,2.51,0,0,1,185,179.35Zm-1.44-3.11h2.73a1.24,1.24,0,0,0-.4-.88,1.58,1.58,0,0,0-1.88,0A1.32,1.32,0,0,0,183.6,176.24Z"/><path class="cls-1" d="M190.66,179.35a2.22,2.22,0,0,1-1.13-.3,2.18,2.18,0,0,1-.83-.87,2.76,2.76,0,0,1-.32-1.36v-.15a2.76,2.76,0,0,1,.31-1.36,2.18,2.18,0,0,1,.83-.87,2.26,2.26,0,0,1,1.14-.3,2.39,2.39,0,0,1,.81.12,1.79,1.79,0,0,1,.53.3,1.28,1.28,0,0,1,.32.39h.16v-2.74h1v7h-1v-.7h-.16a2.08,2.08,0,0,1-.57.58A2,2,0,0,1,190.66,179.35Zm.29-.9a1.54,1.54,0,0,0,1.11-.43,1.66,1.66,0,0,0,.43-1.23v-.09a1.62,1.62,0,0,0-.43-1.22,1.5,1.5,0,0,0-1.11-.43,1.47,1.47,0,0,0-1.09.43,1.63,1.63,0,0,0-.44,1.22v.09a1.67,1.67,0,0,0,.44,1.23A1.51,1.51,0,0,0,191,178.45Z"/><path class="cls-1" d="M199.87,179.35a2.72,2.72,0,0,1-1.28-.3,2.18,2.18,0,0,1-.91-.87,2.6,2.6,0,0,1-.34-1.37v-.13a2.58,2.58,0,0,1,.34-1.37,2.18,2.18,0,0,1,.91-.87,2.72,2.72,0,0,1,1.28-.3,2.52,2.52,0,0,1,1.21.26,2.22,2.22,0,0,1,1.2,1.64l-1,.21a1.53,1.53,0,0,0-.21-.6,1.16,1.16,0,0,0-.45-.43,1.46,1.46,0,0,0-.73-.16,1.52,1.52,0,0,0-.77.19,1.41,1.41,0,0,0-.55.56,1.86,1.86,0,0,0-.2.89v.09a1.92,1.92,0,0,0,.2.89,1.41,1.41,0,0,0,.55.56,1.63,1.63,0,0,0,.77.19,1.38,1.38,0,0,0,1-.34,1.51,1.51,0,0,0,.43-.85l1,.23a2.74,2.74,0,0,1-.42.94,2.34,2.34,0,0,1-.81.68A2.64,2.64,0,0,1,199.87,179.35Z"/><path class="cls-1" d="M205.81,179.35a2.78,2.78,0,0,1-1.31-.31,2.18,2.18,0,0,1-.91-.87,2.65,2.65,0,0,1-.33-1.35v-.15a2.65,2.65,0,0,1,.33-1.35,2.18,2.18,0,0,1,.91-.87,2.67,2.67,0,0,1,1.31-.31,2.74,2.74,0,0,1,1.32.31,2.18,2.18,0,0,1,.91.87,2.65,2.65,0,0,1,.33,1.35v.15a2.65,2.65,0,0,1-.33,1.35,2.18,2.18,0,0,1-.91.87A2.86,2.86,0,0,1,205.81,179.35Zm0-.92a1.51,1.51,0,0,0,1.11-.44,1.66,1.66,0,0,0,.42-1.2v-.09a1.66,1.66,0,0,0-.42-1.21,1.47,1.47,0,0,0-1.11-.43,1.44,1.44,0,0,0-1.09.43,1.63,1.63,0,0,0-.43,1.21v.09a1.62,1.62,0,0,0,.43,1.2A1.45,1.45,0,0,0,205.81,178.43Z"/><path class="cls-1" d="M209.65,179.21v-4.93h1V175h.16a1.44,1.44,0,0,1,.5-.56,1.78,1.78,0,0,1,1.07-.26,1.92,1.92,0,0,1,1,.25,1.72,1.72,0,0,1,.69.7,2.21,2.21,0,0,1,.25,1.1v3h-1v-2.88a1.27,1.27,0,0,0-.32-1,1.24,1.24,0,0,0-.88-.3,1.33,1.33,0,0,0-1,.42,1.76,1.76,0,0,0-.38,1.22v2.49Z"/><path class="cls-1" d="M217.51,179.21a.93.93,0,0,1-.71-.27,1,1,0,0,1-.27-.72v-3.07h-1.36v-.87h1.36v-1.63h1v1.63H219v.87h-1.47V178c0,.2.09.3.28.3h1v.87Z"/><path class="cls-1" d="M220.24,179.21v-4.93h1v.58h.16a.85.85,0,0,1,.39-.46,1.28,1.28,0,0,1,.65-.14H223v.93h-.63a1.23,1.23,0,0,0-.82.27,1.07,1.07,0,0,0-.32.85v2.9Z"/><path class="cls-1" d="M226.24,179.35a2.78,2.78,0,0,1-1.31-.31,2.18,2.18,0,0,1-.91-.87,2.65,2.65,0,0,1-.33-1.35v-.15a2.65,2.65,0,0,1,.33-1.35,2.18,2.18,0,0,1,.91-.87,2.67,2.67,0,0,1,1.31-.31,2.74,2.74,0,0,1,1.32.31,2.18,2.18,0,0,1,.91.87,2.65,2.65,0,0,1,.33,1.35v.15a2.65,2.65,0,0,1-.33,1.35,2.18,2.18,0,0,1-.91.87A2.86,2.86,0,0,1,226.24,179.35Zm0-.92a1.51,1.51,0,0,0,1.11-.44,1.66,1.66,0,0,0,.42-1.2v-.09a1.66,1.66,0,0,0-.42-1.21,1.47,1.47,0,0,0-1.11-.43,1.44,1.44,0,0,0-1.09.43,1.63,1.63,0,0,0-.43,1.21v.09a1.62,1.62,0,0,0,.43,1.2A1.45,1.45,0,0,0,226.24,178.43Z"/><path class="cls-1" d="M230.08,179.21v-7h1v7Z"/><path class="cls-1" d="M234.66,179.35a2.71,2.71,0,0,1-1.56-.42,1.82,1.82,0,0,1-.76-1.27l1-.23a1.44,1.44,0,0,0,.27.65,1,1,0,0,0,.48.34,2,2,0,0,0,.61.1,1.35,1.35,0,0,0,.76-.19.59.59,0,0,0,.26-.49.46.46,0,0,0-.25-.44,2.31,2.31,0,0,0-.74-.23l-.34-.06a4.63,4.63,0,0,1-.91-.26,1.68,1.68,0,0,1-.65-.47,1.2,1.2,0,0,1-.24-.77,1.27,1.27,0,0,1,.52-1.09,2.26,2.26,0,0,1,1.38-.38,2.3,2.3,0,0,1,1.36.37,1.71,1.71,0,0,1,.7,1l-1,.27a.94.94,0,0,0-.38-.64,1.33,1.33,0,0,0-.72-.18,1.24,1.24,0,0,0-.66.15.49.49,0,0,0-.24.44.48.48,0,0,0,.24.44,1.93,1.93,0,0,0,.63.21l.35.06a5.28,5.28,0,0,1,1,.25,1.56,1.56,0,0,1,.69.46,1.18,1.18,0,0,1,.26.8,1.36,1.36,0,0,1-.55,1.15A2.45,2.45,0,0,1,234.66,179.35Z"/></svg>