<svg id="Layer_1" data-name="Layer 1" xmlns="http://www.w3.org/2000/svg" viewBox="0 0 274.35 204.16"><defs><style>.cls-1{fill:#fff;}</style></defs><path class="cls-1" d="M15.81,24.08l-1.24-8.4h1.3l1,7.52h.19l1.29-7.52h2.27l1.3,7.52h.19l1-7.52h1.29l-1.23,8.4H20.91l-1.32-7.64H19.4l-1.31,7.64Z"/><path class="cls-1" d="M27.47,24.24A2.88,2.88,0,0,1,26.34,24a1.86,1.86,0,0,1-.79-.64,1.71,1.71,0,0,1-.3-1,1.64,1.64,0,0,1,.3-1,1.77,1.77,0,0,1,.8-.61,3.24,3.24,0,0,1,1.16-.2h1.8v-.39a1.12,1.12,0,0,0-.31-.82A1.31,1.31,0,0,0,28,19a1.29,1.29,0,0,0-1.42,1.08l-1.15-.37a2.43,2.43,0,0,1,.46-.87,2.23,2.23,0,0,1,.85-.63A3,3,0,0,1,28.05,18a2.63,2.63,0,0,1,1.81.59,2.12,2.12,0,0,1,.66,1.67v2.43c0,.24.11.36.34.36h.5v1h-.92a1.1,1.1,0,0,1-.69-.22.73.73,0,0,1-.26-.59v0h-.18a3.23,3.23,0,0,1-.29.42,1.66,1.66,0,0,1-.56.41A2.32,2.32,0,0,1,27.47,24.24Zm.18-1a1.69,1.69,0,0,0,1.2-.42,1.52,1.52,0,0,0,.46-1.17v-.12H27.58a1.34,1.34,0,0,0-.79.21.7.7,0,0,0-.3.62.76.76,0,0,0,.31.64A1.36,1.36,0,0,0,27.65,23.22Z"/><path class="cls-1" d="M32.56,24.08v-8.4H33.8v8.4Z"/><path class="cls-1" d="M35.63,24.08v-8.4h1.24v4.78h.19l2.33-2.3H41L38,21l3.09,3H39.5l-2.44-2.46h-.19v2.46Z"/><path class="cls-1" d="M42.87,17.36a.85.85,0,0,1-.61-.24.8.8,0,0,1-.24-.6.82.82,0,0,1,.24-.61.84.84,0,0,1,.61-.23.81.81,0,0,1,.85.84.8.8,0,0,1-.24.6A.82.82,0,0,1,42.87,17.36Zm-.63,6.72V18.16h1.24v5.92Z"/><path class="cls-1" d="M45.32,24.08V18.16h1.21v.89h.19a1.7,1.7,0,0,1,.6-.67,2.18,2.18,0,0,1,1.28-.32,2.38,2.38,0,0,1,1.2.3,2.16,2.16,0,0,1,.82.85,2.67,2.67,0,0,1,.3,1.31v3.56H49.68V20.62a1.32,1.32,0,0,0-1.44-1.5,1.61,1.61,0,0,0-1.23.5,2.16,2.16,0,0,0-.46,1.47v3Z"/><path class="cls-1" d="M52.41,21.15V21a3.08,3.08,0,0,1,.38-1.6A2.67,2.67,0,0,1,55.16,18a2.26,2.26,0,0,1,1.32.33,2.12,2.12,0,0,1,.68.69h.19v-.85h1.2v7.13a1.13,1.13,0,0,1-.32.86,1.15,1.15,0,0,1-.87.33h-4V25.4H57a.32.32,0,0,0,.35-.36V23.15h-.19a2.46,2.46,0,0,1-.38.45,1.91,1.91,0,0,1-.63.37,3,3,0,0,1-1,.14,2.83,2.83,0,0,1-1.38-.35,2.65,2.65,0,0,1-1-1A3.22,3.22,0,0,1,52.41,21.15ZM55.49,23a1.83,1.83,0,0,0,1.33-.51,1.87,1.87,0,0,0,.52-1.41V21a1.87,1.87,0,0,0-.52-1.42,2,2,0,0,0-2.64,0A1.87,1.87,0,0,0,53.66,21v.11a1.87,1.87,0,0,0,.52,1.41A1.79,1.79,0,0,0,55.49,23Z"/><path class="cls-1" d="M66.18,24.24a3.3,3.3,0,0,1-1.54-.36,2.66,2.66,0,0,1-1.09-1,3.16,3.16,0,0,1-.4-1.64V21a3.14,3.14,0,0,1,.4-1.64,2.73,2.73,0,0,1,1.09-1A3.19,3.19,0,0,1,66.18,18a3.25,3.25,0,0,1,1.46.31,2.68,2.68,0,0,1,1,.83,2.87,2.87,0,0,1,.48,1.14l-1.2.25a2,2,0,0,0-.26-.72,1.33,1.33,0,0,0-.54-.51,1.75,1.75,0,0,0-.87-.19,1.78,1.78,0,0,0-.93.23,1.7,1.7,0,0,0-.66.67,2.18,2.18,0,0,0-.24,1.06v.11a2.23,2.23,0,0,0,.24,1.07,1.58,1.58,0,0,0,.66.67,1.89,1.89,0,0,0,.93.23,1.63,1.63,0,0,0,1.19-.4,1.84,1.84,0,0,0,.51-1l1.2.28a3,3,0,0,1-.51,1.13,2.66,2.66,0,0,1-1,.82A3.25,3.25,0,0,1,66.18,24.24Z"/><path class="cls-1" d="M73.31,24.24a3.38,3.38,0,0,1-1.58-.36,2.73,2.73,0,0,1-1.08-1.05,3.14,3.14,0,0,1-.4-1.62V21a3.12,3.12,0,0,1,.4-1.62,2.73,2.73,0,0,1,1.08-1.05A3.38,3.38,0,0,1,73.31,18a3.45,3.45,0,0,1,1.59.37A2.82,2.82,0,0,1,76,19.41,3.21,3.21,0,0,1,76.38,21v.18A3.24,3.24,0,0,1,76,22.83a2.82,2.82,0,0,1-1.09,1.05A3.45,3.45,0,0,1,73.31,24.24Zm0-1.1a1.76,1.76,0,0,0,1.33-.52,2,2,0,0,0,.51-1.45v-.11a2,2,0,0,0-.51-1.44,1.94,1.94,0,0,0-2.64,0,2,2,0,0,0-.51,1.44v.11A2,2,0,0,0,72,22.62,1.75,1.75,0,0,0,73.31,23.14Z"/><path class="cls-1" d="M77.92,24.08V18.16h1.21v.89h.19a1.87,1.87,0,0,1,.6-.67,2.19,2.19,0,0,1,1.29-.32,2.34,2.34,0,0,1,1.19.3,2.16,2.16,0,0,1,.82.85,2.67,2.67,0,0,1,.3,1.31v3.56H82.29V20.62a1.47,1.47,0,0,0-.39-1.13,1.42,1.42,0,0,0-1.05-.37,1.61,1.61,0,0,0-1.23.5,2.11,2.11,0,0,0-.46,1.47v3Z"/><path class="cls-1" d="M87.35,24.08a1.15,1.15,0,0,1-.86-.33,1.16,1.16,0,0,1-.31-.86V19.2H84.54v-1h1.64v-2h1.23v2h1.77v1H87.41v3.47c0,.24.11.36.34.36H89v1Z"/><path class="cls-1" d="M90.63,24.08V18.16h1.21v.7H92a1.05,1.05,0,0,1,.46-.55,1.62,1.62,0,0,1,.79-.17H94v1.11h-.76a1.43,1.43,0,0,0-1,.33,1.26,1.26,0,0,0-.39,1v3.48Z"/><path class="cls-1" d="M97.83,24.24a3.38,3.38,0,0,1-1.58-.36,2.82,2.82,0,0,1-1.09-1.05,3.24,3.24,0,0,1-.39-1.62V21a3.21,3.21,0,0,1,.39-1.62,2.82,2.82,0,0,1,1.09-1.05,3.56,3.56,0,0,1,3.16,0,2.69,2.69,0,0,1,1.09,1.05,3.12,3.12,0,0,1,.4,1.62v.18a3.14,3.14,0,0,1-.4,1.62,2.69,2.69,0,0,1-1.09,1.05A3.38,3.38,0,0,1,97.83,24.24Zm0-1.1a1.76,1.76,0,0,0,1.32-.52,2,2,0,0,0,.51-1.45v-.11a2,2,0,0,0-.5-1.44,1.95,1.95,0,0,0-2.65,0A2,2,0,0,0,96,21.06v.11a2,2,0,0,0,.51,1.45A1.76,1.76,0,0,0,97.83,23.14Z"/><path class="cls-1" d="M102.44,24.08v-8.4h1.23v8.4Z"/><path class="cls-1" d="M107.93,24.24a3.24,3.24,0,0,1-1.87-.5,2.15,2.15,0,0,1-.91-1.52l1.15-.28a1.75,1.75,0,0,0,.32.78,1.34,1.34,0,0,0,.57.41,2.25,2.25,0,0,0,.74.12,1.57,1.57,0,0,0,.91-.23.7.7,0,0,0,.32-.59.57.57,0,0,0-.3-.53,3,3,0,0,0-.89-.27l-.41-.07a5.57,5.57,0,0,1-1.09-.32,1.83,1.83,0,0,1-.78-.56,1.45,1.45,0,0,1-.29-.92,1.55,1.55,0,0,1,.62-1.31,3.22,3.22,0,0,1,3.3,0,2.05,2.05,0,0,1,.83,1.22L109,20a1.08,1.08,0,0,0-.46-.76,1.55,1.55,0,0,0-.86-.22,1.38,1.38,0,0,0-.79.19.63.63,0,0,0,0,1,2.41,2.41,0,0,0,.76.25l.42.07a6.24,6.24,0,0,1,1.17.3,1.92,1.92,0,0,1,.83.55,1.4,1.4,0,0,1,.31,1,1.63,1.63,0,0,1-.66,1.38A2.89,2.89,0,0,1,107.93,24.24Z"/><path class="cls-1" d="M71.06,123v25.17H21.65V123H71.06m3-3H18.65v31.17H74.06V120Z"/><rect class="cls-1" x="18.65" y="143.25" width="55.41" height="7.9"/><rect class="cls-1" x="18.65" y="119.98" width="55.41" height="7.9"/><path class="cls-1" d="M71.06,52.21V77.38H21.65V52.21H71.06m3-3H18.65V80.38H74.06V49.21Z"/><rect class="cls-1" x="18.65" y="49.21" width="10.53" height="31.17"/><rect class="cls-1" x="63.53" y="49.21" width="10.53" height="31.17"/><path class="cls-1" d="M85.77,61.58v-7h2l1.53,6.27h.16L91,54.58h2v7H92V55.33h-.16l-1.52,6.25H88.5L87,55.33h-.16v6.25Z"/><path class="cls-1" d="M96.85,61.72a2.83,2.83,0,0,1-1.32-.31,2.24,2.24,0,0,1-.9-.88,2.62,2.62,0,0,1-.33-1.35V59a2.61,2.61,0,0,1,.33-1.34,2.22,2.22,0,0,1,.9-.87,2.71,2.71,0,0,1,1.32-.31,2.74,2.74,0,0,1,1.32.31,2.24,2.24,0,0,1,.91.87A2.61,2.61,0,0,1,99.41,59v.15a2.62,2.62,0,0,1-.33,1.35,2.27,2.27,0,0,1-.91.88A2.86,2.86,0,0,1,96.85,61.72Zm0-.92a1.47,1.47,0,0,0,1.1-.44,1.62,1.62,0,0,0,.43-1.2v-.09A1.66,1.66,0,0,0,98,57.86a1.63,1.63,0,0,0-2.21,0,1.66,1.66,0,0,0-.42,1.21v.09a1.66,1.66,0,0,0,.42,1.2A1.48,1.48,0,0,0,96.85,60.8Z"/><path class="cls-1" d="M101.66,61.58,100,56.64h1.09l1.31,4.18h.16l1.31-4.18H105l-1.66,4.94Z"/><path class="cls-1" d="M108.05,61.72a2.62,2.62,0,0,1-1.31-.32,2.22,2.22,0,0,1-.88-.89,2.72,2.72,0,0,1-.31-1.33v-.12a2.75,2.75,0,0,1,.31-1.35,2.17,2.17,0,0,1,.86-.89,2.57,2.57,0,0,1,1.29-.31,2.38,2.38,0,0,1,1.24.31,2.16,2.16,0,0,1,.84.88,2.72,2.72,0,0,1,.3,1.31v.38H106.6a1.42,1.42,0,0,0,.43,1,1.46,1.46,0,0,0,1,.39,1.29,1.29,0,0,0,.87-.26,1.93,1.93,0,0,0,.46-.61l.85.44a3.21,3.21,0,0,1-.41.6,2.2,2.2,0,0,1-.69.52A2.69,2.69,0,0,1,108.05,61.72Zm-1.44-3.12h2.73a1.23,1.23,0,0,0-.4-.87,1.39,1.39,0,0,0-.94-.32,1.42,1.42,0,0,0-1,.32A1.35,1.35,0,0,0,106.61,58.6Z"/><path class="cls-1" d="M116,61.58a1,1,0,0,1-.72-.27,1,1,0,0,1-.26-.73V57.51h-1.36v-.87h1.36V55h1v1.63h1.47v.87h-1.47v2.9c0,.19.09.29.28.29h1v.88Z"/><path class="cls-1" d="M118.76,61.58v-7h1v2.77H120a1.31,1.31,0,0,1,.77-.67,2.19,2.19,0,0,1,.78-.11,1.92,1.92,0,0,1,1,.25,1.79,1.79,0,0,1,.69.7,2.32,2.32,0,0,1,.25,1.1v3h-1V58.7a1.27,1.27,0,0,0-.32-1,1.25,1.25,0,0,0-.88-.3,1.3,1.3,0,0,0-1,.42,1.74,1.74,0,0,0-.38,1.21v2.5Z"/><path class="cls-1" d="M127.17,61.72a2.62,2.62,0,0,1-1.31-.32,2.22,2.22,0,0,1-.88-.89,2.72,2.72,0,0,1-.31-1.33v-.12a2.75,2.75,0,0,1,.31-1.35,2.17,2.17,0,0,1,.86-.89,2.57,2.57,0,0,1,1.29-.31,2.4,2.4,0,0,1,1.24.31,2.16,2.16,0,0,1,.84.88,2.72,2.72,0,0,1,.3,1.31v.38h-3.79a1.42,1.42,0,0,0,.43,1,1.46,1.46,0,0,0,1,.39,1.31,1.31,0,0,0,.87-.26,1.93,1.93,0,0,0,.46-.61l.85.44a3.21,3.21,0,0,1-.41.6,2.32,2.32,0,0,1-.69.52A2.69,2.69,0,0,1,127.17,61.72Zm-1.44-3.12h2.73a1.23,1.23,0,0,0-.4-.87,1.56,1.56,0,0,0-1.89,0A1.35,1.35,0,0,0,125.73,58.6Z"/><path class="cls-1" d="M133.3,61.58V56.64h1v.58h.16a1.31,1.31,0,0,1,.45-.46,1.91,1.91,0,0,1,1.72,0,1.5,1.5,0,0,1,.51.58h.16a1.41,1.41,0,0,1,.49-.57,1.56,1.56,0,0,1,.93-.23,1.8,1.8,0,0,1,.85.19,1.49,1.49,0,0,1,.59.58,2,2,0,0,1,.22,1v3.28h-1V58.37a1,1,0,0,0-.25-.69.94.94,0,0,0-.69-.25,1,1,0,0,0-.77.31,1.25,1.25,0,0,0-.29.9v2.94h-1V58.37a1,1,0,0,0-.25-.69.94.94,0,0,0-.69-.25,1,1,0,0,0-.77.31,1.25,1.25,0,0,0-.29.9v2.94Z"/><path class="cls-1" d="M144.18,61.72a2.83,2.83,0,0,1-1.32-.31,2.24,2.24,0,0,1-.9-.88,2.62,2.62,0,0,1-.33-1.35V59a2.61,2.61,0,0,1,.33-1.34,2.22,2.22,0,0,1,.9-.87,2.71,2.71,0,0,1,1.32-.31,2.74,2.74,0,0,1,1.32.31,2.24,2.24,0,0,1,.91.87,2.61,2.61,0,0,1,.33,1.34v.15a2.62,2.62,0,0,1-.33,1.35,2.27,2.27,0,0,1-.91.88A2.86,2.86,0,0,1,144.18,61.72Zm0-.92a1.47,1.47,0,0,0,1.1-.44,1.66,1.66,0,0,0,.43-1.2v-.09a1.66,1.66,0,0,0-.42-1.21,1.63,1.63,0,0,0-2.21,0,1.66,1.66,0,0,0-.42,1.21v.09a1.66,1.66,0,0,0,.42,1.2A1.47,1.47,0,0,0,144.18,60.8Z"/><path class="cls-1" d="M149.91,61.66a1.93,1.93,0,0,1-1-.25,1.63,1.63,0,0,1-.69-.71,2.21,2.21,0,0,1-.25-1.1v-3h1v2.89a1.23,1.23,0,0,0,.32.95,1.24,1.24,0,0,0,.89.3,1.29,1.29,0,0,0,1-.42,1.74,1.74,0,0,0,.39-1.22v-2.5h1v4.94h-1v-.75h-.16a1.63,1.63,0,0,1-.5.57A1.77,1.77,0,0,1,149.91,61.66Z"/><path class="cls-1" d="M156.18,61.72a2.71,2.71,0,0,1-1.56-.42,1.81,1.81,0,0,1-.76-1.27l1-.23a1.49,1.49,0,0,0,.27.65,1,1,0,0,0,.47.33,1.8,1.8,0,0,0,.62.11,1.32,1.32,0,0,0,.75-.19.58.58,0,0,0,.27-.5.5.5,0,0,0-.25-.44,3.1,3.1,0,0,0-.74-.23l-.34-.06a4.45,4.45,0,0,1-.91-.25,1.54,1.54,0,0,1-.65-.48,1.16,1.16,0,0,1-.24-.77,1.27,1.27,0,0,1,.52-1.08,2.22,2.22,0,0,1,1.38-.38,2.32,2.32,0,0,1,1.36.37,1.72,1.72,0,0,1,.7,1l-1,.27a.94.94,0,0,0-.38-.63,1.37,1.37,0,0,0-.72-.18,1.24,1.24,0,0,0-.66.15.49.49,0,0,0-.24.43.45.45,0,0,0,.23.44,1.66,1.66,0,0,0,.64.21l.35.06a6.54,6.54,0,0,1,1,.25,1.74,1.74,0,0,1,.69.46,1.23,1.23,0,0,1,.26.81,1.38,1.38,0,0,1-.55,1.15A2.45,2.45,0,0,1,156.18,61.72Z"/><path class="cls-1" d="M161.67,61.72a2.62,2.62,0,0,1-1.31-.32,2.22,2.22,0,0,1-.88-.89,2.72,2.72,0,0,1-.31-1.33v-.12a2.75,2.75,0,0,1,.31-1.35,2.17,2.17,0,0,1,.86-.89,2.57,2.57,0,0,1,1.29-.31,2.4,2.4,0,0,1,1.24.31,2.16,2.16,0,0,1,.84.88A2.72,2.72,0,0,1,164,59v.38h-3.79a1.42,1.42,0,0,0,.43,1,1.46,1.46,0,0,0,1,.39,1.29,1.29,0,0,0,.87-.26A1.93,1.93,0,0,0,163,60l.85.44a3.21,3.21,0,0,1-.41.6,2.2,2.2,0,0,1-.69.52A2.69,2.69,0,0,1,161.67,61.72Zm-1.44-3.12H163a1.23,1.23,0,0,0-.4-.87,1.39,1.39,0,0,0-.94-.32,1.42,1.42,0,0,0-1,.32A1.35,1.35,0,0,0,160.23,58.6Z"/><path class="cls-1" d="M169.65,61.58a1,1,0,0,1-.72-.27,1,1,0,0,1-.26-.73V57.51h-1.36v-.87h1.36V55h1v1.63h1.47v.87H169.7v2.9c0,.19.09.29.28.29h1v.88Z"/><path class="cls-1" d="M174.51,61.72a2.83,2.83,0,0,1-1.32-.31,2.24,2.24,0,0,1-.9-.88,2.62,2.62,0,0,1-.33-1.35V59a2.61,2.61,0,0,1,.33-1.34,2.22,2.22,0,0,1,.9-.87,2.71,2.71,0,0,1,1.32-.31,2.74,2.74,0,0,1,1.32.31,2.24,2.24,0,0,1,.91.87,2.61,2.61,0,0,1,.33,1.34v.15a2.62,2.62,0,0,1-.33,1.35,2.27,2.27,0,0,1-.91.88A2.86,2.86,0,0,1,174.51,61.72Zm0-.92a1.47,1.47,0,0,0,1.1-.44,1.66,1.66,0,0,0,.43-1.2v-.09a1.66,1.66,0,0,0-.42-1.21,1.63,1.63,0,0,0-2.21,0,1.66,1.66,0,0,0-.42,1.21v.09a1.66,1.66,0,0,0,.42,1.2A1.47,1.47,0,0,0,174.51,60.8Z"/><path class="cls-1" d="M182.75,61.58a1,1,0,0,1-.72-.27,1,1,0,0,1-.26-.73V57.51h-1.36v-.87h1.36V55h1v1.63h1.47v.87H182.8v2.9c0,.19.09.29.28.29h1v.88Z"/><path class="cls-1" d="M185.48,61.58v-7h1v2.77h.16a1.31,1.31,0,0,1,.77-.67,2.19,2.19,0,0,1,.78-.11,1.92,1.92,0,0,1,1,.25,1.79,1.79,0,0,1,.69.7,2.32,2.32,0,0,1,.25,1.1v3h-1V58.7a1.27,1.27,0,0,0-.32-1,1.25,1.25,0,0,0-.88-.3,1.3,1.3,0,0,0-1,.42,1.69,1.69,0,0,0-.38,1.21v2.5Z"/><path class="cls-1" d="M193.89,61.72a2.62,2.62,0,0,1-1.31-.32,2.22,2.22,0,0,1-.88-.89,2.72,2.72,0,0,1-.31-1.33v-.12a2.75,2.75,0,0,1,.31-1.35,2.17,2.17,0,0,1,.86-.89,2.57,2.57,0,0,1,1.29-.31,2.4,2.4,0,0,1,1.24.31,2.16,2.16,0,0,1,.84.88,2.72,2.72,0,0,1,.3,1.31v.38h-3.79a1.38,1.38,0,0,0,.43,1,1.46,1.46,0,0,0,1,.39,1.29,1.29,0,0,0,.87-.26,1.93,1.93,0,0,0,.46-.61l.85.44a3.21,3.21,0,0,1-.41.6,2.2,2.2,0,0,1-.69.52A2.69,2.69,0,0,1,193.89,61.72Zm-1.44-3.12h2.73a1.23,1.23,0,0,0-.4-.87,1.56,1.56,0,0,0-1.89,0A1.35,1.35,0,0,0,192.45,58.6Z"/><path class="cls-1" d="M200,61.58v-7h1v2.77h.16a1.54,1.54,0,0,1,.28-.38,1.45,1.45,0,0,1,.49-.29,2.15,2.15,0,0,1,.78-.11,1.92,1.92,0,0,1,1,.25,1.79,1.79,0,0,1,.69.7,2.32,2.32,0,0,1,.25,1.1v3h-1V58.7a1.27,1.27,0,0,0-.32-1,1.25,1.25,0,0,0-.88-.3,1.3,1.3,0,0,0-1,.42,1.69,1.69,0,0,0-.38,1.21v2.5Z"/><path class="cls-1" d="M208.48,61.72a2.8,2.8,0,0,1-1.32-.31,2.24,2.24,0,0,1-.9-.88,2.62,2.62,0,0,1-.33-1.35V59a2.61,2.61,0,0,1,.33-1.34,2.22,2.22,0,0,1,.9-.87,2.68,2.68,0,0,1,1.32-.31,2.74,2.74,0,0,1,1.32.31,2.24,2.24,0,0,1,.91.87A2.61,2.61,0,0,1,211,59v.15a2.62,2.62,0,0,1-.33,1.35,2.27,2.27,0,0,1-.91.88A2.86,2.86,0,0,1,208.48,61.72Zm0-.92a1.47,1.47,0,0,0,1.1-.44,1.66,1.66,0,0,0,.43-1.2v-.09a1.66,1.66,0,0,0-.42-1.21,1.63,1.63,0,0,0-2.21,0,1.66,1.66,0,0,0-.42,1.21v.09a1.66,1.66,0,0,0,.42,1.2A1.47,1.47,0,0,0,208.48,60.8Z"/><path class="cls-1" d="M212.32,61.58V56.64h1v.58h.16a.85.85,0,0,1,.38-.45,1.34,1.34,0,0,1,.66-.15h.59v.94h-.63a1.21,1.21,0,0,0-.82.27,1,1,0,0,0-.32.85v2.9Z"/><path class="cls-1" d="M216.71,56a.72.72,0,0,1-.51-.19.65.65,0,0,1-.2-.5.66.66,0,0,1,.2-.51.78.78,0,0,1,1,0,.69.69,0,0,1,.2.51.69.69,0,0,1-.2.5A.72.72,0,0,1,216.71,56Zm-.52,5.61V56.64h1v4.94Z"/><path class="cls-1" d="M218.55,61.58V60.32l2.91-2.66v-.15h-2.81v-.87h3.93v1.27l-2.92,2.67v.12h3v.88Z"/><path class="cls-1" d="M226.11,61.72a2.8,2.8,0,0,1-1.32-.31,2.33,2.33,0,0,1-.91-.88,2.72,2.72,0,0,1-.33-1.35V59a2.71,2.71,0,0,1,.33-1.34,2.3,2.3,0,0,1,.91-.87,2.68,2.68,0,0,1,1.32-.31,2.74,2.74,0,0,1,1.32.31,2.24,2.24,0,0,1,.91.87,2.71,2.71,0,0,1,.33,1.34v.15a2.72,2.72,0,0,1-.33,1.35,2.27,2.27,0,0,1-.91.88A2.86,2.86,0,0,1,226.11,61.72Zm0-.92a1.47,1.47,0,0,0,1.1-.44,1.66,1.66,0,0,0,.42-1.2v-.09a1.66,1.66,0,0,0-.41-1.21,1.63,1.63,0,0,0-2.21,0,1.66,1.66,0,0,0-.42,1.21v.09a1.66,1.66,0,0,0,.42,1.2A1.47,1.47,0,0,0,226.11,60.8Z"/><path class="cls-1" d="M229.94,61.58V56.64h1v.75h.16a1.54,1.54,0,0,1,.5-.56,1.78,1.78,0,0,1,1.07-.26,1.93,1.93,0,0,1,1,.25,1.7,1.7,0,0,1,.68.7,2.21,2.21,0,0,1,.25,1.1v3h-1V58.7a1.1,1.1,0,0,0-1.21-1.25,1.29,1.29,0,0,0-1,.42,1.69,1.69,0,0,0-.39,1.21v2.5Z"/><path class="cls-1" d="M237.81,61.58a1,1,0,0,1-.72-.27,1,1,0,0,1-.26-.73V57.51h-1.36v-.87h1.36V55h1v1.63h1.47v.87h-1.47v2.9c0,.19.09.29.28.29h1v.88Z"/><path class="cls-1" d="M242.06,61.72a2.21,2.21,0,0,1-.95-.19,1.39,1.39,0,0,1-.9-1.37,1.42,1.42,0,0,1,.24-.85,1.49,1.49,0,0,1,.67-.5,2.47,2.47,0,0,1,1-.17h1.5v-.32a1,1,0,0,0-.26-.7,1.11,1.11,0,0,0-.8-.25,1.09,1.09,0,0,0-1.18.89l-1-.31a2.08,2.08,0,0,1,.38-.72,2,2,0,0,1,.71-.53,2.58,2.58,0,0,1,1.06-.19,2.22,2.22,0,0,1,1.51.48,1.8,1.8,0,0,1,.55,1.4v2c0,.21.09.31.28.31h.42v.86h-.77a.85.85,0,0,1-.57-.19.57.57,0,0,1-.22-.48v0h-.15a3.72,3.72,0,0,1-.24.35,1.34,1.34,0,0,1-.47.35A1.91,1.91,0,0,1,242.06,61.72Zm.15-.85a1.41,1.41,0,0,0,1-.36,1.29,1.29,0,0,0,.38-1v-.1h-1.44a1.08,1.08,0,0,0-.66.18.58.58,0,0,0-.25.51.62.62,0,0,0,.26.54A1.09,1.09,0,0,0,242.21,60.87Z"/><path class="cls-1" d="M246.3,61.58v-7h1v7Z"/><path class="cls-1" d="M88.65,73.72a1.94,1.94,0,0,1-1.11-.27,1.74,1.74,0,0,1-.57-.58h-.16v.71h-1v-7h1v2.74H87a1.45,1.45,0,0,1,.32-.39,1.58,1.58,0,0,1,.53-.31,2.69,2.69,0,0,1,.81-.11,2.16,2.16,0,0,1,1.14.3,2.25,2.25,0,0,1,.83.87A2.86,2.86,0,0,1,90.93,71v.15a2.78,2.78,0,0,1-.32,1.37,2.09,2.09,0,0,1-.83.86A2.11,2.11,0,0,1,88.65,73.72Zm-.3-.9a1.53,1.53,0,0,0,1.1-.43,1.67,1.67,0,0,0,.44-1.23v-.09a1.66,1.66,0,0,0-.43-1.22,1.61,1.61,0,0,0-2.21,0,1.62,1.62,0,0,0-.43,1.22v.09a1.66,1.66,0,0,0,.43,1.23A1.53,1.53,0,0,0,88.35,72.82Z"/><path class="cls-1" d="M94.52,73.72a2.83,2.83,0,0,1-1.32-.31,2.24,2.24,0,0,1-.9-.88A2.62,2.62,0,0,1,92,71.18V71a2.61,2.61,0,0,1,.33-1.34,2.22,2.22,0,0,1,.9-.87,2.71,2.71,0,0,1,1.32-.31,2.74,2.74,0,0,1,1.32.31,2.24,2.24,0,0,1,.91.87A2.61,2.61,0,0,1,97.08,71v.15a2.62,2.62,0,0,1-.33,1.35,2.27,2.27,0,0,1-.91.88A2.86,2.86,0,0,1,94.52,73.72Zm0-.92a1.47,1.47,0,0,0,1.1-.44,1.62,1.62,0,0,0,.43-1.2v-.09a1.66,1.66,0,0,0-.42-1.21,1.63,1.63,0,0,0-2.21,0A1.66,1.66,0,0,0,93,71.07v.09a1.66,1.66,0,0,0,.42,1.2A1.48,1.48,0,0,0,94.52,72.8Z"/><path class="cls-1" d="M98.36,73.58V68.64h1v.58h.16a.89.89,0,0,1,.38-.45,1.34,1.34,0,0,1,.66-.15h.59v.94h-.63a1.21,1.21,0,0,0-.82.27,1,1,0,0,0-.32.85v2.9Z"/><path class="cls-1" d="M104.09,73.72a2.27,2.27,0,0,1-2-1.17,2.77,2.77,0,0,1-.31-1.37V71a2.75,2.75,0,0,1,.31-1.35,2.19,2.19,0,0,1,2-1.17,2.57,2.57,0,0,1,.8.11,1.74,1.74,0,0,1,.54.31,1.45,1.45,0,0,1,.32.39h.16V66.58h1v7h-1v-.71h-.16a1.78,1.78,0,0,1-.58.58A1.88,1.88,0,0,1,104.09,73.72Zm.29-.9a1.53,1.53,0,0,0,1.1-.43,1.67,1.67,0,0,0,.44-1.23v-.09a1.66,1.66,0,0,0-.43-1.22,1.61,1.61,0,0,0-2.21,0,1.62,1.62,0,0,0-.43,1.22v.09a1.66,1.66,0,0,0,.43,1.23A1.53,1.53,0,0,0,104.38,72.82Z"/><path class="cls-1" d="M110.72,73.72a2.62,2.62,0,0,1-1.31-.32,2.22,2.22,0,0,1-.88-.89,2.72,2.72,0,0,1-.31-1.33v-.12a2.75,2.75,0,0,1,.31-1.35,2.17,2.17,0,0,1,.86-.89,2.57,2.57,0,0,1,1.29-.31,2.38,2.38,0,0,1,1.24.31,2.16,2.16,0,0,1,.84.88,2.72,2.72,0,0,1,.3,1.31v.38h-3.79a1.42,1.42,0,0,0,.43,1,1.46,1.46,0,0,0,1,.39,1.29,1.29,0,0,0,.87-.26,1.93,1.93,0,0,0,.46-.61l.85.44a3.21,3.21,0,0,1-.41.6,2.2,2.2,0,0,1-.69.52A2.69,2.69,0,0,1,110.72,73.72Zm-1.44-3.12H112a1.23,1.23,0,0,0-.4-.87,1.39,1.39,0,0,0-.94-.32,1.42,1.42,0,0,0-1,.32A1.35,1.35,0,0,0,109.28,70.6Z"/><path class="cls-1" d="M114.3,73.58V68.64h1v.58h.16a.89.89,0,0,1,.38-.45,1.34,1.34,0,0,1,.66-.15h.59v.94h-.63a1.21,1.21,0,0,0-.82.27,1,1,0,0,0-.32.85v2.9Z"/><path class="cls-1" d="M120.08,73.72a2.71,2.71,0,0,1-1.56-.42,1.81,1.81,0,0,1-.76-1.27l1-.23a1.49,1.49,0,0,0,.27.65,1,1,0,0,0,.47.33,1.8,1.8,0,0,0,.62.11,1.32,1.32,0,0,0,.75-.19.58.58,0,0,0,.27-.5.5.5,0,0,0-.25-.44,3.1,3.1,0,0,0-.74-.23l-.34-.06a4.45,4.45,0,0,1-.91-.25,1.54,1.54,0,0,1-.65-.48A1.16,1.16,0,0,1,118,70a1.27,1.27,0,0,1,.52-1.08,2.22,2.22,0,0,1,1.38-.38,2.3,2.3,0,0,1,1.36.37,1.72,1.72,0,0,1,.7,1l-1,.27a.94.94,0,0,0-.38-.63,1.37,1.37,0,0,0-.72-.18,1.24,1.24,0,0,0-.66.15.49.49,0,0,0-.24.43.47.47,0,0,0,.23.44,1.66,1.66,0,0,0,.64.21l.35.06a6.54,6.54,0,0,1,1,.25,1.74,1.74,0,0,1,.69.46,1.23,1.23,0,0,1,.26.81,1.38,1.38,0,0,1-.55,1.15A2.45,2.45,0,0,1,120.08,73.72Z"/><path class="cls-1" d="M127.71,73.58a1,1,0,0,1-.72-.27,1,1,0,0,1-.26-.73V69.51h-1.36v-.87h1.36V67h1v1.63h1.47v.87h-1.47v2.9c0,.19.09.29.28.29h1v.88Z"/><path class="cls-1" d="M132.57,73.72a2.8,2.8,0,0,1-1.32-.31,2.24,2.24,0,0,1-.9-.88,2.62,2.62,0,0,1-.33-1.35V71a2.61,2.61,0,0,1,.33-1.34,2.22,2.22,0,0,1,.9-.87,2.68,2.68,0,0,1,1.32-.31,2.74,2.74,0,0,1,1.32.31,2.24,2.24,0,0,1,.91.87,2.61,2.61,0,0,1,.33,1.34v.15a2.62,2.62,0,0,1-.33,1.35,2.27,2.27,0,0,1-.91.88A2.86,2.86,0,0,1,132.57,73.72Zm0-.92a1.47,1.47,0,0,0,1.1-.44,1.62,1.62,0,0,0,.43-1.2v-.09a1.66,1.66,0,0,0-.42-1.21,1.63,1.63,0,0,0-2.21,0,1.66,1.66,0,0,0-.42,1.21v.09a1.66,1.66,0,0,0,.42,1.2A1.48,1.48,0,0,0,132.57,72.8Z"/><path class="cls-1" d="M140.81,73.58a1,1,0,0,1-.72-.27,1,1,0,0,1-.26-.73V69.51h-1.36v-.87h1.36V67h1v1.63h1.47v.87h-1.47v2.9c0,.19.09.29.28.29h1v.88Z"/><path class="cls-1" d="M145.43,73.66a1.93,1.93,0,0,1-1-.25,1.63,1.63,0,0,1-.69-.71,2.21,2.21,0,0,1-.25-1.1v-3h1v2.89a1.23,1.23,0,0,0,.32,1,1.24,1.24,0,0,0,.89.3,1.31,1.31,0,0,0,1-.42,1.74,1.74,0,0,0,.39-1.22v-2.5h1v4.94h-1v-.75H147a1.63,1.63,0,0,1-.5.57A1.77,1.77,0,0,1,145.43,73.66Z"/><path class="cls-1" d="M149.68,73.58V68.64h1v.58h.16a.85.85,0,0,1,.38-.45,1.34,1.34,0,0,1,.66-.15h.59v.94h-.63a1.21,1.21,0,0,0-.82.27,1,1,0,0,0-.32.85v2.9Z"/><path class="cls-1" d="M153.55,73.58V68.64h1v.75h.16a1.38,1.38,0,0,1,.5-.56,1.76,1.76,0,0,1,1.07-.26,1.92,1.92,0,0,1,1,.25,1.79,1.79,0,0,1,.69.7,2.32,2.32,0,0,1,.25,1.1v3h-1V70.7a1.27,1.27,0,0,0-.32-1,1.25,1.25,0,0,0-.88-.3,1.3,1.3,0,0,0-1,.42,1.69,1.69,0,0,0-.38,1.21v2.5Z"/><path class="cls-1" d="M85.77,133.81v-7h2l1.53,6.28h.16L91,126.81h2v7H92v-6.24h-.16l-1.52,6.24H88.5L87,127.57h-.16v6.24Z"/><path class="cls-1" d="M96.85,134a2.83,2.83,0,0,1-1.32-.31,2.22,2.22,0,0,1-.9-.87,2.65,2.65,0,0,1-.33-1.35v-.15a2.65,2.65,0,0,1,.33-1.35,2.22,2.22,0,0,1,.9-.87,2.71,2.71,0,0,1,1.32-.31,2.74,2.74,0,0,1,1.32.31,2.24,2.24,0,0,1,.91.87,2.65,2.65,0,0,1,.33,1.35v.15a2.65,2.65,0,0,1-.33,1.35,2.24,2.24,0,0,1-.91.87A2.86,2.86,0,0,1,96.85,134Zm0-.92a1.47,1.47,0,0,0,1.1-.44,1.62,1.62,0,0,0,.43-1.2v-.09a1.66,1.66,0,0,0-.42-1.21,1.63,1.63,0,0,0-2.21,0,1.66,1.66,0,0,0-.42,1.21v.09a1.66,1.66,0,0,0,.42,1.2A1.48,1.48,0,0,0,96.85,133Z"/><path class="cls-1" d="M101.66,133.81,100,128.88h1.09l1.31,4.17h.16l1.31-4.17H105l-1.66,4.93Z"/><path class="cls-1" d="M108.05,134a2.62,2.62,0,0,1-1.31-.32,2.22,2.22,0,0,1-.88-.89,2.72,2.72,0,0,1-.31-1.33v-.12a2.75,2.75,0,0,1,.31-1.35,2.17,2.17,0,0,1,.86-.89,2.57,2.57,0,0,1,1.29-.31,2.38,2.38,0,0,1,1.24.31,2.16,2.16,0,0,1,.84.88,2.72,2.72,0,0,1,.3,1.31v.39H106.6a1.42,1.42,0,0,0,.43,1,1.46,1.46,0,0,0,1,.39,1.29,1.29,0,0,0,.87-.26,2,2,0,0,0,.46-.6l.85.44a3.53,3.53,0,0,1-.41.59,2.2,2.2,0,0,1-.69.52A2.54,2.54,0,0,1,108.05,134Zm-1.44-3.11h2.73a1.24,1.24,0,0,0-.4-.88,1.38,1.38,0,0,0-.94-.31,1.41,1.41,0,0,0-1,.31A1.35,1.35,0,0,0,106.61,130.84Z"/><path class="cls-1" d="M115.48,133.81a1,1,0,0,1-.72-.27,1,1,0,0,1-.26-.72v-3.07h-1.36v-.87h1.36v-1.63h1v1.63H117v.87h-1.47v2.89c0,.2.09.3.28.3h1v.87Z"/><path class="cls-1" d="M118.21,133.81v-7h1v2.77h.16a1.34,1.34,0,0,1,.28-.37,1.57,1.57,0,0,1,.49-.3,2.19,2.19,0,0,1,.78-.11,1.92,1.92,0,0,1,1,.25,1.79,1.79,0,0,1,.69.7,2.32,2.32,0,0,1,.25,1.1v3h-1v-2.88a1.27,1.27,0,0,0-.32-1,1.25,1.25,0,0,0-.88-.3,1.33,1.33,0,0,0-1,.42,1.76,1.76,0,0,0-.38,1.22v2.49Z"/><path class="cls-1" d="M126.62,134a2.62,2.62,0,0,1-1.31-.32,2.22,2.22,0,0,1-.88-.89,2.72,2.72,0,0,1-.31-1.33v-.12a2.75,2.75,0,0,1,.31-1.35,2.17,2.17,0,0,1,.86-.89,2.57,2.57,0,0,1,1.29-.31,2.38,2.38,0,0,1,1.24.31,2.16,2.16,0,0,1,.84.88,2.72,2.72,0,0,1,.3,1.31v.39h-3.79a1.42,1.42,0,0,0,.43,1,1.46,1.46,0,0,0,1,.39,1.29,1.29,0,0,0,.87-.26,2,2,0,0,0,.46-.6l.85.44a3.53,3.53,0,0,1-.41.59,2.2,2.2,0,0,1-.69.52A2.54,2.54,0,0,1,126.62,134Zm-1.44-3.11h2.73a1.24,1.24,0,0,0-.4-.88,1.6,1.6,0,0,0-1.89,0A1.35,1.35,0,0,0,125.18,130.84Z"/><path class="cls-1" d="M132.2,133.81v-4.93h1v.58h.16a1.16,1.16,0,0,1,.45-.46,1.45,1.45,0,0,1,.84-.2,1.55,1.55,0,0,1,.88.22,1.5,1.5,0,0,1,.51.58h.16a1.41,1.41,0,0,1,.49-.57,1.56,1.56,0,0,1,.93-.23,1.8,1.8,0,0,1,.85.19,1.49,1.49,0,0,1,.59.58,2,2,0,0,1,.22,1v3.28h-1v-3.2a.92.92,0,0,0-.25-.7.93.93,0,0,0-.69-.24,1,1,0,0,0-.77.31,1.21,1.21,0,0,0-.29.89v2.94h-1v-3.2a1,1,0,0,0-.25-.7.93.93,0,0,0-.69-.24,1,1,0,0,0-.77.31,1.21,1.21,0,0,0-.29.89v2.94Z"/><path class="cls-1" d="M143.08,134a2.83,2.83,0,0,1-1.32-.31,2.22,2.22,0,0,1-.9-.87,2.65,2.65,0,0,1-.33-1.35v-.15a2.65,2.65,0,0,1,.33-1.35,2.22,2.22,0,0,1,.9-.87,2.71,2.71,0,0,1,1.32-.31,2.74,2.74,0,0,1,1.32.31,2.24,2.24,0,0,1,.91.87,2.65,2.65,0,0,1,.33,1.35v.15a2.65,2.65,0,0,1-.33,1.35,2.24,2.24,0,0,1-.91.87A2.86,2.86,0,0,1,143.08,134Zm0-.92a1.47,1.47,0,0,0,1.1-.44,1.62,1.62,0,0,0,.43-1.2v-.09a1.66,1.66,0,0,0-.42-1.21,1.63,1.63,0,0,0-2.21,0,1.66,1.66,0,0,0-.42,1.21v.09a1.66,1.66,0,0,0,.42,1.2A1.47,1.47,0,0,0,143.08,133Z"/><path class="cls-1" d="M148.81,133.9a2,2,0,0,1-1-.25,1.75,1.75,0,0,1-.69-.71,2.26,2.26,0,0,1-.25-1.1v-3h1v2.89a1.22,1.22,0,0,0,.32.94,1.25,1.25,0,0,0,.89.31,1.3,1.3,0,0,0,1-.43,1.74,1.74,0,0,0,.39-1.22v-2.49h1v4.93h-1v-.74h-.16a1.61,1.61,0,0,1-.5.56A1.76,1.76,0,0,1,148.81,133.9Z"/><path class="cls-1" d="M155.08,134a2.71,2.71,0,0,1-1.56-.42,1.79,1.79,0,0,1-.76-1.27l1-.23a1.44,1.44,0,0,0,.27.65,1,1,0,0,0,.47.34,2.06,2.06,0,0,0,.62.1,1.32,1.32,0,0,0,.75-.19.58.58,0,0,0,.27-.49.48.48,0,0,0-.25-.44,2.4,2.4,0,0,0-.74-.23l-.34-.06a4.44,4.44,0,0,1-.91-.26,1.61,1.61,0,0,1-.65-.47,1.2,1.2,0,0,1-.24-.77,1.27,1.27,0,0,1,.52-1.09,2.22,2.22,0,0,1,1.38-.38,2.3,2.3,0,0,1,1.36.37,1.71,1.71,0,0,1,.7,1l-1,.27a.94.94,0,0,0-.38-.64,1.37,1.37,0,0,0-.72-.18,1.24,1.24,0,0,0-.66.15.53.53,0,0,0,0,.88,2.08,2.08,0,0,0,.64.21l.35.06a5.5,5.5,0,0,1,1,.25,1.56,1.56,0,0,1,.69.46,1.18,1.18,0,0,1,.26.8,1.38,1.38,0,0,1-.55,1.15A2.45,2.45,0,0,1,155.08,134Z"/><path class="cls-1" d="M160.57,134a2.62,2.62,0,0,1-1.31-.32,2.22,2.22,0,0,1-.88-.89,2.72,2.72,0,0,1-.31-1.33v-.12a2.75,2.75,0,0,1,.31-1.35,2.17,2.17,0,0,1,.86-.89,2.57,2.57,0,0,1,1.29-.31,2.38,2.38,0,0,1,1.24.31,2.16,2.16,0,0,1,.84.88,2.72,2.72,0,0,1,.3,1.31v.39h-3.79a1.42,1.42,0,0,0,.43,1,1.46,1.46,0,0,0,1,.39,1.29,1.29,0,0,0,.87-.26,2,2,0,0,0,.46-.6l.85.44a3.53,3.53,0,0,1-.41.59,2.2,2.2,0,0,1-.69.52A2.54,2.54,0,0,1,160.57,134Zm-1.44-3.11h2.73a1.24,1.24,0,0,0-.4-.88,1.38,1.38,0,0,0-.94-.31,1.41,1.41,0,0,0-1,.31A1.35,1.35,0,0,0,159.13,130.84Z"/><path class="cls-1" d="M168,133.81a1,1,0,0,1-.72-.27,1,1,0,0,1-.26-.72v-3.07h-1.36v-.87H167v-1.63h1v1.63h1.47v.87h-1.47v2.89c0,.2.09.3.28.3h1v.87Z"/><path class="cls-1" d="M172.86,134a2.83,2.83,0,0,1-1.32-.31,2.22,2.22,0,0,1-.9-.87,2.65,2.65,0,0,1-.33-1.35v-.15a2.65,2.65,0,0,1,.33-1.35,2.22,2.22,0,0,1,.9-.87,2.71,2.71,0,0,1,1.32-.31,2.74,2.74,0,0,1,1.32.31,2.24,2.24,0,0,1,.91.87,2.65,2.65,0,0,1,.33,1.35v.15a2.65,2.65,0,0,1-.33,1.35,2.24,2.24,0,0,1-.91.87A2.86,2.86,0,0,1,172.86,134Zm0-.92a1.47,1.47,0,0,0,1.1-.44,1.62,1.62,0,0,0,.43-1.2v-.09a1.66,1.66,0,0,0-.42-1.21,1.63,1.63,0,0,0-2.21,0,1.66,1.66,0,0,0-.42,1.21v.09a1.66,1.66,0,0,0,.42,1.2A1.48,1.48,0,0,0,172.86,133Z"/><path class="cls-1" d="M180.55,133.81a1,1,0,0,1-.72-.27,1,1,0,0,1-.26-.72v-3.07h-1.36v-.87h1.36v-1.63h1v1.63h1.47v.87H180.6v2.89c0,.2.09.3.28.3h1v.87Z"/><path class="cls-1" d="M183.28,133.81v-7h1v2.77h.16a1.34,1.34,0,0,1,.28-.37,1.57,1.57,0,0,1,.49-.3,2.19,2.19,0,0,1,.78-.11,1.92,1.92,0,0,1,1,.25,1.79,1.79,0,0,1,.69.7,2.32,2.32,0,0,1,.25,1.1v3h-1v-2.88a1.27,1.27,0,0,0-.32-1,1.25,1.25,0,0,0-.88-.3,1.33,1.33,0,0,0-1,.42,1.72,1.72,0,0,0-.38,1.22v2.49Z"/><path class="cls-1" d="M191.69,134a2.62,2.62,0,0,1-1.31-.32,2.22,2.22,0,0,1-.88-.89,2.72,2.72,0,0,1-.31-1.33v-.12a2.75,2.75,0,0,1,.31-1.35,2.17,2.17,0,0,1,.86-.89,2.57,2.57,0,0,1,1.29-.31,2.38,2.38,0,0,1,1.24.31,2.16,2.16,0,0,1,.84.88,2.72,2.72,0,0,1,.3,1.31v.39h-3.79a1.42,1.42,0,0,0,.43,1,1.46,1.46,0,0,0,1,.39,1.29,1.29,0,0,0,.87-.26,2,2,0,0,0,.46-.6l.85.44a3.53,3.53,0,0,1-.41.59,2.2,2.2,0,0,1-.69.52A2.54,2.54,0,0,1,191.69,134Zm-1.44-3.11H193a1.24,1.24,0,0,0-.4-.88,1.38,1.38,0,0,0-.94-.31,1.41,1.41,0,0,0-.95.31A1.35,1.35,0,0,0,190.25,130.84Z"/><path class="cls-1" d="M198.41,133.81l-1.66-4.93h1.09l1.31,4.17h.16l1.31-4.17h1.09l-1.66,4.93Z"/><path class="cls-1" d="M204.8,134a2.62,2.62,0,0,1-1.31-.32,2.22,2.22,0,0,1-.88-.89,2.72,2.72,0,0,1-.31-1.33v-.12a2.75,2.75,0,0,1,.31-1.35,2.17,2.17,0,0,1,.86-.89,2.57,2.57,0,0,1,1.29-.31,2.4,2.4,0,0,1,1.24.31,2.16,2.16,0,0,1,.84.88,2.72,2.72,0,0,1,.3,1.31v.39h-3.79a1.42,1.42,0,0,0,.43,1,1.46,1.46,0,0,0,1,.39,1.29,1.29,0,0,0,.87-.26,2,2,0,0,0,.46-.6l.85.44a3.53,3.53,0,0,1-.41.59,2.2,2.2,0,0,1-.69.52A2.54,2.54,0,0,1,204.8,134Zm-1.44-3.11h2.73a1.24,1.24,0,0,0-.4-.88,1.38,1.38,0,0,0-.94-.31,1.41,1.41,0,0,0-.95.31A1.35,1.35,0,0,0,203.36,130.84Z"/><path class="cls-1" d="M208.38,133.81v-4.93h1v.58h.16a.88.88,0,0,1,.38-.46,1.34,1.34,0,0,1,.66-.14h.59v.93h-.63a1.21,1.21,0,0,0-.82.27,1,1,0,0,0-.32.85v2.9Z"/><path class="cls-1" d="M214.1,133.81a1,1,0,0,1-.72-.27,1,1,0,0,1-.26-.72v-3.07h-1.36v-.87h1.36v-1.63h1v1.63h1.47v.87h-1.47v2.89c0,.2.09.3.28.3h1v.87Z"/><path class="cls-1" d="M217.35,128.21a.73.73,0,0,1-.51-.2.69.69,0,0,1-.2-.5.69.69,0,0,1,.2-.51.78.78,0,0,1,1,0,.69.69,0,0,1,.2.51.69.69,0,0,1-.2.5A.73.73,0,0,1,217.35,128.21Zm-.52,5.6v-4.93h1v4.93Z"/><path class="cls-1" d="M221.68,134a2.73,2.73,0,0,1-1.29-.3,2.24,2.24,0,0,1-.91-.87,2.7,2.7,0,0,1-.33-1.37v-.13a2.67,2.67,0,0,1,.33-1.37,2.24,2.24,0,0,1,.91-.87,2.73,2.73,0,0,1,1.29-.3,2.54,2.54,0,0,1,1.21.26,2.15,2.15,0,0,1,.8.69,2.3,2.3,0,0,1,.4.95l-1,.21a1.94,1.94,0,0,0-.21-.6,1.16,1.16,0,0,0-.45-.43,1.49,1.49,0,0,0-.73-.16,1.55,1.55,0,0,0-.78.19,1.39,1.39,0,0,0-.54.56,1.75,1.75,0,0,0-.2.89v.09a1.8,1.8,0,0,0,.2.89,1.39,1.39,0,0,0,.54.56,1.67,1.67,0,0,0,.78.19,1.38,1.38,0,0,0,1-.34,1.57,1.57,0,0,0,.43-.85l1,.23a2.77,2.77,0,0,1-.43.94,2.22,2.22,0,0,1-.8.68A2.67,2.67,0,0,1,221.68,134Z"/><path class="cls-1" d="M226.84,134a2.37,2.37,0,0,1-1-.18,1.51,1.51,0,0,1-.66-.53,1.49,1.49,0,0,1-.24-.85,1.42,1.42,0,0,1,.24-.85,1.49,1.49,0,0,1,.67-.5,2.47,2.47,0,0,1,1-.17h1.5v-.32a.94.94,0,0,0-.26-.69,1.07,1.07,0,0,0-.8-.26,1.08,1.08,0,0,0-1.18.9l-1-.31a2,2,0,0,1,.38-.73,1.82,1.82,0,0,1,.71-.52,2.42,2.42,0,0,1,1.06-.2,2.18,2.18,0,0,1,1.51.49,1.78,1.78,0,0,1,.55,1.39v2c0,.2.09.3.28.3h.42v.86h-.77a.85.85,0,0,1-.57-.18.6.6,0,0,1-.22-.49v0h-.15c-.06.1-.14.21-.24.35a1.46,1.46,0,0,1-.47.34A1.91,1.91,0,0,1,226.84,134Zm.15-.85a1.41,1.41,0,0,0,1-.36,1.28,1.28,0,0,0,.38-1v-.1h-1.44a1.08,1.08,0,0,0-.66.17.59.59,0,0,0-.25.52.65.65,0,0,0,.26.54A1.15,1.15,0,0,0,227,133.1Z"/><path class="cls-1" d="M231.08,133.81v-7h1v7Z"/><path class="cls-1" d="M88.65,146a2,2,0,0,1-1.11-.26,2,2,0,0,1-.57-.58h-.16v.7h-1v-7h1v2.74H87a1.45,1.45,0,0,1,.32-.39,1.57,1.57,0,0,1,.53-.3,2.39,2.39,0,0,1,.81-.12,2.19,2.19,0,0,1,2,1.17,2.87,2.87,0,0,1,.31,1.36v.15a2.76,2.76,0,0,1-.32,1.36,2.19,2.19,0,0,1-2,1.17Zm-.3-.9a1.53,1.53,0,0,0,1.1-.43,1.67,1.67,0,0,0,.44-1.23v-.09a1.66,1.66,0,0,0-.43-1.22,1.63,1.63,0,0,0-2.21,0,1.62,1.62,0,0,0-.43,1.22v.09a1.66,1.66,0,0,0,.43,1.23A1.53,1.53,0,0,0,88.35,145.05Z"/><path class="cls-1" d="M94.52,146a2.83,2.83,0,0,1-1.32-.31,2.22,2.22,0,0,1-.9-.87,2.65,2.65,0,0,1-.33-1.35v-.15a2.65,2.65,0,0,1,.33-1.35,2.22,2.22,0,0,1,.9-.87,2.71,2.71,0,0,1,1.32-.31,2.74,2.74,0,0,1,1.32.31,2.24,2.24,0,0,1,.91.87,2.65,2.65,0,0,1,.33,1.35v.15a2.65,2.65,0,0,1-.33,1.35,2.24,2.24,0,0,1-.91.87A2.86,2.86,0,0,1,94.52,146Zm0-.92a1.47,1.47,0,0,0,1.1-.44,1.62,1.62,0,0,0,.43-1.2v-.09a1.66,1.66,0,0,0-.42-1.21,1.63,1.63,0,0,0-2.21,0A1.66,1.66,0,0,0,93,143.3v.09a1.66,1.66,0,0,0,.42,1.2A1.48,1.48,0,0,0,94.52,145Z"/><path class="cls-1" d="M98.36,145.81v-4.93h1v.58h.16a.88.88,0,0,1,.38-.46,1.34,1.34,0,0,1,.66-.14h.59v.93h-.63a1.21,1.21,0,0,0-.82.27,1,1,0,0,0-.32.85v2.9Z"/><path class="cls-1" d="M104.09,146a2.22,2.22,0,0,1-2-1.17,2.76,2.76,0,0,1-.31-1.36v-.15a2.76,2.76,0,0,1,.31-1.36A2.11,2.11,0,0,1,103,141a2.21,2.21,0,0,1,1.14-.3,2.29,2.29,0,0,1,.8.12,1.73,1.73,0,0,1,.54.3,1.45,1.45,0,0,1,.32.39h.16v-2.74h1v7h-1v-.7h-.16a2,2,0,0,1-.58.58A2,2,0,0,1,104.09,146Zm.29-.9a1.53,1.53,0,0,0,1.1-.43,1.67,1.67,0,0,0,.44-1.23v-.09a1.66,1.66,0,0,0-.43-1.22,1.63,1.63,0,0,0-2.21,0,1.62,1.62,0,0,0-.43,1.22v.09a1.66,1.66,0,0,0,.43,1.23A1.53,1.53,0,0,0,104.38,145.05Z"/><path class="cls-1" d="M110.72,146a2.62,2.62,0,0,1-1.31-.32,2.22,2.22,0,0,1-.88-.89,2.72,2.72,0,0,1-.31-1.33v-.12a2.75,2.75,0,0,1,.31-1.35,2.17,2.17,0,0,1,.86-.89,2.57,2.57,0,0,1,1.29-.31,2.38,2.38,0,0,1,1.24.31,2.16,2.16,0,0,1,.84.88,2.72,2.72,0,0,1,.3,1.31v.39h-3.79a1.42,1.42,0,0,0,.43,1,1.46,1.46,0,0,0,1,.39,1.29,1.29,0,0,0,.87-.26,2,2,0,0,0,.46-.6l.85.44a3.53,3.53,0,0,1-.41.59,2.2,2.2,0,0,1-.69.52A2.54,2.54,0,0,1,110.72,146Zm-1.44-3.11H112a1.24,1.24,0,0,0-.4-.88,1.38,1.38,0,0,0-.94-.31,1.41,1.41,0,0,0-1,.31A1.35,1.35,0,0,0,109.28,142.84Z"/><path class="cls-1" d="M114.3,145.81v-4.93h1v.58h.16a.88.88,0,0,1,.38-.46,1.34,1.34,0,0,1,.66-.14h.59v.93h-.63a1.21,1.21,0,0,0-.82.27,1,1,0,0,0-.32.85v2.9Z"/><path class="cls-1" d="M120.08,146a2.71,2.71,0,0,1-1.56-.42,1.79,1.79,0,0,1-.76-1.27l1-.23a1.44,1.44,0,0,0,.27.65,1,1,0,0,0,.47.34,2.06,2.06,0,0,0,.62.1,1.32,1.32,0,0,0,.75-.19.58.58,0,0,0,.27-.49.48.48,0,0,0-.25-.44,2.4,2.4,0,0,0-.74-.23l-.34-.06a4.44,4.44,0,0,1-.91-.26,1.61,1.61,0,0,1-.65-.47,1.2,1.2,0,0,1-.24-.77,1.27,1.27,0,0,1,.52-1.09,2.22,2.22,0,0,1,1.38-.38,2.3,2.3,0,0,1,1.36.37,1.71,1.71,0,0,1,.7,1l-1,.27a.94.94,0,0,0-.38-.64,1.37,1.37,0,0,0-.72-.18,1.24,1.24,0,0,0-.66.15.53.53,0,0,0,0,.88,2.08,2.08,0,0,0,.64.21l.35.06a5.5,5.5,0,0,1,1,.25,1.56,1.56,0,0,1,.69.46,1.18,1.18,0,0,1,.26.8,1.38,1.38,0,0,1-.55,1.15A2.45,2.45,0,0,1,120.08,146Z"/><path class="cls-1" d="M127.16,145.81a1,1,0,0,1-.72-.27,1,1,0,0,1-.26-.72v-3.07h-1.36v-.87h1.36v-1.63h1v1.63h1.47v.87h-1.47v2.89c0,.2.09.3.28.3h1v.87Z"/><path class="cls-1" d="M132,146a2.83,2.83,0,0,1-1.32-.31,2.22,2.22,0,0,1-.9-.87,2.65,2.65,0,0,1-.33-1.35v-.15a2.65,2.65,0,0,1,.33-1.35,2.22,2.22,0,0,1,.9-.87,2.71,2.71,0,0,1,1.32-.31,2.74,2.74,0,0,1,1.32.31,2.24,2.24,0,0,1,.91.87,2.65,2.65,0,0,1,.33,1.35v.15a2.65,2.65,0,0,1-.33,1.35,2.24,2.24,0,0,1-.91.87A2.86,2.86,0,0,1,132,146Zm0-.92a1.47,1.47,0,0,0,1.1-.44,1.62,1.62,0,0,0,.43-1.2v-.09a1.66,1.66,0,0,0-.42-1.21,1.63,1.63,0,0,0-2.21,0,1.66,1.66,0,0,0-.42,1.21v.09a1.66,1.66,0,0,0,.42,1.2A1.48,1.48,0,0,0,132,145Z"/><path class="cls-1" d="M137.62,143.37v-.15a2.62,2.62,0,0,1,.31-1.33,2.25,2.25,0,0,1,2-1.15,1.88,1.88,0,0,1,1.1.27,1.84,1.84,0,0,1,.57.58h.16v-.71h1v5.94a1,1,0,0,1-.27.72,1,1,0,0,1-.72.27h-3.32v-.9h3a.26.26,0,0,0,.29-.3V145h-.16a2.43,2.43,0,0,1-.31.37,1.69,1.69,0,0,1-.53.31,2.35,2.35,0,0,1-.81.12,2.27,2.27,0,0,1-1.15-.3,2.12,2.12,0,0,1-.83-.85A2.63,2.63,0,0,1,137.62,143.37Zm2.57,1.57a1.53,1.53,0,0,0,1.1-.43,1.55,1.55,0,0,0,.44-1.17v-.09a1.6,1.6,0,0,0-.43-1.19,1.69,1.69,0,0,0-2.21,0,1.56,1.56,0,0,0-.43,1.19v.09a1.48,1.48,0,0,0,1.53,1.6Z"/><path class="cls-1" d="M146.57,146a2.83,2.83,0,0,1-1.32-.31,2.22,2.22,0,0,1-.9-.87,2.65,2.65,0,0,1-.33-1.35v-.15a2.65,2.65,0,0,1,.33-1.35,2.22,2.22,0,0,1,.9-.87,2.71,2.71,0,0,1,1.32-.31,2.74,2.74,0,0,1,1.32.31,2.24,2.24,0,0,1,.91.87,2.65,2.65,0,0,1,.33,1.35v.15a2.65,2.65,0,0,1-.33,1.35,2.24,2.24,0,0,1-.91.87A2.86,2.86,0,0,1,146.57,146Zm0-.92a1.47,1.47,0,0,0,1.1-.44,1.62,1.62,0,0,0,.43-1.2v-.09a1.66,1.66,0,0,0-.42-1.21,1.63,1.63,0,0,0-2.21,0,1.66,1.66,0,0,0-.42,1.21v.09a1.66,1.66,0,0,0,.42,1.2A1.48,1.48,0,0,0,146.57,145Z"/><path class="cls-1" d="M153.3,145.81v-4.06h-1.38v-.87h1.38V139.8a.93.93,0,0,1,1-1h1.27v.87h-.94c-.2,0-.29.1-.29.3v.9h1.42v.87h-1.42v4.06Z"/><path class="cls-1" d="M158.91,146a2.83,2.83,0,0,1-1.32-.31,2.22,2.22,0,0,1-.9-.87,2.65,2.65,0,0,1-.33-1.35v-.15a2.65,2.65,0,0,1,.33-1.35,2.22,2.22,0,0,1,.9-.87,2.71,2.71,0,0,1,1.32-.31,2.74,2.74,0,0,1,1.32.31,2.24,2.24,0,0,1,.91.87,2.65,2.65,0,0,1,.33,1.35v.15a2.65,2.65,0,0,1-.33,1.35,2.24,2.24,0,0,1-.91.87A2.86,2.86,0,0,1,158.91,146Zm0-.92a1.47,1.47,0,0,0,1.1-.44,1.62,1.62,0,0,0,.43-1.2v-.09a1.66,1.66,0,0,0-.42-1.21,1.63,1.63,0,0,0-2.21,0,1.66,1.66,0,0,0-.42,1.21v.09a1.66,1.66,0,0,0,.42,1.2A1.47,1.47,0,0,0,158.91,145Z"/><path class="cls-1" d="M162.75,145.81v-4.93h1v.58h.16a.88.88,0,0,1,.38-.46,1.34,1.34,0,0,1,.66-.14h.59v.93h-.63a1.21,1.21,0,0,0-.82.27,1,1,0,0,0-.32.85v2.9Z"/><path class="cls-1" d="M167.16,145.81l-.84-4.93h1l.62,4.24h.16l.86-4.24h1.67l.85,4.24h.16l.62-4.24h1l-.84,4.93h-1.73l-.85-4.23h-.16l-.85,4.23Z"/><path class="cls-1" d="M176,146a2.37,2.37,0,0,1-.95-.18,1.57,1.57,0,0,1-.66-.53,1.49,1.49,0,0,1-.24-.85,1.42,1.42,0,0,1,.24-.85,1.54,1.54,0,0,1,.67-.5,2.5,2.5,0,0,1,1-.17h1.5v-.32a.94.94,0,0,0-.26-.69,1.07,1.07,0,0,0-.8-.26,1.08,1.08,0,0,0-1.18.9l-1-.31a2,2,0,0,1,.38-.73,1.82,1.82,0,0,1,.71-.52,2.42,2.42,0,0,1,1.06-.2,2.18,2.18,0,0,1,1.51.49,1.78,1.78,0,0,1,.55,1.39v2c0,.2.09.3.28.3h.42v.86h-.77a.85.85,0,0,1-.57-.18.6.6,0,0,1-.22-.49v0h-.15c-.06.1-.14.21-.24.35a1.46,1.46,0,0,1-.47.34A1.91,1.91,0,0,1,176,146Zm.15-.85a1.41,1.41,0,0,0,1-.36,1.28,1.28,0,0,0,.38-1v-.1h-1.44a1.08,1.08,0,0,0-.66.17.59.59,0,0,0-.25.52.65.65,0,0,0,.26.54A1.15,1.15,0,0,0,176.18,145.1Z"/><path class="cls-1" d="M180.27,145.81v-4.93h1v.58h.16a.83.83,0,0,1,.38-.46,1.34,1.34,0,0,1,.66-.14h.59v.93h-.63a1.21,1.21,0,0,0-.82.27,1,1,0,0,0-.32.85v2.9Z"/><path class="cls-1" d="M186,146a2.22,2.22,0,0,1-2-1.17,2.76,2.76,0,0,1-.31-1.36v-.15a2.76,2.76,0,0,1,.31-1.36,2.11,2.11,0,0,1,.83-.87,2.21,2.21,0,0,1,1.14-.3,2.29,2.29,0,0,1,.8.12,1.73,1.73,0,0,1,.54.3,1.45,1.45,0,0,1,.32.39h.16v-2.74h1v7h-1v-.7h-.16A1.79,1.79,0,0,1,186,146Zm.29-.9a1.53,1.53,0,0,0,1.1-.43,1.67,1.67,0,0,0,.44-1.23v-.09a1.66,1.66,0,0,0-.43-1.22,1.63,1.63,0,0,0-2.21,0,1.62,1.62,0,0,0-.43,1.22v.09a1.66,1.66,0,0,0,.43,1.23A1.53,1.53,0,0,0,186.29,145.05Z"/><path class="cls-1" d="M192.39,146a2.71,2.71,0,0,1-1.56-.42,1.79,1.79,0,0,1-.76-1.27l1-.23a1.44,1.44,0,0,0,.27.65,1,1,0,0,0,.47.34,2.06,2.06,0,0,0,.62.1,1.32,1.32,0,0,0,.75-.19.58.58,0,0,0,.27-.49.48.48,0,0,0-.25-.44,2.4,2.4,0,0,0-.74-.23l-.34-.06a4.44,4.44,0,0,1-.91-.26,1.61,1.61,0,0,1-.65-.47,1.2,1.2,0,0,1-.24-.77,1.27,1.27,0,0,1,.52-1.09,2.22,2.22,0,0,1,1.38-.38,2.32,2.32,0,0,1,1.36.37,1.71,1.71,0,0,1,.7,1l-1,.27a.94.94,0,0,0-.38-.64,1.37,1.37,0,0,0-.72-.18,1.24,1.24,0,0,0-.66.15.49.49,0,0,0-.24.44.47.47,0,0,0,.23.44,2.08,2.08,0,0,0,.64.21l.35.06a5.5,5.5,0,0,1,1,.25,1.56,1.56,0,0,1,.69.46,1.18,1.18,0,0,1,.26.8,1.38,1.38,0,0,1-.55,1.15A2.45,2.45,0,0,1,192.39,146Z"/><path class="cls-1" d="M199.15,146a2.37,2.37,0,0,1-1-.18,1.64,1.64,0,0,1-.66-.53,1.49,1.49,0,0,1-.24-.85,1.42,1.42,0,0,1,.24-.85,1.54,1.54,0,0,1,.67-.5,2.5,2.5,0,0,1,1-.17h1.5v-.32a.94.94,0,0,0-.26-.69,1.07,1.07,0,0,0-.8-.26,1.08,1.08,0,0,0-1.18.9l-1-.31a2,2,0,0,1,.38-.73,1.82,1.82,0,0,1,.71-.52,2.42,2.42,0,0,1,1.06-.2,2.18,2.18,0,0,1,1.51.49,1.78,1.78,0,0,1,.55,1.39v2c0,.2.09.3.28.3h.42v.86h-.77a.85.85,0,0,1-.57-.18.6.6,0,0,1-.22-.49v0h-.15c-.06.1-.14.21-.24.35a1.46,1.46,0,0,1-.47.34A1.91,1.91,0,0,1,199.15,146Zm.15-.85a1.41,1.41,0,0,0,1-.36,1.28,1.28,0,0,0,.38-1v-.1h-1.44a1.08,1.08,0,0,0-.66.17.59.59,0,0,0-.25.52.65.65,0,0,0,.26.54A1.15,1.15,0,0,0,199.3,145.1Z"/><path class="cls-1" d="M203.39,145.81v-4.93h1v.74h.16a1.44,1.44,0,0,1,.5-.56,1.76,1.76,0,0,1,1.07-.26,1.92,1.92,0,0,1,1,.25,1.79,1.79,0,0,1,.69.7,2.32,2.32,0,0,1,.25,1.1v3h-1v-2.88a1.27,1.27,0,0,0-.32-1,1.25,1.25,0,0,0-.88-.3,1.33,1.33,0,0,0-1,.42,1.72,1.72,0,0,0-.38,1.22v2.49Z"/><path class="cls-1" d="M211.58,146a2.22,2.22,0,0,1-2-1.17,2.76,2.76,0,0,1-.31-1.36v-.15a2.76,2.76,0,0,1,.31-1.36,2.11,2.11,0,0,1,.83-.87,2.21,2.21,0,0,1,1.14-.3,2.29,2.29,0,0,1,.8.12,1.73,1.73,0,0,1,.54.3,1.45,1.45,0,0,1,.32.39h.16v-2.74h1v7h-1v-.7h-.16a2,2,0,0,1-.58.58A2,2,0,0,1,211.58,146Zm.29-.9a1.53,1.53,0,0,0,1.1-.43,1.67,1.67,0,0,0,.44-1.23v-.09a1.66,1.66,0,0,0-.43-1.22,1.63,1.63,0,0,0-2.21,0,1.62,1.62,0,0,0-.43,1.22v.09a1.66,1.66,0,0,0,.43,1.23A1.53,1.53,0,0,0,211.87,145.05Z"/><path class="cls-1" d="M220.8,146a2,2,0,0,1-1.11-.26,1.84,1.84,0,0,1-.57-.58H219v.7h-1v-7h1v2.74h.16a1.45,1.45,0,0,1,.32-.39,1.57,1.57,0,0,1,.53-.3,2.39,2.39,0,0,1,.81-.12,2.19,2.19,0,0,1,2,1.17,2.87,2.87,0,0,1,.31,1.36v.15a2.76,2.76,0,0,1-.32,1.36,2.25,2.25,0,0,1-.83.87A2.2,2.2,0,0,1,220.8,146Zm-.3-.9a1.53,1.53,0,0,0,1.1-.43,1.67,1.67,0,0,0,.44-1.23v-.09a1.66,1.66,0,0,0-.43-1.22,1.63,1.63,0,0,0-2.21,0,1.62,1.62,0,0,0-.43,1.22v.09a1.66,1.66,0,0,0,.43,1.23A1.53,1.53,0,0,0,220.5,145.05Z"/><path class="cls-1" d="M225.89,146a2.37,2.37,0,0,1-.95-.18,1.64,1.64,0,0,1-.66-.53,1.49,1.49,0,0,1-.24-.85,1.42,1.42,0,0,1,.24-.85,1.54,1.54,0,0,1,.67-.5,2.5,2.5,0,0,1,1-.17h1.5v-.32a.94.94,0,0,0-.26-.69,1.07,1.07,0,0,0-.8-.26,1.08,1.08,0,0,0-1.18.9l-1-.31a2.21,2.21,0,0,1,.38-.73,1.82,1.82,0,0,1,.71-.52,2.42,2.42,0,0,1,1.06-.2,2.18,2.18,0,0,1,1.51.49,1.78,1.78,0,0,1,.55,1.39v2c0,.2.09.3.28.3h.42v.86h-.77a.85.85,0,0,1-.57-.18.6.6,0,0,1-.22-.49v0h-.15c-.06.1-.14.21-.24.35a1.46,1.46,0,0,1-.47.34A1.91,1.91,0,0,1,225.89,146Zm.15-.85a1.41,1.41,0,0,0,1-.36,1.28,1.28,0,0,0,.38-1v-.1H226a1.08,1.08,0,0,0-.66.17.59.59,0,0,0-.25.52.65.65,0,0,0,.26.54A1.15,1.15,0,0,0,226,145.1Z"/><path class="cls-1" d="M232.3,146a2.73,2.73,0,0,1-1.29-.3,2.24,2.24,0,0,1-.91-.87,2.7,2.7,0,0,1-.33-1.37v-.13a2.67,2.67,0,0,1,.33-1.37A2.24,2.24,0,0,1,231,141a2.73,2.73,0,0,1,1.29-.3,2.54,2.54,0,0,1,1.21.26,2.15,2.15,0,0,1,.8.69,2.3,2.3,0,0,1,.4.95l-1,.21a1.94,1.94,0,0,0-.21-.6,1.16,1.16,0,0,0-.45-.43,1.49,1.49,0,0,0-.73-.16,1.55,1.55,0,0,0-.78.19,1.39,1.39,0,0,0-.54.56,1.75,1.75,0,0,0-.2.89v.09a1.8,1.8,0,0,0,.2.89,1.39,1.39,0,0,0,.54.56,1.67,1.67,0,0,0,.78.19,1.38,1.38,0,0,0,1-.34,1.57,1.57,0,0,0,.43-.85l1,.23a2.77,2.77,0,0,1-.43.94,2.22,2.22,0,0,1-.8.68A2.67,2.67,0,0,1,232.3,146Z"/><path class="cls-1" d="M235.93,145.81v-7h1v4h.16l1.94-1.92h1.37l-2.49,2.39,2.57,2.54h-1.36l-2-2.05H237v2.05Z"/><path class="cls-1" d="M242,145.81l-.84-4.93h1l.62,4.24H243l.86-4.24h1.67l.85,4.24h.16l.62-4.24h1l-.84,4.93h-1.73l-.85-4.23h-.16l-.85,4.23Z"/><path class="cls-1" d="M250.85,146a2.37,2.37,0,0,1-.95-.18,1.51,1.51,0,0,1-.66-.53,1.49,1.49,0,0,1-.24-.85,1.42,1.42,0,0,1,.24-.85,1.49,1.49,0,0,1,.67-.5,2.47,2.47,0,0,1,1-.17h1.5v-.32a.94.94,0,0,0-.26-.69,1.07,1.07,0,0,0-.8-.26,1.08,1.08,0,0,0-1.18.9l-1-.31a2,2,0,0,1,.38-.73,1.82,1.82,0,0,1,.71-.52,2.42,2.42,0,0,1,1.06-.2,2.18,2.18,0,0,1,1.51.49,1.78,1.78,0,0,1,.55,1.39v2c0,.2.09.3.28.3h.42v.86h-.77a.85.85,0,0,1-.57-.18.6.6,0,0,1-.22-.49v0h-.15c-.06.1-.14.21-.24.35a1.46,1.46,0,0,1-.47.34A1.91,1.91,0,0,1,250.85,146Zm.15-.85a1.41,1.41,0,0,0,1-.36,1.28,1.28,0,0,0,.38-1v-.1h-1.44a1.08,1.08,0,0,0-.66.17.59.59,0,0,0-.25.52.65.65,0,0,0,.26.54A1.15,1.15,0,0,0,251,145.1Z"/><path class="cls-1" d="M255.09,145.81v-4.93h1v.58h.17a.83.83,0,0,1,.38-.46,1.34,1.34,0,0,1,.66-.14h.58v.93h-.62a1.21,1.21,0,0,0-.82.27,1,1,0,0,0-.32.85v2.9Z"/><path class="cls-1" d="M260.82,146a2.22,2.22,0,0,1-2-1.17,2.76,2.76,0,0,1-.31-1.36v-.15a2.76,2.76,0,0,1,.31-1.36,2.11,2.11,0,0,1,.83-.87,2.21,2.21,0,0,1,1.14-.3,2.32,2.32,0,0,1,.8.12,1.73,1.73,0,0,1,.54.3,1.45,1.45,0,0,1,.32.39h.16v-2.74h1v7h-1v-.7h-.16a1.79,1.79,0,0,1-1.68.84Zm.29-.9a1.53,1.53,0,0,0,1.1-.43,1.67,1.67,0,0,0,.44-1.23v-.09a1.66,1.66,0,0,0-.43-1.22,1.63,1.63,0,0,0-2.21,0,1.62,1.62,0,0,0-.43,1.22v.09a1.66,1.66,0,0,0,.43,1.23A1.53,1.53,0,0,0,261.11,145.05Z"/><path class="cls-1" d="M267.21,146a2.71,2.71,0,0,1-1.56-.42,1.79,1.79,0,0,1-.76-1.27l1-.23a1.44,1.44,0,0,0,.27.65,1,1,0,0,0,.47.34,2.06,2.06,0,0,0,.62.1,1.34,1.34,0,0,0,.75-.19.58.58,0,0,0,.27-.49A.48.48,0,0,0,268,144a2.4,2.4,0,0,0-.74-.23l-.34-.06a4.44,4.44,0,0,1-.91-.26,1.61,1.61,0,0,1-.65-.47,1.2,1.2,0,0,1-.24-.77,1.27,1.27,0,0,1,.52-1.09,2.22,2.22,0,0,1,1.38-.38,2.32,2.32,0,0,1,1.36.37,1.71,1.71,0,0,1,.7,1l-1,.27a.94.94,0,0,0-.38-.64,1.37,1.37,0,0,0-.72-.18,1.24,1.24,0,0,0-.66.15.49.49,0,0,0-.24.44.47.47,0,0,0,.23.44,2.08,2.08,0,0,0,.64.21l.35.06a5.5,5.5,0,0,1,1,.25,1.56,1.56,0,0,1,.69.46,1.18,1.18,0,0,1,.26.8,1.38,1.38,0,0,1-.55,1.15A2.45,2.45,0,0,1,267.21,146Z"/><path class="cls-1" d="M38,182.21v-7h2.94a2.74,2.74,0,0,1,1.15.22,1.82,1.82,0,0,1,.77.65,1.8,1.8,0,0,1,.27,1v.11a1.62,1.62,0,0,1-.31,1.05,1.77,1.77,0,0,1-.77.56V179a.83.83,0,0,1,.61.25.91.91,0,0,1,.23.68v2.32H41.75V180a.59.59,0,0,0-.14-.43.55.55,0,0,0-.45-.16H39v2.76ZM39,178.47h1.74a1.25,1.25,0,0,0,.9-.3,1,1,0,0,0,.32-.8v-.08a1.06,1.06,0,0,0-.31-.81,1.26,1.26,0,0,0-.91-.29H39Z"/><path class="cls-1" d="M44.82,176.61a.69.69,0,0,1-.5-.2.66.66,0,0,1-.21-.5.66.66,0,0,1,.21-.51.68.68,0,0,1,.5-.19.69.69,0,0,1,.51.19.66.66,0,0,1,.2.51.65.65,0,0,1-.2.5A.69.69,0,0,1,44.82,176.61Zm-.52,5.6v-4.93h1v4.93Z"/><path class="cls-1" d="M46.62,179.77v-.15a2.62,2.62,0,0,1,.32-1.33,2.22,2.22,0,0,1,2-1.15,1.94,1.94,0,0,1,1.11.27,1.91,1.91,0,0,1,.56.58h.16v-.71h1v5.94a1,1,0,0,1-.26.72,1,1,0,0,1-.73.27H47.43v-.9h3c.2,0,.29-.1.29-.3v-1.57h-.16a1.63,1.63,0,0,1-.83.68,2.41,2.41,0,0,1-.82.12,2.26,2.26,0,0,1-1.14-.3,2.21,2.21,0,0,1-.84-.85A2.74,2.74,0,0,1,46.62,179.77Zm2.57,1.57a1.48,1.48,0,0,0,1.54-1.6v-.09a1.56,1.56,0,0,0-.43-1.19,1.68,1.68,0,0,0-2.2,0,1.57,1.57,0,0,0-.44,1.19v.09a1.55,1.55,0,0,0,.44,1.17A1.51,1.51,0,0,0,49.19,181.34Z"/><path class="cls-1" d="M53.26,182.21v-7h1V178h.16a1.39,1.39,0,0,1,.29-.37,1.36,1.36,0,0,1,.49-.3,2.13,2.13,0,0,1,.77-.11,1.93,1.93,0,0,1,1,.25,1.7,1.7,0,0,1,.68.7,2.21,2.21,0,0,1,.25,1.1v3h-1v-2.88a1.09,1.09,0,0,0-1.2-1.25,1.31,1.31,0,0,0-1,.42,1.72,1.72,0,0,0-.39,1.22v2.49Z"/><path class="cls-1" d="M61.12,182.21a1,1,0,0,1-.71-.27,1,1,0,0,1-.27-.72v-3.07H58.78v-.87h1.36v-1.63h1v1.63h1.47v.87H61.17V181c0,.2.1.3.28.3h1v.87Z"/><path class="cls-1" d="M69,182.35a2.82,2.82,0,0,1-2-.73,2.77,2.77,0,0,1-.75-2.09v-1.64a2.78,2.78,0,0,1,.75-2.1,2.81,2.81,0,0,1,2-.72,2.4,2.4,0,0,1,2.63,2.61v.06H70.53v-.09a1.69,1.69,0,0,0-.38-1.16A1.47,1.47,0,0,0,69,176a1.63,1.63,0,0,0-1.25.48,1.9,1.9,0,0,0-.45,1.35v1.68a1.92,1.92,0,0,0,.45,1.34,1.64,1.64,0,0,0,1.25.49,1.48,1.48,0,0,0,1.18-.46,1.7,1.7,0,0,0,.38-1.15v-.17H71.6v.14a2.61,2.61,0,0,1-.68,1.91A2.64,2.64,0,0,1,69,182.35Z"/><path class="cls-1" d="M72.83,182.21v-7h1v7Z"/><path class="cls-1" d="M75.91,176.61a.69.69,0,0,1-.5-.2.66.66,0,0,1-.21-.5.66.66,0,0,1,.21-.51.68.68,0,0,1,.5-.19.69.69,0,0,1,.51.19.66.66,0,0,1,.2.51.65.65,0,0,1-.2.5A.69.69,0,0,1,75.91,176.61Zm-.52,5.6v-4.93h1v4.93Z"/><path class="cls-1" d="M80.24,182.35a2.72,2.72,0,0,1-1.28-.3,2.18,2.18,0,0,1-.91-.87,2.6,2.6,0,0,1-.34-1.37v-.13a2.58,2.58,0,0,1,.34-1.37,2.18,2.18,0,0,1,.91-.87,2.72,2.72,0,0,1,1.28-.3,2.49,2.49,0,0,1,1.21.26,2.18,2.18,0,0,1,.81.69,2.28,2.28,0,0,1,.39.95l-1,.21a1.53,1.53,0,0,0-.21-.6,1,1,0,0,0-.45-.43,1.44,1.44,0,0,0-.73-.16,1.54,1.54,0,0,0-.77.19,1.48,1.48,0,0,0-.55.56,1.86,1.86,0,0,0-.2.89v.09a1.92,1.92,0,0,0,.2.89,1.48,1.48,0,0,0,.55.56,1.66,1.66,0,0,0,.77.19,1.35,1.35,0,0,0,1-.34,1.51,1.51,0,0,0,.43-.85l1,.23a2.74,2.74,0,0,1-.42.94,2.25,2.25,0,0,1-.81.68A2.61,2.61,0,0,1,80.24,182.35Z"/><path class="cls-1" d="M83.87,182.21v-7h1v4h.16L87,177.28h1.37l-2.49,2.39,2.57,2.54H87.09l-2-2.05H84.9v2.05Z"/><path class="cls-1" d="M93.78,180.8v-1.62h-1.6v-.94h1.6v-1.62h1v1.62h1.6v.94h-1.6v1.62Z"/><path class="cls-1" d="M101.21,182.21l-1-7h1.08l.84,6.27h.16l1.08-6.27h1.89l1.08,6.27h.16l.83-6.27h1.08l-1,7h-1.89l-1.1-6.36h-.16l-1.09,6.36Z"/><path class="cls-1" d="M108.71,182.21l2-7h1.9l2,7h-1.11l-.46-1.65h-2.74l-.46,1.65Zm1.85-2.65h2.2l-1-3.68h-.16Z"/><path class="cls-1" d="M117.92,182.35a3.46,3.46,0,0,1-1.4-.28,2.26,2.26,0,0,1-1-.83,2.4,2.4,0,0,1-.35-1.32v-.25h1.07v.25a1.36,1.36,0,0,0,.45,1.11,1.81,1.81,0,0,0,1.18.37,1.73,1.73,0,0,0,1.13-.32,1,1,0,0,0,.38-.81.8.8,0,0,0-.18-.54,1.2,1.2,0,0,0-.51-.34,6.46,6.46,0,0,0-.79-.23l-.37-.09a6,6,0,0,1-1.16-.4,1.92,1.92,0,0,1-.77-.62,2,2,0,0,1,0-2.06,1.9,1.9,0,0,1,.84-.68,3.13,3.13,0,0,1,1.27-.24,3.22,3.22,0,0,1,1.31.25,2,2,0,0,1,.9.74,2.13,2.13,0,0,1,.33,1.23v.36h-1.07v-.36a1.32,1.32,0,0,0-.18-.73,1.06,1.06,0,0,0-.52-.41,2,2,0,0,0-.77-.13,1.6,1.6,0,0,0-1,.26.87.87,0,0,0-.36.74.81.81,0,0,0,.16.52,1.07,1.07,0,0,0,.45.34,5.24,5.24,0,0,0,.75.23l.37.09a5.65,5.65,0,0,1,1.2.38,2,2,0,0,1,.82.64,1.66,1.66,0,0,1,.3,1,1.94,1.94,0,0,1-.31,1.1,2.13,2.13,0,0,1-.9.73A3.19,3.19,0,0,1,117.92,182.35Z"/><path class="cls-1" d="M121.33,182.21v-1h.94v-5.08h-.94v-1h2.8a3,3,0,0,1,2.15.71,2.83,2.83,0,0,1,.74,2.14v1.31a2.82,2.82,0,0,1-.74,2.13,3,3,0,0,1-2.15.71Zm2-1h.78a1.8,1.8,0,0,0,1.35-.46,1.9,1.9,0,0,0,.44-1.37V178a1.85,1.85,0,0,0-.44-1.37,1.8,1.8,0,0,0-1.35-.45h-.78Z"/><path class="cls-1" d="M131.71,182.21v-4.06h-1.38v-.87h1.38V176.2a.93.93,0,0,1,1-1H134v.87H133a.26.26,0,0,0-.29.3v.9h1.42v.87h-1.42v4.06Z"/><path class="cls-1" d="M137.32,182.35A2.78,2.78,0,0,1,136,182a2.18,2.18,0,0,1-.91-.87,2.65,2.65,0,0,1-.33-1.35v-.15a2.65,2.65,0,0,1,.33-1.35,2.18,2.18,0,0,1,.91-.87,2.94,2.94,0,0,1,2.63,0,2.18,2.18,0,0,1,.91.87,2.65,2.65,0,0,1,.33,1.35v.15a2.65,2.65,0,0,1-.33,1.35,2.18,2.18,0,0,1-.91.87A2.8,2.8,0,0,1,137.32,182.35Zm0-.92a1.49,1.49,0,0,0,1.11-.44,1.66,1.66,0,0,0,.42-1.2v-.09a1.66,1.66,0,0,0-.42-1.21,1.47,1.47,0,0,0-1.11-.43,1.45,1.45,0,0,0-1.09.43,1.63,1.63,0,0,0-.43,1.21v.09a1.62,1.62,0,0,0,.43,1.2A1.46,1.46,0,0,0,137.32,181.43Z"/><path class="cls-1" d="M141.16,182.21v-4.93h1v.58h.16a.85.85,0,0,1,.39-.46,1.28,1.28,0,0,1,.65-.14H144v.93h-.63a1.23,1.23,0,0,0-.82.27,1.07,1.07,0,0,0-.32.85v2.9Z"/><path class="cls-1" d="M149.11,182.35a2.32,2.32,0,0,1-.94-.18,1.51,1.51,0,0,1-.66-.53,1.42,1.42,0,0,1-.25-.85,1.36,1.36,0,0,1,.25-.85,1.43,1.43,0,0,1,.67-.5,2.42,2.42,0,0,1,1-.17h1.5V179a.94.94,0,0,0-.26-.69,1.06,1.06,0,0,0-.8-.26,1.17,1.17,0,0,0-.81.25,1.2,1.2,0,0,0-.37.65l-1-.31a2.06,2.06,0,0,1,.39-.73,1.79,1.79,0,0,1,.7-.52,2.45,2.45,0,0,1,1.06-.2,2.18,2.18,0,0,1,1.51.49,1.74,1.74,0,0,1,.55,1.39v2c0,.2.09.3.28.3h.42v.86h-.77A.88.88,0,0,1,151,182a.6.6,0,0,1-.22-.49v0h-.15a2.21,2.21,0,0,1-.24.35,1.27,1.27,0,0,1-.47.34A1.91,1.91,0,0,1,149.11,182.35Zm.15-.85a1.38,1.38,0,0,0,1-.36,1.28,1.28,0,0,0,.38-1v-.1H149.2a1.12,1.12,0,0,0-.66.17.61.61,0,0,0-.25.52.67.67,0,0,0,.26.54A1.15,1.15,0,0,0,149.26,181.5Z"/><path class="cls-1" d="M155.27,182.35a2.22,2.22,0,0,1-1.13-.3,2.18,2.18,0,0,1-.83-.87,2.76,2.76,0,0,1-.32-1.36v-.15a2.76,2.76,0,0,1,.31-1.36,2.18,2.18,0,0,1,.83-.87,2.26,2.26,0,0,1,1.14-.3,2.39,2.39,0,0,1,.81.12,1.79,1.79,0,0,1,.53.3,1.28,1.28,0,0,1,.32.39h.16v-2.74h1v7h-1v-.7H157a2.08,2.08,0,0,1-.57.58A2,2,0,0,1,155.27,182.35Zm.29-.9a1.54,1.54,0,0,0,1.11-.43,1.66,1.66,0,0,0,.43-1.23v-.09a1.62,1.62,0,0,0-.43-1.22,1.5,1.5,0,0,0-1.11-.43,1.47,1.47,0,0,0-1.09.43,1.63,1.63,0,0,0-.44,1.22v.09a1.67,1.67,0,0,0,.44,1.23A1.51,1.51,0,0,0,155.56,181.45Z"/><path class="cls-1" d="M160.78,182.21l-1.66-4.93h1.09l1.31,4.17h.16l1.31-4.17h1.09l-1.66,4.93Z"/><path class="cls-1" d="M166.47,182.35a2.32,2.32,0,0,1-.94-.18,1.51,1.51,0,0,1-.66-.53,1.42,1.42,0,0,1-.25-.85,1.36,1.36,0,0,1,.25-.85,1.43,1.43,0,0,1,.67-.5,2.42,2.42,0,0,1,1-.17H168V179a.94.94,0,0,0-.26-.69,1.06,1.06,0,0,0-.8-.26,1.17,1.17,0,0,0-.81.25,1.14,1.14,0,0,0-.37.65l-1-.31a2.06,2.06,0,0,1,.39-.73,1.79,1.79,0,0,1,.7-.52,2.45,2.45,0,0,1,1.06-.2,2.18,2.18,0,0,1,1.51.49A1.74,1.74,0,0,1,169,179v2c0,.2.09.3.28.3h.42v.86h-.77a.88.88,0,0,1-.57-.18.6.6,0,0,1-.22-.49v0H168a2.21,2.21,0,0,1-.24.35,1.36,1.36,0,0,1-.47.34A1.91,1.91,0,0,1,166.47,182.35Zm.15-.85a1.39,1.39,0,0,0,1-.36,1.28,1.28,0,0,0,.38-1v-.1h-1.44a1.12,1.12,0,0,0-.66.17.59.59,0,0,0-.25.52.67.67,0,0,0,.26.54A1.15,1.15,0,0,0,166.62,181.5Z"/><path class="cls-1" d="M170.71,182.21v-4.93h1V178h.16a1.44,1.44,0,0,1,.5-.56,1.78,1.78,0,0,1,1.07-.26,2,2,0,0,1,1,.25,1.76,1.76,0,0,1,.68.7,2.21,2.21,0,0,1,.25,1.1v3h-1v-2.88a1.27,1.27,0,0,0-.32-1,1.24,1.24,0,0,0-.88-.3,1.3,1.3,0,0,0-1,.42,1.72,1.72,0,0,0-.39,1.22v2.49Z"/><path class="cls-1" d="M179.15,182.35a2.72,2.72,0,0,1-1.28-.3,2.18,2.18,0,0,1-.91-.87,2.6,2.6,0,0,1-.34-1.37v-.13a2.58,2.58,0,0,1,.34-1.37,2.18,2.18,0,0,1,.91-.87,2.72,2.72,0,0,1,1.28-.3,2.52,2.52,0,0,1,1.21.26,2.22,2.22,0,0,1,1.2,1.64l-1,.21a1.53,1.53,0,0,0-.21-.6,1.16,1.16,0,0,0-.45-.43,1.46,1.46,0,0,0-.73-.16,1.52,1.52,0,0,0-.77.19,1.41,1.41,0,0,0-.55.56,1.86,1.86,0,0,0-.2.89v.09a1.92,1.92,0,0,0,.2.89,1.41,1.41,0,0,0,.55.56,1.63,1.63,0,0,0,.77.19,1.38,1.38,0,0,0,1-.34,1.51,1.51,0,0,0,.43-.85l1,.23a2.74,2.74,0,0,1-.42.94,2.34,2.34,0,0,1-.81.68A2.64,2.64,0,0,1,179.15,182.35Z"/><path class="cls-1" d="M185,182.35a2.62,2.62,0,0,1-1.31-.32,2.26,2.26,0,0,1-.87-.89,2.73,2.73,0,0,1-.32-1.33v-.12a2.75,2.75,0,0,1,.31-1.35,2.26,2.26,0,0,1,.87-.89,2.53,2.53,0,0,1,1.28-.31,2.44,2.44,0,0,1,1.25.31,2.2,2.2,0,0,1,.83.88,2.72,2.72,0,0,1,.3,1.31V180h-3.79a1.38,1.38,0,0,0,.44,1,1.44,1.44,0,0,0,1,.39,1.32,1.32,0,0,0,.88-.26,2.15,2.15,0,0,0,.45-.6l.85.44a3.42,3.42,0,0,1-.4.59,2.24,2.24,0,0,1-.7.52A2.51,2.51,0,0,1,185,182.35Zm-1.44-3.11h2.73a1.24,1.24,0,0,0-.4-.88,1.58,1.58,0,0,0-1.88,0A1.32,1.32,0,0,0,183.6,179.24Z"/><path class="cls-1" d="M190.66,182.35a2.22,2.22,0,0,1-1.13-.3,2.18,2.18,0,0,1-.83-.87,2.76,2.76,0,0,1-.32-1.36v-.15a2.76,2.76,0,0,1,.31-1.36,2.18,2.18,0,0,1,.83-.87,2.26,2.26,0,0,1,1.14-.3,2.39,2.39,0,0,1,.81.12,1.79,1.79,0,0,1,.53.3,1.28,1.28,0,0,1,.32.39h.16v-2.74h1v7h-1v-.7h-.16a2.08,2.08,0,0,1-.57.58A2,2,0,0,1,190.66,182.35Zm.29-.9a1.54,1.54,0,0,0,1.11-.43,1.66,1.66,0,0,0,.43-1.23v-.09a1.62,1.62,0,0,0-.43-1.22,1.5,1.5,0,0,0-1.11-.43,1.47,1.47,0,0,0-1.09.43,1.63,1.63,0,0,0-.44,1.22v.09a1.67,1.67,0,0,0,.44,1.23A1.51,1.51,0,0,0,191,181.45Z"/><path class="cls-1" d="M199.87,182.35a2.72,2.72,0,0,1-1.28-.3,2.18,2.18,0,0,1-.91-.87,2.6,2.6,0,0,1-.34-1.37v-.13a2.58,2.58,0,0,1,.34-1.37,2.18,2.18,0,0,1,.91-.87,2.72,2.72,0,0,1,1.28-.3,2.52,2.52,0,0,1,1.21.26,2.22,2.22,0,0,1,1.2,1.64l-1,.21a1.53,1.53,0,0,0-.21-.6,1.16,1.16,0,0,0-.45-.43,1.46,1.46,0,0,0-.73-.16,1.52,1.52,0,0,0-.77.19,1.41,1.41,0,0,0-.55.56,1.86,1.86,0,0,0-.2.89v.09a1.92,1.92,0,0,0,.2.89,1.41,1.41,0,0,0,.55.56,1.63,1.63,0,0,0,.77.19,1.38,1.38,0,0,0,1-.34,1.51,1.51,0,0,0,.43-.85l1,.23a2.74,2.74,0,0,1-.42.94,2.34,2.34,0,0,1-.81.68A2.64,2.64,0,0,1,199.87,182.35Z"/><path class="cls-1" d="M205.81,182.35a2.78,2.78,0,0,1-1.31-.31,2.18,2.18,0,0,1-.91-.87,2.65,2.65,0,0,1-.33-1.35v-.15a2.65,2.65,0,0,1,.33-1.35,2.18,2.18,0,0,1,.91-.87,2.67,2.67,0,0,1,1.31-.31,2.74,2.74,0,0,1,1.32.31,2.18,2.18,0,0,1,.91.87,2.65,2.65,0,0,1,.33,1.35v.15a2.65,2.65,0,0,1-.33,1.35,2.18,2.18,0,0,1-.91.87A2.86,2.86,0,0,1,205.81,182.35Zm0-.92a1.51,1.51,0,0,0,1.11-.44,1.66,1.66,0,0,0,.42-1.2v-.09a1.66,1.66,0,0,0-.42-1.21,1.47,1.47,0,0,0-1.11-.43,1.44,1.44,0,0,0-1.09.43,1.63,1.63,0,0,0-.43,1.21v.09a1.62,1.62,0,0,0,.43,1.2A1.45,1.45,0,0,0,205.81,181.43Z"/><path class="cls-1" d="M209.65,182.21v-4.93h1V178h.16a1.44,1.44,0,0,1,.5-.56,1.78,1.78,0,0,1,1.07-.26,1.92,1.92,0,0,1,1,.25,1.72,1.72,0,0,1,.69.7,2.21,2.21,0,0,1,.25,1.1v3h-1v-2.88a1.27,1.27,0,0,0-.32-1,1.24,1.24,0,0,0-.88-.3,1.33,1.33,0,0,0-1,.42,1.76,1.76,0,0,0-.38,1.22v2.49Z"/><path class="cls-1" d="M217.51,182.21a.93.93,0,0,1-.71-.27,1,1,0,0,1-.27-.72v-3.07h-1.36v-.87h1.36v-1.63h1v1.63H219v.87h-1.47V181c0,.2.09.3.28.3h1v.87Z"/><path class="cls-1" d="M220.24,182.21v-4.93h1v.58h.16a.85.85,0,0,1,.39-.46,1.28,1.28,0,0,1,.65-.14H223v.93h-.63a1.23,1.23,0,0,0-.82.27,1.07,1.07,0,0,0-.32.85v2.9Z"/><path class="cls-1" d="M226.24,182.35a2.78,2.78,0,0,1-1.31-.31,2.18,2.18,0,0,1-.91-.87,2.65,2.65,0,0,1-.33-1.35v-.15a2.65,2.65,0,0,1,.33-1.35,2.18,2.18,0,0,1,.91-.87,2.67,2.67,0,0,1,1.31-.31,2.74,2.74,0,0,1,1.32.31,2.18,2.18,0,0,1,.91.87,2.65,2.65,0,0,1,.33,1.35v.15a2.65,2.65,0,0,1-.33,1.35,2.18,2.18,0,0,1-.91.87A2.86,2.86,0,0,1,226.24,182.35Zm0-.92a1.51,1.51,0,0,0,1.11-.44,1.66,1.66,0,0,0,.42-1.2v-.09a1.66,1.66,0,0,0-.42-1.21,1.47,1.47,0,0,0-1.11-.43,1.44,1.44,0,0,0-1.09.43,1.63,1.63,0,0,0-.43,1.21v.09a1.62,1.62,0,0,0,.43,1.2A1.45,1.45,0,0,0,226.24,181.43Z"/><path class="cls-1" d="M230.08,182.21v-7h1v7Z"/><path class="cls-1" d="M234.66,182.35a2.71,2.71,0,0,1-1.56-.42,1.82,1.82,0,0,1-.76-1.27l1-.23a1.44,1.44,0,0,0,.27.65,1,1,0,0,0,.48.34,2,2,0,0,0,.61.1,1.35,1.35,0,0,0,.76-.19.59.59,0,0,0,.26-.49.46.46,0,0,0-.25-.44,2.31,2.31,0,0,0-.74-.23l-.34-.06a4.63,4.63,0,0,1-.91-.26,1.68,1.68,0,0,1-.65-.47,1.2,1.2,0,0,1-.24-.77,1.27,1.27,0,0,1,.52-1.09,2.26,2.26,0,0,1,1.38-.38,2.3,2.3,0,0,1,1.36.37,1.71,1.71,0,0,1,.7,1l-1,.27a.94.94,0,0,0-.38-.64,1.33,1.33,0,0,0-.72-.18,1.24,1.24,0,0,0-.66.15.49.49,0,0,0-.24.44.48.48,0,0,0,.24.44,1.93,1.93,0,0,0,.63.21l.35.06a5.28,5.28,0,0,1,1,.25,1.56,1.56,0,0,1,.69.46,1.18,1.18,0,0,1,.26.8,1.36,1.36,0,0,1-.55,1.15A2.45,2.45,0,0,1,234.66,182.35Z"/></svg>