<svg id="Layer_1" data-name="Layer 1" xmlns="http://www.w3.org/2000/svg" viewBox="0 0 274.35 204.16"><defs><style>.cls-1{fill:#fff;}.cls-2{fill:#ff931e;}</style></defs><path class="cls-1" d="M16.22,26.18l-1.55-10.5h1.62l1.26,9.4h.24l1.62-9.4h2.84l1.62,9.4h.24l1.24-9.4H27l-1.54,10.5H22.59l-1.65-9.54H20.7l-1.63,9.54Z"/><path class="cls-1" d="M30.8,26.39a3.53,3.53,0,0,1-1.42-.27,2.25,2.25,0,0,1-1-.8A2.12,2.12,0,0,1,28,24.05a2.06,2.06,0,0,1,.37-1.27,2.2,2.2,0,0,1,1-.76,3.9,3.9,0,0,1,1.45-.25h2.25v-.48a1.41,1.41,0,0,0-.39-1,1.63,1.63,0,0,0-1.2-.39,1.75,1.75,0,0,0-1.21.38,1.79,1.79,0,0,0-.56,1l-1.44-.46a3,3,0,0,1,.58-1.09,2.79,2.79,0,0,1,1.06-.79,3.82,3.82,0,0,1,1.59-.3,3.27,3.27,0,0,1,2.26.74,2.64,2.64,0,0,1,.83,2.08v3.05q0,.45.42.45h.63v1.29H34.5a1.29,1.29,0,0,1-.85-.27.91.91,0,0,1-.33-.74v0h-.23a3.54,3.54,0,0,1-.36.52,2,2,0,0,1-.7.52A3,3,0,0,1,30.8,26.39ZM31,25.11a2.13,2.13,0,0,0,1.5-.53,1.91,1.91,0,0,0,.57-1.46V23H30.93a1.66,1.66,0,0,0-1,.26.87.87,0,0,0-.37.77,1,1,0,0,0,.39.81A1.69,1.69,0,0,0,31,25.11Z"/><path class="cls-1" d="M37.16,26.18V15.68H38.7v10.5Z"/><path class="cls-1" d="M41,26.18V15.68h1.54v6h.24l2.91-2.88h2.06L44,22.37l3.86,3.81h-2l-3-3.08h-.24v3.08Z"/><path class="cls-1" d="M50,17.78a1.06,1.06,0,0,1-.76-.3,1,1,0,0,1-.3-.75,1,1,0,0,1,.3-.76,1.15,1.15,0,0,1,1.53,0,1,1,0,0,1,.3.76,1,1,0,0,1-.3.75A1,1,0,0,1,50,17.78Zm-.78,8.4v-7.4h1.55v7.4Z"/><path class="cls-1" d="M53.1,26.18v-7.4h1.52v1.11h.24a2.24,2.24,0,0,1,.75-.84,2.72,2.72,0,0,1,1.6-.39A2.92,2.92,0,0,1,58.7,19a2.67,2.67,0,0,1,1,1.05,3.41,3.41,0,0,1,.38,1.65v4.44H58.56V21.86a1.87,1.87,0,0,0-.48-1.42A1.81,1.81,0,0,0,56.76,20a2,2,0,0,0-1.54.63,2.64,2.64,0,0,0-.57,1.83v3.74Z"/><path class="cls-1" d="M62,22.52v-.23a3.88,3.88,0,0,1,.47-2,3.33,3.33,0,0,1,3-1.73,2.67,2.67,0,0,1,2.51,1.28h.24V18.78h1.5v8.91a1.5,1.5,0,0,1-.4,1.08,1.47,1.47,0,0,1-1.09.41h-5V27.83h4.5a.39.39,0,0,0,.44-.45V25h-.24a2.85,2.85,0,0,1-.47.56,2.23,2.23,0,0,1-.79.46,3.82,3.82,0,0,1-2.94-.26,3.28,3.28,0,0,1-1.25-1.28A4,4,0,0,1,62,22.52Zm3.85,2.35a2.27,2.27,0,0,0,1.66-.64,2.36,2.36,0,0,0,.65-1.76v-.13a2.35,2.35,0,0,0-.64-1.78,2.29,2.29,0,0,0-1.67-.62,2.25,2.25,0,0,0-1.64.62,2.32,2.32,0,0,0-.65,1.78v.13a2.32,2.32,0,0,0,.65,1.76A2.22,2.22,0,0,0,65.82,24.87Z"/><path class="cls-1" d="M79.19,26.39a4.07,4.07,0,0,1-1.93-.45,3.39,3.39,0,0,1-1.37-1.31,4,4,0,0,1-.5-2.05v-.2a4,4,0,0,1,.5-2.05A3.43,3.43,0,0,1,77.26,19a4,4,0,0,1,1.93-.46A3.87,3.87,0,0,1,81,19a3.4,3.4,0,0,1,1.21,1,3.49,3.49,0,0,1,.59,1.42l-1.5.32a2.67,2.67,0,0,0-.31-.9,1.85,1.85,0,0,0-.68-.65A2.23,2.23,0,0,0,79.22,20a2.39,2.39,0,0,0-1.17.29,2.11,2.11,0,0,0-.81.84,2.64,2.64,0,0,0-.3,1.33v.14a2.64,2.64,0,0,0,.3,1.33,2,2,0,0,0,.81.84,2.39,2.39,0,0,0,1.17.29,2,2,0,0,0,1.48-.51,2.21,2.21,0,0,0,.64-1.28l1.5.35A3.9,3.9,0,0,1,82.21,25,3.26,3.26,0,0,1,81,26,3.87,3.87,0,0,1,79.19,26.39Z"/><path class="cls-1" d="M88.09,26.39a4.21,4.21,0,0,1-2-.46,3.43,3.43,0,0,1-1.36-1.31,4,4,0,0,1-.49-2v-.22a3.93,3.93,0,0,1,.49-2A3.43,3.43,0,0,1,86.12,19a4.38,4.38,0,0,1,3.95,0,3.33,3.33,0,0,1,1.37,1.31,3.93,3.93,0,0,1,.49,2v.22a4,4,0,0,1-.49,2,3.33,3.33,0,0,1-1.37,1.31A4.25,4.25,0,0,1,88.09,26.39Zm0-1.38a2.18,2.18,0,0,0,1.66-.66,2.43,2.43,0,0,0,.64-1.8v-.14a2.51,2.51,0,0,0-.63-1.81,2.43,2.43,0,0,0-3.31,0,2.51,2.51,0,0,0-.63,1.81v.14a2.47,2.47,0,0,0,.63,1.8A2.2,2.2,0,0,0,88.09,25Z"/><path class="cls-1" d="M93.85,26.18v-7.4h1.52v1.11h.24a2.24,2.24,0,0,1,.75-.84,2.72,2.72,0,0,1,1.6-.39,3,3,0,0,1,1.5.38,2.71,2.71,0,0,1,1,1.05,3.41,3.41,0,0,1,.38,1.65v4.44H99.31V21.86a1.87,1.87,0,0,0-.48-1.42A1.81,1.81,0,0,0,97.51,20a2,2,0,0,0-1.53.63,2.59,2.59,0,0,0-.58,1.83v3.74Z"/><path class="cls-1" d="M105.64,26.18a1.44,1.44,0,0,1-1.07-.41,1.5,1.5,0,0,1-.4-1.08v-4.6h-2V18.78h2V16.34h1.55v2.44h2.2v1.31h-2.2v4.33q0,.45.42.45h1.54v1.31Z"/><path class="cls-1" d="M109.74,26.18v-7.4h1.51v.87h.24a1.27,1.27,0,0,1,.58-.68,2,2,0,0,1,1-.22h.89v1.4h-1a1.79,1.79,0,0,0-1.23.41,1.58,1.58,0,0,0-.48,1.27v4.35Z"/><path class="cls-1" d="M118.74,26.39a4.18,4.18,0,0,1-2-.46,3.36,3.36,0,0,1-1.36-1.31,4,4,0,0,1-.5-2v-.22a3.93,3.93,0,0,1,.5-2A3.36,3.36,0,0,1,116.77,19a4.07,4.07,0,0,1,2-.47,4.14,4.14,0,0,1,2,.47,3.36,3.36,0,0,1,1.36,1.31,3.93,3.93,0,0,1,.5,2v.22a4,4,0,0,1-.5,2,3.36,3.36,0,0,1-1.36,1.31A4.25,4.25,0,0,1,118.74,26.39Zm0-1.38a2.21,2.21,0,0,0,1.66-.66,2.47,2.47,0,0,0,.63-1.8v-.14a2.51,2.51,0,0,0-.63-1.81,2.42,2.42,0,0,0-3.3,0,2.47,2.47,0,0,0-.64,1.81v.14a2.43,2.43,0,0,0,.64,1.8A2.17,2.17,0,0,0,118.74,25Z"/><path class="cls-1" d="M124.5,26.18V15.68H126v10.5Z"/><path class="cls-1" d="M131.37,26.39a4.08,4.08,0,0,1-2.34-.63,2.72,2.72,0,0,1-1.14-1.91l1.44-.34a2.22,2.22,0,0,0,.4,1,1.54,1.54,0,0,0,.72.51,2.73,2.73,0,0,0,.92.15,1.91,1.91,0,0,0,1.13-.28.87.87,0,0,0,.4-.74.71.71,0,0,0-.38-.66,3.75,3.75,0,0,0-1.11-.34L130.9,23a6.57,6.57,0,0,1-1.36-.39,2.42,2.42,0,0,1-1-.71,1.78,1.78,0,0,1-.36-1.15,1.91,1.91,0,0,1,.78-1.63,3.37,3.37,0,0,1,2.07-.58,3.52,3.52,0,0,1,2,.56,2.56,2.56,0,0,1,1,1.53l-1.44.4a1.37,1.37,0,0,0-.57-.95,1.93,1.93,0,0,0-1.08-.28,1.86,1.86,0,0,0-1,.23.75.75,0,0,0-.36.66.71.71,0,0,0,.36.66,2.78,2.78,0,0,0,.95.31l.52.09a8.4,8.4,0,0,1,1.46.38,2.38,2.38,0,0,1,1,.69,1.76,1.76,0,0,1,.38,1.2,2,2,0,0,1-.82,1.72A3.63,3.63,0,0,1,131.37,26.39Z"/><path class="cls-1" d="M71.06,137v25.17H21.65V137H71.06m3-3H18.65v31.17H74.06V134Z"/><rect class="cls-2" x="18.65" y="159.25" width="55.41" height="5.9"/><rect class="cls-2" x="18.65" y="133.98" width="55.41" height="5.9"/><path class="cls-1" d="M71.06,66.21V91.38H21.65V66.21H71.06m3-3H18.65V94.38H74.06V63.21Z"/><rect class="cls-2" x="18.65" y="63.21" width="8.53" height="31.17"/><rect class="cls-2" x="65.53" y="63.21" width="8.53" height="31.17"/><path class="cls-1" d="M86.13,64.79V54.29h3.05l2.29,9.42h.24L94,54.29h3v10.5H95.48V55.43h-.24L93,64.79H90.23L88,55.43h-.24v9.36Z"/><path class="cls-1" d="M102.75,65a4.18,4.18,0,0,1-2-.45,3.39,3.39,0,0,1-1.36-1.32,4,4,0,0,1-.49-2V61a3.89,3.89,0,0,1,.49-2,3.39,3.39,0,0,1,1.36-1.32,4.06,4.06,0,0,1,2-.46,4.13,4.13,0,0,1,2,.46A3.41,3.41,0,0,1,106.1,59a3.89,3.89,0,0,1,.49,2v.23a4,4,0,0,1-.49,2,3.41,3.41,0,0,1-1.37,1.32A4.25,4.25,0,0,1,102.75,65Zm0-1.38a2.21,2.21,0,0,0,1.66-.65,2.5,2.5,0,0,0,.64-1.81V61a2.51,2.51,0,0,0-.63-1.81,2.24,2.24,0,0,0-1.67-.65,2.2,2.2,0,0,0-1.64.65,2.47,2.47,0,0,0-.64,1.81v.13a2.46,2.46,0,0,0,.64,1.81A2.16,2.16,0,0,0,102.75,63.62Z"/><path class="cls-1" d="M110,64.79l-2.49-7.39h1.63l2,6.25h.24l2-6.25h1.64l-2.49,7.39Z"/><path class="cls-1" d="M119.55,65a3.87,3.87,0,0,1-2-.47,3.38,3.38,0,0,1-1.32-1.33,4.2,4.2,0,0,1-.47-2V61a4.15,4.15,0,0,1,.47-2,3.33,3.33,0,0,1,1.29-1.34,3.91,3.91,0,0,1,1.93-.47,3.68,3.68,0,0,1,1.87.47A3.35,3.35,0,0,1,122.61,59a4.12,4.12,0,0,1,.45,2v.58h-5.68a2.11,2.11,0,0,0,.65,1.56,2.2,2.2,0,0,0,1.55.57,1.92,1.92,0,0,0,1.31-.39,2.71,2.71,0,0,0,.69-.9l1.27.66a4.3,4.3,0,0,1-.61.89,3.12,3.12,0,0,1-1,.78A3.77,3.77,0,0,1,119.55,65Zm-2.16-4.66h4.1a1.82,1.82,0,0,0-.6-1.31,2,2,0,0,0-1.41-.48,2.07,2.07,0,0,0-1.42.48A2,2,0,0,0,117.39,60.34Z"/><path class="cls-1" d="M131.52,64.79a1.42,1.42,0,0,1-1.07-.4,1.46,1.46,0,0,1-.4-1.08V58.7h-2V57.4h2V55h1.55V57.4h2.2v1.3h-2.2V63q0,.45.42.45h1.54v1.3Z"/><path class="cls-1" d="M135.62,64.79V54.29h1.54v4.16h.24a2.1,2.1,0,0,1,1.16-1,3.53,3.53,0,0,1,1.17-.17,2.94,2.94,0,0,1,1.49.37,2.76,2.76,0,0,1,1,1.06,3.37,3.37,0,0,1,.37,1.64v4.44h-1.54V60.47a1.85,1.85,0,0,0-.48-1.41,1.81,1.81,0,0,0-1.32-.46,2,2,0,0,0-1.54.63,2.59,2.59,0,0,0-.58,1.83v3.73Z"/><path class="cls-1" d="M148.23,65a3.87,3.87,0,0,1-2-.47A3.38,3.38,0,0,1,145,63.2a4.2,4.2,0,0,1-.47-2V61a4.15,4.15,0,0,1,.47-2,3.33,3.33,0,0,1,1.29-1.34,3.91,3.91,0,0,1,1.93-.47,3.68,3.68,0,0,1,1.87.47A3.35,3.35,0,0,1,151.29,59a4.12,4.12,0,0,1,.45,2v.58h-5.68a2.11,2.11,0,0,0,.65,1.56,2.2,2.2,0,0,0,1.55.57,1.92,1.92,0,0,0,1.31-.39,2.71,2.71,0,0,0,.69-.9l1.27.66a4.3,4.3,0,0,1-.61.89,3.12,3.12,0,0,1-1,.78A3.77,3.77,0,0,1,148.23,65Zm-2.16-4.66h4.1a1.82,1.82,0,0,0-.6-1.31,2,2,0,0,0-1.41-.48,2.07,2.07,0,0,0-1.42.48A2,2,0,0,0,146.07,60.34Z"/><path class="cls-1" d="M157.43,64.79V57.4h1.51v.87h.24a1.94,1.94,0,0,1,.68-.69,2.3,2.3,0,0,1,1.26-.3,2.27,2.27,0,0,1,1.32.34,2.1,2.1,0,0,1,.76.86h.24a2.35,2.35,0,0,1,.74-.86,2.4,2.4,0,0,1,1.39-.34,2.77,2.77,0,0,1,1.28.29,2.23,2.23,0,0,1,.88.87,2.85,2.85,0,0,1,.33,1.43v4.92h-1.54V60a1.29,1.29,0,0,0-1.41-1.41,1.52,1.52,0,0,0-1.16.47,1.87,1.87,0,0,0-.43,1.33v4.41H162V60a1.39,1.39,0,0,0-.37-1,1.42,1.42,0,0,0-1-.37,1.5,1.5,0,0,0-1.15.47,1.87,1.87,0,0,0-.44,1.33v4.41Z"/><path class="cls-1" d="M173.75,65a4.25,4.25,0,0,1-2-.45,3.43,3.43,0,0,1-1.35-1.32,4,4,0,0,1-.5-2V61a3.89,3.89,0,0,1,.5-2,3.43,3.43,0,0,1,1.35-1.32,4.49,4.49,0,0,1,4,0A3.39,3.39,0,0,1,177.09,59a3.89,3.89,0,0,1,.5,2v.23a4,4,0,0,1-.5,2,3.39,3.39,0,0,1-1.36,1.32A4.25,4.25,0,0,1,173.75,65Zm0-1.38A2.17,2.17,0,0,0,175.4,63a2.46,2.46,0,0,0,.64-1.81V61a2.51,2.51,0,0,0-.63-1.81,2.21,2.21,0,0,0-1.66-.65,2.24,2.24,0,0,0-1.65.65,2.51,2.51,0,0,0-.63,1.81v.13A2.49,2.49,0,0,0,172.1,63,2.2,2.2,0,0,0,173.75,63.62Z"/><path class="cls-1" d="M182.34,64.93a3,3,0,0,1-1.5-.38,2.57,2.57,0,0,1-1-1.06,3.3,3.3,0,0,1-.38-1.65V57.4H181v4.33a1.65,1.65,0,0,0,1.81,1.88,1.93,1.93,0,0,0,1.52-.64,2.62,2.62,0,0,0,.58-1.84V57.4h1.55v7.39h-1.52V63.68h-.24a2.26,2.26,0,0,1-.75.85A2.63,2.63,0,0,1,182.34,64.93Z"/><path class="cls-1" d="M191.75,65a4.06,4.06,0,0,1-2.34-.63,2.7,2.7,0,0,1-1.14-1.9l1.44-.35a2.27,2.27,0,0,0,.4,1,1.56,1.56,0,0,0,.71.51,2.83,2.83,0,0,0,.93.15,1.92,1.92,0,0,0,1.13-.29.87.87,0,0,0,.4-.73.71.71,0,0,0-.38-.66,3.72,3.72,0,0,0-1.11-.35l-.51-.09a6.57,6.57,0,0,1-1.36-.39,2.4,2.4,0,0,1-1-.7,1.81,1.81,0,0,1-.36-1.16,1.89,1.89,0,0,1,.78-1.62,3.37,3.37,0,0,1,2.07-.58,3.54,3.54,0,0,1,2,.56,2.59,2.59,0,0,1,1,1.52l-1.44.41a1.37,1.37,0,0,0-.57-1,1.93,1.93,0,0,0-1.08-.28,1.86,1.86,0,0,0-1,.23.74.74,0,0,0-.36.65.72.72,0,0,0,.35.66,2.93,2.93,0,0,0,.95.32l.53.09a8.41,8.41,0,0,1,1.46.37,2.5,2.5,0,0,1,1,.69,1.82,1.82,0,0,1,.38,1.2,2.06,2.06,0,0,1-.82,1.73A3.63,3.63,0,0,1,191.75,65Z"/><path class="cls-1" d="M200,65a3.87,3.87,0,0,1-2-.47,3.38,3.38,0,0,1-1.32-1.33,4.2,4.2,0,0,1-.47-2V61a4,4,0,0,1,.47-2A3.33,3.33,0,0,1,198,57.66a3.91,3.91,0,0,1,1.93-.47,3.68,3.68,0,0,1,1.87.47A3.35,3.35,0,0,1,203,59a4.12,4.12,0,0,1,.45,2v.58h-5.68a2.11,2.11,0,0,0,.65,1.56,2.2,2.2,0,0,0,1.55.57,1.92,1.92,0,0,0,1.31-.39,2.85,2.85,0,0,0,.69-.9l1.27.66a4.3,4.3,0,0,1-.61.89,3.12,3.12,0,0,1-1,.78A3.77,3.77,0,0,1,200,65Zm-2.16-4.66h4.1a1.82,1.82,0,0,0-.6-1.31,2,2,0,0,0-1.41-.48,2.07,2.07,0,0,0-1.42.48A2,2,0,0,0,197.82,60.34Z"/><path class="cls-1" d="M212,64.79a1.42,1.42,0,0,1-1.07-.4,1.46,1.46,0,0,1-.4-1.08V58.7h-2V57.4h2V55H212V57.4h2.2v1.3H212V63q0,.45.42.45H214v1.3Z"/><path class="cls-1" d="M219.24,65a4.18,4.18,0,0,1-2-.45,3.39,3.39,0,0,1-1.36-1.32,4,4,0,0,1-.49-2V61a3.89,3.89,0,0,1,.49-2,3.39,3.39,0,0,1,1.36-1.32,4.06,4.06,0,0,1,2-.46,4.13,4.13,0,0,1,2,.46A3.41,3.41,0,0,1,222.59,59a3.89,3.89,0,0,1,.49,2v.23a4,4,0,0,1-.49,2,3.41,3.41,0,0,1-1.37,1.32A4.25,4.25,0,0,1,219.24,65Zm0-1.38A2.21,2.21,0,0,0,220.9,63a2.5,2.5,0,0,0,.64-1.81V61a2.47,2.47,0,0,0-.64-1.81,2.42,2.42,0,0,0-3.3,0A2.47,2.47,0,0,0,217,61v.13A2.46,2.46,0,0,0,217.6,63,2.16,2.16,0,0,0,219.24,63.62Z"/><path class="cls-1" d="M231.6,64.79a1.42,1.42,0,0,1-1.07-.4,1.46,1.46,0,0,1-.4-1.08V58.7h-2V57.4h2V55h1.55V57.4h2.2v1.3h-2.2V63c0,.3.13.45.41.45h1.55v1.3Z"/><path class="cls-1" d="M235.69,64.79V54.29h1.55v4.16h.24a2.1,2.1,0,0,1,1.16-1,3.51,3.51,0,0,1,1.16-.17,3,3,0,0,1,1.5.37,2.74,2.74,0,0,1,1,1.06,3.37,3.37,0,0,1,.38,1.64v4.44h-1.55V60.47a1.89,1.89,0,0,0-.47-1.41,1.84,1.84,0,0,0-1.33-.46,2,2,0,0,0-1.53.63,2.59,2.59,0,0,0-.58,1.83v3.73Z"/><path class="cls-1" d="M248.31,65a3.91,3.91,0,0,1-2-.47A3.35,3.35,0,0,1,245,63.2a4.2,4.2,0,0,1-.47-2V61a4.14,4.14,0,0,1,.46-2,3.35,3.35,0,0,1,1.3-1.34,3.91,3.91,0,0,1,1.93-.47,3.68,3.68,0,0,1,1.87.47A3.35,3.35,0,0,1,251.37,59a4.12,4.12,0,0,1,.45,2v.58h-5.69a2.12,2.12,0,0,0,.66,1.56,2.2,2.2,0,0,0,1.55.57,1.92,1.92,0,0,0,1.31-.39,2.68,2.68,0,0,0,.68-.9l1.28.66a4.3,4.3,0,0,1-.61.89,3.12,3.12,0,0,1-1,.78A3.77,3.77,0,0,1,248.31,65Zm-2.16-4.66h4.09a1.82,1.82,0,0,0-.6-1.31,2.31,2.31,0,0,0-2.82,0A2,2,0,0,0,246.15,60.34Z"/><path class="cls-1" d="M86.18,82.79V72.29h1.54v4.16H88a2.1,2.1,0,0,1,1.16-1,3.53,3.53,0,0,1,1.17-.17,2.94,2.94,0,0,1,1.49.37,2.69,2.69,0,0,1,1,1.06,3.37,3.37,0,0,1,.37,1.64v4.44H91.64V78.47a1.85,1.85,0,0,0-.48-1.41,1.81,1.81,0,0,0-1.32-.46,2,2,0,0,0-1.54.63,2.59,2.59,0,0,0-.58,1.83v3.73Z"/><path class="cls-1" d="M98.87,83a4.25,4.25,0,0,1-2-.45,3.43,3.43,0,0,1-1.35-1.32,4,4,0,0,1-.5-2V79a3.89,3.89,0,0,1,.5-2,3.43,3.43,0,0,1,1.35-1.32,4.49,4.49,0,0,1,4,0A3.39,3.39,0,0,1,102.21,77a3.89,3.89,0,0,1,.5,2v.23a4,4,0,0,1-.5,2,3.39,3.39,0,0,1-1.36,1.32A4.25,4.25,0,0,1,98.87,83Zm0-1.38a2.17,2.17,0,0,0,1.65-.65,2.46,2.46,0,0,0,.64-1.81V79a2.51,2.51,0,0,0-.63-1.81,2.21,2.21,0,0,0-1.66-.65,2.24,2.24,0,0,0-1.65.65A2.51,2.51,0,0,0,96.59,79v.13A2.49,2.49,0,0,0,97.22,81,2.2,2.2,0,0,0,98.87,81.62Z"/><path class="cls-1" d="M104.63,82.79V75.4h1.51v.87h.24a1.23,1.23,0,0,1,.58-.68,2,2,0,0,1,1-.22h.89v1.39h-1a1.8,1.8,0,0,0-1.23.42,1.56,1.56,0,0,0-.48,1.26v4.35Z"/><path class="cls-1" d="M111.21,74.39a1,1,0,0,1-.76-.29,1,1,0,0,1-.3-.76,1,1,0,0,1,.3-.75,1.13,1.13,0,0,1,1.53,0,1,1,0,0,1,.3.75,1,1,0,0,1-.3.76A1,1,0,0,1,111.21,74.39Zm-.78,8.4V75.4H112v7.39Z"/><path class="cls-1" d="M114,82.79V80.9l4.37-4V76.7h-4.22V75.4H120v1.9l-4.38,4v.2h4.5v1.3Z"/><path class="cls-1" d="M125.31,83a4.18,4.18,0,0,1-2-.45A3.39,3.39,0,0,1,122,81.23a4,4,0,0,1-.49-2V79a3.89,3.89,0,0,1,.49-2,3.39,3.39,0,0,1,1.36-1.32,4.06,4.06,0,0,1,2-.46,4.13,4.13,0,0,1,2,.46A3.41,3.41,0,0,1,128.66,77a3.89,3.89,0,0,1,.49,2v.23a4,4,0,0,1-.49,2,3.41,3.41,0,0,1-1.37,1.32A4.25,4.25,0,0,1,125.31,83Zm0-1.38A2.21,2.21,0,0,0,127,81a2.5,2.5,0,0,0,.64-1.81V79a2.51,2.51,0,0,0-.63-1.81,2.24,2.24,0,0,0-1.67-.65,2.2,2.2,0,0,0-1.64.65A2.47,2.47,0,0,0,123,79v.13a2.46,2.46,0,0,0,.64,1.81A2.16,2.16,0,0,0,125.31,81.62Z"/><path class="cls-1" d="M131.07,82.79V75.4h1.52v1.11h.24a2.24,2.24,0,0,1,.75-.84,2.72,2.72,0,0,1,1.6-.39,2.92,2.92,0,0,1,1.49.37,2.69,2.69,0,0,1,1,1.06,3.37,3.37,0,0,1,.38,1.64v4.44h-1.55V78.47a1.85,1.85,0,0,0-.48-1.41,1.81,1.81,0,0,0-1.32-.46,2,2,0,0,0-1.54.63,2.64,2.64,0,0,0-.57,1.83v3.73Z"/><path class="cls-1" d="M142.86,82.79a1.42,1.42,0,0,1-1.07-.4,1.46,1.46,0,0,1-.4-1.08V76.7h-2V75.4h2V73h1.55V75.4h2.2v1.3h-2.2V81q0,.45.42.45h1.54v1.3Z"/><path class="cls-1" d="M149.24,83a3.53,3.53,0,0,1-1.42-.27,2.23,2.23,0,0,1-1-.79,2.15,2.15,0,0,1-.37-1.28,2,2,0,0,1,.37-1.26,2.2,2.2,0,0,1,1-.76,3.9,3.9,0,0,1,1.45-.26h2.25V77.9a1.39,1.39,0,0,0-.39-1,1.63,1.63,0,0,0-1.2-.39,1.75,1.75,0,0,0-1.21.37,1.82,1.82,0,0,0-.56,1l-1.44-.47a3,3,0,0,1,.58-1.08,2.79,2.79,0,0,1,1.06-.79,3.82,3.82,0,0,1,1.59-.3,3.27,3.27,0,0,1,2.26.73,2.66,2.66,0,0,1,.83,2.09v3q0,.45.42.45h.63v1.29h-1.16a1.29,1.29,0,0,1-.85-.27.89.89,0,0,1-.33-.73v-.05h-.23a3.56,3.56,0,0,1-.36.53,2,2,0,0,1-.7.52A3,3,0,0,1,149.24,83Zm.22-1.27a2.13,2.13,0,0,0,1.5-.53,1.93,1.93,0,0,0,.57-1.47v-.15h-2.16a1.66,1.66,0,0,0-1,.27.87.87,0,0,0-.37.77,1,1,0,0,0,.39.81A1.69,1.69,0,0,0,149.46,81.73Z"/><path class="cls-1" d="M155.6,82.79V72.29h1.54v10.5Z"/><path class="cls-1" d="M167.54,83a3,3,0,0,1-1.66-.39,2.73,2.73,0,0,1-.86-.87h-.24v1.05h-1.52V72.29h1.55V76.4h.24a2.51,2.51,0,0,1,.48-.57,2.23,2.23,0,0,1,.79-.46,3.61,3.61,0,0,1,1.22-.18,3.36,3.36,0,0,1,1.71.45,3.24,3.24,0,0,1,1.24,1.3,4.21,4.21,0,0,1,.47,2v.23a4.12,4.12,0,0,1-.48,2.05A3.29,3.29,0,0,1,167.54,83Zm-.45-1.35a2.23,2.23,0,0,0,1.65-.64,2.48,2.48,0,0,0,.66-1.85V79a2.48,2.48,0,0,0-.65-1.83,2.25,2.25,0,0,0-1.66-.65,2.27,2.27,0,0,0-1.65.65,2.48,2.48,0,0,0-.65,1.83v.13a2.51,2.51,0,0,0,.65,1.85A2.26,2.26,0,0,0,167.09,81.65Z"/><path class="cls-1" d="M176.34,83a4.18,4.18,0,0,1-2-.45A3.39,3.39,0,0,1,173,81.23a4,4,0,0,1-.49-2V79a3.89,3.89,0,0,1,.49-2,3.39,3.39,0,0,1,1.36-1.32,4.06,4.06,0,0,1,2-.46,4.13,4.13,0,0,1,2,.46A3.41,3.41,0,0,1,179.69,77a3.89,3.89,0,0,1,.49,2v.23a4,4,0,0,1-.49,2,3.41,3.41,0,0,1-1.37,1.32A4.25,4.25,0,0,1,176.34,83Zm0-1.38A2.21,2.21,0,0,0,178,81a2.5,2.5,0,0,0,.64-1.81V79a2.51,2.51,0,0,0-.63-1.81,2.24,2.24,0,0,0-1.67-.65,2.2,2.2,0,0,0-1.64.65,2.47,2.47,0,0,0-.64,1.81v.13A2.46,2.46,0,0,0,174.7,81,2.16,2.16,0,0,0,176.34,81.62Z"/><path class="cls-1" d="M182.1,82.79V75.4h1.52v.87h.24a1.25,1.25,0,0,1,.57-.68,2,2,0,0,1,1-.22h.88v1.39h-.94a1.8,1.8,0,0,0-1.23.42,1.56,1.56,0,0,0-.48,1.26v4.35Z"/><path class="cls-1" d="M190.7,83a3.35,3.35,0,0,1-1.7-.45,3.3,3.3,0,0,1-1.25-1.29,4.11,4.11,0,0,1-.47-2.05V79a4.21,4.21,0,0,1,.46-2,3.26,3.26,0,0,1,1.25-1.3,3.36,3.36,0,0,1,1.71-.45,3.45,3.45,0,0,1,1.2.18,2.42,2.42,0,0,1,.81.46,2.08,2.08,0,0,1,.48.57h.24V72.29H195v10.5h-1.51V81.74h-.24a2.77,2.77,0,0,1-.87.87A2.92,2.92,0,0,1,190.7,83Zm.43-1.35a2.27,2.27,0,0,0,1.66-.64,2.51,2.51,0,0,0,.65-1.85V79a2.47,2.47,0,0,0-.64-1.83,2.27,2.27,0,0,0-1.67-.65,2.23,2.23,0,0,0-1.64.65,2.44,2.44,0,0,0-.65,1.83v.13a2.47,2.47,0,0,0,.65,1.85A2.22,2.22,0,0,0,191.13,81.65Z"/><path class="cls-1" d="M200.64,83a3.87,3.87,0,0,1-2-.47,3.38,3.38,0,0,1-1.32-1.33,4.2,4.2,0,0,1-.47-2V79a4.15,4.15,0,0,1,.47-2,3.33,3.33,0,0,1,1.29-1.34,3.91,3.91,0,0,1,1.93-.47,3.68,3.68,0,0,1,1.87.47A3.35,3.35,0,0,1,203.7,77a4.12,4.12,0,0,1,.45,2v.58h-5.68a2.11,2.11,0,0,0,.65,1.56,2.2,2.2,0,0,0,1.55.57,1.92,1.92,0,0,0,1.31-.39,2.71,2.71,0,0,0,.69-.9l1.27.66a4.3,4.3,0,0,1-.61.89,3.12,3.12,0,0,1-1,.78A3.77,3.77,0,0,1,200.64,83Zm-2.16-4.66h4.1A1.82,1.82,0,0,0,202,77a2,2,0,0,0-1.41-.48,2.07,2.07,0,0,0-1.42.48A2,2,0,0,0,198.48,78.34Z"/><path class="cls-1" d="M206,82.79V75.4h1.52v.87h.24a1.25,1.25,0,0,1,.57-.68,2,2,0,0,1,1-.22h.88v1.39h-.94a1.8,1.8,0,0,0-1.23.42,1.56,1.56,0,0,0-.48,1.26v4.35Z"/><path class="cls-1" d="M214.68,83a4.08,4.08,0,0,1-2.34-.63,2.7,2.7,0,0,1-1.14-1.9l1.44-.35a2.27,2.27,0,0,0,.41,1,1.51,1.51,0,0,0,.71.51,2.73,2.73,0,0,0,.92.15,1.9,1.9,0,0,0,1.13-.29.85.85,0,0,0,.4-.73.7.7,0,0,0-.37-.66,3.72,3.72,0,0,0-1.11-.35l-.51-.09a6.67,6.67,0,0,1-1.37-.39,2.36,2.36,0,0,1-1-.7,1.81,1.81,0,0,1-.36-1.16,1.89,1.89,0,0,1,.78-1.62,3.37,3.37,0,0,1,2.07-.58,3.49,3.49,0,0,1,2,.56,2.56,2.56,0,0,1,1.05,1.52l-1.44.41a1.37,1.37,0,0,0-.57-1,1.93,1.93,0,0,0-1.08-.28,1.86,1.86,0,0,0-1,.23.74.74,0,0,0-.36.65.7.7,0,0,0,.35.66,2.77,2.77,0,0,0,.95.32l.53.09a8.29,8.29,0,0,1,1.45.37,2.38,2.38,0,0,1,1,.69,1.77,1.77,0,0,1,.39,1.2,2,2,0,0,1-.83,1.73A3.63,3.63,0,0,1,214.68,83Z"/><path class="cls-1" d="M226.13,82.79a1.46,1.46,0,0,1-1.08-.4,1.49,1.49,0,0,1-.39-1.08V76.7h-2V75.4h2V73h1.54V75.4h2.21v1.3H226.2V81q0,.45.42.45h1.55v1.3Z"/><path class="cls-1" d="M233.42,83a4.25,4.25,0,0,1-2-.45,3.43,3.43,0,0,1-1.35-1.32,4,4,0,0,1-.5-2V79a3.89,3.89,0,0,1,.5-2,3.43,3.43,0,0,1,1.35-1.32,4.49,4.49,0,0,1,4,0A3.39,3.39,0,0,1,236.76,77a3.89,3.89,0,0,1,.5,2v.23a4,4,0,0,1-.5,2,3.39,3.39,0,0,1-1.36,1.32A4.25,4.25,0,0,1,233.42,83Zm0-1.38a2.17,2.17,0,0,0,1.65-.65,2.46,2.46,0,0,0,.64-1.81V79a2.51,2.51,0,0,0-.63-1.81,2.21,2.21,0,0,0-1.66-.65,2.24,2.24,0,0,0-1.65.65,2.51,2.51,0,0,0-.63,1.81v.13a2.49,2.49,0,0,0,.63,1.81A2.2,2.2,0,0,0,233.42,81.62Z"/><path class="cls-1" d="M89,100.79a1.42,1.42,0,0,1-1.07-.4,1.46,1.46,0,0,1-.4-1.08V94.7h-2V93.4h2V91H89V93.4h2.2v1.3H89V99q0,.45.42.45H91v1.3Z"/><path class="cls-1" d="M95.88,100.93a3,3,0,0,1-1.5-.38,2.63,2.63,0,0,1-1-1.06A3.41,3.41,0,0,1,93,97.84V93.4h1.55v4.33A1.87,1.87,0,0,0,95,99.15a1.82,1.82,0,0,0,1.33.46A1.93,1.93,0,0,0,97.85,99a2.62,2.62,0,0,0,.58-1.84V93.4H100v7.39H98.46V99.68h-.24a2.26,2.26,0,0,1-.75.85A2.63,2.63,0,0,1,95.88,100.93Z"/><path class="cls-1" d="M102.26,100.79V93.4h1.51v.87H104a1.23,1.23,0,0,1,.58-.68,2,2,0,0,1,1-.22h.89v1.39h-.95a1.8,1.8,0,0,0-1.23.42,1.56,1.56,0,0,0-.48,1.26v4.35Z"/><path class="cls-1" d="M108.06,100.79V93.4h1.52v1.11h.24a2.24,2.24,0,0,1,.75-.84,2.72,2.72,0,0,1,1.6-.39,2.92,2.92,0,0,1,1.49.37,2.69,2.69,0,0,1,1,1.06,3.37,3.37,0,0,1,.38,1.64v4.44h-1.55V96.47a1.85,1.85,0,0,0-.48-1.41,1.81,1.81,0,0,0-1.32-.46,2,2,0,0,0-1.54.63,2.64,2.64,0,0,0-.57,1.83v3.73Z"/><path class="cls-1" d="M86.13,134.74v-10.5h3.05l2.29,9.42h.24l2.3-9.42h3v10.5H95.48v-9.36h-.24L93,134.74H90.23L88,125.38h-.24v9.36Z"/><path class="cls-1" d="M102.75,135a4.18,4.18,0,0,1-2-.45,3.39,3.39,0,0,1-1.36-1.32,4,4,0,0,1-.49-2v-.23a3.89,3.89,0,0,1,.49-2,3.39,3.39,0,0,1,1.36-1.32,4.06,4.06,0,0,1,2-.46,4.13,4.13,0,0,1,2,.46,3.41,3.41,0,0,1,1.37,1.32,3.89,3.89,0,0,1,.49,2v.23a4,4,0,0,1-.49,2,3.41,3.41,0,0,1-1.37,1.32A4.25,4.25,0,0,1,102.75,135Zm0-1.38a2.21,2.21,0,0,0,1.66-.65,2.5,2.5,0,0,0,.64-1.81V131a2.51,2.51,0,0,0-.63-1.81,2.24,2.24,0,0,0-1.67-.65,2.2,2.2,0,0,0-1.64.65,2.47,2.47,0,0,0-.64,1.81v.13a2.46,2.46,0,0,0,.64,1.81A2.16,2.16,0,0,0,102.75,133.57Z"/><path class="cls-1" d="M110,134.74l-2.49-7.39h1.63l2,6.25h.24l2-6.25h1.64l-2.49,7.39Z"/><path class="cls-1" d="M119.55,135a3.87,3.87,0,0,1-2-.47,3.38,3.38,0,0,1-1.32-1.33,4.2,4.2,0,0,1-.47-2V131a4.15,4.15,0,0,1,.47-2,3.33,3.33,0,0,1,1.29-1.34,3.91,3.91,0,0,1,1.93-.47,3.68,3.68,0,0,1,1.87.47,3.35,3.35,0,0,1,1.25,1.31,4.12,4.12,0,0,1,.45,2v.58h-5.68A2.11,2.11,0,0,0,118,133a2.2,2.2,0,0,0,1.55.57,1.92,1.92,0,0,0,1.31-.39,2.71,2.71,0,0,0,.69-.9l1.27.66a4.3,4.3,0,0,1-.61.89,3.12,3.12,0,0,1-1,.78A3.77,3.77,0,0,1,119.55,135Zm-2.16-4.66h4.1a1.82,1.82,0,0,0-.6-1.31,2,2,0,0,0-1.41-.48,2.07,2.07,0,0,0-1.42.48A2,2,0,0,0,117.39,130.29Z"/><path class="cls-1" d="M131.52,134.74a1.42,1.42,0,0,1-1.07-.4,1.46,1.46,0,0,1-.4-1.08v-4.61h-2v-1.3h2V124.9h1.55v2.45h2.2v1.3h-2.2V133q0,.45.42.45h1.54v1.3Z"/><path class="cls-1" d="M135.62,134.74v-10.5h1.54v4.16h.24a2.1,2.1,0,0,1,1.16-1,3.53,3.53,0,0,1,1.17-.17,2.94,2.94,0,0,1,1.49.37,2.76,2.76,0,0,1,1,1.06,3.37,3.37,0,0,1,.37,1.64v4.44h-1.54v-4.32a1.85,1.85,0,0,0-.48-1.41,1.81,1.81,0,0,0-1.32-.46,2,2,0,0,0-1.54.63,2.59,2.59,0,0,0-.58,1.83v3.73Z"/><path class="cls-1" d="M148.23,135a3.87,3.87,0,0,1-2-.47,3.38,3.38,0,0,1-1.32-1.33,4.2,4.2,0,0,1-.47-2V131a4.15,4.15,0,0,1,.47-2,3.33,3.33,0,0,1,1.29-1.34,3.91,3.91,0,0,1,1.93-.47,3.68,3.68,0,0,1,1.87.47,3.35,3.35,0,0,1,1.25,1.31,4.12,4.12,0,0,1,.45,2v.58h-5.68a2.11,2.11,0,0,0,.65,1.56,2.2,2.2,0,0,0,1.55.57,1.92,1.92,0,0,0,1.31-.39,2.71,2.71,0,0,0,.69-.9l1.27.66a4.3,4.3,0,0,1-.61.89,3.12,3.12,0,0,1-1,.78A3.77,3.77,0,0,1,148.23,135Zm-2.16-4.66h4.1a1.82,1.82,0,0,0-.6-1.31,2,2,0,0,0-1.41-.48,2.07,2.07,0,0,0-1.42.48A2,2,0,0,0,146.07,130.29Z"/><path class="cls-1" d="M157.43,134.74v-7.39h1.51v.87h.24a1.94,1.94,0,0,1,.68-.69,2.3,2.3,0,0,1,1.26-.3,2.27,2.27,0,0,1,1.32.34,2.1,2.1,0,0,1,.76.86h.24a2.35,2.35,0,0,1,.74-.86,2.4,2.4,0,0,1,1.39-.34,2.77,2.77,0,0,1,1.28.29,2.23,2.23,0,0,1,.88.87,2.85,2.85,0,0,1,.33,1.43v4.92h-1.54v-4.8a1.29,1.29,0,0,0-1.41-1.41A1.52,1.52,0,0,0,164,129a1.87,1.87,0,0,0-.43,1.33v4.41H162v-4.8a1.39,1.39,0,0,0-.37-1,1.42,1.42,0,0,0-1-.37,1.5,1.5,0,0,0-1.15.47,1.87,1.87,0,0,0-.44,1.33v4.41Z"/><path class="cls-1" d="M173.75,135a4.25,4.25,0,0,1-2-.45,3.43,3.43,0,0,1-1.35-1.32,4,4,0,0,1-.5-2v-.23a3.89,3.89,0,0,1,.5-2,3.43,3.43,0,0,1,1.35-1.32,4.49,4.49,0,0,1,4,0,3.39,3.39,0,0,1,1.36,1.32,3.89,3.89,0,0,1,.5,2v.23a4,4,0,0,1-.5,2,3.39,3.39,0,0,1-1.36,1.32A4.25,4.25,0,0,1,173.75,135Zm0-1.38a2.17,2.17,0,0,0,1.65-.65,2.46,2.46,0,0,0,.64-1.81V131a2.51,2.51,0,0,0-.63-1.81,2.21,2.21,0,0,0-1.66-.65,2.24,2.24,0,0,0-1.65.65,2.51,2.51,0,0,0-.63,1.81v.13a2.49,2.49,0,0,0,.63,1.81A2.2,2.2,0,0,0,173.75,133.57Z"/><path class="cls-1" d="M182.34,134.88a3,3,0,0,1-1.5-.38,2.57,2.57,0,0,1-1-1.06,3.3,3.3,0,0,1-.38-1.65v-4.44H181v4.33a1.65,1.65,0,0,0,1.81,1.88,1.93,1.93,0,0,0,1.52-.64,2.62,2.62,0,0,0,.58-1.84v-3.73h1.55v7.39h-1.52v-1.11h-.24a2.26,2.26,0,0,1-.75.85A2.63,2.63,0,0,1,182.34,134.88Z"/><path class="cls-1" d="M191.75,135a4.06,4.06,0,0,1-2.34-.63,2.7,2.7,0,0,1-1.14-1.9l1.44-.35a2.27,2.27,0,0,0,.4,1,1.56,1.56,0,0,0,.71.51,2.83,2.83,0,0,0,.93.15,1.92,1.92,0,0,0,1.13-.29.87.87,0,0,0,.4-.73.71.71,0,0,0-.38-.66,3.72,3.72,0,0,0-1.11-.35l-.51-.09a6.57,6.57,0,0,1-1.36-.39,2.4,2.4,0,0,1-1-.7,1.81,1.81,0,0,1-.36-1.16,1.89,1.89,0,0,1,.78-1.62,3.37,3.37,0,0,1,2.07-.58,3.54,3.54,0,0,1,2,.56,2.59,2.59,0,0,1,1,1.52l-1.44.41a1.37,1.37,0,0,0-.57-.95,1.93,1.93,0,0,0-1.08-.28,1.86,1.86,0,0,0-1,.23.74.74,0,0,0-.36.65.72.72,0,0,0,.35.66,2.93,2.93,0,0,0,.95.32l.53.09a8.41,8.41,0,0,1,1.46.37,2.5,2.5,0,0,1,1,.69,1.82,1.82,0,0,1,.38,1.2,2.06,2.06,0,0,1-.82,1.73A3.63,3.63,0,0,1,191.75,135Z"/><path class="cls-1" d="M200,135a3.87,3.87,0,0,1-2-.47,3.38,3.38,0,0,1-1.32-1.33,4.2,4.2,0,0,1-.47-2V131a4,4,0,0,1,.47-2,3.33,3.33,0,0,1,1.29-1.34,3.91,3.91,0,0,1,1.93-.47,3.68,3.68,0,0,1,1.87.47,3.35,3.35,0,0,1,1.25,1.31,4.12,4.12,0,0,1,.45,2v.58h-5.68a2.11,2.11,0,0,0,.65,1.56,2.2,2.2,0,0,0,1.55.57,1.92,1.92,0,0,0,1.31-.39,2.85,2.85,0,0,0,.69-.9l1.27.66a4.3,4.3,0,0,1-.61.89,3.12,3.12,0,0,1-1,.78A3.77,3.77,0,0,1,200,135Zm-2.16-4.66h4.1a1.82,1.82,0,0,0-.6-1.31,2,2,0,0,0-1.41-.48,2.07,2.07,0,0,0-1.42.48A2,2,0,0,0,197.82,130.29Z"/><path class="cls-1" d="M212,134.74a1.42,1.42,0,0,1-1.07-.4,1.46,1.46,0,0,1-.4-1.08v-4.61h-2v-1.3h2V124.9H212v2.45h2.2v1.3H212V133q0,.45.42.45H214v1.3Z"/><path class="cls-1" d="M219.24,135a4.18,4.18,0,0,1-2-.45,3.39,3.39,0,0,1-1.36-1.32,4,4,0,0,1-.49-2v-.23a3.89,3.89,0,0,1,.49-2,3.39,3.39,0,0,1,1.36-1.32,4.06,4.06,0,0,1,2-.46,4.13,4.13,0,0,1,2,.46,3.41,3.41,0,0,1,1.37,1.32,3.89,3.89,0,0,1,.49,2v.23a4,4,0,0,1-.49,2,3.41,3.41,0,0,1-1.37,1.32A4.25,4.25,0,0,1,219.24,135Zm0-1.38a2.21,2.21,0,0,0,1.66-.65,2.5,2.5,0,0,0,.64-1.81V131a2.47,2.47,0,0,0-.64-1.81,2.42,2.42,0,0,0-3.3,0A2.47,2.47,0,0,0,217,131v.13a2.46,2.46,0,0,0,.64,1.81A2.16,2.16,0,0,0,219.24,133.57Z"/><path class="cls-1" d="M231.6,134.74a1.42,1.42,0,0,1-1.07-.4,1.46,1.46,0,0,1-.4-1.08v-4.61h-2v-1.3h2V124.9h1.55v2.45h2.2v1.3h-2.2V133c0,.3.13.45.41.45h1.55v1.3Z"/><path class="cls-1" d="M235.69,134.74v-10.5h1.55v4.16h.24a2.1,2.1,0,0,1,1.16-1,3.51,3.51,0,0,1,1.16-.17,3,3,0,0,1,1.5.37,2.74,2.74,0,0,1,1,1.06,3.37,3.37,0,0,1,.38,1.64v4.44h-1.55v-4.32a1.89,1.89,0,0,0-.47-1.41,1.84,1.84,0,0,0-1.33-.46,2,2,0,0,0-1.53.63,2.59,2.59,0,0,0-.58,1.83v3.73Z"/><path class="cls-1" d="M248.31,135a3.91,3.91,0,0,1-2-.47,3.35,3.35,0,0,1-1.31-1.33,4.2,4.2,0,0,1-.47-2V131a4.14,4.14,0,0,1,.46-2,3.35,3.35,0,0,1,1.3-1.34,3.91,3.91,0,0,1,1.93-.47,3.68,3.68,0,0,1,1.87.47,3.35,3.35,0,0,1,1.25,1.31,4.12,4.12,0,0,1,.45,2v.58h-5.69a2.12,2.12,0,0,0,.66,1.56,2.2,2.2,0,0,0,1.55.57,1.92,1.92,0,0,0,1.31-.39,2.68,2.68,0,0,0,.68-.9l1.28.66a4.3,4.3,0,0,1-.61.89,3.12,3.12,0,0,1-1,.78A3.77,3.77,0,0,1,248.31,135Zm-2.16-4.66h4.09a1.82,1.82,0,0,0-.6-1.31,2.31,2.31,0,0,0-2.82,0A2,2,0,0,0,246.15,130.29Z"/><path class="cls-1" d="M87.89,152.74l-2.49-7.39H87l2,6.25h.24l2-6.25h1.64l-2.49,7.39Z"/><path class="cls-1" d="M97.47,153a3.87,3.87,0,0,1-2-.47,3.38,3.38,0,0,1-1.32-1.33,4.2,4.2,0,0,1-.47-2V149a4.15,4.15,0,0,1,.47-2,3.33,3.33,0,0,1,1.29-1.34,3.91,3.91,0,0,1,1.93-.47,3.68,3.68,0,0,1,1.87.47,3.35,3.35,0,0,1,1.25,1.31,4.12,4.12,0,0,1,.45,2v.58H95.3A2.11,2.11,0,0,0,96,151a2.2,2.2,0,0,0,1.55.57,1.92,1.92,0,0,0,1.31-.39,2.71,2.71,0,0,0,.69-.9l1.27.66a4.3,4.3,0,0,1-.61.89,3.12,3.12,0,0,1-1,.78A3.77,3.77,0,0,1,97.47,153Zm-2.16-4.66h4.1a1.82,1.82,0,0,0-.6-1.31,2,2,0,0,0-1.41-.48A2.07,2.07,0,0,0,96,147,2,2,0,0,0,95.31,148.29Z"/><path class="cls-1" d="M102.84,152.74v-7.39h1.52v.87h.24a1.25,1.25,0,0,1,.57-.68,2,2,0,0,1,1-.22H107v1.39h-.94a1.8,1.8,0,0,0-1.23.42,1.56,1.56,0,0,0-.48,1.26v4.35Z"/><path class="cls-1" d="M111.42,152.74a1.42,1.42,0,0,1-1.07-.4,1.46,1.46,0,0,1-.4-1.08v-4.61h-2v-1.3h2V142.9h1.55v2.45h2.2v1.3h-2.2V151q0,.45.42.45h1.54v1.3Z"/><path class="cls-1" d="M116.3,144.34a1,1,0,0,1-.76-.29,1,1,0,0,1-.31-.76,1,1,0,0,1,.31-.75,1,1,0,0,1,.76-.3,1,1,0,0,1,.76.3,1,1,0,0,1,.3.75,1,1,0,0,1-1.06,1.05Zm-.78,8.4v-7.39h1.54v7.39Z"/><path class="cls-1" d="M122.79,153a4.13,4.13,0,0,1-1.93-.45,3.34,3.34,0,0,1-1.36-1.3,4,4,0,0,1-.5-2.06V149a3.92,3.92,0,0,1,.5-2,3.4,3.4,0,0,1,1.36-1.3,4,4,0,0,1,1.93-.46,3.91,3.91,0,0,1,1.82.39,3.26,3.26,0,0,1,1.2,1,3.42,3.42,0,0,1,.6,1.43l-1.5.31a2.48,2.48,0,0,0-.32-.9,1.72,1.72,0,0,0-.67-.64,2.27,2.27,0,0,0-1.1-.24,2.35,2.35,0,0,0-1.16.29,2.14,2.14,0,0,0-.82.84,2.75,2.75,0,0,0-.3,1.33v.13a2.79,2.79,0,0,0,.3,1.34,2,2,0,0,0,.82.84,2.34,2.34,0,0,0,1.16.28,2,2,0,0,0,1.49-.5,2.27,2.27,0,0,0,.64-1.28l1.5.34a3.92,3.92,0,0,1-.64,1.41,3.17,3.17,0,0,1-1.2,1A3.92,3.92,0,0,1,122.79,153Z"/><path class="cls-1" d="M130.53,153a3.56,3.56,0,0,1-1.42-.27,2.34,2.34,0,0,1-1-.79,2.22,2.22,0,0,1-.36-1.28,2.09,2.09,0,0,1,.36-1.26,2.23,2.23,0,0,1,1-.76,3.87,3.87,0,0,1,1.45-.26h2.25v-.48a1.39,1.39,0,0,0-.39-1,1.63,1.63,0,0,0-1.2-.39,1.78,1.78,0,0,0-1.22.37,1.8,1.8,0,0,0-.55,1l-1.44-.47a3.11,3.11,0,0,1,.57-1.08,2.87,2.87,0,0,1,1.06-.79,3.82,3.82,0,0,1,1.59-.3,3.3,3.3,0,0,1,2.27.73,2.65,2.65,0,0,1,.82,2.09v3q0,.45.42.45h.63v1.29h-1.15a1.32,1.32,0,0,1-.86-.27.89.89,0,0,1-.33-.73v-.05h-.22a3.56,3.56,0,0,1-.36.53,2,2,0,0,1-.71.52A3,3,0,0,1,130.53,153Zm.23-1.27a2.13,2.13,0,0,0,1.5-.53,1.93,1.93,0,0,0,.57-1.47v-.15h-2.16a1.66,1.66,0,0,0-1,.27.88.88,0,0,0-.38.77,1,1,0,0,0,.39.81A1.72,1.72,0,0,0,130.76,151.68Z"/><path class="cls-1" d="M136.89,152.74v-10.5h1.55v10.5Z"/><path class="cls-1" d="M148.83,153a3,3,0,0,1-1.66-.39,2.84,2.84,0,0,1-.86-.87h-.24v1.05h-1.51v-10.5h1.54v4.11h.24a2.51,2.51,0,0,1,.48-.57,2.28,2.28,0,0,1,.8-.46,3.55,3.55,0,0,1,1.21-.18,3.36,3.36,0,0,1,1.71.45,3.26,3.26,0,0,1,1.25,1.3,4.21,4.21,0,0,1,.46,2v.23a4.22,4.22,0,0,1-.47,2.05,3.37,3.37,0,0,1-1.25,1.29A3.3,3.3,0,0,1,148.83,153Zm-.45-1.35A2.27,2.27,0,0,0,150,151a2.51,2.51,0,0,0,.65-1.85V149a2.47,2.47,0,0,0-.64-1.83,2.27,2.27,0,0,0-1.67-.65,2.23,2.23,0,0,0-1.64.65,2.44,2.44,0,0,0-.65,1.83v.13a2.47,2.47,0,0,0,.65,1.85A2.22,2.22,0,0,0,148.38,151.6Z"/><path class="cls-1" d="M157.64,153a4.25,4.25,0,0,1-2-.45,3.43,3.43,0,0,1-1.35-1.32,4,4,0,0,1-.5-2v-.23a3.89,3.89,0,0,1,.5-2,3.43,3.43,0,0,1,1.35-1.32,4.49,4.49,0,0,1,4,0,3.39,3.39,0,0,1,1.36,1.32,3.89,3.89,0,0,1,.5,2v.23a4,4,0,0,1-.5,2,3.39,3.39,0,0,1-1.36,1.32A4.25,4.25,0,0,1,157.64,153Zm0-1.38a2.17,2.17,0,0,0,1.65-.65,2.46,2.46,0,0,0,.64-1.81V149a2.51,2.51,0,0,0-.63-1.81,2.21,2.21,0,0,0-1.66-.65,2.24,2.24,0,0,0-1.65.65,2.51,2.51,0,0,0-.63,1.81v.13a2.49,2.49,0,0,0,.63,1.81A2.2,2.2,0,0,0,157.64,151.57Z"/><path class="cls-1" d="M163.4,152.74v-7.39h1.51v.87h.24a1.23,1.23,0,0,1,.58-.68,2,2,0,0,1,1-.22h.89v1.39h-.95a1.8,1.8,0,0,0-1.23.42,1.56,1.56,0,0,0-.48,1.26v4.35Z"/><path class="cls-1" d="M172,153a3.32,3.32,0,0,1-1.69-.45,3.4,3.4,0,0,1-1.26-1.29,4.22,4.22,0,0,1-.47-2.05v-.23a4.21,4.21,0,0,1,.47-2,3.24,3.24,0,0,1,1.24-1.3,3.36,3.36,0,0,1,1.71-.45,3.55,3.55,0,0,1,1.21.18,2.47,2.47,0,0,1,.8.46,2.08,2.08,0,0,1,.48.57h.24v-4.11h1.55v10.5h-1.52v-1.05h-.24a2.84,2.84,0,0,1-.86.87A3,3,0,0,1,172,153Zm.44-1.35a2.23,2.23,0,0,0,1.65-.64,2.48,2.48,0,0,0,.66-1.85V149a2.48,2.48,0,0,0-.65-1.83,2.25,2.25,0,0,0-1.66-.65,2.27,2.27,0,0,0-1.65.65,2.48,2.48,0,0,0-.65,1.83v.13a2.51,2.51,0,0,0,.65,1.85A2.26,2.26,0,0,0,172.43,151.6Z"/><path class="cls-1" d="M181.94,153a3.91,3.91,0,0,1-2-.47,3.29,3.29,0,0,1-1.31-1.33,4.09,4.09,0,0,1-.47-2V149a4.14,4.14,0,0,1,.46-2,3.29,3.29,0,0,1,1.3-1.34,3.88,3.88,0,0,1,1.93-.47,3.62,3.62,0,0,1,1.86.47,3.31,3.31,0,0,1,1.26,1.31,4.12,4.12,0,0,1,.45,2v.58h-5.69a2.15,2.15,0,0,0,.65,1.56,2.24,2.24,0,0,0,1.56.57,1.93,1.93,0,0,0,1.31-.39,2.82,2.82,0,0,0,.68-.9l1.28.66a4.73,4.73,0,0,1-.61.89,3.23,3.23,0,0,1-1,.78A3.77,3.77,0,0,1,181.94,153Zm-2.16-4.66h4.09a1.82,1.82,0,0,0-.6-1.31,2,2,0,0,0-1.41-.48,2.09,2.09,0,0,0-1.42.48A2,2,0,0,0,179.78,148.29Z"/><path class="cls-1" d="M187.31,152.74v-7.39h1.51v.87h.24a1.23,1.23,0,0,1,.58-.68,2,2,0,0,1,1-.22h.89v1.39h-.95a1.8,1.8,0,0,0-1.23.42,1.56,1.56,0,0,0-.48,1.26v4.35Z"/><path class="cls-1" d="M196,153a4.08,4.08,0,0,1-2.34-.63,2.7,2.7,0,0,1-1.14-1.9l1.44-.35a2.27,2.27,0,0,0,.4,1,1.56,1.56,0,0,0,.71.51,2.83,2.83,0,0,0,.93.15,1.92,1.92,0,0,0,1.13-.29.87.87,0,0,0,.4-.73.71.71,0,0,0-.38-.66,3.72,3.72,0,0,0-1.11-.35l-.51-.09a6.57,6.57,0,0,1-1.36-.39,2.4,2.4,0,0,1-1-.7,1.81,1.81,0,0,1-.36-1.16,1.89,1.89,0,0,1,.78-1.62,3.37,3.37,0,0,1,2.07-.58,3.54,3.54,0,0,1,2.05.56,2.59,2.59,0,0,1,1,1.52l-1.44.41a1.37,1.37,0,0,0-.57-.95,1.93,1.93,0,0,0-1.08-.28,1.86,1.86,0,0,0-1,.23.74.74,0,0,0-.36.65.72.72,0,0,0,.35.66,2.91,2.91,0,0,0,1,.32l.52.09a8.41,8.41,0,0,1,1.46.37,2.44,2.44,0,0,1,1,.69,1.82,1.82,0,0,1,.38,1.2,2,2,0,0,1-.82,1.73A3.63,3.63,0,0,1,196,153Z"/><path class="cls-1" d="M207.42,152.74a1.42,1.42,0,0,1-1.07-.4,1.46,1.46,0,0,1-.4-1.08v-4.61h-2v-1.3h2V142.9h1.55v2.45h2.2v1.3h-2.2V151q0,.45.42.45h1.54v1.3Z"/><path class="cls-1" d="M214.71,153a4.18,4.18,0,0,1-2-.45,3.39,3.39,0,0,1-1.36-1.32,4,4,0,0,1-.49-2v-.23a3.89,3.89,0,0,1,.49-2,3.39,3.39,0,0,1,1.36-1.32,4.06,4.06,0,0,1,2-.46,4.13,4.13,0,0,1,2,.46,3.41,3.41,0,0,1,1.37,1.32,3.89,3.89,0,0,1,.49,2v.23a4,4,0,0,1-.49,2,3.41,3.41,0,0,1-1.37,1.32A4.25,4.25,0,0,1,214.71,153Zm0-1.38a2.21,2.21,0,0,0,1.66-.65,2.5,2.5,0,0,0,.64-1.81V149a2.51,2.51,0,0,0-.63-1.81,2.24,2.24,0,0,0-1.67-.65,2.2,2.2,0,0,0-1.64.65,2.47,2.47,0,0,0-.64,1.81v.13a2.46,2.46,0,0,0,.64,1.81A2.16,2.16,0,0,0,214.71,151.57Z"/><path class="cls-1" d="M223.94,149.08v-.22a3.92,3.92,0,0,1,.47-2,3.32,3.32,0,0,1,1.25-1.27,3.36,3.36,0,0,1,1.71-.45,2.65,2.65,0,0,1,2.51,1.27h.24v-1.06h1.5v8.91a1.5,1.5,0,0,1-.4,1.08,1.46,1.46,0,0,1-1.09.4h-5v-1.35h4.5a.39.39,0,0,0,.44-.45v-2.35h-.24a2.82,2.82,0,0,1-.47.55,2.24,2.24,0,0,1-.79.47,3.82,3.82,0,0,1-2.94-.26,3.28,3.28,0,0,1-1.25-1.28A4,4,0,0,1,223.94,149.08Zm3.85,2.36a2.27,2.27,0,0,0,1.66-.64,2.36,2.36,0,0,0,.65-1.76v-.14a2.37,2.37,0,0,0-.64-1.77,2.29,2.29,0,0,0-1.67-.63,2.26,2.26,0,0,0-1.64.63,2.3,2.3,0,0,0-.65,1.77V149a2.32,2.32,0,0,0,.65,1.76A2.22,2.22,0,0,0,227.79,151.44Z"/><path class="cls-1" d="M237.36,153a4.18,4.18,0,0,1-2-.45,3.39,3.39,0,0,1-1.36-1.32,4,4,0,0,1-.49-2v-.23a3.89,3.89,0,0,1,.49-2,3.39,3.39,0,0,1,1.36-1.32,4.06,4.06,0,0,1,2-.46,4.13,4.13,0,0,1,2,.46,3.41,3.41,0,0,1,1.37,1.32,3.89,3.89,0,0,1,.49,2v.23a4,4,0,0,1-.49,2,3.41,3.41,0,0,1-1.37,1.32A4.25,4.25,0,0,1,237.36,153Zm0-1.38a2.21,2.21,0,0,0,1.66-.65,2.5,2.5,0,0,0,.64-1.81V149a2.47,2.47,0,0,0-.64-1.81,2.42,2.42,0,0,0-3.3,0,2.47,2.47,0,0,0-.64,1.81v.13a2.46,2.46,0,0,0,.64,1.81A2.16,2.16,0,0,0,237.36,151.57Z"/><path class="cls-1" d="M87.51,170.74v-6.09H85.44v-1.3h2.07v-1.62A1.41,1.41,0,0,1,89,160.24h1.9v1.31H89.49c-.29,0-.43.15-.43.45v1.35h2.13v1.3H89.06v6.09Z"/><path class="cls-1" d="M95.93,171a4.25,4.25,0,0,1-2-.45,3.43,3.43,0,0,1-1.35-1.32,4,4,0,0,1-.5-2v-.23a3.89,3.89,0,0,1,.5-2A3.43,3.43,0,0,1,94,163.6a4.49,4.49,0,0,1,4,0,3.39,3.39,0,0,1,1.36,1.32,3.89,3.89,0,0,1,.5,2v.23a4,4,0,0,1-.5,2,3.39,3.39,0,0,1-1.36,1.32A4.25,4.25,0,0,1,95.93,171Zm0-1.38a2.21,2.21,0,0,0,1.66-.65,2.49,2.49,0,0,0,.63-1.81V167a2.51,2.51,0,0,0-.63-1.81,2.21,2.21,0,0,0-1.66-.65,2.24,2.24,0,0,0-1.65.65,2.51,2.51,0,0,0-.63,1.81v.13a2.49,2.49,0,0,0,.63,1.81A2.2,2.2,0,0,0,95.93,169.57Z"/><path class="cls-1" d="M101.69,170.74v-7.39h1.51v.87h.24a1.23,1.23,0,0,1,.58-.68,2,2,0,0,1,1-.22h.89v1.39h-1a1.8,1.8,0,0,0-1.23.42,1.56,1.56,0,0,0-.48,1.26v4.35Z"/><path class="cls-1" d="M108.3,170.74,107,163.35h1.55l.93,6.36h.24l1.29-6.36h2.5l1.28,6.36h.24l.93-6.36h1.54l-1.26,7.39h-2.59l-1.28-6.34h-.24l-1.27,6.34Z"/><path class="cls-1" d="M121.61,171a3.53,3.53,0,0,1-1.42-.27,2.23,2.23,0,0,1-1-.79,2.15,2.15,0,0,1-.37-1.28,2,2,0,0,1,.37-1.26,2.2,2.2,0,0,1,1-.76,3.9,3.9,0,0,1,1.45-.26h2.25v-.48a1.39,1.39,0,0,0-.39-1,1.63,1.63,0,0,0-1.2-.39,1.75,1.75,0,0,0-1.21.37,1.82,1.82,0,0,0-.56,1l-1.44-.47a3,3,0,0,1,.58-1.08,2.79,2.79,0,0,1,1.06-.79,3.82,3.82,0,0,1,1.59-.3,3.27,3.27,0,0,1,2.26.73,2.66,2.66,0,0,1,.83,2.09v3q0,.45.42.45h.63v1.29h-1.16a1.29,1.29,0,0,1-.85-.27.89.89,0,0,1-.33-.73v-.05h-.23a3.56,3.56,0,0,1-.36.53,2,2,0,0,1-.7.52A3,3,0,0,1,121.61,171Zm.22-1.27a2.13,2.13,0,0,0,1.5-.53,1.93,1.93,0,0,0,.57-1.47v-.15h-2.16a1.66,1.66,0,0,0-1,.27.87.87,0,0,0-.37.77,1,1,0,0,0,.39.81A1.69,1.69,0,0,0,121.83,169.68Z"/><path class="cls-1" d="M128,170.74v-7.39h1.51v.87h.24a1.23,1.23,0,0,1,.58-.68,2,2,0,0,1,1-.22h.89v1.39h-.95a1.8,1.8,0,0,0-1.23.42,1.56,1.56,0,0,0-.48,1.26v4.35Z"/><path class="cls-1" d="M136.56,171a3.32,3.32,0,0,1-1.69-.45,3.4,3.4,0,0,1-1.26-1.29,4.22,4.22,0,0,1-.47-2.05v-.23a4.21,4.21,0,0,1,.47-2,3.24,3.24,0,0,1,1.24-1.3,3.36,3.36,0,0,1,1.71-.45,3.55,3.55,0,0,1,1.21.18,2.47,2.47,0,0,1,.8.46,2.08,2.08,0,0,1,.48.57h.24v-4.11h1.55v10.5h-1.52v-1.05h-.24a2.84,2.84,0,0,1-.86.87A3,3,0,0,1,136.56,171Zm.44-1.35a2.23,2.23,0,0,0,1.65-.64,2.48,2.48,0,0,0,.66-1.85V167a2.48,2.48,0,0,0-.65-1.83,2.25,2.25,0,0,0-1.66-.65,2.27,2.27,0,0,0-1.65.65,2.48,2.48,0,0,0-.65,1.83v.13a2.51,2.51,0,0,0,.65,1.85A2.26,2.26,0,0,0,137,169.6Z"/><path class="cls-1" d="M146.15,171a4.08,4.08,0,0,1-2.34-.63,2.7,2.7,0,0,1-1.14-1.9l1.44-.35a2.27,2.27,0,0,0,.4,1,1.56,1.56,0,0,0,.71.51,2.83,2.83,0,0,0,.93.15,1.92,1.92,0,0,0,1.13-.29.87.87,0,0,0,.4-.73.71.71,0,0,0-.38-.66,3.72,3.72,0,0,0-1.11-.35l-.51-.09a6.57,6.57,0,0,1-1.36-.39,2.4,2.4,0,0,1-1-.7,1.81,1.81,0,0,1-.36-1.16,1.89,1.89,0,0,1,.78-1.62,3.37,3.37,0,0,1,2.07-.58,3.54,3.54,0,0,1,2,.56,2.59,2.59,0,0,1,1,1.52l-1.44.41a1.37,1.37,0,0,0-.57-.95,1.93,1.93,0,0,0-1.08-.28,1.86,1.86,0,0,0-1,.23.74.74,0,0,0-.36.65.72.72,0,0,0,.35.66,2.91,2.91,0,0,0,1,.32l.52.09a8.41,8.41,0,0,1,1.46.37,2.44,2.44,0,0,1,1,.69,1.82,1.82,0,0,1,.38,1.2,2,2,0,0,1-.82,1.73A3.63,3.63,0,0,1,146.15,171Z"/><path class="cls-1" d="M157.11,171a3.56,3.56,0,0,1-1.42-.27,2.34,2.34,0,0,1-1-.79,2.22,2.22,0,0,1-.36-1.28,2.09,2.09,0,0,1,.36-1.26,2.23,2.23,0,0,1,1-.76,3.87,3.87,0,0,1,1.45-.26h2.25v-.48a1.39,1.39,0,0,0-.39-1,1.63,1.63,0,0,0-1.2-.39,1.78,1.78,0,0,0-1.22.37,1.8,1.8,0,0,0-.55,1l-1.44-.47a3.11,3.11,0,0,1,.57-1.08,2.87,2.87,0,0,1,1.06-.79,3.82,3.82,0,0,1,1.59-.3,3.3,3.3,0,0,1,2.27.73,2.65,2.65,0,0,1,.82,2.09v3q0,.45.42.45H162v1.29h-1.15a1.32,1.32,0,0,1-.86-.27.89.89,0,0,1-.33-.73v-.05h-.22a3.56,3.56,0,0,1-.36.53,2,2,0,0,1-.71.52A3,3,0,0,1,157.11,171Zm.23-1.27a2.13,2.13,0,0,0,1.5-.53,1.93,1.93,0,0,0,.57-1.47v-.15h-2.16a1.66,1.66,0,0,0-1,.27.88.88,0,0,0-.38.77,1,1,0,0,0,.39.81A1.72,1.72,0,0,0,157.34,169.68Z"/><path class="cls-1" d="M163.47,170.74v-7.39H165v1.11h.24a2.24,2.24,0,0,1,.75-.84,2.72,2.72,0,0,1,1.6-.39,2.92,2.92,0,0,1,1.49.37,2.69,2.69,0,0,1,1,1.06,3.37,3.37,0,0,1,.38,1.64v4.44h-1.55v-4.32a1.85,1.85,0,0,0-.48-1.41,1.81,1.81,0,0,0-1.32-.46,2,2,0,0,0-1.54.63A2.64,2.64,0,0,0,165,167v3.73Z"/><path class="cls-1" d="M175.76,171a3.35,3.35,0,0,1-1.7-.45,3.3,3.3,0,0,1-1.25-1.29,4.11,4.11,0,0,1-.47-2.05v-.23a4.21,4.21,0,0,1,.46-2,3.26,3.26,0,0,1,1.25-1.3,3.36,3.36,0,0,1,1.71-.45,3.45,3.45,0,0,1,1.2.18,2.42,2.42,0,0,1,.81.46,2.08,2.08,0,0,1,.48.57h.24v-4.11H180v10.5h-1.51v-1.05h-.24a2.77,2.77,0,0,1-.87.87A2.92,2.92,0,0,1,175.76,171Zm.43-1.35a2.27,2.27,0,0,0,1.66-.64,2.51,2.51,0,0,0,.65-1.85V167a2.47,2.47,0,0,0-.64-1.83,2.27,2.27,0,0,0-1.67-.65,2.23,2.23,0,0,0-1.64.65,2.44,2.44,0,0,0-.65,1.83v.13a2.47,2.47,0,0,0,.65,1.85A2.22,2.22,0,0,0,176.19,169.6Z"/><path class="cls-1" d="M190.41,171a2.92,2.92,0,0,1-1.65-.39,2.77,2.77,0,0,1-.87-.87h-.24v1.05h-1.51v-10.5h1.54v4.11h.24a2.51,2.51,0,0,1,.48-.57,2.28,2.28,0,0,1,.8-.46,3.55,3.55,0,0,1,1.21-.18,3.36,3.36,0,0,1,1.71.45,3.26,3.26,0,0,1,1.25,1.3,4.21,4.21,0,0,1,.46,2v.23a4.11,4.11,0,0,1-.47,2.05,3.32,3.32,0,0,1-3,1.74ZM190,169.6a2.27,2.27,0,0,0,1.66-.64,2.51,2.51,0,0,0,.65-1.85V167a2.47,2.47,0,0,0-.64-1.83,2.43,2.43,0,0,0-3.31,0,2.44,2.44,0,0,0-.65,1.83v.13a2.47,2.47,0,0,0,.65,1.85A2.24,2.24,0,0,0,190,169.6Z"/><path class="cls-1" d="M198.05,171a3.56,3.56,0,0,1-1.42-.27,2.28,2.28,0,0,1-1-.79,2.15,2.15,0,0,1-.37-1.28,2,2,0,0,1,.37-1.26,2.2,2.2,0,0,1,1-.76,3.9,3.9,0,0,1,1.45-.26h2.25v-.48a1.39,1.39,0,0,0-.39-1,1.63,1.63,0,0,0-1.2-.39,1.75,1.75,0,0,0-1.21.37,1.82,1.82,0,0,0-.56,1l-1.44-.47a3,3,0,0,1,.58-1.08,2.79,2.79,0,0,1,1.06-.79,3.82,3.82,0,0,1,1.59-.3,3.27,3.27,0,0,1,2.26.73,2.66,2.66,0,0,1,.83,2.09v3q0,.45.42.45h.63v1.29h-1.16a1.29,1.29,0,0,1-.85-.27.89.89,0,0,1-.33-.73v-.05h-.23a3.56,3.56,0,0,1-.36.53,2,2,0,0,1-.7.52A3,3,0,0,1,198.05,171Zm.22-1.27a2.13,2.13,0,0,0,1.5-.53,1.93,1.93,0,0,0,.57-1.47v-.15h-2.16a1.66,1.66,0,0,0-1,.27.87.87,0,0,0-.37.77,1,1,0,0,0,.39.81A1.69,1.69,0,0,0,198.27,169.68Z"/><path class="cls-1" d="M207.66,171a4.06,4.06,0,0,1-1.92-.45,3.36,3.36,0,0,1-1.37-1.3,4.06,4.06,0,0,1-.5-2.06V167a4,4,0,0,1,.5-2,3.43,3.43,0,0,1,1.37-1.3,4.33,4.33,0,0,1,3.74-.07,3.38,3.38,0,0,1,1.21,1,3.53,3.53,0,0,1,.59,1.43l-1.5.31a2.48,2.48,0,0,0-.32-.9,1.72,1.72,0,0,0-.67-.64,2.27,2.27,0,0,0-1.1-.24,2.38,2.38,0,0,0-1.16.29,2.21,2.21,0,0,0-.82.84,2.75,2.75,0,0,0-.3,1.33v.13a2.79,2.79,0,0,0,.3,1.34,2.07,2.07,0,0,0,.82.84,2.37,2.37,0,0,0,1.16.28,2,2,0,0,0,1.49-.5,2.27,2.27,0,0,0,.64-1.28l1.5.34a4.07,4.07,0,0,1-.63,1.41,3.28,3.28,0,0,1-1.21,1A3.92,3.92,0,0,1,207.66,171Z"/><path class="cls-1" d="M213.11,170.74v-10.5h1.54v6h.24l2.91-2.88h2.06l-3.74,3.58,3.86,3.81h-2l-3.05-3.07h-.24v3.07Z"/><path class="cls-1" d="M222.18,170.74l-1.26-7.39h1.55l.93,6.36h.24l1.29-6.36h2.5l1.28,6.36H229l.93-6.36h1.54l-1.26,7.39h-2.59l-1.28-6.34h-.24l-1.27,6.34Z"/><path class="cls-1" d="M235.49,171a3.56,3.56,0,0,1-1.42-.27,2.34,2.34,0,0,1-1-.79,2.22,2.22,0,0,1-.37-1.28,2.09,2.09,0,0,1,.37-1.26,2.23,2.23,0,0,1,1-.76,3.81,3.81,0,0,1,1.44-.26h2.25v-.48a1.39,1.39,0,0,0-.39-1,1.63,1.63,0,0,0-1.2-.39,1.75,1.75,0,0,0-1.21.37,1.82,1.82,0,0,0-.56,1l-1.44-.47a3.14,3.14,0,0,1,.58-1.08,2.87,2.87,0,0,1,1.06-.79,3.82,3.82,0,0,1,1.59-.3,3.27,3.27,0,0,1,2.26.73,2.66,2.66,0,0,1,.83,2.09v3q0,.45.42.45h.63v1.29h-1.16a1.29,1.29,0,0,1-.85-.27.89.89,0,0,1-.33-.73v-.05h-.23a3.56,3.56,0,0,1-.36.53,2,2,0,0,1-.7.52A3,3,0,0,1,235.49,171Zm.22-1.27a2.13,2.13,0,0,0,1.5-.53,1.93,1.93,0,0,0,.57-1.47v-.15h-2.16a1.66,1.66,0,0,0-1,.27.87.87,0,0,0-.37.77,1,1,0,0,0,.39.81A1.69,1.69,0,0,0,235.71,169.68Z"/><path class="cls-1" d="M241.85,170.74v-7.39h1.51v.87h.24a1.27,1.27,0,0,1,.58-.68,2,2,0,0,1,1-.22h.89v1.39h-1a1.8,1.8,0,0,0-1.23.42,1.56,1.56,0,0,0-.48,1.26v4.35Z"/><path class="cls-1" d="M250.44,171a3.32,3.32,0,0,1-2.94-1.74,4.12,4.12,0,0,1-.48-2.05v-.23a4.21,4.21,0,0,1,.47-2,3.24,3.24,0,0,1,1.24-1.3,3.36,3.36,0,0,1,1.71-.45,3.55,3.55,0,0,1,1.21.18,2.47,2.47,0,0,1,.8.46,2.08,2.08,0,0,1,.48.57h.24v-4.11h1.55v10.5H253.2v-1.05H253a2.84,2.84,0,0,1-.86.87A3,3,0,0,1,250.44,171Zm.44-1.35a2.27,2.27,0,0,0,1.66-.64,2.51,2.51,0,0,0,.65-1.85V167a2.48,2.48,0,0,0-.65-1.83,2.25,2.25,0,0,0-1.66-.65,2.27,2.27,0,0,0-1.65.65,2.48,2.48,0,0,0-.65,1.83v.13a2.51,2.51,0,0,0,.65,1.85A2.26,2.26,0,0,0,250.88,169.6Z"/><path class="cls-1" d="M260,171a4.08,4.08,0,0,1-2.34-.63,2.7,2.7,0,0,1-1.14-1.9l1.44-.35a2.27,2.27,0,0,0,.4,1,1.56,1.56,0,0,0,.71.51,2.83,2.83,0,0,0,.93.15,1.92,1.92,0,0,0,1.13-.29.85.85,0,0,0,.4-.73.71.71,0,0,0-.38-.66,3.72,3.72,0,0,0-1.11-.35l-.51-.09a6.57,6.57,0,0,1-1.36-.39,2.4,2.4,0,0,1-1-.7,1.81,1.81,0,0,1-.36-1.16,1.89,1.89,0,0,1,.78-1.62,3.37,3.37,0,0,1,2.07-.58,3.54,3.54,0,0,1,2.05.56,2.54,2.54,0,0,1,1,1.52l-1.44.41a1.37,1.37,0,0,0-.57-.95,1.93,1.93,0,0,0-1.08-.28,1.86,1.86,0,0,0-1,.23.74.74,0,0,0-.36.65.71.71,0,0,0,.36.66,2.77,2.77,0,0,0,.95.32l.52.09a8.41,8.41,0,0,1,1.46.37,2.44,2.44,0,0,1,1,.69,1.76,1.76,0,0,1,.38,1.2,2,2,0,0,1-.82,1.73A3.63,3.63,0,0,1,260,171Z"/></svg>