<?xml version="1.0" encoding="utf-8"?>
<!-- Generator: Adobe Illustrator 26.1.0, SVG Export Plug-In . SVG Version: 6.00 Build 0)  -->
<svg version="1.1" id="Layer_1" xmlns="http://www.w3.org/2000/svg" xmlns:xlink="http://www.w3.org/1999/xlink" x="0px" y="0px"
	 viewBox="0 0 128 128" style="enable-background:new 0 0 128 128;" xml:space="preserve">
<style type="text/css">
	.st0{fill:none;}
	.st1{fill:none;stroke:#FFFFFF;stroke-width:2;stroke-linecap:round;stroke-miterlimit:10;}
	.st2{fill:none;stroke:#FFFFFF;stroke-width:2;stroke-linecap:round;stroke-miterlimit:10;stroke-dasharray:3.9719,3.9719;}
	.st3{fill:#FFFFFF;}
	.st4{fill:#231F20;}
</style>
<desc>Created with Fabric.js 4.6.0</desc>
<g id="MMd6cTDmpkhJjeizdrSAu" transform="matrix(1.35 0.44 -0.44 1.35 63.13 59.11)">
	<path vector-effect="non-scaling-stroke" d="M81.7-66.9C74.8-53,84.5-6.8,69.2,8.9c26.5-10.7,32.1,13.7,54.7-2.6
		c8-17.9-2.9-48.1,9.8-75.6C110.8-63.4,104.5-79.9,81.7-66.9L81.7-66.9z"/>
</g>
<g>
	<path class="st0" d="M22.7,101.9"/>
</g>
<g>
	<g>
		<path class="st1" d="M249.3,27.8c-0.7,0.1-1.3,0.2-2,0.3"/>
		<path class="st2" d="M243.5,29.2c-6,2.5-10.9,7.6-13.8,13.5c-1,2.1-1.9,4.4-2.1,6.7c-0.2,2.4,0.2,4.9,0.5,7.3
			c0.4,4.5,0.2,9-0.8,13.3c-0.6,2.7-1.4,5.3-2.8,7.8c-3.8,7.1-11.8,11.7-19.8,11.6c-6.2-0.1-8.7-4.6-14.9-4.9
			c-4.5-0.2-9.9,0.1-13.7,2.4c-4.6,2.8-9.1,8.1-6.9,12.3"/>
		<path class="st1" d="M170.4,100.8c0.4,0.4,1,0.8,1.6,1.2"/>
	</g>
</g>
<circle class="st3" cx="252.8" cy="27.9" r="0.8"/>
<circle class="st3" cx="255.6" cy="29.2" r="0.5"/>
<path class="st4" d="M63.4,15c-13.5,29.2-27,58.4-40.5,87.6c-0.2,0.5,0.3,1.1,0.8,0.9l38.2-12.6c1.3-0.4,2.8-0.4,4.1,0l38.2,12.6
	c0.6,0.2,1.1-0.4,0.8-0.9C91.6,73.4,78.1,44.2,64.6,15C64.4,14.4,63.6,14.4,63.4,15z"/>
</svg>
