<?xml version="1.0" encoding="utf-8"?>
<!-- Generator: Adobe Illustrator 26.1.0, SVG Export Plug-In . SVG Version: 6.00 Build 0)  -->
<svg version="1.1" id="Layer_1" xmlns="http://www.w3.org/2000/svg" xmlns:xlink="http://www.w3.org/1999/xlink" x="0px" y="0px"
	 viewBox="0 0 128 128" style="enable-background:new 0 0 128 128;" xml:space="preserve">
<desc>Created with Fabric.js 4.6.0</desc>
<g>
	<g id="fA7zYjLyFZ-xv13YYnz9L" transform="matrix(0.97 0.28 -0.28 0.97 59.95 75.99)">
		<path vector-effect="non-scaling-stroke" d="M-18.6-36.3c8.2-8.2,23.9-2.9,33.4,5.9c3.9,3.6,6.8,7.8,7.7,12
			c3,14.2-14.4,62.6-29.7,64C-22.5,47-23,25.5-19.6,13.8S-30.1-24.7-18.6-36.3z"/>
	</g>
	<g id="rUjuzROH-4RfxJgTQC3sg" transform="matrix(0.8 0.06 -0.06 0.8 88.13 49.9)">
		<path vector-effect="non-scaling-stroke" d="M5.6-7.9c3.7-0.1,6.9,2.7,7,6.6c0.2,3.7-5.3,8.4-8.8,8.6C0.2,7.5-1.5,3.7-1.7-0.1
			S1.9-7.7,5.6-7.9z"/>
	</g>
	<g id="TuGEgKbgU9J3cECXZPSY9" transform="matrix(1.36 0.09 -0.09 1.36 59.21 27.13)">
		<path vector-effect="non-scaling-stroke" d="M-1.1-12.7c3.7,0,6.7,3,6.7,6.7S4.1,3,0.2,3.6C-3.5,4.2-8-2.1-8-5.9S-5-12.7-1.1-12.7
			z"/>
	</g>
	<g id="Q_Rduhdbk1iEeR1PAxGBb" transform="matrix(1 0.07 -0.07 1 77.48 36.87)">
		<path vector-effect="non-scaling-stroke" d="M2.4-12.7c3.7,0,6.7,3,6.7,6.7S4.1,4,0.4,2.7c-3.5-1.3-4.9-4.9-4.9-8.6
			S-1.4-12.7,2.4-12.7z"/>
	</g>
</g>
</svg>
