<?xml version="1.0" encoding="utf-8"?>
<!-- Generator: Adobe Illustrator 26.1.0, SVG Export Plug-In . SVG Version: 6.00 Build 0)  -->
<svg version="1.1" id="Layer_1" xmlns="http://www.w3.org/2000/svg" xmlns:xlink="http://www.w3.org/1999/xlink" x="0px" y="0px"
	 viewBox="0 0 128 128" style="enable-background:new 0 0 128 128;" xml:space="preserve">
<style type="text/css">
	.st0{fill:none;stroke:#231F20;stroke-miterlimit:10;}
	.st1{fill:#231F20;}
	.st2{fill:#231F20;stroke:#231F20;stroke-miterlimit:10;}
	.st3{fill:none;}
	.st4{stroke:#000000;stroke-width:5;stroke-miterlimit:10;}
</style>
<path class="st0" d="M205.3,64"/>
<g>
	<polygon class="st1" points="282.4,57.8 323.1,50.6 323.5,52 284.4,65.5 	"/>
</g>
<path class="st1" d="M255,63.5c-0.5-14.3-21.9-28.2-48.3-28.2c-26.7,0-48.3,14.3-48.3,28.7v4.9c0,15.5,21.7,30.9,48.3,30.9
	c26.7,0,48.3-15.4,48.3-30.9V63.5L255,63.5z M206.7,91.5c-25.5,0-46.2-13.7-46.2-27.5s20.7-27.5,46.2-27.5s46.2,13.7,46.2,27.5
	S232.2,91.5,206.7,91.5z"/>
<polygon class="st2" points="243.4,49.1 200.6,60.4 205.1,67.4 244.9,50.6 "/>
<g>
	<path class="st1" d="M200.1,52l1.7-13h1.8l4.3,5.6c1.2,1.5,2.2,3,3.1,4.6l0,0c-0.4-2-0.6-3.7-0.8-5.6l-0.4-4.5h1.6l1.7,13H211
		l-5.4-7.6c-1-1.4-1.8-2.7-2.4-3.8h-0.1c0,1.4-0.1,2.8-0.3,4.8l-0.6,6.5H200.1z"/>
</g>
<rect x="200.1" y="41.1" class="st3" width="13.2" height="10.9"/>
<g>
	<g>
		<path class="st4" d="M36.9,112V43.6h9.5l35.8,53.3V43.6H91V112h-9.5L45.7,57.9V112H36.9z"/>
	</g>
	<polygon class="st4" points="64,10.9 45.2,27.4 47.5,30.1 64,15.9 80.6,30.1 82.9,27.4 	"/>
</g>
</svg>
